<svg width="86" height="14" viewBox="0 0 86 14" fill="none" xmlns="http://www.w3.org/2000/svg">
<path d="M4.018 13.112C3.282 13.112 2.62067 12.984 2.034 12.728C1.458 12.4613 1.00467 12.0987 0.674 11.64C0.343333 11.1707 0.172667 10.632 0.162 10.024H1.714C1.76733 10.5467 1.98067 10.9893 2.354 11.352C2.738 11.704 3.29267 11.88 4.018 11.88C4.71133 11.88 5.25533 11.7093 5.65 11.368C6.05533 11.016 6.258 10.568 6.258 10.024C6.258 9.59733 6.14067 9.25067 5.906 8.984C5.67133 8.71733 5.378 8.51467 5.026 8.376C4.674 8.23733 4.19933 8.088 3.602 7.928C2.866 7.736 2.274 7.544 1.826 7.352C1.38867 7.16 1.01 6.86133 0.69 6.456C0.380667 6.04 0.226 5.48533 0.226 4.792C0.226 4.184 0.380667 3.64533 0.69 3.176C0.999333 2.70667 1.43133 2.344 1.986 2.088C2.55133 1.832 3.19667 1.704 3.922 1.704C4.96733 1.704 5.82067 1.96533 6.482 2.488C7.154 3.01067 7.53267 3.704 7.618 4.568H6.018C5.96467 4.14133 5.74067 3.768 5.346 3.448C4.95133 3.11733 4.42867 2.952 3.778 2.952C3.17 2.952 2.674 3.112 2.29 3.432C1.906 3.74133 1.714 4.17867 1.714 4.744C1.714 5.14933 1.826 5.48 2.05 5.736C2.28467 5.992 2.56733 6.18933 2.898 6.328C3.23933 6.456 3.714 6.60533 4.322 6.776C5.058 6.97867 5.65 7.18133 6.098 7.384C6.546 7.576 6.93 7.88 7.25 8.296C7.57 8.70133 7.73 9.256 7.73 9.96C7.73 10.504 7.586 11.016 7.298 11.496C7.01 11.976 6.58333 12.3653 6.018 12.664C5.45267 12.9627 4.786 13.112 4.018 13.112ZM13.6966 13.144C12.8753 13.144 12.1286 12.9573 11.4566 12.584C10.7953 12.2107 10.2726 11.6827 9.88863 11C9.51529 10.3067 9.32863 9.50667 9.32863 8.6C9.32863 7.704 9.52063 6.91467 9.90463 6.232C10.2993 5.53867 10.8326 5.01067 11.5046 4.648C12.1766 4.27467 12.9286 4.088 13.7606 4.088C14.5926 4.088 15.3446 4.27467 16.0166 4.648C16.6886 5.01067 17.2166 5.53333 17.6006 6.216C17.9953 6.89867 18.1926 7.69333 18.1926 8.6C18.1926 9.50667 17.99 10.3067 17.5846 11C17.19 11.6827 16.6513 12.2107 15.9686 12.584C15.286 12.9573 14.5286 13.144 13.6966 13.144ZM13.6966 11.864C14.2193 11.864 14.71 11.7413 15.1686 11.496C15.6273 11.2507 15.9953 10.8827 16.2726 10.392C16.5606 9.90133 16.7046 9.304 16.7046 8.6C16.7046 7.896 16.566 7.29867 16.2886 6.808C16.0113 6.31733 15.6486 5.95467 15.2006 5.72C14.7526 5.47467 14.2673 5.352 13.7446 5.352C13.2113 5.352 12.7206 5.47467 12.2726 5.72C11.8353 5.95467 11.4833 6.31733 11.2166 6.808C10.95 7.29867 10.8166 7.896 10.8166 8.6C10.8166 9.31467 10.9446 9.91733 11.2006 10.408C11.4673 10.8987 11.8193 11.2667 12.2566 11.512C12.694 11.7467 13.174 11.864 13.6966 11.864ZM21.563 5.864C21.8617 5.34133 22.299 4.91467 22.875 4.584C23.451 4.25333 24.107 4.088 24.843 4.088C25.6323 4.088 26.3417 4.27467 26.971 4.648C27.6003 5.02133 28.0963 5.54933 28.459 6.232C28.8217 6.904 29.003 7.688 29.003 8.584C29.003 9.46933 28.8217 10.2587 28.459 10.952C28.0963 11.6453 27.595 12.184 26.955 12.568C26.3257 12.952 25.6217 13.144 24.843 13.144C24.0857 13.144 23.419 12.9787 22.843 12.648C22.2777 12.3173 21.851 11.896 21.563 11.384V13H20.107V1.16H21.563V5.864ZM27.515 8.584C27.515 7.92267 27.3817 7.34667 27.115 6.856C26.8483 6.36533 26.4857 5.992 26.027 5.736C25.579 5.48 25.083 5.352 24.539 5.352C24.0057 5.352 23.5097 5.48533 23.051 5.752C22.603 6.008 22.2403 6.38667 21.963 6.888C21.6963 7.37867 21.563 7.94933 21.563 8.6C21.563 9.26133 21.6963 9.84267 21.963 10.344C22.2403 10.8347 22.603 11.2133 23.051 11.48C23.5097 11.736 24.0057 11.864 24.539 11.864C25.083 11.864 25.579 11.736 26.027 11.48C26.4857 11.2133 26.8483 10.8347 27.115 10.344C27.3817 9.84267 27.515 9.256 27.515 8.584ZM32.3755 5.656C32.6315 5.15467 32.9942 4.76533 33.4635 4.488C33.9435 4.21067 34.5248 4.072 35.2075 4.072V5.576H34.8235C33.1915 5.576 32.3755 6.46133 32.3755 8.232V13H30.9195V4.232H32.3755V5.656ZM44.8883 8.28C44.8883 8.55733 44.8723 8.85067 44.8403 9.16H37.8323C37.8856 10.024 38.1789 10.7013 38.7123 11.192C39.2563 11.672 39.9123 11.912 40.6803 11.912C41.3096 11.912 41.8323 11.768 42.2483 11.48C42.6749 11.1813 42.9736 10.7867 43.1443 10.296H44.7123C44.4776 11.1387 44.0083 11.8267 43.3043 12.36C42.6003 12.8827 41.7256 13.144 40.6803 13.144C39.8483 13.144 39.1016 12.9573 38.4403 12.584C37.7896 12.2107 37.2776 11.6827 36.9043 11C36.5309 10.3067 36.3443 9.50667 36.3443 8.6C36.3443 7.69333 36.5256 6.89867 36.8883 6.216C37.2509 5.53333 37.7576 5.01067 38.4083 4.648C39.0696 4.27467 39.8269 4.088 40.6803 4.088C41.5123 4.088 42.2483 4.26933 42.8883 4.632C43.5283 4.99467 44.0189 5.496 44.3603 6.136C44.7123 6.76533 44.8883 7.48 44.8883 8.28ZM43.3843 7.976C43.3843 7.42133 43.2616 6.94667 43.0163 6.552C42.7709 6.14667 42.4349 5.84267 42.0083 5.64C41.5923 5.42667 41.1283 5.32 40.6163 5.32C39.8803 5.32 39.2509 5.55467 38.7283 6.024C38.2163 6.49333 37.9229 7.144 37.8483 7.976H43.3843ZM61.6198 4.072C62.3024 4.072 62.9104 4.216 63.4438 4.504C63.9771 4.78133 64.3984 5.20267 64.7078 5.768C65.0171 6.33333 65.1718 7.02133 65.1718 7.832V13H63.7318V8.04C63.7318 7.16533 63.5131 6.49867 63.0758 6.04C62.6491 5.57067 62.0678 5.336 61.3318 5.336C60.5744 5.336 59.9718 5.58133 59.5238 6.072C59.0758 6.552 58.8518 7.25067 58.8518 8.168V13H57.4118V8.04C57.4118 7.16533 57.1931 6.49867 56.7558 6.04C56.3291 5.57067 55.7478 5.336 55.0118 5.336C54.2544 5.336 53.6518 5.58133 53.2038 6.072C52.7558 6.552 52.5318 7.25067 52.5318 8.168V13H51.0758V4.232H52.5318V5.496C52.8198 5.03733 53.2038 4.68533 53.6838 4.44C54.1744 4.19467 54.7131 4.072 55.2998 4.072C56.0358 4.072 56.6864 4.23733 57.2518 4.568C57.8171 4.89867 58.2384 5.384 58.5158 6.024C58.7611 5.40533 59.1664 4.92533 59.7318 4.584C60.2971 4.24267 60.9264 4.072 61.6198 4.072ZM68.3121 2.808C68.0348 2.808 67.8001 2.712 67.6081 2.52C67.4161 2.328 67.3201 2.09333 67.3201 1.816C67.3201 1.53867 67.4161 1.304 67.6081 1.112C67.8001 0.919999 68.0348 0.823999 68.3121 0.823999C68.5788 0.823999 68.8028 0.919999 68.9841 1.112C69.1761 1.304 69.2721 1.53867 69.2721 1.816C69.2721 2.09333 69.1761 2.328 68.9841 2.52C68.8028 2.712 68.5788 2.808 68.3121 2.808ZM69.0161 4.232V13H67.5601V4.232H69.0161ZM82.0416 4.072C82.7243 4.072 83.3323 4.216 83.8656 4.504C84.399 4.78133 84.8203 5.20267 85.1296 5.768C85.439 6.33333 85.5936 7.02133 85.5936 7.832V13H84.1536V8.04C84.1536 7.16533 83.935 6.49867 83.4976 6.04C83.071 5.57067 82.4896 5.336 81.7536 5.336C80.9963 5.336 80.3936 5.58133 79.9456 6.072C79.4976 6.552 79.2736 7.25067 79.2736 8.168V13H77.8336V8.04C77.8336 7.16533 77.615 6.49867 77.1776 6.04C76.751 5.57067 76.1696 5.336 75.4336 5.336C74.6763 5.336 74.0736 5.58133 73.6256 6.072C73.1776 6.552 72.9536 7.25067 72.9536 8.168V13H71.4976V4.232H72.9536V5.496C73.2416 5.03733 73.6256 4.68533 74.1056 4.44C74.5963 4.19467 75.135 4.072 75.7216 4.072C76.4576 4.072 77.1083 4.23733 77.6736 4.568C78.239 4.89867 78.6603 5.384 78.9376 6.024C79.183 5.40533 79.5883 4.92533 80.1536 4.584C80.719 4.24267 81.3483 4.072 82.0416 4.072Z" fill="white"/>
</svg>
