<svg width="309" height="70" viewBox="0 0 309 70" fill="none" xmlns="http://www.w3.org/2000/svg">
<path d="M0 25C0 11.1929 11.1929 0 25 0H284C297.807 0 309 11.1929 309 25V45C309 58.8071 297.807 70 284 70H25C11.1929 70 0 58.8071 0 45V25Z" fill="#01847F"/>
<path d="M78.032 34.624C78.032 32.992 78.4 31.528 79.136 30.232C79.872 28.92 80.872 27.896 82.136 27.16C83.416 26.424 84.832 26.056 86.384 26.056C88.208 26.056 89.8 26.496 91.16 27.376C92.52 28.256 93.512 29.504 94.136 31.12H91.52C91.056 30.112 90.384 29.336 89.504 28.792C88.64 28.248 87.6 27.976 86.384 27.976C85.216 27.976 84.168 28.248 83.24 28.792C82.312 29.336 81.584 30.112 81.056 31.12C80.528 32.112 80.264 33.28 80.264 34.624C80.264 35.952 80.528 37.12 81.056 38.128C81.584 39.12 82.312 39.888 83.24 40.432C84.168 40.976 85.216 41.248 86.384 41.248C87.6 41.248 88.64 40.984 89.504 40.456C90.384 39.912 91.056 39.136 91.52 38.128H94.136C93.512 39.728 92.52 40.968 91.16 41.848C89.8 42.712 88.208 43.144 86.384 43.144C84.832 43.144 83.416 42.784 82.136 42.064C80.872 41.328 79.872 40.312 79.136 39.016C78.4 37.72 78.032 36.256 78.032 34.624ZM104.971 43.168C103.419 43.168 102.003 42.808 100.723 42.088C99.4431 41.352 98.4271 40.336 97.6751 39.04C96.9391 37.728 96.5711 36.256 96.5711 34.624C96.5711 32.992 96.9391 31.528 97.6751 30.232C98.4271 28.92 99.4431 27.904 100.723 27.184C102.003 26.448 103.419 26.08 104.971 26.08C106.539 26.08 107.963 26.448 109.243 27.184C110.523 27.904 111.531 28.912 112.267 30.208C113.003 31.504 113.371 32.976 113.371 34.624C113.371 36.272 113.003 37.744 112.267 39.04C111.531 40.336 110.523 41.352 109.243 42.088C107.963 42.808 106.539 43.168 104.971 43.168ZM104.971 41.272C106.139 41.272 107.187 41 108.115 40.456C109.059 39.912 109.795 39.136 110.323 38.128C110.867 37.12 111.139 35.952 111.139 34.624C111.139 33.28 110.867 32.112 110.323 31.12C109.795 30.112 109.067 29.336 108.139 28.792C107.211 28.248 106.155 27.976 104.971 27.976C103.787 27.976 102.731 28.248 101.803 28.792C100.875 29.336 100.139 30.112 99.5951 31.12C99.0671 32.112 98.8031 33.28 98.8031 34.624C98.8031 35.952 99.0671 37.12 99.5951 38.128C100.139 39.136 100.875 39.912 101.803 40.456C102.747 41 103.803 41.272 104.971 41.272ZM129.406 43H127.222L118.438 29.68V43H116.254V26.248H118.438L127.222 39.544V26.248H129.406V43ZM143.425 26.272V28.048H138.865V43H136.681V28.048H132.097V26.272H143.425ZM156.002 39.28H148.706L147.362 43H145.058L151.106 26.368H153.626L159.65 43H157.346L156.002 39.28ZM155.378 37.504L152.354 29.056L149.33 37.504H155.378ZM161.47 34.624C161.47 32.992 161.838 31.528 162.574 30.232C163.31 28.92 164.31 27.896 165.574 27.16C166.854 26.424 168.27 26.056 169.822 26.056C171.646 26.056 173.238 26.496 174.598 27.376C175.958 28.256 176.95 29.504 177.574 31.12H174.958C174.494 30.112 173.822 29.336 172.942 28.792C172.078 28.248 171.038 27.976 169.822 27.976C168.654 27.976 167.606 28.248 166.678 28.792C165.75 29.336 165.022 30.112 164.494 31.12C163.966 32.112 163.702 33.28 163.702 34.624C163.702 35.952 163.966 37.12 164.494 38.128C165.022 39.12 165.75 39.888 166.678 40.432C167.606 40.976 168.654 41.248 169.822 41.248C171.038 41.248 172.078 40.984 172.942 40.456C173.822 39.912 174.494 39.136 174.958 38.128H177.574C176.95 39.728 175.958 40.968 174.598 41.848C173.238 42.712 171.646 43.144 169.822 43.144C168.27 43.144 166.854 42.784 165.574 42.064C164.31 41.328 163.31 40.312 162.574 39.016C161.838 37.72 161.47 36.256 161.47 34.624ZM191.121 26.272V28.048H186.561V43H184.377V28.048H179.793V26.272H191.121ZM217.175 26.392V43H214.991V30.616L209.471 43H207.935L202.391 30.592V43H200.207V26.392H202.559L208.703 40.12L214.847 26.392H217.175ZM223.063 28.048V33.64H229.159V35.44H223.063V41.2H229.879V43H220.879V26.248H229.879V28.048H223.063Z" fill="white"/>
</svg>
