<svg width="81" height="17" viewBox="0 0 81 17" fill="none" xmlns="http://www.w3.org/2000/svg">
<path d="M6.37194 0.848V2.032H1.52394V5.792H5.45994V6.976H1.52394V12H0.0679376V0.848H6.37194ZM11.9544 12.144C11.1331 12.144 10.3864 11.9573 9.71444 11.584C9.0531 11.2107 8.53044 10.6827 8.14644 10C7.7731 9.30667 7.58644 8.50667 7.58644 7.6C7.58644 6.704 7.77844 5.91467 8.16244 5.232C8.5571 4.53867 9.09044 4.01067 9.76244 3.648C10.4344 3.27467 11.1864 3.088 12.0184 3.088C12.8504 3.088 13.6024 3.27467 14.2744 3.648C14.9464 4.01067 15.4744 4.53333 15.8584 5.216C16.2531 5.89867 16.4504 6.69333 16.4504 7.6C16.4504 8.50667 16.2478 9.30667 15.8424 10C15.4478 10.6827 14.9091 11.2107 14.2264 11.584C13.5438 11.9573 12.7864 12.144 11.9544 12.144ZM11.9544 10.864C12.4771 10.864 12.9678 10.7413 13.4264 10.496C13.8851 10.2507 14.2531 9.88267 14.5304 9.392C14.8184 8.90133 14.9624 8.304 14.9624 7.6C14.9624 6.896 14.8238 6.29867 14.5464 5.808C14.2691 5.31733 13.9064 4.95467 13.4584 4.72C13.0104 4.47467 12.5251 4.352 12.0024 4.352C11.4691 4.352 10.9784 4.47467 10.5304 4.72C10.0931 4.95467 9.7411 5.31733 9.47444 5.808C9.20777 6.29867 9.07444 6.896 9.07444 7.6C9.07444 8.31467 9.20244 8.91733 9.45844 9.408C9.7251 9.89867 10.0771 10.2667 10.5144 10.512C10.9518 10.7467 11.4318 10.864 11.9544 10.864ZM19.8208 4.656C20.0768 4.15467 20.4395 3.76533 20.9088 3.488C21.3888 3.21067 21.9701 3.072 22.6528 3.072V4.576H22.2688C20.6368 4.576 19.8208 5.46133 19.8208 7.232V12H18.3648V3.232H19.8208V4.656ZM34.8776 3.072C35.5602 3.072 36.1682 3.216 36.7016 3.504C37.2349 3.78133 37.6562 4.20267 37.9656 4.768C38.2749 5.33333 38.4296 6.02133 38.4296 6.832V12H36.9896V7.04C36.9896 6.16533 36.7709 5.49867 36.3336 5.04C35.9069 4.57067 35.3256 4.336 34.5896 4.336C33.8322 4.336 33.2296 4.58133 32.7816 5.072C32.3336 5.552 32.1096 6.25067 32.1096 7.168V12H30.6696V7.04C30.6696 6.16533 30.4509 5.49867 30.0136 5.04C29.5869 4.57067 29.0056 4.336 28.2696 4.336C27.5122 4.336 26.9096 4.58133 26.4616 5.072C26.0136 5.552 25.7896 6.25067 25.7896 7.168V12H24.3336V3.232H25.7896V4.496C26.0776 4.03733 26.4616 3.68533 26.9416 3.44C27.4322 3.19467 27.9709 3.072 28.5576 3.072C29.2936 3.072 29.9442 3.23733 30.5096 3.568C31.0749 3.89867 31.4962 4.384 31.7736 5.024C32.0189 4.40533 32.4242 3.92533 32.9896 3.584C33.5549 3.24267 34.1842 3.072 34.8776 3.072ZM40.2739 7.584C40.2739 6.688 40.4553 5.904 40.8179 5.232C41.1806 4.54933 41.6766 4.02133 42.3059 3.648C42.9459 3.27467 43.6553 3.088 44.4339 3.088C45.2019 3.088 45.8686 3.25333 46.4339 3.584C46.9993 3.91467 47.4206 4.33067 47.6979 4.832V3.232H49.1699V12H47.6979V10.368C47.4099 10.88 46.9779 11.3067 46.4019 11.648C45.8366 11.9787 45.1753 12.144 44.4179 12.144C43.6393 12.144 42.9353 11.952 42.3059 11.568C41.6766 11.184 41.1806 10.6453 40.8179 9.952C40.4553 9.25867 40.2739 8.46933 40.2739 7.584ZM47.6979 7.6C47.6979 6.93867 47.5646 6.36267 47.2979 5.872C47.0313 5.38133 46.6686 5.008 46.2099 4.752C45.7619 4.48533 45.2659 4.352 44.7219 4.352C44.1779 4.352 43.6819 4.48 43.2339 4.736C42.7859 4.992 42.4286 5.36533 42.1619 5.856C41.8953 6.34667 41.7619 6.92267 41.7619 7.584C41.7619 8.256 41.8953 8.84267 42.1619 9.344C42.4286 9.83467 42.7859 10.2133 43.2339 10.48C43.6819 10.736 44.1779 10.864 44.7219 10.864C45.2659 10.864 45.7619 10.736 46.2099 10.48C46.6686 10.2133 47.0313 9.83467 47.2979 9.344C47.5646 8.84267 47.6979 8.26133 47.6979 7.6ZM55.3584 10.912C55.9984 10.912 56.5318 10.7627 56.9584 10.464C57.3851 10.1653 57.6784 9.73867 57.8384 9.184H59.4064C59.1931 10.016 58.7718 10.6987 58.1424 11.232C57.5238 11.7547 56.7451 12.0533 55.8064 12.128V12.928C56.4358 12.9173 56.9371 13.0507 57.3104 13.328C57.6838 13.6053 57.8704 14 57.8704 14.512C57.8704 15.0133 57.6891 15.4133 57.3264 15.712C56.9638 16.0107 56.4944 16.16 55.9184 16.16H54.0784V15.216H55.6304C55.9824 15.216 56.2384 15.1627 56.3984 15.056C56.5691 14.9493 56.6544 14.768 56.6544 14.512C56.6544 14.2667 56.5691 14.0907 56.3984 13.984C56.2384 13.8773 55.9824 13.824 55.6304 13.824H54.8304V12.112C54.0944 12.0373 53.4438 11.808 52.8784 11.424C52.3131 11.0293 51.8704 10.5067 51.5504 9.856C51.2411 9.19467 51.0864 8.44267 51.0864 7.6C51.0864 6.69333 51.2678 5.904 51.6304 5.232C51.9931 4.54933 52.4944 4.02133 53.1344 3.648C53.7851 3.27467 54.5264 3.088 55.3584 3.088C56.4358 3.088 57.3211 3.34933 58.0144 3.872C58.7184 4.39467 59.1824 5.12 59.4064 6.048H57.8384C57.6891 5.51467 57.3958 5.09333 56.9584 4.784C56.5318 4.47467 55.9984 4.32 55.3584 4.32C54.5264 4.32 53.8544 4.608 53.3424 5.184C52.8304 5.74933 52.5744 6.55467 52.5744 7.6C52.5744 8.656 52.8304 9.472 53.3424 10.048C53.8544 10.624 54.5264 10.912 55.3584 10.912ZM60.8052 7.584C60.8052 6.688 60.9865 5.904 61.3492 5.232C61.7119 4.54933 62.2079 4.02133 62.8372 3.648C63.4772 3.27467 64.1865 3.088 64.9652 3.088C65.7332 3.088 66.3999 3.25333 66.9652 3.584C67.5305 3.91467 67.9519 4.33067 68.2292 4.832V3.232H69.7012V12H68.2292V10.368C67.9412 10.88 67.5092 11.3067 66.9332 11.648C66.3679 11.9787 65.7065 12.144 64.9492 12.144C64.1705 12.144 63.4665 11.952 62.8372 11.568C62.2079 11.184 61.7119 10.6453 61.3492 9.952C60.9865 9.25867 60.8052 8.46933 60.8052 7.584ZM68.2292 7.6C68.2292 6.93867 68.0959 6.36267 67.8292 5.872C67.5625 5.38133 67.1999 5.008 66.7412 4.752C66.2932 4.48533 65.7972 4.352 65.2532 4.352C64.7092 4.352 64.2132 4.48 63.7652 4.736C63.3172 4.992 62.9599 5.36533 62.6932 5.856C62.4265 6.34667 62.2932 6.92267 62.2932 7.584C62.2932 8.256 62.4265 8.84267 62.6932 9.344C62.9599 9.83467 63.3172 10.2133 63.7652 10.48C64.2132 10.736 64.7092 10.864 65.2532 10.864C65.7972 10.864 66.2932 10.736 66.7412 10.48C67.1999 10.2133 67.5625 9.83467 67.8292 9.344C68.0959 8.84267 68.2292 8.26133 68.2292 7.6ZM63.1892 2.288C63.2639 1.744 63.4399 1.328 63.7172 1.04C64.0052 0.752 64.3625 0.608 64.7892 0.608C64.9919 0.608 65.1625 0.645333 65.3012 0.719999C65.4505 0.783999 65.6265 0.879999 65.8292 1.008C65.9785 1.11467 66.1119 1.2 66.2292 1.264C66.3465 1.31733 66.4745 1.344 66.6132 1.344C66.7945 1.344 66.9492 1.28533 67.0772 1.168C67.2052 1.05067 67.2852 0.879999 67.3172 0.655999H68.1492C68.0852 1.18933 67.9092 1.6 67.6212 1.888C67.3332 2.176 66.9759 2.32 66.5492 2.32C66.3465 2.32 66.1652 2.288 66.0052 2.224C65.8559 2.14933 65.6852 2.04267 65.4932 1.904C65.3225 1.79733 65.1839 1.71733 65.0772 1.664C64.9812 1.61067 64.8639 1.584 64.7252 1.584C64.5439 1.584 64.3892 1.64267 64.2612 1.76C64.1439 1.87733 64.0692 2.05333 64.0372 2.288H63.1892ZM75.9857 12.144C75.1644 12.144 74.4177 11.9573 73.7457 11.584C73.0844 11.2107 72.5617 10.6827 72.1777 10C71.8044 9.30667 71.6177 8.50667 71.6177 7.6C71.6177 6.704 71.8097 5.91467 72.1937 5.232C72.5884 4.53867 73.1217 4.01067 73.7937 3.648C74.4657 3.27467 75.2177 3.088 76.0497 3.088C76.8817 3.088 77.6337 3.27467 78.3057 3.648C78.9777 4.01067 79.5057 4.53333 79.8897 5.216C80.2844 5.89867 80.4817 6.69333 80.4817 7.6C80.4817 8.50667 80.279 9.30667 79.8737 10C79.479 10.6827 78.9404 11.2107 78.2577 11.584C77.575 11.9573 76.8177 12.144 75.9857 12.144ZM75.9857 10.864C76.5084 10.864 76.999 10.7413 77.4577 10.496C77.9164 10.2507 78.2844 9.88267 78.5617 9.392C78.8497 8.90133 78.9937 8.304 78.9937 7.6C78.9937 6.896 78.855 6.29867 78.5777 5.808C78.3004 5.31733 77.9377 4.95467 77.4897 4.72C77.0417 4.47467 76.5564 4.352 76.0337 4.352C75.5004 4.352 75.0097 4.47467 74.5617 4.72C74.1244 4.95467 73.7724 5.31733 73.5057 5.808C73.239 6.29867 73.1057 6.896 73.1057 7.6C73.1057 8.31467 73.2337 8.91733 73.4897 9.408C73.7564 9.89867 74.1084 10.2667 74.5457 10.512C74.983 10.7467 75.463 10.864 75.9857 10.864Z" fill="white"/>
</svg>
