<svg width="819" height="650" viewBox="0 0 819 650" fill="none" xmlns="http://www.w3.org/2000/svg">
<g opacity="0.8">
<circle cx="128.244" cy="422.418" r="93.0424" transform="rotate(57.9331 128.244 422.418)" fill="#01847F"/>
<circle cx="120.72" cy="279.127" r="93.0423" fill="#753295" fill-opacity="0.45"/>
<circle cx="214.095" cy="186.418" r="93.0423" fill="#01847F"/>
<circle cx="248.111" cy="328.483" r="93.0423" fill="#FA9F5D" fill-opacity="0.73"/>
<circle cx="334.817" cy="185.751" r="93.0423" fill="#753295" fill-opacity="0.45"/>
<circle cx="428.193" cy="93.0423" r="93.0423" fill="#01847F" fill-opacity="0.45"/>
<circle cx="462.208" cy="235.107" r="93.0423" fill="#FA9F5D" fill-opacity="0.45"/>
<circle cx="270.788" cy="439.2" r="93.0423" fill="#753295" fill-opacity="0.45"/>
<circle cx="364.164" cy="346.491" r="93.0423" fill="#01847F" fill-opacity="0.61"/>
<circle cx="512.702" cy="381.693" r="93.0424" transform="rotate(57.9331 512.702 381.693)" fill="#753295"/>
<circle cx="602.791" cy="264.973" r="93.0424" transform="rotate(57.9331 602.791 264.973)" fill="#01847F" fill-opacity="0.45"/>
<circle cx="414.039" cy="490.409" r="93.0424" transform="rotate(57.9331 414.039 490.409)" fill="#FA9F5D" fill-opacity="0.83"/>
<circle cx="732.183" cy="300.322" r="93.0424" transform="rotate(57.9331 732.183 300.322)" fill="#753295" fill-opacity="0.45"/>
<circle cx="714.175" cy="142.25" r="93.0424" transform="rotate(57.9331 714.175 142.25)" fill="#FA9F5D"/>
<circle cx="645.477" cy="421.711" r="93.0424" transform="rotate(57.9331 645.477 421.711)" fill="#FA9F5D" fill-opacity="0.45"/>
<circle cx="574.111" cy="128.244" r="93.0424" transform="rotate(57.9331 574.111 128.244)" fill="#753295" fill-opacity="0.61"/>
<circle cx="556.77" cy="521.756" r="93.0424" transform="rotate(57.9331 556.77 521.756)" fill="#01847F" fill-opacity="0.45"/>
</g>
</svg>
