<svg width="1019" height="1004" viewBox="0 0 1019 1004" fill="none" xmlns="http://www.w3.org/2000/svg">
<path fill-rule="evenodd" clip-rule="evenodd" d="M212.365 733.22C164.991 681.834 62.0643 653.01 90.5856 569.364C120.315 482.176 264.909 450.83 335.378 372.456C399.432 301.216 392.214 200.046 472.403 144.717C553.861 88.5132 659.996 75.0527 726.861 102.341C790.553 128.334 768.362 222.499 800.066 278.44C827.125 326.184 888.903 346.93 898.121 404.522C909.395 474.961 917.28 559.752 856.98 634.033C796.598 708.416 692.68 725.951 605.41 765.102C521.236 802.864 433.561 864.544 356.999 858.334C280.224 852.106 256.275 780.847 212.365 733.22Z" fill="#FA9F5D" fill-opacity="0.53"/>
<path fill-rule="evenodd" clip-rule="evenodd" d="M287.475 682.857C251.615 643.961 173.704 622.142 195.294 558.827C217.797 492.829 327.248 469.102 380.589 409.777C429.075 355.852 423.611 279.271 484.311 237.39C545.97 194.846 626.309 184.657 676.923 205.313C725.134 224.989 708.337 296.267 732.335 338.611C752.818 374.751 799.581 390.455 806.558 434.049C815.092 487.369 821.06 551.551 775.416 607.778C729.71 664.082 651.049 677.355 584.99 706.99C521.275 735.574 454.909 782.264 396.955 777.563C338.841 772.849 320.712 718.909 287.475 682.857Z" fill="#FA9F5D" fill-opacity="0.53"/>
<path fill-rule="evenodd" clip-rule="evenodd" d="M346.376 642.547C319.642 613.549 261.558 597.282 277.653 550.08C294.43 500.878 376.027 483.189 415.794 438.961C451.941 398.759 447.868 341.667 493.12 310.444C539.088 278.727 598.982 271.131 636.715 286.53C672.658 301.199 660.135 354.337 678.026 385.906C693.296 412.849 728.159 424.556 733.36 457.056C739.722 496.807 744.172 544.655 710.144 586.574C676.069 628.549 617.426 638.445 568.178 660.538C520.677 681.848 471.201 716.655 427.995 713.151C384.67 709.636 371.155 669.424 346.376 642.547Z" fill="#FA9F5D"/>
</svg>
