<svg width="40" height="11" viewBox="0 0 40 11" fill="none" xmlns="http://www.w3.org/2000/svg">
<path d="M7.1975 4.06C6.9655 3.572 6.6295 3.196 6.1895 2.932C5.7495 2.66 5.2375 2.524 4.6535 2.524C4.0695 2.524 3.5415 2.66 3.0695 2.932C2.6055 3.196 2.2375 3.58 1.9655 4.084C1.7015 4.58 1.5695 5.156 1.5695 5.812C1.5695 6.468 1.7015 7.044 1.9655 7.54C2.2375 8.036 2.6055 8.42 3.0695 8.692C3.5415 8.956 4.0695 9.088 4.6535 9.088C5.4695 9.088 6.1415 8.844 6.6695 8.356C7.1975 7.868 7.5055 7.208 7.5935 6.376H4.2575V5.488H8.7575V6.328C8.6935 7.016 8.4775 7.648 8.1095 8.224C7.7415 8.792 7.2575 9.244 6.6575 9.58C6.0575 9.908 5.3895 10.072 4.6535 10.072C3.8775 10.072 3.1695 9.892 2.5295 9.532C1.8895 9.164 1.3815 8.656 1.0055 8.008C0.6375 7.36 0.4535 6.628 0.4535 5.812C0.4535 4.996 0.6375 4.264 1.0055 3.616C1.3815 2.96 1.8895 2.452 2.5295 2.092C3.1695 1.724 3.8775 1.54 4.6535 1.54C5.5415 1.54 6.3255 1.76 7.0055 2.2C7.6935 2.64 8.1935 3.26 8.5055 4.06H7.1975ZM10.7653 2.356C10.5573 2.356 10.3813 2.284 10.2373 2.14C10.0933 1.996 10.0213 1.82 10.0213 1.612C10.0213 1.404 10.0933 1.228 10.2373 1.084C10.3813 0.94 10.5573 0.868 10.7653 0.868C10.9653 0.868 11.1333 0.94 11.2693 1.084C11.4133 1.228 11.4853 1.404 11.4853 1.612C11.4853 1.82 11.4133 1.996 11.2693 2.14C11.1333 2.284 10.9653 2.356 10.7653 2.356ZM11.2933 3.424V10H10.2013V3.424H11.2933ZM14.4865 4.324V8.2C14.4865 8.52 14.5545 8.748 14.6905 8.884C14.8265 9.012 15.0625 9.076 15.3985 9.076H16.2025V10H15.2185C14.6105 10 14.1545 9.86 13.8505 9.58C13.5465 9.3 13.3945 8.84 13.3945 8.2V4.324H12.5425V3.424H13.3945V1.768H14.4865V3.424H16.2025V4.324H14.4865ZM20.7896 3.304C21.2856 3.304 21.7336 3.412 22.1336 3.628C22.5336 3.836 22.8456 4.152 23.0696 4.576C23.3016 5 23.4176 5.516 23.4176 6.124V10H22.3376V6.28C22.3376 5.624 22.1736 5.124 21.8456 4.78C21.5176 4.428 21.0696 4.252 20.5016 4.252C19.9256 4.252 19.4656 4.432 19.1216 4.792C18.7856 5.152 18.6176 5.676 18.6176 6.364V10H17.5256V1.12H18.6176V4.36C18.8336 4.024 19.1296 3.764 19.5056 3.58C19.8896 3.396 20.3176 3.304 20.7896 3.304ZM31.0333 3.424V10H29.9413V9.028C29.7333 9.364 29.4413 9.628 29.0653 9.82C28.6973 10.004 28.2893 10.096 27.8413 10.096C27.3293 10.096 26.8693 9.992 26.4613 9.784C26.0533 9.568 25.7293 9.248 25.4893 8.824C25.2573 8.4 25.1413 7.884 25.1413 7.276V3.424H26.2213V7.132C26.2213 7.78 26.3853 8.28 26.7133 8.632C27.0413 8.976 27.4893 9.148 28.0573 9.148C28.6413 9.148 29.1013 8.968 29.4373 8.608C29.7733 8.248 29.9413 7.724 29.9413 7.036V3.424H31.0333ZM33.9691 4.648C34.1931 4.256 34.5211 3.936 34.9531 3.688C35.3851 3.44 35.8771 3.316 36.4291 3.316C37.0211 3.316 37.5531 3.456 38.0251 3.736C38.4971 4.016 38.8691 4.412 39.1411 4.924C39.4131 5.428 39.5491 6.016 39.5491 6.688C39.5491 7.352 39.4131 7.944 39.1411 8.464C38.8691 8.984 38.4931 9.388 38.0131 9.676C37.5411 9.964 37.0131 10.108 36.4291 10.108C35.8611 10.108 35.3611 9.984 34.9291 9.736C34.5051 9.488 34.1851 9.172 33.9691 8.788V10H32.8771V1.12H33.9691V4.648ZM38.4331 6.688C38.4331 6.192 38.3331 5.76 38.1331 5.392C37.9331 5.024 37.6611 4.744 37.3171 4.552C36.9811 4.36 36.6091 4.264 36.2011 4.264C35.8011 4.264 35.4291 4.364 35.0851 4.564C34.7491 4.756 34.4771 5.04 34.2691 5.416C34.0691 5.784 33.9691 6.212 33.9691 6.7C33.9691 7.196 34.0691 7.632 34.2691 8.008C34.4771 8.376 34.7491 8.66 35.0851 8.86C35.4291 9.052 35.8011 9.148 36.2011 9.148C36.6091 9.148 36.9811 9.052 37.3171 8.86C37.6611 8.66 37.9331 8.376 38.1331 8.008C38.3331 7.632 38.4331 7.192 38.4331 6.688Z" fill="white"/>
</svg>
