<svg width="548" height="56" viewBox="0 0 548 56" fill="none" xmlns="http://www.w3.org/2000/svg">
<path d="M6.556 17.154C5.544 17.154 4.63467 16.978 3.828 16.626C3.036 16.2593 2.41267 15.7607 1.958 15.13C1.50333 14.4847 1.26867 13.744 1.254 12.908H3.388C3.46133 13.6267 3.75467 14.2353 4.268 14.734C4.796 15.218 5.55867 15.46 6.556 15.46C7.50933 15.46 8.25733 15.2253 8.8 14.756C9.35733 14.272 9.636 13.656 9.636 12.908C9.636 12.3213 9.47467 11.8447 9.152 11.478C8.82933 11.1113 8.426 10.8327 7.942 10.642C7.458 10.4513 6.80533 10.246 5.984 10.026C4.972 9.762 4.158 9.498 3.542 9.234C2.94067 8.97 2.42 8.55933 1.98 8.002C1.55467 7.43 1.342 6.66733 1.342 5.714C1.342 4.878 1.55467 4.13733 1.98 3.492C2.40533 2.84667 2.99933 2.348 3.762 1.996C4.53933 1.644 5.42667 1.468 6.424 1.468C7.86133 1.468 9.03467 1.82733 9.944 2.546C10.868 3.26467 11.3887 4.218 11.506 5.406H9.306C9.23267 4.81933 8.92467 4.306 8.382 3.866C7.83933 3.41133 7.12067 3.184 6.226 3.184C5.39 3.184 4.708 3.404 4.18 3.844C3.652 4.26933 3.388 4.87067 3.388 5.648C3.388 6.20533 3.542 6.66 3.85 7.012C4.17267 7.364 4.56133 7.63533 5.016 7.826C5.48533 8.002 6.138 8.20733 6.974 8.442C7.986 8.72067 8.8 8.99933 9.416 9.278C10.032 9.542 10.56 9.96 11 10.532C11.44 11.0893 11.66 11.852 11.66 12.82C11.66 13.568 11.462 14.272 11.066 14.932C10.67 15.592 10.0833 16.1273 9.306 16.538C8.52867 16.9487 7.612 17.154 6.556 17.154ZM19.8641 17.198C18.7348 17.198 17.7081 16.9413 16.7841 16.428C15.8748 15.9147 15.1561 15.1887 14.6281 14.25C14.1148 13.2967 13.8581 12.1967 13.8581 10.95C13.8581 9.718 14.1221 8.63267 14.6501 7.694C15.1928 6.74067 15.9261 6.01467 16.8501 5.516C17.7741 5.00267 18.8081 4.746 19.9521 4.746C21.0961 4.746 22.1301 5.00267 23.0541 5.516C23.9781 6.01467 24.7041 6.73333 25.2321 7.672C25.7748 8.61067 26.0461 9.70333 26.0461 10.95C26.0461 12.1967 25.7674 13.2967 25.2101 14.25C24.6674 15.1887 23.9268 15.9147 22.9881 16.428C22.0494 16.9413 21.0081 17.198 19.8641 17.198ZM19.8641 15.438C20.5828 15.438 21.2574 15.2693 21.8881 14.932C22.5188 14.5947 23.0248 14.0887 23.4061 13.414C23.8021 12.7393 24.0001 11.918 24.0001 10.95C24.0001 9.982 23.8094 9.16067 23.4281 8.486C23.0468 7.81133 22.5481 7.31267 21.9321 6.99C21.3161 6.65267 20.6488 6.484 19.9301 6.484C19.1968 6.484 18.5221 6.65267 17.9061 6.99C17.3048 7.31267 16.8208 7.81133 16.4541 8.486C16.0874 9.16067 15.9041 9.982 15.9041 10.95C15.9041 11.9327 16.0801 12.7613 16.4321 13.436C16.7988 14.1107 17.2828 14.6167 17.8841 14.954C18.4854 15.2767 19.1454 15.438 19.8641 15.438ZM39.3704 4.944V17H37.3684V15.218C36.987 15.834 36.4517 16.318 35.7624 16.67C35.0877 17.0073 34.3397 17.176 33.5184 17.176C32.5797 17.176 31.7364 16.9853 30.9884 16.604C30.2404 16.208 29.6464 15.6213 29.2064 14.844C28.781 14.0667 28.5684 13.1207 28.5684 12.006V4.944H30.5484V11.742C30.5484 12.93 30.849 13.8467 31.4504 14.492C32.0517 15.1227 32.873 15.438 33.9144 15.438C34.985 15.438 35.8284 15.108 36.4444 14.448C37.0604 13.788 37.3684 12.8273 37.3684 11.566V4.944H39.3704ZM59.3079 4.944V17H57.3059V15.218C56.9245 15.834 56.3892 16.318 55.6999 16.67C55.0252 17.0073 54.2772 17.176 53.4559 17.176C52.5172 17.176 51.6739 16.9853 50.9259 16.604C50.1779 16.208 49.5839 15.6213 49.1439 14.844C48.7185 14.0667 48.5059 13.1207 48.5059 12.006V4.944H50.4859V11.742C50.4859 12.93 50.7865 13.8467 51.3879 14.492C51.9892 15.1227 52.8105 15.438 53.8519 15.438C54.9225 15.438 55.7659 15.108 56.3819 14.448C56.9979 13.788 57.3059 12.8273 57.3059 11.566V4.944H59.3079ZM77.1861 4.724C78.1248 4.724 78.9608 4.922 79.6941 5.318C80.4275 5.69933 81.0068 6.27867 81.4321 7.056C81.8575 7.83333 82.0701 8.77933 82.0701 9.894V17H80.0901V10.18C80.0901 8.97733 79.7895 8.06067 79.1881 7.43C78.6015 6.78467 77.8021 6.462 76.7901 6.462C75.7488 6.462 74.9201 6.79933 74.3041 7.474C73.6881 8.134 73.3801 9.09467 73.3801 10.356V17H71.4001V10.18C71.4001 8.97733 71.0995 8.06067 70.4981 7.43C69.9115 6.78467 69.1121 6.462 68.1001 6.462C67.0588 6.462 66.2301 6.79933 65.6141 7.474C64.9981 8.134 64.6901 9.09467 64.6901 10.356V17H62.6881V4.944H64.6901V6.682C65.0861 6.05133 65.6141 5.56733 66.2741 5.23C66.9488 4.89267 67.6895 4.724 68.4961 4.724C69.5081 4.724 70.4028 4.95133 71.1801 5.406C71.9575 5.86067 72.5368 6.528 72.9181 7.408C73.2555 6.55733 73.8128 5.89733 74.5901 5.428C75.3675 4.95867 76.2328 4.724 77.1861 4.724ZM84.6062 10.928C84.6062 9.696 84.8555 8.618 85.3542 7.694C85.8528 6.75533 86.5348 6.02933 87.4002 5.516C88.2802 5.00267 89.2555 4.746 90.3262 4.746C91.3822 4.746 92.2988 4.97333 93.0762 5.428C93.8535 5.88267 94.4328 6.45467 94.8142 7.144V4.944H96.8382V17H94.8142V14.756C94.4182 15.46 93.8242 16.0467 93.0322 16.516C92.2548 16.9707 91.3455 17.198 90.3042 17.198C89.2335 17.198 88.2655 16.934 87.4002 16.406C86.5348 15.878 85.8528 15.1373 85.3542 14.184C84.8555 13.2307 84.6062 12.1453 84.6062 10.928ZM94.8142 10.95C94.8142 10.0407 94.6308 9.24867 94.2642 8.574C93.8975 7.89933 93.3988 7.386 92.7682 7.034C92.1522 6.66733 91.4702 6.484 90.7222 6.484C89.9742 6.484 89.2922 6.66 88.6762 7.012C88.0602 7.364 87.5688 7.87733 87.2022 8.552C86.8355 9.22667 86.6522 10.0187 86.6522 10.928C86.6522 11.852 86.8355 12.6587 87.2022 13.348C87.5688 14.0227 88.0602 14.5433 88.6762 14.91C89.2922 15.262 89.9742 15.438 90.7222 15.438C91.4702 15.438 92.1522 15.262 92.7682 14.91C93.3988 14.5433 93.8975 14.0227 94.2642 13.348C94.6308 12.6587 94.8142 11.8593 94.8142 10.95ZM111.059 4.746C112.1 4.746 113.009 4.97333 113.787 5.428C114.579 5.88267 115.165 6.45467 115.547 7.144V4.944H117.571V17.264C117.571 18.364 117.336 19.3393 116.867 20.19C116.397 21.0553 115.723 21.73 114.843 22.214C113.977 22.698 112.965 22.94 111.807 22.94C110.223 22.94 108.903 22.566 107.847 21.818C106.791 21.07 106.167 20.0507 105.977 18.76H107.957C108.177 19.4933 108.631 20.08 109.321 20.52C110.01 20.9747 110.839 21.202 111.807 21.202C112.907 21.202 113.801 20.8573 114.491 20.168C115.195 19.4787 115.547 18.5107 115.547 17.264V14.734C115.151 15.438 114.564 16.0247 113.787 16.494C113.009 16.9633 112.1 17.198 111.059 17.198C109.988 17.198 109.013 16.934 108.133 16.406C107.267 15.878 106.585 15.1373 106.087 14.184C105.588 13.2307 105.339 12.1453 105.339 10.928C105.339 9.696 105.588 8.618 106.087 7.694C106.585 6.75533 107.267 6.02933 108.133 5.516C109.013 5.00267 109.988 4.746 111.059 4.746ZM115.547 10.95C115.547 10.0407 115.363 9.24867 114.997 8.574C114.63 7.89933 114.131 7.386 113.501 7.034C112.885 6.66733 112.203 6.484 111.455 6.484C110.707 6.484 110.025 6.66 109.409 7.012C108.793 7.364 108.301 7.87733 107.935 8.552C107.568 9.22667 107.385 10.0187 107.385 10.928C107.385 11.852 107.568 12.6587 107.935 13.348C108.301 14.0227 108.793 14.5433 109.409 14.91C110.025 15.262 110.707 15.438 111.455 15.438C112.203 15.438 112.885 15.262 113.501 14.91C114.131 14.5433 114.63 14.0227 114.997 13.348C115.363 12.6587 115.547 11.8593 115.547 10.95ZM122.956 6.902C123.308 6.21267 123.806 5.67733 124.452 5.296C125.112 4.91467 125.911 4.724 126.85 4.724V6.792H126.322C124.078 6.792 122.956 8.00933 122.956 10.444V17H120.954V4.944H122.956V6.902ZM128.413 10.928C128.413 9.696 128.662 8.618 129.161 7.694C129.659 6.75533 130.341 6.02933 131.207 5.516C132.087 5.00267 133.062 4.746 134.133 4.746C135.189 4.746 136.105 4.97333 136.883 5.428C137.66 5.88267 138.239 6.45467 138.621 7.144V4.944H140.645V17H138.621V14.756C138.225 15.46 137.631 16.0467 136.839 16.516C136.061 16.9707 135.152 17.198 134.111 17.198C133.04 17.198 132.072 16.934 131.207 16.406C130.341 15.878 129.659 15.1373 129.161 14.184C128.662 13.2307 128.413 12.1453 128.413 10.928ZM138.621 10.95C138.621 10.0407 138.437 9.24867 138.071 8.574C137.704 7.89933 137.205 7.386 136.575 7.034C135.959 6.66733 135.277 6.484 134.529 6.484C133.781 6.484 133.099 6.66 132.483 7.012C131.867 7.364 131.375 7.87733 131.009 8.552C130.642 9.22667 130.459 10.0187 130.459 10.928C130.459 11.852 130.642 12.6587 131.009 13.348C131.375 14.0227 131.867 14.5433 132.483 14.91C133.099 15.262 133.781 15.438 134.529 15.438C135.277 15.438 135.959 15.262 136.575 14.91C137.205 14.5433 137.704 14.0227 138.071 13.348C138.437 12.6587 138.621 11.8593 138.621 10.95ZM143.28 10.928C143.28 9.696 143.529 8.618 144.028 7.694C144.527 6.75533 145.209 6.02933 146.074 5.516C146.954 5.00267 147.937 4.746 149.022 4.746C149.961 4.746 150.833 4.966 151.64 5.406C152.447 5.83133 153.063 6.396 153.488 7.1V0.72H155.512V17H153.488V14.734C153.092 15.4527 152.505 16.0467 151.728 16.516C150.951 16.9707 150.041 17.198 149 17.198C147.929 17.198 146.954 16.934 146.074 16.406C145.209 15.878 144.527 15.1373 144.028 14.184C143.529 13.2307 143.28 12.1453 143.28 10.928ZM153.488 10.95C153.488 10.0407 153.305 9.24867 152.938 8.574C152.571 7.89933 152.073 7.386 151.442 7.034C150.826 6.66733 150.144 6.484 149.396 6.484C148.648 6.484 147.966 6.66 147.35 7.012C146.734 7.364 146.243 7.87733 145.876 8.552C145.509 9.22667 145.326 10.0187 145.326 10.928C145.326 11.852 145.509 12.6587 145.876 13.348C146.243 14.0227 146.734 14.5433 147.35 14.91C147.966 15.262 148.648 15.438 149.396 15.438C150.144 15.438 150.826 15.262 151.442 14.91C152.073 14.5433 152.571 14.0227 152.938 13.348C153.305 12.6587 153.488 11.8593 153.488 10.95ZM169.587 4.944V17H167.585V15.218C167.204 15.834 166.669 16.318 165.979 16.67C165.305 17.0073 164.557 17.176 163.735 17.176C162.797 17.176 161.953 16.9853 161.205 16.604C160.457 16.208 159.863 15.6213 159.423 14.844C158.998 14.0667 158.785 13.1207 158.785 12.006V4.944H160.765V11.742C160.765 12.93 161.066 13.8467 161.667 14.492C162.269 15.1227 163.09 15.438 164.131 15.438C165.202 15.438 166.045 15.108 166.661 14.448C167.277 13.788 167.585 12.8273 167.585 11.566V4.944H169.587ZM172.219 10.928C172.219 9.696 172.469 8.618 172.967 7.694C173.466 6.75533 174.148 6.02933 175.013 5.516C175.893 5.00267 176.869 4.746 177.939 4.746C178.995 4.746 179.912 4.97333 180.689 5.428C181.467 5.88267 182.046 6.45467 182.427 7.144V4.944H184.451V17H182.427V14.756C182.031 15.46 181.437 16.0467 180.645 16.516C179.868 16.9707 178.959 17.198 177.917 17.198C176.847 17.198 175.879 16.934 175.013 16.406C174.148 15.878 173.466 15.1373 172.967 14.184C172.469 13.2307 172.219 12.1453 172.219 10.928ZM182.427 10.95C182.427 10.0407 182.244 9.24867 181.877 8.574C181.511 7.89933 181.012 7.386 180.381 7.034C179.765 6.66733 179.083 6.484 178.335 6.484C177.587 6.484 176.905 6.66 176.289 7.012C175.673 7.364 175.182 7.87733 174.815 8.552C174.449 9.22667 174.265 10.0187 174.265 10.928C174.265 11.852 174.449 12.6587 174.815 13.348C175.182 14.0227 175.673 14.5433 176.289 14.91C176.905 15.262 177.587 15.438 178.335 15.438C179.083 15.438 179.765 15.262 180.381 14.91C181.012 14.5433 181.511 14.0227 181.877 13.348C182.244 12.6587 182.427 11.8593 182.427 10.95ZM193.709 4.724C195.175 4.724 196.363 5.17133 197.273 6.066C198.182 6.946 198.637 8.222 198.637 9.894V17H196.657V10.18C196.657 8.97733 196.356 8.06067 195.755 7.43C195.153 6.78467 194.332 6.462 193.291 6.462C192.235 6.462 191.391 6.792 190.761 7.452C190.145 8.112 189.837 9.07267 189.837 10.334V17H187.835V4.944H189.837V6.66C190.233 6.044 190.768 5.56733 191.443 5.23C192.132 4.89267 192.887 4.724 193.709 4.724ZM201.159 10.928C201.159 9.696 201.408 8.618 201.907 7.694C202.406 6.75533 203.088 6.02933 203.953 5.516C204.833 5.00267 205.816 4.746 206.901 4.746C207.84 4.746 208.712 4.966 209.519 5.406C210.326 5.83133 210.942 6.396 211.367 7.1V0.72H213.391V17H211.367V14.734C210.971 15.4527 210.384 16.0467 209.607 16.516C208.83 16.9707 207.92 17.198 206.879 17.198C205.808 17.198 204.833 16.934 203.953 16.406C203.088 15.878 202.406 15.1373 201.907 14.184C201.408 13.2307 201.159 12.1453 201.159 10.928ZM211.367 10.95C211.367 10.0407 211.184 9.24867 210.817 8.574C210.45 7.89933 209.952 7.386 209.321 7.034C208.705 6.66733 208.023 6.484 207.275 6.484C206.527 6.484 205.845 6.66 205.229 7.012C204.613 7.364 204.122 7.87733 203.755 8.552C203.388 9.22667 203.205 10.0187 203.205 10.928C203.205 11.852 203.388 12.6587 203.755 13.348C204.122 14.0227 204.613 14.5433 205.229 14.91C205.845 15.262 206.527 15.438 207.275 15.438C208.023 15.438 208.705 15.262 209.321 14.91C209.952 14.5433 210.45 14.0227 210.817 13.348C211.184 12.6587 211.367 11.8593 211.367 10.95ZM216.026 10.928C216.026 9.696 216.275 8.618 216.774 7.694C217.273 6.75533 217.955 6.02933 218.82 5.516C219.7 5.00267 220.675 4.746 221.746 4.746C222.802 4.746 223.719 4.97333 224.496 5.428C225.273 5.88267 225.853 6.45467 226.234 7.144V4.944H228.258V17H226.234V14.756C225.838 15.46 225.244 16.0467 224.452 16.516C223.675 16.9707 222.765 17.198 221.724 17.198C220.653 17.198 219.685 16.934 218.82 16.406C217.955 15.878 217.273 15.1373 216.774 14.184C216.275 13.2307 216.026 12.1453 216.026 10.928ZM226.234 10.95C226.234 10.0407 226.051 9.24867 225.684 8.574C225.317 7.89933 224.819 7.386 224.188 7.034C223.572 6.66733 222.89 6.484 222.142 6.484C221.394 6.484 220.712 6.66 220.096 7.012C219.48 7.364 218.989 7.87733 218.622 8.552C218.255 9.22667 218.072 10.0187 218.072 10.928C218.072 11.852 218.255 12.6587 218.622 13.348C218.989 14.0227 219.48 14.5433 220.096 14.91C220.712 15.262 221.394 15.438 222.142 15.438C222.89 15.438 223.572 15.262 224.188 14.91C224.819 14.5433 225.317 14.0227 225.684 13.348C226.051 12.6587 226.234 11.8593 226.234 10.95ZM236.759 10.928C236.759 9.696 237.008 8.618 237.507 7.694C238.005 6.75533 238.687 6.02933 239.553 5.516C240.433 5.00267 241.415 4.746 242.501 4.746C243.439 4.746 244.312 4.966 245.119 5.406C245.925 5.83133 246.541 6.396 246.967 7.1V0.72H248.991V17H246.967V14.734C246.571 15.4527 245.984 16.0467 245.207 16.516C244.429 16.9707 243.52 17.198 242.479 17.198C241.408 17.198 240.433 16.934 239.553 16.406C238.687 15.878 238.005 15.1373 237.507 14.184C237.008 13.2307 236.759 12.1453 236.759 10.928ZM246.967 10.95C246.967 10.0407 246.783 9.24867 246.417 8.574C246.05 7.89933 245.551 7.386 244.921 7.034C244.305 6.66733 243.623 6.484 242.875 6.484C242.127 6.484 241.445 6.66 240.829 7.012C240.213 7.364 239.721 7.87733 239.355 8.552C238.988 9.22667 238.805 10.0187 238.805 10.928C238.805 11.852 238.988 12.6587 239.355 13.348C239.721 14.0227 240.213 14.5433 240.829 14.91C241.445 15.262 242.127 15.438 242.875 15.438C243.623 15.438 244.305 15.262 244.921 14.91C245.551 14.5433 246.05 14.0227 246.417 13.348C246.783 12.6587 246.967 11.8593 246.967 10.95ZM263.374 10.51C263.374 10.8913 263.352 11.2947 263.308 11.72H253.672C253.745 12.908 254.148 13.8393 254.882 14.514C255.63 15.174 256.532 15.504 257.588 15.504C258.453 15.504 259.172 15.306 259.744 14.91C260.33 14.4993 260.741 13.9567 260.976 13.282H263.132C262.809 14.4407 262.164 15.3867 261.196 16.12C260.228 16.8387 259.025 17.198 257.588 17.198C256.444 17.198 255.417 16.9413 254.508 16.428C253.613 15.9147 252.909 15.1887 252.396 14.25C251.882 13.2967 251.626 12.1967 251.626 10.95C251.626 9.70333 251.875 8.61067 252.374 7.672C252.872 6.73333 253.569 6.01467 254.464 5.516C255.373 5.00267 256.414 4.746 257.588 4.746C258.732 4.746 259.744 4.99533 260.624 5.494C261.504 5.99267 262.178 6.682 262.648 7.562C263.132 8.42733 263.374 9.41 263.374 10.51ZM261.306 10.092C261.306 9.32933 261.137 8.67667 260.8 8.134C260.462 7.57667 260 7.15867 259.414 6.88C258.842 6.58667 258.204 6.44 257.5 6.44C256.488 6.44 255.622 6.76267 254.904 7.408C254.2 8.05333 253.796 8.948 253.694 10.092H261.306ZM271.134 9.322C271.134 7.826 271.471 6.484 272.146 5.296C272.82 4.09333 273.737 3.15467 274.896 2.48C276.069 1.80533 277.367 1.468 278.79 1.468C280.462 1.468 281.921 1.87133 283.168 2.678C284.414 3.48467 285.324 4.62867 285.896 6.11H283.498C283.072 5.186 282.456 4.47467 281.65 3.976C280.858 3.47733 279.904 3.228 278.79 3.228C277.719 3.228 276.758 3.47733 275.908 3.976C275.057 4.47467 274.39 5.186 273.906 6.11C273.422 7.01933 273.18 8.09 273.18 9.322C273.18 10.5393 273.422 11.61 273.906 12.534C274.39 13.4433 275.057 14.1473 275.908 14.646C276.758 15.1447 277.719 15.394 278.79 15.394C279.904 15.394 280.858 15.152 281.65 14.668C282.456 14.1693 283.072 13.458 283.498 12.534H285.896C285.324 14.0007 284.414 15.1373 283.168 15.944C281.921 16.736 280.462 17.132 278.79 17.132C277.367 17.132 276.069 16.802 274.896 16.142C273.737 15.4673 272.82 14.536 272.146 13.348C271.471 12.16 271.134 10.818 271.134 9.322ZM289.91 2.986C289.528 2.986 289.206 2.854 288.942 2.59C288.678 2.326 288.546 2.00333 288.546 1.622C288.546 1.24067 288.678 0.917999 288.942 0.653999C289.206 0.389999 289.528 0.257999 289.91 0.257999C290.276 0.257999 290.584 0.389999 290.834 0.653999C291.098 0.917999 291.23 1.24067 291.23 1.622C291.23 2.00333 291.098 2.326 290.834 2.59C290.584 2.854 290.276 2.986 289.91 2.986ZM290.878 4.944V17H288.876V4.944H290.878ZM305.29 10.51C305.29 10.8913 305.268 11.2947 305.224 11.72H295.588C295.661 12.908 296.064 13.8393 296.798 14.514C297.546 15.174 298.448 15.504 299.504 15.504C300.369 15.504 301.088 15.306 301.66 14.91C302.246 14.4993 302.657 13.9567 302.892 13.282H305.048C304.725 14.4407 304.08 15.3867 303.112 16.12C302.144 16.8387 300.941 17.198 299.504 17.198C298.36 17.198 297.333 16.9413 296.424 16.428C295.529 15.9147 294.825 15.1887 294.312 14.25C293.798 13.2967 293.542 12.1967 293.542 10.95C293.542 9.70333 293.791 8.61067 294.29 7.672C294.788 6.73333 295.485 6.01467 296.38 5.516C297.289 5.00267 298.33 4.746 299.504 4.746C300.648 4.746 301.66 4.99533 302.54 5.494C303.42 5.99267 304.094 6.682 304.564 7.562C305.048 8.42733 305.29 9.41 305.29 10.51ZM303.222 10.092C303.222 9.32933 303.053 8.67667 302.716 8.134C302.378 7.57667 301.916 7.15867 301.33 6.88C300.758 6.58667 300.12 6.44 299.416 6.44C298.404 6.44 297.538 6.76267 296.82 7.408C296.116 8.05333 295.712 8.948 295.61 10.092H303.222ZM299.438 1.996L296.38 3.866V2.282L299.438 0.455999L302.474 2.282V3.866L299.438 1.996ZM313.806 4.724C315.273 4.724 316.461 5.17133 317.37 6.066C318.28 6.946 318.734 8.222 318.734 9.894V17H316.754V10.18C316.754 8.97733 316.454 8.06067 315.852 7.43C315.251 6.78467 314.43 6.462 313.388 6.462C312.332 6.462 311.489 6.792 310.858 7.452C310.242 8.112 309.934 9.07267 309.934 10.334V17H307.932V4.944H309.934V6.66C310.33 6.044 310.866 5.56733 311.54 5.23C312.23 4.89267 312.985 4.724 313.806 4.724ZM321.257 10.95C321.257 9.70333 321.506 8.618 322.005 7.694C322.503 6.75533 323.193 6.02933 324.073 5.516C324.967 5.00267 325.987 4.746 327.131 4.746C328.612 4.746 329.829 5.10533 330.783 5.824C331.751 6.54267 332.389 7.54 332.697 8.816H330.541C330.335 8.08267 329.932 7.50333 329.331 7.078C328.744 6.65267 328.011 6.44 327.131 6.44C325.987 6.44 325.063 6.836 324.359 7.628C323.655 8.40533 323.303 9.51267 323.303 10.95C323.303 12.402 323.655 13.524 324.359 14.316C325.063 15.108 325.987 15.504 327.131 15.504C328.011 15.504 328.744 15.2987 329.331 14.888C329.917 14.4773 330.321 13.8907 330.541 13.128H332.697C332.374 14.36 331.729 15.35 330.761 16.098C329.793 16.8313 328.583 17.198 327.131 17.198C325.987 17.198 324.967 16.9413 324.073 16.428C323.193 15.9147 322.503 15.1887 322.005 14.25C321.506 13.3113 321.257 12.2113 321.257 10.95ZM336.402 2.986C336.02 2.986 335.698 2.854 335.434 2.59C335.17 2.326 335.038 2.00333 335.038 1.622C335.038 1.24067 335.17 0.917999 335.434 0.653999C335.698 0.389999 336.02 0.257999 336.402 0.257999C336.768 0.257999 337.076 0.389999 337.326 0.653999C337.59 0.917999 337.722 1.24067 337.722 1.622C337.722 2.00333 337.59 2.326 337.326 2.59C337.076 2.854 336.768 2.986 336.402 2.986ZM337.37 4.944V17H335.368V4.944H337.37ZM340.034 10.928C340.034 9.696 340.283 8.618 340.782 7.694C341.281 6.75533 341.963 6.02933 342.828 5.516C343.708 5.00267 344.683 4.746 345.754 4.746C346.81 4.746 347.727 4.97333 348.504 5.428C349.281 5.88267 349.861 6.45467 350.242 7.144V4.944H352.266V17H350.242V14.756C349.846 15.46 349.252 16.0467 348.46 16.516C347.683 16.9707 346.773 17.198 345.732 17.198C344.661 17.198 343.693 16.934 342.828 16.406C341.963 15.878 341.281 15.1373 340.782 14.184C340.283 13.2307 340.034 12.1453 340.034 10.928ZM350.242 10.95C350.242 10.0407 350.059 9.24867 349.692 8.574C349.325 7.89933 348.827 7.386 348.196 7.034C347.58 6.66733 346.898 6.484 346.15 6.484C345.402 6.484 344.72 6.66 344.104 7.012C343.488 7.364 342.997 7.87733 342.63 8.552C342.263 9.22667 342.08 10.0187 342.08 10.928C342.08 11.852 342.263 12.6587 342.63 13.348C342.997 14.0227 343.488 14.5433 344.104 14.91C344.72 15.262 345.402 15.438 346.15 15.438C346.898 15.438 347.58 15.262 348.196 14.91C348.827 14.5433 349.325 14.0227 349.692 13.348C350.059 12.6587 350.242 11.8593 350.242 10.95ZM360.766 10.928C360.766 9.696 361.016 8.618 361.514 7.694C362.013 6.75533 362.695 6.02933 363.56 5.516C364.44 5.00267 365.423 4.746 366.508 4.746C367.447 4.746 368.32 4.966 369.126 5.406C369.933 5.83133 370.549 6.396 370.974 7.1V0.72H372.998V17H370.974V14.734C370.578 15.4527 369.992 16.0467 369.214 16.516C368.437 16.9707 367.528 17.198 366.486 17.198C365.416 17.198 364.44 16.934 363.56 16.406C362.695 15.878 362.013 15.1373 361.514 14.184C361.016 13.2307 360.766 12.1453 360.766 10.928ZM370.974 10.95C370.974 10.0407 370.791 9.24867 370.424 8.574C370.058 7.89933 369.559 7.386 368.928 7.034C368.312 6.66733 367.63 6.484 366.882 6.484C366.134 6.484 365.452 6.66 364.836 7.012C364.22 7.364 363.729 7.87733 363.362 8.552C362.996 9.22667 362.812 10.0187 362.812 10.928C362.812 11.852 362.996 12.6587 363.362 13.348C363.729 14.0227 364.22 14.5433 364.836 14.91C365.452 15.262 366.134 15.438 366.882 15.438C367.63 15.438 368.312 15.262 368.928 14.91C369.559 14.5433 370.058 14.0227 370.424 13.348C370.791 12.6587 370.974 11.8593 370.974 10.95ZM375.634 10.928C375.634 9.696 375.883 8.618 376.382 7.694C376.88 6.75533 377.562 6.02933 378.428 5.516C379.308 5.00267 380.283 4.746 381.354 4.746C382.41 4.746 383.326 4.97333 384.104 5.428C384.881 5.88267 385.46 6.45467 385.842 7.144V4.944H387.866V17H385.842V14.756C385.446 15.46 384.852 16.0467 384.06 16.516C383.282 16.9707 382.373 17.198 381.332 17.198C380.261 17.198 379.293 16.934 378.428 16.406C377.562 15.878 376.88 15.1373 376.382 14.184C375.883 13.2307 375.634 12.1453 375.634 10.928ZM385.842 10.95C385.842 10.0407 385.658 9.24867 385.292 8.574C384.925 7.89933 384.426 7.386 383.796 7.034C383.18 6.66733 382.498 6.484 381.75 6.484C381.002 6.484 380.32 6.66 379.704 7.012C379.088 7.364 378.596 7.87733 378.23 8.552C377.863 9.22667 377.68 10.0187 377.68 10.928C377.68 11.852 377.863 12.6587 378.23 13.348C378.596 14.0227 379.088 14.5433 379.704 14.91C380.32 15.262 381.002 15.438 381.75 15.438C382.498 15.438 383.18 15.262 383.796 14.91C384.426 14.5433 384.925 14.0227 385.292 13.348C385.658 12.6587 385.842 11.8593 385.842 10.95ZM396.366 9.322C396.366 7.826 396.703 6.484 397.378 5.296C398.053 4.09333 398.969 3.15467 400.128 2.48C401.301 1.80533 402.599 1.468 404.022 1.468C405.694 1.468 407.153 1.87133 408.4 2.678C409.647 3.48467 410.556 4.62867 411.128 6.11H408.73C408.305 5.186 407.689 4.47467 406.882 3.976C406.09 3.47733 405.137 3.228 404.022 3.228C402.951 3.228 401.991 3.47733 401.14 3.976C400.289 4.47467 399.622 5.186 399.138 6.11C398.654 7.01933 398.412 8.09 398.412 9.322C398.412 10.5393 398.654 11.61 399.138 12.534C399.622 13.4433 400.289 14.1473 401.14 14.646C401.991 15.1447 402.951 15.394 404.022 15.394C405.137 15.394 406.09 15.152 406.882 14.668C407.689 14.1693 408.305 13.458 408.73 12.534H411.128C410.556 14.0007 409.647 15.1373 408.4 15.944C407.153 16.736 405.694 17.132 404.022 17.132C402.599 17.132 401.301 16.802 400.128 16.142C398.969 15.4673 398.053 14.536 397.378 13.348C396.703 12.16 396.366 10.818 396.366 9.322ZM419.366 17.198C418.237 17.198 417.21 16.9413 416.286 16.428C415.377 15.9147 414.658 15.1887 414.13 14.25C413.617 13.2967 413.36 12.1967 413.36 10.95C413.36 9.718 413.624 8.63267 414.152 7.694C414.695 6.74067 415.428 6.01467 416.352 5.516C417.276 5.00267 418.31 4.746 419.454 4.746C420.598 4.746 421.632 5.00267 422.556 5.516C423.48 6.01467 424.206 6.73333 424.734 7.672C425.277 8.61067 425.548 9.70333 425.548 10.95C425.548 12.1967 425.269 13.2967 424.712 14.25C424.169 15.1887 423.429 15.9147 422.49 16.428C421.551 16.9413 420.51 17.198 419.366 17.198ZM419.366 15.438C420.085 15.438 420.759 15.2693 421.39 14.932C422.021 14.5947 422.527 14.0887 422.908 13.414C423.304 12.7393 423.502 11.918 423.502 10.95C423.502 9.982 423.311 9.16067 422.93 8.486C422.549 7.81133 422.05 7.31267 421.434 6.99C420.818 6.65267 420.151 6.484 419.432 6.484C418.699 6.484 418.024 6.65267 417.408 6.99C416.807 7.31267 416.323 7.81133 415.956 8.486C415.589 9.16067 415.406 9.982 415.406 10.95C415.406 11.9327 415.582 12.7613 415.934 13.436C416.301 14.1107 416.785 14.6167 417.386 14.954C417.987 15.2767 418.647 15.438 419.366 15.438ZM442.678 4.724C443.617 4.724 444.453 4.922 445.186 5.318C445.92 5.69933 446.499 6.27867 446.924 7.056C447.35 7.83333 447.562 8.77933 447.562 9.894V17H445.582V10.18C445.582 8.97733 445.282 8.06067 444.68 7.43C444.094 6.78467 443.294 6.462 442.282 6.462C441.241 6.462 440.412 6.79933 439.796 7.474C439.18 8.134 438.872 9.09467 438.872 10.356V17H436.892V10.18C436.892 8.97733 436.592 8.06067 435.99 7.43C435.404 6.78467 434.604 6.462 433.592 6.462C432.551 6.462 431.722 6.79933 431.106 7.474C430.49 8.134 430.182 9.09467 430.182 10.356V17H428.18V4.944H430.182V6.682C430.578 6.05133 431.106 5.56733 431.766 5.23C432.441 4.89267 433.182 4.724 433.988 4.724C435 4.724 435.895 4.95133 436.672 5.406C437.45 5.86067 438.029 6.528 438.41 7.408C438.748 6.55733 439.305 5.89733 440.082 5.428C440.86 4.95867 441.725 4.724 442.678 4.724ZM452.848 7.166C453.244 6.47667 453.831 5.90467 454.608 5.45C455.4 4.98067 456.317 4.746 457.358 4.746C458.429 4.746 459.397 5.00267 460.262 5.516C461.142 6.02933 461.832 6.75533 462.33 7.694C462.829 8.618 463.078 9.696 463.078 10.928C463.078 12.1453 462.829 13.2307 462.33 14.184C461.832 15.1373 461.142 15.878 460.262 16.406C459.397 16.934 458.429 17.198 457.358 17.198C456.332 17.198 455.422 16.9707 454.63 16.516C453.853 16.0467 453.259 15.4673 452.848 14.778V22.72H450.846V4.944H452.848V7.166ZM461.032 10.928C461.032 10.0187 460.849 9.22667 460.482 8.552C460.116 7.87733 459.617 7.364 458.986 7.012C458.37 6.66 457.688 6.484 456.94 6.484C456.207 6.484 455.525 6.66733 454.894 7.034C454.278 7.386 453.78 7.90667 453.398 8.596C453.032 9.27067 452.848 10.0553 452.848 10.95C452.848 11.8593 453.032 12.6587 453.398 13.348C453.78 14.0227 454.278 14.5433 454.894 14.91C455.525 15.262 456.207 15.438 456.94 15.438C457.688 15.438 458.37 15.262 458.986 14.91C459.617 14.5433 460.116 14.0227 460.482 13.348C460.849 12.6587 461.032 11.852 461.032 10.928ZM476.406 4.944V17H474.404V15.218C474.022 15.834 473.487 16.318 472.798 16.67C472.123 17.0073 471.375 17.176 470.554 17.176C469.615 17.176 468.772 16.9853 468.024 16.604C467.276 16.208 466.682 15.6213 466.242 14.844C465.816 14.0667 465.604 13.1207 465.604 12.006V4.944H467.584V11.742C467.584 12.93 467.884 13.8467 468.486 14.492C469.087 15.1227 469.908 15.438 470.95 15.438C472.02 15.438 472.864 15.108 473.48 14.448C474.096 13.788 474.404 12.8273 474.404 11.566V4.944H476.406ZM482.228 6.594V13.7C482.228 14.2867 482.352 14.7047 482.602 14.954C482.851 15.1887 483.284 15.306 483.9 15.306H485.374V17H483.57C482.455 17 481.619 16.7433 481.062 16.23C480.504 15.7167 480.226 14.8733 480.226 13.7V6.594H478.664V4.944H480.226V1.908H482.228V4.944H485.374V6.594H482.228ZM487.051 10.928C487.051 9.696 487.301 8.618 487.799 7.694C488.298 6.75533 488.98 6.02933 489.845 5.516C490.725 5.00267 491.701 4.746 492.771 4.746C493.827 4.746 494.744 4.97333 495.521 5.428C496.299 5.88267 496.878 6.45467 497.259 7.144V4.944H499.283V17H497.259V14.756C496.863 15.46 496.269 16.0467 495.477 16.516C494.7 16.9707 493.791 17.198 492.749 17.198C491.679 17.198 490.711 16.934 489.845 16.406C488.98 15.878 488.298 15.1373 487.799 14.184C487.301 13.2307 487.051 12.1453 487.051 10.928ZM497.259 10.95C497.259 10.0407 497.076 9.24867 496.709 8.574C496.343 7.89933 495.844 7.386 495.213 7.034C494.597 6.66733 493.915 6.484 493.167 6.484C492.419 6.484 491.737 6.66 491.121 7.012C490.505 7.364 490.014 7.87733 489.647 8.552C489.281 9.22667 489.097 10.0187 489.097 10.928C489.097 11.852 489.281 12.6587 489.647 13.348C490.014 14.0227 490.505 14.5433 491.121 14.91C491.737 15.262 492.419 15.438 493.167 15.438C493.915 15.438 494.597 15.262 495.213 14.91C495.844 14.5433 496.343 14.0227 496.709 13.348C497.076 12.6587 497.259 11.8593 497.259 10.95ZM507.793 15.504C508.673 15.504 509.406 15.2987 509.993 14.888C510.579 14.4773 510.983 13.8907 511.203 13.128H513.359C513.065 14.272 512.486 15.2107 511.621 15.944C510.77 16.6627 509.699 17.0733 508.409 17.176V18.276C509.274 18.2613 509.963 18.4447 510.477 18.826C510.99 19.2073 511.247 19.75 511.247 20.454C511.247 21.1433 510.997 21.6933 510.499 22.104C510 22.5147 509.355 22.72 508.563 22.72H506.033V21.422H508.167C508.651 21.422 509.003 21.3487 509.223 21.202C509.457 21.0553 509.575 20.806 509.575 20.454C509.575 20.1167 509.457 19.8747 509.223 19.728C509.003 19.5813 508.651 19.508 508.167 19.508H507.067V17.154C506.055 17.0513 505.16 16.736 504.383 16.208C503.605 15.6653 502.997 14.9467 502.557 14.052C502.131 13.1427 501.919 12.1087 501.919 10.95C501.919 9.70333 502.168 8.618 502.667 7.694C503.165 6.75533 503.855 6.02933 504.735 5.516C505.629 5.00267 506.649 4.746 507.793 4.746C509.274 4.746 510.491 5.10533 511.445 5.824C512.413 6.54267 513.051 7.54 513.359 8.816H511.203C510.997 8.08267 510.594 7.50333 509.993 7.078C509.406 6.65267 508.673 6.44 507.793 6.44C506.649 6.44 505.725 6.836 505.021 7.628C504.317 8.40533 503.965 9.51267 503.965 10.95C503.965 12.402 504.317 13.524 505.021 14.316C505.725 15.108 506.649 15.504 507.793 15.504ZM515.282 10.928C515.282 9.696 515.531 8.618 516.03 7.694C516.529 6.75533 517.211 6.02933 518.076 5.516C518.956 5.00267 519.931 4.746 521.002 4.746C522.058 4.746 522.975 4.97333 523.752 5.428C524.529 5.88267 525.109 6.45467 525.49 7.144V4.944H527.514V17H525.49V14.756C525.094 15.46 524.5 16.0467 523.708 16.516C522.931 16.9707 522.021 17.198 520.98 17.198C519.909 17.198 518.941 16.934 518.076 16.406C517.211 15.878 516.529 15.1373 516.03 14.184C515.531 13.2307 515.282 12.1453 515.282 10.928ZM525.49 10.95C525.49 10.0407 525.307 9.24867 524.94 8.574C524.573 7.89933 524.075 7.386 523.444 7.034C522.828 6.66733 522.146 6.484 521.398 6.484C520.65 6.484 519.968 6.66 519.352 7.012C518.736 7.364 518.245 7.87733 517.878 8.552C517.511 9.22667 517.328 10.0187 517.328 10.928C517.328 11.852 517.511 12.6587 517.878 13.348C518.245 14.0227 518.736 14.5433 519.352 14.91C519.968 15.262 520.65 15.438 521.398 15.438C522.146 15.438 522.828 15.262 523.444 14.91C524.075 14.5433 524.573 14.0227 524.94 13.348C525.307 12.6587 525.49 11.8593 525.49 10.95ZM518.56 3.646C518.663 2.898 518.905 2.326 519.286 1.93C519.682 1.534 520.173 1.336 520.76 1.336C521.039 1.336 521.273 1.38733 521.464 1.49C521.669 1.578 521.911 1.71 522.19 1.886C522.395 2.03267 522.579 2.15 522.74 2.238C522.901 2.31133 523.077 2.348 523.268 2.348C523.517 2.348 523.73 2.26733 523.906 2.106C524.082 1.94467 524.192 1.71 524.236 1.402H525.38C525.292 2.13533 525.05 2.7 524.654 3.096C524.258 3.492 523.767 3.69 523.18 3.69C522.901 3.69 522.652 3.646 522.432 3.558C522.227 3.45533 521.992 3.30867 521.728 3.118C521.493 2.97133 521.303 2.86133 521.156 2.788C521.024 2.71467 520.863 2.678 520.672 2.678C520.423 2.678 520.21 2.75867 520.034 2.92C519.873 3.08133 519.77 3.32333 519.726 3.646H518.56ZM536.155 17.198C535.026 17.198 533.999 16.9413 533.075 16.428C532.166 15.9147 531.447 15.1887 530.919 14.25C530.406 13.2967 530.149 12.1967 530.149 10.95C530.149 9.718 530.413 8.63267 530.941 7.694C531.484 6.74067 532.217 6.01467 533.141 5.516C534.065 5.00267 535.099 4.746 536.243 4.746C537.387 4.746 538.421 5.00267 539.345 5.516C540.269 6.01467 540.995 6.73333 541.523 7.672C542.066 8.61067 542.337 9.70333 542.337 10.95C542.337 12.1967 542.058 13.2967 541.501 14.25C540.958 15.1887 540.218 15.9147 539.279 16.428C538.34 16.9413 537.299 17.198 536.155 17.198ZM536.155 15.438C536.874 15.438 537.548 15.2693 538.179 14.932C538.81 14.5947 539.316 14.0887 539.697 13.414C540.093 12.7393 540.291 11.918 540.291 10.95C540.291 9.982 540.1 9.16067 539.719 8.486C539.338 7.81133 538.839 7.31267 538.223 6.99C537.607 6.65267 536.94 6.484 536.221 6.484C535.488 6.484 534.813 6.65267 534.197 6.99C533.596 7.31267 533.112 7.81133 532.745 8.486C532.378 9.16067 532.195 9.982 532.195 10.95C532.195 11.9327 532.371 12.7613 532.723 13.436C533.09 14.1107 533.574 14.6167 534.175 14.954C534.776 15.2767 535.436 15.438 536.155 15.438ZM547.037 14.228L544.573 20.146H543.231L544.837 14.228H547.037ZM0.946 43.928C0.946 42.696 1.19533 41.618 1.694 40.694C2.19267 39.7553 2.87467 39.0293 3.74 38.516C4.62 38.0027 5.60267 37.746 6.688 37.746C7.72933 37.746 8.63867 37.9807 9.416 38.45C10.208 38.9047 10.7873 39.4693 11.154 40.144V37.944H13.178V55.72H11.154V47.778C10.7727 48.4527 10.186 49.0247 9.394 49.494C8.602 49.9633 7.678 50.198 6.622 50.198C5.566 50.198 4.60533 49.934 3.74 49.406C2.87467 48.878 2.19267 48.1373 1.694 47.184C1.19533 46.2307 0.946 45.1453 0.946 43.928ZM11.154 43.95C11.154 43.0407 10.9707 42.2487 10.604 41.574C10.2373 40.8993 9.73867 40.386 9.108 40.034C8.492 39.6673 7.81 39.484 7.062 39.484C6.314 39.484 5.632 39.66 5.016 40.012C4.4 40.364 3.90867 40.8773 3.542 41.552C3.17533 42.2267 2.992 43.0187 2.992 43.928C2.992 44.852 3.17533 45.6587 3.542 46.348C3.90867 47.0227 4.4 47.5433 5.016 47.91C5.632 48.262 6.314 48.438 7.062 48.438C7.81 48.438 8.492 48.262 9.108 47.91C9.73867 47.5433 10.2373 47.0227 10.604 46.348C10.9707 45.6587 11.154 44.8593 11.154 43.95ZM27.2532 37.944V50H25.2512V48.218C24.8699 48.834 24.3345 49.318 23.6452 49.67C22.9705 50.0073 22.2225 50.176 21.4012 50.176C20.4625 50.176 19.6192 49.9853 18.8712 49.604C18.1232 49.208 17.5292 48.6213 17.0892 47.844C16.6639 47.0667 16.4512 46.1207 16.4512 45.006V37.944H18.4312V44.742C18.4312 45.93 18.7319 46.8467 19.3332 47.492C19.9345 48.1227 20.7559 48.438 21.7972 48.438C22.8679 48.438 23.7112 48.108 24.3272 47.448C24.9432 46.788 25.2512 45.8273 25.2512 44.566V37.944H27.2532ZM41.6335 43.51C41.6335 43.8913 41.6115 44.2947 41.5675 44.72H31.9315C32.0048 45.908 32.4081 46.8393 33.1415 47.514C33.8895 48.174 34.7915 48.504 35.8475 48.504C36.7128 48.504 37.4315 48.306 38.0035 47.91C38.5901 47.4993 39.0008 46.9567 39.2355 46.282H41.3915C41.0688 47.4407 40.4235 48.3867 39.4555 49.12C38.4875 49.8387 37.2848 50.198 35.8475 50.198C34.7035 50.198 33.6768 49.9413 32.7675 49.428C31.8728 48.9147 31.1688 48.1887 30.6555 47.25C30.1421 46.2967 29.8855 45.1967 29.8855 43.95C29.8855 42.7033 30.1348 41.6107 30.6335 40.672C31.1321 39.7333 31.8288 39.0147 32.7235 38.516C33.6328 38.0027 34.6741 37.746 35.8475 37.746C36.9915 37.746 38.0035 37.9953 38.8835 38.494C39.7635 38.9927 40.4381 39.682 40.9075 40.562C41.3915 41.4273 41.6335 42.41 41.6335 43.51ZM39.5655 43.092C39.5655 42.3293 39.3968 41.6767 39.0595 41.134C38.7221 40.5767 38.2601 40.1587 37.6735 39.88C37.1015 39.5867 36.4635 39.44 35.7595 39.44C34.7475 39.44 33.8821 39.7627 33.1635 40.408C32.4595 41.0533 32.0561 41.948 31.9535 43.092H39.5655ZM49.3933 43.928C49.3933 42.696 49.6426 41.618 50.1413 40.694C50.6399 39.7553 51.3219 39.0293 52.1873 38.516C53.0673 38.0027 54.0426 37.746 55.1133 37.746C56.1693 37.746 57.0859 37.9733 57.8633 38.428C58.6406 38.8827 59.2199 39.4547 59.6013 40.144V37.944H61.6253V50H59.6013V47.756C59.2053 48.46 58.6113 49.0467 57.8193 49.516C57.0419 49.9707 56.1326 50.198 55.0913 50.198C54.0206 50.198 53.0526 49.934 52.1873 49.406C51.3219 48.878 50.6399 48.1373 50.1413 47.184C49.6426 46.2307 49.3933 45.1453 49.3933 43.928ZM59.6013 43.95C59.6013 43.0407 59.4179 42.2487 59.0513 41.574C58.6846 40.8993 58.1859 40.386 57.5553 40.034C56.9393 39.6673 56.2573 39.484 55.5093 39.484C54.7613 39.484 54.0793 39.66 53.4633 40.012C52.8473 40.364 52.3559 40.8773 51.9893 41.552C51.6226 42.2267 51.4393 43.0187 51.4393 43.928C51.4393 44.852 51.6226 45.6587 51.9893 46.348C52.3559 47.0227 52.8473 47.5433 53.4633 47.91C54.0793 48.262 54.7613 48.438 55.5093 48.438C56.2573 48.438 56.9393 48.262 57.5553 47.91C58.1859 47.5433 58.6846 47.0227 59.0513 46.348C59.4179 45.6587 59.6013 44.8593 59.6013 43.95ZM79.5065 37.724C80.4451 37.724 81.2811 37.922 82.0145 38.318C82.7478 38.6993 83.3271 39.2787 83.7525 40.056C84.1778 40.8333 84.3905 41.7793 84.3905 42.894V50H82.4105V43.18C82.4105 41.9773 82.1098 41.0607 81.5085 40.43C80.9218 39.7847 80.1225 39.462 79.1105 39.462C78.0691 39.462 77.2405 39.7993 76.6245 40.474C76.0085 41.134 75.7005 42.0947 75.7005 43.356V50H73.7205V43.18C73.7205 41.9773 73.4198 41.0607 72.8185 40.43C72.2318 39.7847 71.4325 39.462 70.4205 39.462C69.3791 39.462 68.5505 39.7993 67.9345 40.474C67.3185 41.134 67.0105 42.0947 67.0105 43.356V50H65.0085V37.944H67.0105V39.682C67.4065 39.0513 67.9345 38.5673 68.5945 38.23C69.2691 37.8927 70.0098 37.724 70.8165 37.724C71.8285 37.724 72.7231 37.9513 73.5005 38.406C74.2778 38.8607 74.8571 39.528 75.2385 40.408C75.5758 39.5573 76.1331 38.8973 76.9105 38.428C77.6878 37.9587 78.5531 37.724 79.5065 37.724ZM86.9265 43.928C86.9265 42.696 87.1758 41.618 87.6745 40.694C88.1731 39.7553 88.8551 39.0293 89.7205 38.516C90.6005 38.0027 91.5758 37.746 92.6465 37.746C93.7025 37.746 94.6191 37.9733 95.3965 38.428C96.1738 38.8827 96.7531 39.4547 97.1345 40.144V37.944H99.1585V50H97.1345V47.756C96.7385 48.46 96.1445 49.0467 95.3525 49.516C94.5751 49.9707 93.6658 50.198 92.6245 50.198C91.5538 50.198 90.5858 49.934 89.7205 49.406C88.8551 48.878 88.1731 48.1373 87.6745 47.184C87.1758 46.2307 86.9265 45.1453 86.9265 43.928ZM97.1345 43.95C97.1345 43.0407 96.9511 42.2487 96.5845 41.574C96.2178 40.8993 95.7191 40.386 95.0885 40.034C94.4725 39.6673 93.7905 39.484 93.0425 39.484C92.2945 39.484 91.6125 39.66 90.9965 40.012C90.3805 40.364 89.8891 40.8773 89.5225 41.552C89.1558 42.2267 88.9725 43.0187 88.9725 43.928C88.9725 44.852 89.1558 45.6587 89.5225 46.348C89.8891 47.0227 90.3805 47.5433 90.9965 47.91C91.6125 48.262 92.2945 48.438 93.0425 48.438C93.7905 48.438 94.4725 48.262 95.0885 47.91C95.7191 47.5433 96.2178 47.0227 96.5845 46.348C96.9511 45.6587 97.1345 44.8593 97.1345 43.95ZM107.659 43.928C107.659 42.696 107.908 41.618 108.407 40.694C108.906 39.7553 109.588 39.0293 110.453 38.516C111.333 38.0027 112.316 37.746 113.401 37.746C114.34 37.746 115.212 37.966 116.019 38.406C116.826 38.8313 117.442 39.396 117.867 40.1V33.72H119.891V50H117.867V47.734C117.471 48.4527 116.884 49.0467 116.107 49.516C115.33 49.9707 114.42 50.198 113.379 50.198C112.308 50.198 111.333 49.934 110.453 49.406C109.588 48.878 108.906 48.1373 108.407 47.184C107.908 46.2307 107.659 45.1453 107.659 43.928ZM117.867 43.95C117.867 43.0407 117.684 42.2487 117.317 41.574C116.95 40.8993 116.452 40.386 115.821 40.034C115.205 39.6673 114.523 39.484 113.775 39.484C113.027 39.484 112.345 39.66 111.729 40.012C111.113 40.364 110.622 40.8773 110.255 41.552C109.888 42.2267 109.705 43.0187 109.705 43.928C109.705 44.852 109.888 45.6587 110.255 46.348C110.622 47.0227 111.113 47.5433 111.729 47.91C112.345 48.262 113.027 48.438 113.775 48.438C114.523 48.438 115.205 48.262 115.821 47.91C116.452 47.5433 116.95 47.0227 117.317 46.348C117.684 45.6587 117.867 44.8593 117.867 43.95ZM134.274 43.51C134.274 43.8913 134.252 44.2947 134.208 44.72H124.572C124.645 45.908 125.049 46.8393 125.782 47.514C126.53 48.174 127.432 48.504 128.488 48.504C129.353 48.504 130.072 48.306 130.644 47.91C131.231 47.4993 131.641 46.9567 131.876 46.282H134.032C133.709 47.4407 133.064 48.3867 132.096 49.12C131.128 49.8387 129.925 50.198 128.488 50.198C127.344 50.198 126.317 49.9413 125.408 49.428C124.513 48.9147 123.809 48.1887 123.296 47.25C122.783 46.2967 122.526 45.1967 122.526 43.95C122.526 42.7033 122.775 41.6107 123.274 40.672C123.773 39.7333 124.469 39.0147 125.364 38.516C126.273 38.0027 127.315 37.746 128.488 37.746C129.632 37.746 130.644 37.9953 131.524 38.494C132.404 38.9927 133.079 39.682 133.548 40.562C134.032 41.4273 134.274 42.41 134.274 43.51ZM132.206 43.092C132.206 42.3293 132.037 41.6767 131.7 41.134C131.363 40.5767 130.901 40.1587 130.314 39.88C129.742 39.5867 129.104 39.44 128.4 39.44C127.388 39.44 126.523 39.7627 125.804 40.408C125.1 41.0533 124.697 41.948 124.594 43.092H132.206ZM141.185 50.198C140.261 50.198 139.432 50.044 138.699 49.736C137.965 49.4133 137.386 48.9733 136.961 48.416C136.535 47.844 136.301 47.1913 136.257 46.458H138.325C138.383 47.0593 138.662 47.5507 139.161 47.932C139.674 48.3133 140.341 48.504 141.163 48.504C141.925 48.504 142.527 48.3353 142.967 47.998C143.407 47.6607 143.627 47.2353 143.627 46.722C143.627 46.194 143.392 45.8053 142.923 45.556C142.453 45.292 141.727 45.0353 140.745 44.786C139.85 44.5513 139.117 44.3167 138.545 44.082C137.987 43.8327 137.503 43.4733 137.093 43.004C136.697 42.52 136.499 41.8893 136.499 41.112C136.499 40.496 136.682 39.9313 137.049 39.418C137.415 38.9047 137.936 38.5013 138.611 38.208C139.285 37.9 140.055 37.746 140.921 37.746C142.255 37.746 143.333 38.0833 144.155 38.758C144.976 39.4327 145.416 40.3567 145.475 41.53H143.473C143.429 40.8993 143.172 40.3933 142.703 40.012C142.248 39.6307 141.632 39.44 140.855 39.44C140.136 39.44 139.564 39.594 139.139 39.902C138.713 40.21 138.501 40.6133 138.501 41.112C138.501 41.508 138.625 41.838 138.875 42.102C139.139 42.3513 139.461 42.5567 139.843 42.718C140.239 42.8647 140.781 43.0333 141.471 43.224C142.336 43.4587 143.04 43.6933 143.583 43.928C144.125 44.148 144.587 44.4853 144.969 44.94C145.365 45.3947 145.57 45.9887 145.585 46.722C145.585 47.382 145.401 47.976 145.035 48.504C144.668 49.032 144.147 49.45 143.473 49.758C142.813 50.0513 142.05 50.198 141.185 50.198ZM149.445 35.986C149.063 35.986 148.741 35.854 148.477 35.59C148.213 35.326 148.081 35.0033 148.081 34.622C148.081 34.2407 148.213 33.918 148.477 33.654C148.741 33.39 149.063 33.258 149.445 33.258C149.811 33.258 150.119 33.39 150.369 33.654C150.633 33.918 150.765 34.2407 150.765 34.622C150.765 35.0033 150.633 35.326 150.369 35.59C150.119 35.854 149.811 35.986 149.445 35.986ZM150.413 37.944V50H148.411V37.944H150.413ZM158.797 37.746C159.838 37.746 160.748 37.9733 161.525 38.428C162.317 38.8827 162.904 39.4547 163.285 40.144V37.944H165.309V50.264C165.309 51.364 165.074 52.3393 164.605 53.19C164.136 54.0553 163.461 54.73 162.581 55.214C161.716 55.698 160.704 55.94 159.545 55.94C157.961 55.94 156.641 55.566 155.585 54.818C154.529 54.07 153.906 53.0507 153.715 51.76H155.695C155.915 52.4933 156.37 53.08 157.059 53.52C157.748 53.9747 158.577 54.202 159.545 54.202C160.645 54.202 161.54 53.8573 162.229 53.168C162.933 52.4787 163.285 51.5107 163.285 50.264V47.734C162.889 48.438 162.302 49.0247 161.525 49.494C160.748 49.9633 159.838 50.198 158.797 50.198C157.726 50.198 156.751 49.934 155.871 49.406C155.006 48.878 154.324 48.1373 153.825 47.184C153.326 46.2307 153.077 45.1453 153.077 43.928C153.077 42.696 153.326 41.618 153.825 40.694C154.324 39.7553 155.006 39.0293 155.871 38.516C156.751 38.0027 157.726 37.746 158.797 37.746ZM163.285 43.95C163.285 43.0407 163.102 42.2487 162.735 41.574C162.368 40.8993 161.87 40.386 161.239 40.034C160.623 39.6673 159.941 39.484 159.193 39.484C158.445 39.484 157.763 39.66 157.147 40.012C156.531 40.364 156.04 40.8773 155.673 41.552C155.306 42.2267 155.123 43.0187 155.123 43.928C155.123 44.852 155.306 45.6587 155.673 46.348C156.04 47.0227 156.531 47.5433 157.147 47.91C157.763 48.262 158.445 48.438 159.193 48.438C159.941 48.438 160.623 48.262 161.239 47.91C161.87 47.5433 162.368 47.0227 162.735 46.348C163.102 45.6587 163.285 44.8593 163.285 43.95ZM174.566 37.724C176.033 37.724 177.221 38.1713 178.13 39.066C179.039 39.946 179.494 41.222 179.494 42.894V50H177.514V43.18C177.514 41.9773 177.213 41.0607 176.612 40.43C176.011 39.7847 175.189 39.462 174.148 39.462C173.092 39.462 172.249 39.792 171.618 40.452C171.002 41.112 170.694 42.0727 170.694 43.334V50H168.692V37.944H170.694V39.66C171.09 39.044 171.625 38.5673 172.3 38.23C172.989 37.8927 173.745 37.724 174.566 37.724ZM199.63 43.51C199.63 43.8913 199.608 44.2947 199.564 44.72H189.928C190.001 45.908 190.404 46.8393 191.138 47.514C191.886 48.174 192.788 48.504 193.844 48.504C194.709 48.504 195.428 48.306 196 47.91C196.586 47.4993 196.997 46.9567 197.232 46.282H199.388C199.065 47.4407 198.42 48.3867 197.452 49.12C196.484 49.8387 195.281 50.198 193.844 50.198C192.7 50.198 191.673 49.9413 190.764 49.428C189.869 48.9147 189.165 48.1887 188.652 47.25C188.138 46.2967 187.882 45.1967 187.882 43.95C187.882 42.7033 188.131 41.6107 188.63 40.672C189.128 39.7333 189.825 39.0147 190.72 38.516C191.629 38.0027 192.67 37.746 193.844 37.746C194.988 37.746 196 37.9953 196.88 38.494C197.76 38.9927 198.434 39.682 198.904 40.562C199.388 41.4273 199.63 42.41 199.63 43.51ZM197.562 43.092C197.562 42.3293 197.393 41.6767 197.056 41.134C196.718 40.5767 196.256 40.1587 195.67 39.88C195.098 39.5867 194.46 39.44 193.756 39.44C192.744 39.44 191.878 39.7627 191.16 40.408C190.456 41.0533 190.052 41.948 189.95 43.092H197.562ZM219.137 43.51C219.137 43.8913 219.115 44.2947 219.071 44.72H209.435C209.509 45.908 209.912 46.8393 210.645 47.514C211.393 48.174 212.295 48.504 213.351 48.504C214.217 48.504 214.935 48.306 215.507 47.91C216.094 47.4993 216.505 46.9567 216.739 46.282H218.895C218.573 47.4407 217.927 48.3867 216.959 49.12C215.991 49.8387 214.789 50.198 213.351 50.198C212.207 50.198 211.181 49.9413 210.271 49.428C209.377 48.9147 208.673 48.1887 208.159 47.25C207.646 46.2967 207.389 45.1967 207.389 43.95C207.389 42.7033 207.639 41.6107 208.137 40.672C208.636 39.7333 209.333 39.0147 210.227 38.516C211.137 38.0027 212.178 37.746 213.351 37.746C214.495 37.746 215.507 37.9953 216.387 38.494C217.267 38.9927 217.942 39.682 218.411 40.562C218.895 41.4273 219.137 42.41 219.137 43.51ZM217.069 43.092C217.069 42.3293 216.901 41.6767 216.563 41.134C216.226 40.5767 215.764 40.1587 215.177 39.88C214.605 39.5867 213.967 39.44 213.263 39.44C212.251 39.44 211.386 39.7627 210.667 40.408C209.963 41.0533 209.56 41.948 209.457 43.092H217.069ZM226.048 50.198C225.124 50.198 224.295 50.044 223.562 49.736C222.829 49.4133 222.249 48.9733 221.824 48.416C221.399 47.844 221.164 47.1913 221.12 46.458H223.188C223.247 47.0593 223.525 47.5507 224.024 47.932C224.537 48.3133 225.205 48.504 226.026 48.504C226.789 48.504 227.39 48.3353 227.83 47.998C228.27 47.6607 228.49 47.2353 228.49 46.722C228.49 46.194 228.255 45.8053 227.786 45.556C227.317 45.292 226.591 45.0353 225.608 44.786C224.713 44.5513 223.98 44.3167 223.408 44.082C222.851 43.8327 222.367 43.4733 221.956 43.004C221.56 42.52 221.362 41.8893 221.362 41.112C221.362 40.496 221.545 39.9313 221.912 39.418C222.279 38.9047 222.799 38.5013 223.474 38.208C224.149 37.9 224.919 37.746 225.784 37.746C227.119 37.746 228.197 38.0833 229.018 38.758C229.839 39.4327 230.279 40.3567 230.338 41.53H228.336C228.292 40.8993 228.035 40.3933 227.566 40.012C227.111 39.6307 226.495 39.44 225.718 39.44C224.999 39.44 224.427 39.594 224.002 39.902C223.577 40.21 223.364 40.6133 223.364 41.112C223.364 41.508 223.489 41.838 223.738 42.102C224.002 42.3513 224.325 42.5567 224.706 42.718C225.102 42.8647 225.645 43.0333 226.334 43.224C227.199 43.4587 227.903 43.6933 228.446 43.928C228.989 44.148 229.451 44.4853 229.832 44.94C230.228 45.3947 230.433 45.9887 230.448 46.722C230.448 47.382 230.265 47.976 229.898 48.504C229.531 49.032 229.011 49.45 228.336 49.758C227.676 50.0513 226.913 50.198 226.048 50.198ZM237.542 50.198C236.618 50.198 235.789 50.044 235.056 49.736C234.323 49.4133 233.743 48.9733 233.318 48.416C232.893 47.844 232.658 47.1913 232.614 46.458H234.682C234.741 47.0593 235.019 47.5507 235.518 47.932C236.031 48.3133 236.699 48.504 237.52 48.504C238.283 48.504 238.884 48.3353 239.324 47.998C239.764 47.6607 239.984 47.2353 239.984 46.722C239.984 46.194 239.749 45.8053 239.28 45.556C238.811 45.292 238.085 45.0353 237.102 44.786C236.207 44.5513 235.474 44.3167 234.902 44.082C234.345 43.8327 233.861 43.4733 233.45 43.004C233.054 42.52 232.856 41.8893 232.856 41.112C232.856 40.496 233.039 39.9313 233.406 39.418C233.773 38.9047 234.293 38.5013 234.968 38.208C235.643 37.9 236.413 37.746 237.278 37.746C238.613 37.746 239.691 38.0833 240.512 38.758C241.333 39.4327 241.773 40.3567 241.832 41.53H239.83C239.786 40.8993 239.529 40.3933 239.06 40.012C238.605 39.6307 237.989 39.44 237.212 39.44C236.493 39.44 235.921 39.594 235.496 39.902C235.071 40.21 234.858 40.6133 234.858 41.112C234.858 41.508 234.983 41.838 235.232 42.102C235.496 42.3513 235.819 42.5567 236.2 42.718C236.596 42.8647 237.139 43.0333 237.828 43.224C238.693 43.4587 239.397 43.6933 239.94 43.928C240.483 44.148 240.945 44.4853 241.326 44.94C241.722 45.3947 241.927 45.9887 241.942 46.722C241.942 47.382 241.759 47.976 241.392 48.504C241.025 49.032 240.505 49.45 239.83 49.758C239.17 50.0513 238.407 50.198 237.542 50.198ZM255.768 43.51C255.768 43.8913 255.746 44.2947 255.702 44.72H246.066C246.14 45.908 246.543 46.8393 247.276 47.514C248.024 48.174 248.926 48.504 249.982 48.504C250.848 48.504 251.566 48.306 252.138 47.91C252.725 47.4993 253.136 46.9567 253.37 46.282H255.526C255.204 47.4407 254.558 48.3867 253.59 49.12C252.622 49.8387 251.42 50.198 249.982 50.198C248.838 50.198 247.812 49.9413 246.902 49.428C246.008 48.9147 245.304 48.1887 244.79 47.25C244.277 46.2967 244.02 45.1967 244.02 43.95C244.02 42.7033 244.27 41.6107 244.768 40.672C245.267 39.7333 245.964 39.0147 246.858 38.516C247.768 38.0027 248.809 37.746 249.982 37.746C251.126 37.746 252.138 37.9953 253.018 38.494C253.898 38.9927 254.573 39.682 255.042 40.562C255.526 41.4273 255.768 42.41 255.768 43.51ZM253.7 43.092C253.7 42.3293 253.532 41.6767 253.194 41.134C252.857 40.5767 252.395 40.1587 251.808 39.88C251.236 39.5867 250.598 39.44 249.894 39.44C248.882 39.44 248.017 39.7627 247.298 40.408C246.594 41.0533 246.191 41.948 246.088 43.092H253.7ZM275.276 43.51C275.276 43.8913 275.254 44.2947 275.21 44.72H265.574C265.647 45.908 266.051 46.8393 266.784 47.514C267.532 48.174 268.434 48.504 269.49 48.504C270.355 48.504 271.074 48.306 271.646 47.91C272.233 47.4993 272.643 46.9567 272.878 46.282H275.034C274.711 47.4407 274.066 48.3867 273.098 49.12C272.13 49.8387 270.927 50.198 269.49 50.198C268.346 50.198 267.319 49.9413 266.41 49.428C265.515 48.9147 264.811 48.1887 264.298 47.25C263.785 46.2967 263.528 45.1967 263.528 43.95C263.528 42.7033 263.777 41.6107 264.276 40.672C264.775 39.7333 265.471 39.0147 266.366 38.516C267.275 38.0027 268.317 37.746 269.49 37.746C270.634 37.746 271.646 37.9953 272.526 38.494C273.406 38.9927 274.081 39.682 274.55 40.562C275.034 41.4273 275.276 42.41 275.276 43.51ZM273.208 43.092C273.208 42.3293 273.039 41.6767 272.702 41.134C272.365 40.5767 271.903 40.1587 271.316 39.88C270.744 39.5867 270.106 39.44 269.402 39.44C268.39 39.44 267.525 39.7627 266.806 40.408C266.102 41.0533 265.699 41.948 265.596 43.092H273.208ZM271.558 34.534L266.872 37.042V35.546L271.558 32.796V34.534ZM298.282 37.724C299.221 37.724 300.057 37.922 300.79 38.318C301.523 38.6993 302.103 39.2787 302.528 40.056C302.953 40.8333 303.166 41.7793 303.166 42.894V50H301.186V43.18C301.186 41.9773 300.885 41.0607 300.284 40.43C299.697 39.7847 298.898 39.462 297.886 39.462C296.845 39.462 296.016 39.7993 295.4 40.474C294.784 41.134 294.476 42.0947 294.476 43.356V50H292.496V43.18C292.496 41.9773 292.195 41.0607 291.594 40.43C291.007 39.7847 290.208 39.462 289.196 39.462C288.155 39.462 287.326 39.7993 286.71 40.474C286.094 41.134 285.786 42.0947 285.786 43.356V50H283.784V37.944H285.786V39.682C286.182 39.0513 286.71 38.5673 287.37 38.23C288.045 37.8927 288.785 37.724 289.592 37.724C290.604 37.724 291.499 37.9513 292.276 38.406C293.053 38.8607 293.633 39.528 294.014 40.408C294.351 39.5573 294.909 38.8973 295.686 38.428C296.463 37.9587 297.329 37.724 298.282 37.724ZM317.45 43.51C317.45 43.8913 317.428 44.2947 317.384 44.72H307.748C307.821 45.908 308.225 46.8393 308.958 47.514C309.706 48.174 310.608 48.504 311.664 48.504C312.529 48.504 313.248 48.306 313.82 47.91C314.407 47.4993 314.817 46.9567 315.052 46.282H317.208C316.885 47.4407 316.24 48.3867 315.272 49.12C314.304 49.8387 313.101 50.198 311.664 50.198C310.52 50.198 309.493 49.9413 308.584 49.428C307.689 48.9147 306.985 48.1887 306.472 47.25C305.959 46.2967 305.702 45.1967 305.702 43.95C305.702 42.7033 305.951 41.6107 306.45 40.672C306.949 39.7333 307.645 39.0147 308.54 38.516C309.449 38.0027 310.491 37.746 311.664 37.746C312.808 37.746 313.82 37.9953 314.7 38.494C315.58 38.9927 316.255 39.682 316.724 40.562C317.208 41.4273 317.45 42.41 317.45 43.51ZM315.382 43.092C315.382 42.3293 315.213 41.6767 314.876 41.134C314.539 40.5767 314.077 40.1587 313.49 39.88C312.918 39.5867 312.28 39.44 311.576 39.44C310.564 39.44 309.699 39.7627 308.98 40.408C308.276 41.0533 307.873 41.948 307.77 43.092H315.382ZM330.784 37.944V50H328.782V48.218C328.401 48.834 327.866 49.318 327.176 49.67C326.502 50.0073 325.754 50.176 324.932 50.176C323.994 50.176 323.15 49.9853 322.402 49.604C321.654 49.208 321.06 48.6213 320.62 47.844C320.195 47.0667 319.982 46.1207 319.982 45.006V37.944H321.962V44.742C321.962 45.93 322.263 46.8467 322.864 47.492C323.466 48.1227 324.287 48.438 325.328 48.438C326.399 48.438 327.242 48.108 327.858 47.448C328.474 46.788 328.782 45.8273 328.782 44.566V37.944H330.784ZM342.032 40.166C342.428 39.4767 343.015 38.9047 343.792 38.45C344.584 37.9807 345.501 37.746 346.542 37.746C347.613 37.746 348.581 38.0027 349.446 38.516C350.326 39.0293 351.015 39.7553 351.514 40.694C352.013 41.618 352.262 42.696 352.262 43.928C352.262 45.1453 352.013 46.2307 351.514 47.184C351.015 48.1373 350.326 48.878 349.446 49.406C348.581 49.934 347.613 50.198 346.542 50.198C345.515 50.198 344.606 49.9707 343.814 49.516C343.037 49.0467 342.443 48.4673 342.032 47.778V55.72H340.03V37.944H342.032V40.166ZM350.216 43.928C350.216 43.0187 350.033 42.2267 349.666 41.552C349.299 40.8773 348.801 40.364 348.17 40.012C347.554 39.66 346.872 39.484 346.124 39.484C345.391 39.484 344.709 39.6673 344.078 40.034C343.462 40.386 342.963 40.9067 342.582 41.596C342.215 42.2707 342.032 43.0553 342.032 43.95C342.032 44.8593 342.215 45.6587 342.582 46.348C342.963 47.0227 343.462 47.5433 344.078 47.91C344.709 48.262 345.391 48.438 346.124 48.438C346.872 48.438 347.554 48.262 348.17 47.91C348.801 47.5433 349.299 47.0227 349.666 46.348C350.033 45.6587 350.216 44.852 350.216 43.928ZM360.155 50.198C359.026 50.198 357.999 49.9413 357.075 49.428C356.166 48.9147 355.447 48.1887 354.919 47.25C354.406 46.2967 354.149 45.1967 354.149 43.95C354.149 42.718 354.413 41.6327 354.941 40.694C355.484 39.7407 356.217 39.0147 357.141 38.516C358.065 38.0027 359.099 37.746 360.243 37.746C361.387 37.746 362.421 38.0027 363.345 38.516C364.269 39.0147 364.995 39.7333 365.523 40.672C366.066 41.6107 366.337 42.7033 366.337 43.95C366.337 45.1967 366.058 46.2967 365.501 47.25C364.958 48.1887 364.218 48.9147 363.279 49.428C362.34 49.9413 361.299 50.198 360.155 50.198ZM360.155 48.438C360.874 48.438 361.548 48.2693 362.179 47.932C362.81 47.5947 363.316 47.0887 363.697 46.414C364.093 45.7393 364.291 44.918 364.291 43.95C364.291 42.982 364.1 42.1607 363.719 41.486C363.338 40.8113 362.839 40.3127 362.223 39.99C361.607 39.6527 360.94 39.484 360.221 39.484C359.488 39.484 358.813 39.6527 358.197 39.99C357.596 40.3127 357.112 40.8113 356.745 41.486C356.378 42.1607 356.195 42.982 356.195 43.95C356.195 44.9327 356.371 45.7613 356.723 46.436C357.09 47.1107 357.574 47.6167 358.175 47.954C358.776 48.2767 359.436 48.438 360.155 48.438ZM370.971 39.902C371.323 39.2127 371.822 38.6773 372.467 38.296C373.127 37.9147 373.927 37.724 374.865 37.724V39.792H374.337C372.093 39.792 370.971 41.0093 370.971 43.444V50H368.969V37.944H370.971V39.902ZM379.618 39.594V46.7C379.618 47.2867 379.743 47.7047 379.992 47.954C380.242 48.1887 380.674 48.306 381.29 48.306H382.764V50H380.96C379.846 50 379.01 49.7433 378.452 49.23C377.895 48.7167 377.616 47.8733 377.616 46.7V39.594H376.054V37.944H377.616V34.908H379.618V37.944H382.764V39.594H379.618ZM390.096 39.594H387.566V50H385.564V39.594H384.002V37.944H385.564V37.086C385.564 35.7367 385.909 34.754 386.598 34.138C387.302 33.5073 388.424 33.192 389.964 33.192V34.864C389.084 34.864 388.461 35.04 388.094 35.392C387.742 35.7293 387.566 36.294 387.566 37.086V37.944H390.096V39.594ZM397.688 50.198C396.559 50.198 395.532 49.9413 394.608 49.428C393.699 48.9147 392.98 48.1887 392.452 47.25C391.939 46.2967 391.682 45.1967 391.682 43.95C391.682 42.718 391.946 41.6327 392.474 40.694C393.017 39.7407 393.75 39.0147 394.674 38.516C395.598 38.0027 396.632 37.746 397.776 37.746C398.92 37.746 399.954 38.0027 400.878 38.516C401.802 39.0147 402.528 39.7333 403.056 40.672C403.599 41.6107 403.87 42.7033 403.87 43.95C403.87 45.1967 403.592 46.2967 403.034 47.25C402.492 48.1887 401.751 48.9147 400.812 49.428C399.874 49.9413 398.832 50.198 397.688 50.198ZM397.688 48.438C398.407 48.438 399.082 48.2693 399.712 47.932C400.343 47.5947 400.849 47.0887 401.23 46.414C401.626 45.7393 401.824 44.918 401.824 43.95C401.824 42.982 401.634 42.1607 401.252 41.486C400.871 40.8113 400.372 40.3127 399.756 39.99C399.14 39.6527 398.473 39.484 397.754 39.484C397.021 39.484 396.346 39.6527 395.73 39.99C395.129 40.3127 394.645 40.8113 394.278 41.486C393.912 42.1607 393.728 42.982 393.728 43.95C393.728 44.9327 393.904 45.7613 394.256 46.436C394.623 47.1107 395.107 47.6167 395.708 47.954C396.31 48.2767 396.97 48.438 397.688 48.438ZM408.505 33.72V50H406.503V33.72H408.505ZM412.951 35.986C412.569 35.986 412.247 35.854 411.983 35.59C411.719 35.326 411.587 35.0033 411.587 34.622C411.587 34.2407 411.719 33.918 411.983 33.654C412.247 33.39 412.569 33.258 412.951 33.258C413.317 33.258 413.625 33.39 413.875 33.654C414.139 33.918 414.271 34.2407 414.271 34.622C414.271 35.0033 414.139 35.326 413.875 35.59C413.625 35.854 413.317 35.986 412.951 35.986ZM413.919 37.944V50H411.917V37.944H413.919ZM422.589 50.198C421.459 50.198 420.433 49.9413 419.509 49.428C418.599 48.9147 417.881 48.1887 417.353 47.25C416.839 46.2967 416.583 45.1967 416.583 43.95C416.583 42.718 416.847 41.6327 417.375 40.694C417.917 39.7407 418.651 39.0147 419.575 38.516C420.499 38.0027 421.533 37.746 422.677 37.746C423.821 37.746 424.855 38.0027 425.779 38.516C426.703 39.0147 427.429 39.7333 427.957 40.672C428.499 41.6107 428.771 42.7033 428.771 43.95C428.771 45.1967 428.492 46.2967 427.935 47.25C427.392 48.1887 426.651 48.9147 425.713 49.428C424.774 49.9413 423.733 50.198 422.589 50.198ZM422.589 48.438C423.307 48.438 423.982 48.2693 424.613 47.932C425.243 47.5947 425.749 47.0887 426.131 46.414C426.527 45.7393 426.725 44.918 426.725 43.95C426.725 42.982 426.534 42.1607 426.153 41.486C425.771 40.8113 425.273 40.3127 424.657 39.99C424.041 39.6527 423.373 39.484 422.655 39.484C421.921 39.484 421.247 39.6527 420.631 39.99C420.029 40.3127 419.545 40.8113 419.179 41.486C418.812 42.1607 418.629 42.982 418.629 43.95C418.629 44.9327 418.805 45.7613 419.157 46.436C419.523 47.1107 420.007 47.6167 420.609 47.954C421.21 48.2767 421.87 48.438 422.589 48.438ZM432.041 50.132C431.66 50.132 431.337 50 431.073 49.736C430.809 49.472 430.677 49.1493 430.677 48.768C430.677 48.3867 430.809 48.064 431.073 47.8C431.337 47.536 431.66 47.404 432.041 47.404C432.408 47.404 432.716 47.536 432.965 47.8C433.229 48.064 433.361 48.3867 433.361 48.768C433.361 49.1493 433.229 49.472 432.965 49.736C432.716 50 432.408 50.132 432.041 50.132Z" fill="black"/>
</svg>
