<svg width="179" height="45" viewBox="0 0 179 45" fill="none" xmlns="http://www.w3.org/2000/svg">
<path d="M3.42188 21.8281C3.04688 21.9531 2.65625 21.9375 2.25 21.7812C1.875 21.5938 1.53125 21.3125 1.21875 20.9375C0.90625 20.5625 0.65625 20.125 0.46875 19.625C0.3125 19.125 0.234375 18.5938 0.234375 18.0312C0.640625 17.9688 1.07812 17.9062 1.54688 17.8438C2.01562 17.75 2.45312 17.6719 2.85938 17.6094C3.32812 17.5469 3.78125 17.4844 4.21875 17.4219C4.25 15.6094 4.28125 13.8906 4.3125 12.2656C4.375 10.6094 4.42188 9.14062 4.45312 7.85938C4.51562 6.54688 4.5625 5.45312 4.59375 4.57812C4.65625 3.67187 4.70312 3.0625 4.73438 2.75C4.73438 2.59375 4.8125 2.4375 4.96875 2.28125C5.21875 2.09375 5.57812 1.82813 6.04688 1.48438C6.54688 1.14062 7.10938 0.828125 7.73438 0.546875C8.26562 0.328125 8.60938 0.40625 8.76562 0.78125C8.95312 1.125 9.04688 1.79687 9.04688 2.79688C8.98438 4.20312 8.92188 6.09375 8.85938 8.46875C8.79688 10.8438 8.73438 13.6406 8.67188 16.8594C9.17188 16.7969 9.65625 16.75 10.125 16.7188C10.5938 16.6875 11.0938 16.6562 11.625 16.625C13.0625 16.5625 14.4531 16.4844 15.7969 16.3906C17.1719 16.2969 18.375 16.2969 19.4062 16.3906C19.5625 11.9219 19.6094 8.57812 19.5469 6.35938C19.4844 4.10938 19.4531 2.78125 19.4531 2.375C19.4531 2.1875 19.6562 1.96875 20.0625 1.71875C20.4688 1.46875 20.9062 1.25 21.375 1.0625C21.875 0.84375 22.3281 0.703125 22.7344 0.640625C23.1406 0.546875 23.3594 0.5625 23.3906 0.6875C23.4219 0.90625 23.4219 1.45313 23.3906 2.32812C23.3906 3.20312 23.375 4.4375 23.3438 6.03125C23.3438 7.59375 23.3438 9.54688 23.3438 11.8906C23.375 14.2344 23.4375 16.9688 23.5312 20.0938C23.4688 21.5312 23.4375 23.0312 23.4375 24.5938C23.4375 25.9375 23.4688 27.4375 23.5312 29.0938C23.5938 30.75 23.7344 32.4219 23.9531 34.1094C23.5469 34.4531 23.1094 34.7188 22.6406 34.9062C22.1719 35.0938 21.7188 35.25 21.2812 35.375C20.7812 35.5 20.2812 35.5938 19.7812 35.6562C19.5 35.6875 19.2656 35.625 19.0781 35.4688C18.9219 35.3438 18.8125 35.1719 18.75 34.9531C18.6875 34.7656 18.6406 34.5625 18.6094 34.3438C18.6094 34.125 18.6094 33.9219 18.6094 33.7344C18.6094 33.3281 18.6094 32.9375 18.6094 32.5625C18.6406 32.2188 18.6719 31.9375 18.7031 31.7188C18.7656 30.375 18.8438 28.75 18.9375 26.8438C19.0312 24.9375 19.125 22.8125 19.2188 20.4688C19 20.4375 18.7969 20.4219 18.6094 20.4219C18.4219 20.3906 18.2031 20.3594 17.9531 20.3281C16.5469 20.2344 15.0156 20.2344 13.3594 20.3281C11.7344 20.4219 10.1406 20.5781 8.57812 20.7969C8.54688 22.3281 8.54688 23.7812 8.57812 25.1562C8.60938 26.5 8.64062 27.7344 8.67188 28.8594C8.73438 29.9531 8.79688 30.9062 8.85938 31.7188C8.92188 32.5 8.98438 33.0781 9.04688 33.4531C9.07812 33.7656 9.03125 33.9844 8.90625 34.1094C8.78125 34.2656 8.59375 34.4688 8.34375 34.7188C8.125 34.9688 7.82812 35.2031 7.45312 35.4219C7.10938 35.6719 6.6875 35.875 6.1875 36.0312C5.6875 36.2188 5.10938 36.3125 4.45312 36.3125C4.14062 36.3125 3.98438 36.1719 3.98438 35.8906C3.98438 35.4844 3.98438 34.8438 3.98438 33.9688C4.01562 33.0938 4.03125 32.0312 4.03125 30.7812C4.0625 29.5312 4.07812 28.1406 4.07812 26.6094C4.10938 25.0469 4.14062 23.3906 4.17188 21.6406C4.01562 21.6719 3.875 21.7031 3.75 21.7344C3.65625 21.7656 3.54688 21.7969 3.42188 21.8281ZM28.125 15.4062C28.125 15.2188 28.375 15.0156 28.875 14.7969C29.375 14.5781 29.9219 14.4062 30.5156 14.2812C31.1406 14.125 31.7031 14.0469 32.2031 14.0469C32.7344 14.0156 33 14.125 33 14.375C33 14.8438 32.9688 15.5156 32.9062 16.3906C32.8438 17.2344 32.7656 18.1406 32.6719 19.1094C32.5781 20.0469 32.4844 21 32.3906 21.9688C32.2969 22.9062 32.2344 23.7031 32.2031 24.3594C32.1406 25.0469 32.0781 25.7969 32.0156 26.6094C31.9531 27.2969 31.9062 28.0625 31.875 28.9062C31.8438 29.75 31.8438 30.6094 31.875 31.4844C31.875 31.6406 31.7188 31.7969 31.4062 31.9531C31.0938 32.1094 30.75 32.2188 30.375 32.2812C30 32.375 29.6406 32.4219 29.2969 32.4219C28.9531 32.4219 28.7656 32.3594 28.7344 32.2344C28.6719 32.1094 28.6094 31.8906 28.5469 31.5781C28.4844 31.2656 28.4219 30.8281 28.3594 30.2656C28.2969 29.6719 28.25 28.9219 28.2188 28.0156C28.1875 27.0781 28.2031 25.9531 28.2656 24.6406C28.3906 22.0469 28.4062 20.0469 28.3125 18.6406C28.2188 17.2031 28.1562 16.125 28.125 15.4062ZM31.4062 6.07812C32.0312 6.07812 32.625 6.26562 33.1875 6.64062C33.75 7.01562 34.0312 7.51562 34.0312 8.14062C34.0312 8.60938 33.9062 9.0625 33.6562 9.5C33.4375 9.9375 33.1562 10.3281 32.8125 10.6719C32.4688 11.0156 32.0781 11.2969 31.6406 11.5156C31.2031 11.7031 30.7969 11.7969 30.4219 11.7969C29.9219 11.7969 29.5156 11.7188 29.2031 11.5625C28.8906 11.375 28.6406 11.1719 28.4531 10.9531C28.2969 10.7031 28.1875 10.4375 28.125 10.1562C28.0625 9.875 28.0312 9.60938 28.0312 9.35938C28.0312 9.04688 28.0781 8.70312 28.1719 8.32812C28.2656 7.92188 28.4375 7.5625 28.6875 7.25C28.9375 6.90625 29.2812 6.625 29.7188 6.40625C30.1562 6.1875 30.7188 6.07812 31.4062 6.07812ZM30.2344 10.4375C30.4219 10.4375 30.625 10.375 30.8438 10.25C31.0938 10.0938 31.3125 9.92188 31.5 9.73438C31.7188 9.54688 31.8906 9.34375 32.0156 9.125C32.1719 8.90625 32.25 8.71875 32.25 8.5625C32.25 8.3125 32.125 8.1875 31.875 8.1875C31.7188 8.1875 31.5156 8.25 31.2656 8.375C31.0469 8.5 30.8281 8.65625 30.6094 8.84375C30.3906 9 30.2031 9.1875 30.0469 9.40625C29.9219 9.59375 29.8594 9.78125 29.8594 9.96875C29.8594 10.2812 29.9844 10.4375 30.2344 10.4375ZM38.4844 27.5C38.9844 27.5 39.4062 27.6094 39.75 27.8281C40.125 28.0156 40.4219 28.2656 40.6406 28.5781C40.8906 28.8594 41.0625 29.1875 41.1562 29.5625C41.2812 29.9062 41.3438 30.2344 41.3438 30.5469C41.3438 31.3281 41.1719 32.0625 40.8281 32.75C40.5156 33.4375 40.125 34.0469 39.6562 34.5781C39.2188 35.1094 38.7812 35.5312 38.3438 35.8438C37.9062 36.1562 37.5938 36.3125 37.4062 36.3125C37.3125 36.3125 37.2188 36.2656 37.125 36.1719C37.0625 36.1094 36.9844 36 36.8906 35.8438C36.8281 35.7188 36.7656 35.5312 36.7031 35.2812C37.0156 34.875 37.3438 34.4375 37.6875 33.9688C38.0625 33.5 38.2812 32.9219 38.3438 32.2344C38.1562 32.2969 37.9375 32.3438 37.6875 32.375C37.4688 32.4062 37.2344 32.4219 36.9844 32.4219C36.3594 32.4219 35.8594 32.2656 35.4844 31.9531C35.1406 31.6406 34.9688 31.2656 34.9688 30.8281C34.9688 30.5156 35.0469 30.1719 35.2031 29.7969C35.3594 29.3906 35.5781 29.0312 35.8594 28.7188C36.1719 28.375 36.5469 28.0938 36.9844 27.875C37.4219 27.625 37.9219 27.5 38.4844 27.5ZM56.0156 5.09375C55.5781 5.1875 55.1562 5.29688 54.75 5.42188C54.4062 5.54688 54.0156 5.6875 53.5781 5.84375C53.1719 5.96875 52.7812 6.125 52.4062 6.3125C52.2812 5.84375 52.1562 5.32812 52.0312 4.76562C51.9375 4.20312 51.9219 3.67187 51.9844 3.17188C52.0469 2.64062 52.2188 2.1875 52.5 1.8125C52.8125 1.40625 53.3281 1.17188 54.0469 1.10938C54.7344 1.01562 55.5312 0.953125 56.4375 0.921875C57.3438 0.890625 58.2812 0.875 59.25 0.875C60.25 0.875 61.2656 0.90625 62.2969 0.96875C63.3281 1 64.3438 1.07813 65.3438 1.20312C65.4062 1.70312 65.4531 2.14062 65.4844 2.51562C65.5156 2.85938 65.5312 3.15625 65.5312 3.40625V4.15625C65.5312 4.34375 65.5 4.5 65.4375 4.625C65.3125 4.9375 65.0938 5.14062 64.7812 5.23438C64.4375 5.14062 64.0312 5.07812 63.5625 5.04688C63.125 4.98438 62.6875 4.92188 62.25 4.85938C61.75 4.79688 61.2344 4.75 60.7031 4.71875C60.7656 5.8125 60.8125 7.40625 60.8438 9.5C60.9062 11.5625 60.9062 14.2812 60.8438 17.6562C60.7812 21.0938 60.7188 23.9062 60.6562 26.0938C60.625 28.25 60.5938 29.9219 60.5625 31.1094C61.75 31.2031 62.625 31.4062 63.1875 31.7188C63.7812 32 64.1719 32.3281 64.3594 32.7031C64.5781 33.1094 64.6562 33.5469 64.5938 34.0156C64.5625 34.4844 64.5312 34.9375 64.5 35.375C63.9688 35.25 63.3594 35.1562 62.6719 35.0938C62.0156 35.0625 61.3906 35.0469 60.7969 35.0469C60.1094 35.0469 59.4062 35.0781 58.6875 35.1406C57.875 35.2031 57.0938 35.2969 56.3438 35.4219C55.7188 35.5469 55.0938 35.7031 54.4688 35.8906C53.8438 36.0781 53.375 36.3438 53.0625 36.6875C52.8125 36.2188 52.625 35.7188 52.5 35.1875C52.375 34.75 52.2812 34.2344 52.2188 33.6406C52.1562 33.0469 52.1719 32.4375 52.2656 31.8125C52.6094 31.6875 53 31.5938 53.4375 31.5312C53.875 31.4375 54.2812 31.3594 54.6562 31.2969C55.0938 31.2344 55.5469 31.1875 56.0156 31.1562C56.0781 30.1562 56.1562 28.7656 56.25 26.9844C56.3438 25.1719 56.4219 22.75 56.4844 19.7188C56.5469 15.9062 56.5156 12.8125 56.3906 10.4375C56.2656 8.03125 56.1406 6.25 56.0156 5.09375ZM66.7969 8.5625C66.7969 7.5625 66.7969 6.45312 66.7969 5.23438C66.8281 4.01562 66.8438 2.78125 66.8438 1.53125C67.1875 1.1875 67.5938 0.921875 68.0625 0.734375C68.5625 0.515625 69.0312 0.359375 69.4688 0.265625C69.9688 0.140625 70.4844 0.078125 71.0156 0.078125C70.7656 1.85938 70.5781 3.51563 70.4531 5.04688C70.3281 6.57812 70.2344 7.90625 70.1719 9.03125C70.0781 10.3438 70.0156 11.5469 69.9844 12.6406C69.7969 12.7969 69.5781 12.8906 69.3281 12.9219C69.0781 12.9219 68.7969 12.8906 68.4844 12.8281C68.2031 12.7344 67.9062 12.6094 67.5938 12.4531C67.3125 12.2656 67.0469 12.0625 66.7969 11.8438V8.5625ZM83.3438 17.375C83.0938 17.375 82.8125 17.5156 82.5 17.7969C82.2188 18.0469 81.9375 18.4062 81.6562 18.875C81.375 19.3125 81.0938 19.8125 80.8125 20.375C80.5312 20.9062 80.2812 21.4531 80.0625 22.0156C79.5312 23.3281 79.0156 24.6719 78.5156 26.0469C78.0156 27.4219 77.7188 28.6094 77.625 29.6094C77.5938 29.7031 77.5781 29.7969 77.5781 29.8906C77.5781 29.9531 77.5781 30.0156 77.5781 30.0781C77.5469 30.1406 77.5312 30.2344 77.5312 30.3594C77.4688 30.7969 77.375 31.1562 77.25 31.4375C77.1562 31.6875 76.9375 31.8594 76.5938 31.9531C76.2188 32.0156 75.8438 32.0625 75.4688 32.0938C75.0938 32.125 74.7344 32.0938 74.3906 32C74.1719 31.9375 74 31.8281 73.875 31.6719C73.7812 31.4844 73.7031 31.2812 73.6406 31.0625C73.6094 30.8125 73.5781 30.5781 73.5469 30.3594C73.5469 30.1406 73.5469 29.9531 73.5469 29.7969C73.5469 29.6094 73.5625 29.0312 73.5938 28.0625C73.625 27.0625 73.6562 25.9375 73.6875 24.6875C73.7188 23.4375 73.7344 22.2188 73.7344 21.0312C73.7344 19.8125 73.7188 18.8906 73.6875 18.2656C73.625 17.8281 73.5625 17.4219 73.5 17.0469C73.4375 16.7031 73.3594 16.3594 73.2656 16.0156C73.2031 15.6719 73.0938 15.375 72.9375 15.125C73.2812 14.9375 73.625 14.7812 73.9688 14.6562C74.3125 14.5312 74.625 14.4375 74.9062 14.375C75.25 14.2812 75.5625 14.2188 75.8438 14.1875C76.5938 14.125 77.1719 14.125 77.5781 14.1875C78.0156 14.25 78.2344 14.5781 78.2344 15.1719C78.2344 15.7031 78.1875 16.5312 78.0938 17.6562C78.0312 18.75 77.9531 20.2812 77.8594 22.25C78.2031 21.4688 78.6094 20.5938 79.0781 19.625C79.5469 18.625 80.0469 17.7031 80.5781 16.8594C81.1094 15.9844 81.6562 15.2656 82.2188 14.7031C82.7812 14.1094 83.3125 13.8125 83.8125 13.8125C84.1562 13.8125 84.5469 13.8906 84.9844 14.0469C85.4531 14.1719 85.8906 14.3594 86.2969 14.6094C86.7031 14.8281 87.0625 15.0781 87.375 15.3594C87.7188 15.6406 87.9531 15.9219 88.0781 16.2031C88.2031 16.5156 88.2812 17 88.3125 17.6562C88.3438 18.3125 88.3438 19.0469 88.3125 19.8594C88.5625 19.2656 88.8438 18.6875 89.1562 18.125C89.4688 17.5625 89.7812 17.0469 90.0938 16.5781C90.4375 16.0781 90.7812 15.6562 91.125 15.3125C91.4688 14.9688 91.7812 14.7344 92.0625 14.6094C92.4375 14.4531 92.8906 14.4219 93.4219 14.5156C93.9531 14.6094 94.4688 14.7812 94.9688 15.0312C95.5 15.25 95.9531 15.5156 96.3281 15.8281C96.7344 16.1406 96.9844 16.4375 97.0781 16.7188C97.1719 17.0312 97.25 17.5156 97.3125 18.1719C97.375 18.8281 97.4219 19.5469 97.4531 20.3281C97.4844 21.1094 97.5 21.9219 97.5 22.7656C97.5 23.5781 97.4844 24.2969 97.4531 24.9219C97.3906 26.7344 97.4062 28.1719 97.5 29.2344C97.5938 30.2656 97.9688 31.0312 98.625 31.5312C98.1875 31.8125 97.7812 32.0156 97.4062 32.1406C97.0312 32.2969 96.7031 32.4062 96.4219 32.4688C96.0781 32.5625 95.7812 32.6094 95.5312 32.6094C95.1875 32.6094 94.9062 32.5156 94.6875 32.3281C94.4688 32.1719 94.2969 31.9531 94.1719 31.6719C94.0469 31.3906 93.9688 31.0781 93.9375 30.7344C93.9062 30.3906 93.8906 30.0469 93.8906 29.7031C93.8906 29.3906 93.9062 28.875 93.9375 28.1562C94 27.4062 94.0469 26.5625 94.0781 25.625C94.1094 24.6875 94.1094 23.7344 94.0781 22.7656C94.0469 21.7656 93.9688 20.8594 93.8438 20.0469C93.75 19.2031 93.5781 18.5156 93.3281 17.9844C93.0781 17.4531 92.7344 17.1875 92.2969 17.1875C91.9219 17.1875 91.5625 17.4219 91.2188 17.8906C90.875 18.3281 90.5469 18.9219 90.2344 19.6719C89.9219 20.3906 89.6406 21.2031 89.3906 22.1094C89.1719 22.9844 88.9688 23.8594 88.7812 24.7344C88.5938 25.6094 88.4531 26.4219 88.3594 27.1719C88.2656 27.8906 88.2188 28.4688 88.2188 28.9062L88.1719 28.4844C88.1719 29.0781 88.1719 29.625 88.1719 30.125C88.2031 30.625 88.2344 31.125 88.2656 31.625C88.2969 31.8125 88.125 31.9688 87.75 32.0938C87.375 32.25 86.9531 32.3125 86.4844 32.2812C86.0469 32.2812 85.6406 32.1875 85.2656 32C84.8906 31.8125 84.7031 31.5 84.7031 31.0625C84.7031 30.75 84.7031 30.2812 84.7031 29.6562C84.7031 29.0312 84.6875 28.3281 84.6562 27.5469C84.6562 26.7656 84.6406 25.9531 84.6094 25.1094C84.6094 24.2344 84.5938 23.4062 84.5625 22.625C84.5625 22.0312 84.5469 21.4219 84.5156 20.7969C84.5156 20.1719 84.4844 19.6094 84.4219 19.1094C84.3594 18.5781 84.2344 18.1562 84.0469 17.8438C83.8906 17.5312 83.6562 17.375 83.3438 17.375ZM136.219 34.2969C135.906 34.7344 135.547 35.0625 135.141 35.2812C134.734 35.5312 134.344 35.7031 133.969 35.7969C133.531 35.9219 133.062 35.9688 132.562 35.9375C132.375 35.9375 132.172 35.8906 131.953 35.7969C131.766 35.7344 131.562 35.6406 131.344 35.5156C131.125 35.4219 130.938 35.2656 130.781 35.0469C130.344 33.4844 129.953 31.9688 129.609 30.5C129.266 29.0312 128.969 27.7188 128.719 26.5625C128.406 25.2188 128.141 23.9531 127.922 22.7656C127.078 22.7344 125.812 22.7344 124.125 22.7656C122.469 22.7656 120.672 22.8594 118.734 23.0469C118.141 24.9219 117.672 26.5 117.328 27.7812C116.984 29.0625 116.734 30.125 116.578 30.9688C116.422 31.8125 116.359 32.5 116.391 33.0312C116.422 33.5938 116.516 34.0781 116.672 34.4844C116.234 34.9219 115.797 35.2344 115.359 35.4219C114.953 35.6406 114.578 35.7812 114.234 35.8438C113.828 35.9375 113.438 35.9688 113.062 35.9375C112.562 35.875 112.156 35.7812 111.844 35.6562C111.531 35.5625 111.297 35.3906 111.141 35.1406C111.016 34.9219 110.969 34.5938 111 34.1562C111.062 33.7188 111.188 33.1406 111.375 32.4219C111.562 31.7969 111.906 30.6875 112.406 29.0938C112.938 27.4688 113.531 25.625 114.188 23.5625C113 23.6562 112.078 23.5938 111.422 23.375C110.797 23.1562 110.359 22.5625 110.109 21.5938C110.609 21.4375 111.141 21.2969 111.703 21.1719C112.297 21.0156 112.859 20.875 113.391 20.75C113.984 20.625 114.594 20.5156 115.219 20.4219C115.875 18.3594 116.547 16.3281 117.234 14.3281C117.922 12.3281 118.562 10.5312 119.156 8.9375L121.875 1.67188C121.938 1.48438 122.266 1.28125 122.859 1.0625C123.453 0.84375 124.109 0.671875 124.828 0.546875C125.547 0.390625 126.234 0.3125 126.891 0.3125C127.547 0.3125 127.969 0.453125 128.156 0.734375C128.25 1.39062 128.375 2.20313 128.531 3.17188C128.719 4.14062 128.891 5.07812 129.047 5.98438C129.234 7.04688 129.453 8.14062 129.703 9.26562C129.984 10.8281 130.281 12.5625 130.594 14.4688C130.938 16.375 131.359 18.4062 131.859 20.5625C132.359 22.7188 132.953 24.9531 133.641 27.2656C134.328 29.5781 135.188 31.9219 136.219 34.2969ZM123.188 19.625C124.188 19.5938 125.016 19.5781 125.672 19.5781C126.328 19.5781 126.891 19.5938 127.359 19.625L127.219 18.9219C127.031 17.7656 126.828 16.5312 126.609 15.2188C126.422 13.9062 126.219 12.6094 126 11.3281C125.812 10.0469 125.625 8.82812 125.438 7.67188C125.25 6.51562 125.094 5.5 124.969 4.625C124.656 5.4375 124.297 6.42188 123.891 7.57812C123.484 8.70312 123.047 9.9375 122.578 11.2812C122.109 12.625 121.625 14.0312 121.125 15.5C120.656 16.9688 120.188 18.4219 119.719 19.8594C120.281 19.7969 120.844 19.75 121.406 19.7188C121.969 19.6875 122.562 19.6562 123.188 19.625ZM151.828 14C151.891 16.75 151.938 19.1562 151.969 21.2188C152 23.2812 152.031 25.0156 152.062 26.4219C152.094 28.0781 152.109 29.5 152.109 30.6875C152.141 32.1562 152.016 33.6719 151.734 35.2344C151.484 36.8281 151.062 38.2812 150.469 39.5938C149.875 40.9062 149.094 41.9844 148.125 42.8281C147.156 43.6719 145.984 44.0938 144.609 44.0938C142.953 44.0938 141.688 43.75 140.812 43.0625C139.938 42.4062 139.297 41.6562 138.891 40.8125C138.484 39.9688 138.25 39.1719 138.188 38.4219C138.125 37.7031 138.094 37.2812 138.094 37.1562C138.094 36.9062 138.25 36.625 138.562 36.3125C138.875 36 139.344 35.7188 139.969 35.4688C140.219 35.375 140.469 35.2969 140.719 35.2344C140.938 35.1719 141.156 35.125 141.375 35.0938C141.594 35.0625 141.797 35.0781 141.984 35.1406C141.672 35.7031 141.484 36.3438 141.422 37.0625C141.391 37.7812 141.484 38.4531 141.703 39.0781C141.953 39.7344 142.312 40.2812 142.781 40.7188C143.25 41.1562 143.844 41.375 144.562 41.375C145.562 41.375 146.344 41.0781 146.906 40.4844C147.5 39.9219 147.938 39.2188 148.219 38.375C148.531 37.5312 148.719 36.6406 148.781 35.7031C148.875 34.7656 148.922 33.9375 148.922 33.2188C148.922 32.6562 148.906 31.9375 148.875 31.0625C148.875 30.1562 148.828 29.1562 148.734 28.0625C148.359 28.6875 147.922 29.2969 147.422 29.8906C146.922 30.4531 146.391 30.9531 145.828 31.3906C145.266 31.8281 144.688 32.1719 144.094 32.4219C143.531 32.7031 142.969 32.8438 142.406 32.8438C141.438 32.8438 140.656 32.5469 140.062 31.9531C139.469 31.3281 139.016 30.5625 138.703 29.6562C138.391 28.7188 138.172 27.7188 138.047 26.6562C137.953 25.5625 137.906 24.5625 137.906 23.6562C137.906 22.9688 137.938 22.1406 138 21.1719C138.062 20.1719 138.141 19.2188 138.234 18.3125C138.328 17.4062 138.438 16.625 138.562 15.9688C138.719 15.2812 138.875 14.8906 139.031 14.7969C139.938 14.2656 140.828 13.9688 141.703 13.9062C142.578 13.8438 143.234 13.9531 143.672 14.2344C143.297 14.5156 142.984 14.9844 142.734 15.6406C142.484 16.2969 142.281 17.0312 142.125 17.8438C141.969 18.625 141.859 19.4531 141.797 20.3281C141.734 21.1719 141.703 21.9375 141.703 22.625C141.703 23.1875 141.719 23.8594 141.75 24.6406C141.781 25.4219 141.844 26.1719 141.938 26.8906C142.062 27.6094 142.234 28.2188 142.453 28.7188C142.672 29.2188 142.953 29.4688 143.297 29.4688C143.984 29.4688 144.625 29.2188 145.219 28.7188C145.812 28.2188 146.328 27.5938 146.766 26.8438C147.234 26.0938 147.594 25.2969 147.844 24.4531C148.094 23.5781 148.219 22.7656 148.219 22.0156V21.6406C148.156 20.8281 148.094 20.0625 148.031 19.3438C147.969 18.5938 147.906 17.9219 147.844 17.3281C147.812 16.7344 147.781 16.25 147.75 15.875C147.75 15.4688 147.75 15.2031 147.75 15.0781C147.75 14.7656 147.953 14.4844 148.359 14.2344C148.797 13.9844 149.266 13.8125 149.766 13.7188C150.297 13.5938 150.766 13.5469 151.172 13.5781C151.609 13.6094 151.828 13.75 151.828 14ZM161.625 1.625C161.562 2.75 161.453 4.04688 161.297 5.51562C161.141 6.98438 160.969 8.5625 160.781 10.25C160.625 11.9375 160.453 13.7031 160.266 15.5469C160.109 17.3906 159.969 19.25 159.844 21.125C159.719 23 159.656 24.5312 159.656 25.7188C159.688 26.875 159.766 27.8281 159.891 28.5781C160.016 29.3281 160.188 29.9219 160.406 30.3594C160.625 30.7969 160.906 31.2188 161.25 31.625C160.844 31.875 160.469 32.0625 160.125 32.1875C159.781 32.3125 159.484 32.4062 159.234 32.4688C158.922 32.5625 158.641 32.6094 158.391 32.6094C157.922 32.6094 157.516 32.3906 157.172 31.9531C156.828 31.4844 156.547 30.8906 156.328 30.1719C156.141 29.4531 155.984 28.6562 155.859 27.7812C155.766 26.875 155.719 25.9844 155.719 25.1094C155.719 24.1719 155.75 23.0938 155.812 21.875C155.875 20.625 155.938 19.3125 156 17.9375C156.094 16.5312 156.188 15.0781 156.281 13.5781C156.375 12.0469 156.453 10.5312 156.516 9.03125C156.578 7.875 156.641 6.82812 156.703 5.89062C156.766 5.07812 156.812 4.34375 156.844 3.6875C156.875 3 156.859 2.59375 156.797 2.46875C156.984 2.21875 157.219 2.03125 157.5 1.90625C157.781 1.78125 158.047 1.67188 158.297 1.57812C158.609 1.48438 158.922 1.40625 159.234 1.34375H160.125C160.375 1.34375 160.641 1.375 160.922 1.4375C161.203 1.46875 161.438 1.53125 161.625 1.625ZM177.375 29.6094C177.438 29.8281 177.531 30.0312 177.656 30.2188C177.75 30.375 177.875 30.5312 178.031 30.6875C178.219 30.8125 178.438 30.8906 178.688 30.9219C178.469 31.3594 178.25 31.6562 178.031 31.8125C177.906 31.9062 177.797 31.9688 177.703 32C177.422 32.0938 177 32.1406 176.438 32.1406C175.875 32.1406 175.328 31.9688 174.797 31.625C174.609 31.4688 174.438 31.2344 174.281 30.9219C174.125 30.6719 173.984 30.3281 173.859 29.8906C173.766 29.4219 173.688 28.8281 173.625 28.1094C173.188 29.0469 172.688 29.7969 172.125 30.3594C171.594 30.8906 171.062 31.2812 170.531 31.5312C169.938 31.875 169.328 32.0781 168.703 32.1406C167.922 32.2031 167.172 32.0781 166.453 31.7656C165.766 31.4219 165.172 30.9219 164.672 30.2656C164.203 29.5781 163.844 28.75 163.594 27.7812C163.344 26.8125 163.266 25.7188 163.359 24.5C163.453 23.2188 163.703 22.0781 164.109 21.0781C164.516 20.0781 165 19.1875 165.562 18.4062C166.125 17.625 166.719 16.9688 167.344 16.4375C167.969 15.875 168.562 15.4219 169.125 15.0781C169.719 14.7031 170.219 14.4375 170.625 14.2812C171.062 14.0938 171.344 13.9844 171.469 13.9531C171.812 13.8594 172.109 13.8281 172.359 13.8594C172.609 13.8906 172.828 14.0312 173.016 14.2812C173.078 14.375 173.156 14.4844 173.25 14.6094C173.312 14.7344 173.391 14.9062 173.484 15.125C173.578 15.3125 173.656 15.5312 173.719 15.7812C172.969 16.125 172.266 16.5156 171.609 16.9531C170.953 17.3594 170.344 17.8594 169.781 18.4531C169.25 19.0469 168.781 19.7656 168.375 20.6094C167.969 21.4531 167.656 22.4844 167.438 23.7031C167.125 25.2344 167.203 26.4688 167.672 27.4062C168.172 28.3438 168.844 28.7344 169.688 28.5781C170.188 28.4219 170.672 28.125 171.141 27.6875C171.547 27.3125 171.969 26.75 172.406 26C172.875 25.25 173.312 24.2188 173.719 22.9062C173.875 21.0312 174 19.5625 174.094 18.5C174.219 17.4062 174.328 16.5781 174.422 16.0156C174.547 15.3594 174.641 14.9219 174.703 14.7031C174.797 14.5469 174.984 14.4062 175.266 14.2812C175.547 14.125 175.859 14 176.203 13.9062C176.547 13.8125 176.859 13.7656 177.141 13.7656C177.422 13.7344 177.609 13.7344 177.703 13.7656C177.766 13.7969 177.797 14.1875 177.797 14.9375C177.797 15.6562 177.766 16.5781 177.703 17.7031C177.672 18.7969 177.625 20 177.562 21.3125C177.5 22.5938 177.438 23.8125 177.375 24.9688C177.344 26.125 177.312 27.1406 177.281 28.0156C177.281 28.8594 177.312 29.3906 177.375 29.6094Z" fill="#753295"/>
</svg>
