<svg width="47" height="13" viewBox="0 0 47 13" fill="none" xmlns="http://www.w3.org/2000/svg">
<path d="M8.96463 0.848V12H7.50863V6.944H1.82863V12H0.372625V0.848H1.82863V5.744H7.50863V0.848H8.96463ZM15.2748 12.144C14.4534 12.144 13.7068 11.9573 13.0348 11.584C12.3734 11.2107 11.8508 10.6827 11.4668 10C11.0934 9.30667 10.9068 8.50667 10.9068 7.6C10.9068 6.704 11.0988 5.91467 11.4828 5.232C11.8774 4.53867 12.4108 4.01067 13.0828 3.648C13.7548 3.27467 14.5068 3.088 15.3388 3.088C16.1708 3.088 16.9228 3.27467 17.5948 3.648C18.2668 4.01067 18.7948 4.53333 19.1788 5.216C19.5734 5.89867 19.7708 6.69333 19.7708 7.6C19.7708 8.50667 19.5681 9.30667 19.1628 10C18.7681 10.6827 18.2294 11.2107 17.5468 11.584C16.8641 11.9573 16.1068 12.144 15.2748 12.144ZM15.2748 10.864C15.7974 10.864 16.2881 10.7413 16.7468 10.496C17.2054 10.2507 17.5734 9.88267 17.8508 9.392C18.1388 8.90133 18.2828 8.304 18.2828 7.6C18.2828 6.896 18.1441 6.29867 17.8668 5.808C17.5894 5.31733 17.2268 4.95467 16.7788 4.72C16.3308 4.47467 15.8454 4.352 15.3228 4.352C14.7894 4.352 14.2988 4.47467 13.8508 4.72C13.4134 4.95467 13.0614 5.31733 12.7948 5.808C12.5281 6.29867 12.3948 6.896 12.3948 7.6C12.3948 8.31467 12.5228 8.91733 12.7788 9.408C13.0454 9.89867 13.3974 10.2667 13.8348 10.512C14.2721 10.7467 14.7521 10.864 15.2748 10.864ZM32.2291 3.072C32.9118 3.072 33.5198 3.216 34.0531 3.504C34.5865 3.78133 35.0078 4.20267 35.3171 4.768C35.6265 5.33333 35.7811 6.02133 35.7811 6.832V12H34.3411V7.04C34.3411 6.16533 34.1225 5.49867 33.6851 5.04C33.2585 4.57067 32.6771 4.336 31.9411 4.336C31.1838 4.336 30.5811 4.58133 30.1331 5.072C29.6851 5.552 29.4611 6.25067 29.4611 7.168V12H28.0211V7.04C28.0211 6.16533 27.8025 5.49867 27.3651 5.04C26.9385 4.57067 26.3571 4.336 25.6211 4.336C24.8638 4.336 24.2611 4.58133 23.8131 5.072C23.3651 5.552 23.1411 6.25067 23.1411 7.168V12H21.6851V3.232H23.1411V4.496C23.4291 4.03733 23.8131 3.68533 24.2931 3.44C24.7838 3.19467 25.3225 3.072 25.9091 3.072C26.6451 3.072 27.2958 3.23733 27.8611 3.568C28.4265 3.89867 28.8478 4.384 29.1251 5.024C29.3705 4.40533 29.7758 3.92533 30.3411 3.584C30.9065 3.24267 31.5358 3.072 32.2291 3.072ZM46.1695 7.28C46.1695 7.55733 46.1535 7.85067 46.1215 8.16H39.1135C39.1668 9.024 39.4602 9.70133 39.9935 10.192C40.5375 10.672 41.1935 10.912 41.9615 10.912C42.5908 10.912 43.1135 10.768 43.5295 10.48C43.9562 10.1813 44.2548 9.78667 44.4255 9.296H45.9935C45.7588 10.1387 45.2895 10.8267 44.5855 11.36C43.8815 11.8827 43.0068 12.144 41.9615 12.144C41.1295 12.144 40.3828 11.9573 39.7215 11.584C39.0708 11.2107 38.5588 10.6827 38.1855 10C37.8122 9.30667 37.6255 8.50667 37.6255 7.6C37.6255 6.69333 37.8068 5.89867 38.1695 5.216C38.5322 4.53333 39.0388 4.01067 39.6895 3.648C40.3508 3.27467 41.1082 3.088 41.9615 3.088C42.7935 3.088 43.5295 3.26933 44.1695 3.632C44.8095 3.99467 45.3002 4.496 45.6415 5.136C45.9935 5.76533 46.1695 6.48 46.1695 7.28ZM44.6655 6.976C44.6655 6.42133 44.5428 5.94667 44.2975 5.552C44.0522 5.14667 43.7162 4.84267 43.2895 4.64C42.8735 4.42667 42.4095 4.32 41.8975 4.32C41.1615 4.32 40.5322 4.55467 40.0095 5.024C39.4975 5.49333 39.2042 6.144 39.1295 6.976H44.6655Z" fill="white"/>
</svg>
