<svg width="61" height="13" viewBox="0 0 61 13" fill="none" xmlns="http://www.w3.org/2000/svg">
<path d="M1.29725 0.636V9H0.20525V0.636H1.29725ZM6.36238 2.304C7.16238 2.304 7.81038 2.548 8.30638 3.036C8.80238 3.516 9.05038 4.212 9.05038 5.124V9H7.97038V5.28C7.97038 4.624 7.80638 4.124 7.47838 3.78C7.15038 3.428 6.70238 3.252 6.13438 3.252C5.55838 3.252 5.09838 3.432 4.75438 3.792C4.41838 4.152 4.25038 4.676 4.25038 5.364V9H3.15838V2.424H4.25038V3.36C4.46638 3.024 4.75838 2.764 5.12638 2.58C5.50238 2.396 5.91438 2.304 6.36238 2.304ZM13.1622 9.108C12.6582 9.108 12.2062 9.024 11.8062 8.856C11.4062 8.68 11.0902 8.44 10.8582 8.136C10.6262 7.824 10.4982 7.468 10.4742 7.068H11.6022C11.6342 7.396 11.7862 7.664 12.0582 7.872C12.3382 8.08 12.7022 8.184 13.1502 8.184C13.5662 8.184 13.8942 8.092 14.1342 7.908C14.3742 7.724 14.4942 7.492 14.4942 7.212C14.4942 6.924 14.3662 6.712 14.1102 6.576C13.8542 6.432 13.4582 6.292 12.9222 6.156C12.4342 6.028 12.0342 5.9 11.7222 5.772C11.4182 5.636 11.1542 5.44 10.9302 5.184C10.7142 4.92 10.6062 4.576 10.6062 4.152C10.6062 3.816 10.7062 3.508 10.9062 3.228C11.1062 2.948 11.3902 2.728 11.7582 2.568C12.1262 2.4 12.5462 2.316 13.0182 2.316C13.7462 2.316 14.3342 2.5 14.7822 2.868C15.2302 3.236 15.4702 3.74 15.5022 4.38H14.4102C14.3862 4.036 14.2462 3.76 13.9902 3.552C13.7422 3.344 13.4062 3.24 12.9822 3.24C12.5902 3.24 12.2782 3.324 12.0462 3.492C11.8142 3.66 11.6982 3.88 11.6982 4.152C11.6982 4.368 11.7662 4.548 11.9022 4.692C12.0462 4.828 12.2222 4.94 12.4302 5.028C12.6462 5.108 12.9422 5.2 13.3182 5.304C13.7902 5.432 14.1742 5.56 14.4702 5.688C14.7662 5.808 15.0182 5.992 15.2262 6.24C15.4422 6.488 15.5542 6.812 15.5622 7.212C15.5622 7.572 15.4622 7.896 15.2622 8.184C15.0622 8.472 14.7782 8.7 14.4102 8.868C14.0502 9.028 13.6342 9.108 13.1622 9.108ZM18.4357 3.324V7.2C18.4357 7.52 18.5037 7.748 18.6397 7.884C18.7757 8.012 19.0117 8.076 19.3477 8.076H20.1517V9H19.1677C18.5597 9 18.1037 8.86 17.7997 8.58C17.4957 8.3 17.3437 7.84 17.3437 7.2V3.324H16.4917V2.424H17.3437V0.767999H18.4357V2.424H20.1517V3.324H18.4357ZM21.0668 5.688C21.0668 5.016 21.2028 4.428 21.4748 3.924C21.7468 3.412 22.1188 3.016 22.5908 2.736C23.0708 2.456 23.6028 2.316 24.1868 2.316C24.7628 2.316 25.2628 2.44 25.6868 2.688C26.1108 2.936 26.4268 3.248 26.6348 3.624V2.424H27.7388V9H26.6348V7.776C26.4188 8.16 26.0948 8.48 25.6628 8.736C25.2388 8.984 24.7428 9.108 24.1748 9.108C23.5908 9.108 23.0628 8.964 22.5908 8.676C22.1188 8.388 21.7468 7.984 21.4748 7.464C21.2028 6.944 21.0668 6.352 21.0668 5.688ZM26.6348 5.7C26.6348 5.204 26.5348 4.772 26.3348 4.404C26.1348 4.036 25.8628 3.756 25.5188 3.564C25.1828 3.364 24.8108 3.264 24.4028 3.264C23.9948 3.264 23.6228 3.36 23.2868 3.552C22.9508 3.744 22.6828 4.024 22.4828 4.392C22.2828 4.76 22.1828 5.192 22.1828 5.688C22.1828 6.192 22.2828 6.632 22.4828 7.008C22.6828 7.376 22.9508 7.66 23.2868 7.86C23.6228 8.052 23.9948 8.148 24.4028 8.148C24.8108 8.148 25.1828 8.052 25.5188 7.86C25.8628 7.66 26.1348 7.376 26.3348 7.008C26.5348 6.632 26.6348 6.196 26.6348 5.7ZM32.2962 2.316C32.8642 2.316 33.3602 2.44 33.7842 2.688C34.2162 2.936 34.5362 3.248 34.7442 3.624V2.424H35.8482V9.144C35.8482 9.744 35.7202 10.276 35.4642 10.74C35.2082 11.212 34.8402 11.58 34.3602 11.844C33.8882 12.108 33.3362 12.24 32.7042 12.24C31.8402 12.24 31.1202 12.036 30.5442 11.628C29.9682 11.22 29.6282 10.664 29.5242 9.96H30.6042C30.7242 10.36 30.9722 10.68 31.3482 10.92C31.7242 11.168 32.1762 11.292 32.7042 11.292C33.3042 11.292 33.7922 11.104 34.1682 10.728C34.5522 10.352 34.7442 9.824 34.7442 9.144V7.764C34.5282 8.148 34.2082 8.468 33.7842 8.724C33.3602 8.98 32.8642 9.108 32.2962 9.108C31.7122 9.108 31.1802 8.964 30.7002 8.676C30.2282 8.388 29.8562 7.984 29.5842 7.464C29.3122 6.944 29.1762 6.352 29.1762 5.688C29.1762 5.016 29.3122 4.428 29.5842 3.924C29.8562 3.412 30.2282 3.016 30.7002 2.736C31.1802 2.456 31.7122 2.316 32.2962 2.316ZM34.7442 5.7C34.7442 5.204 34.6442 4.772 34.4442 4.404C34.2442 4.036 33.9722 3.756 33.6282 3.564C33.2922 3.364 32.9202 3.264 32.5122 3.264C32.1042 3.264 31.7322 3.36 31.3962 3.552C31.0602 3.744 30.7922 4.024 30.5922 4.392C30.3922 4.76 30.2922 5.192 30.2922 5.688C30.2922 6.192 30.3922 6.632 30.5922 7.008C30.7922 7.376 31.0602 7.66 31.3962 7.86C31.7322 8.052 32.1042 8.148 32.5122 8.148C32.9202 8.148 33.2922 8.052 33.6282 7.86C33.9722 7.66 34.2442 7.376 34.4442 7.008C34.6442 6.632 34.7442 6.196 34.7442 5.7ZM38.7855 3.492C38.9775 3.116 39.2495 2.824 39.6015 2.616C39.9615 2.408 40.3975 2.304 40.9095 2.304V3.432H40.6215C39.3975 3.432 38.7855 4.096 38.7855 5.424V9H37.6935V2.424H38.7855V3.492ZM41.7621 5.688C41.7621 5.016 41.8981 4.428 42.1701 3.924C42.4421 3.412 42.8141 3.016 43.2861 2.736C43.7661 2.456 44.2981 2.316 44.8821 2.316C45.4581 2.316 45.9581 2.44 46.3821 2.688C46.8061 2.936 47.1221 3.248 47.3301 3.624V2.424H48.4341V9H47.3301V7.776C47.1141 8.16 46.7901 8.48 46.3581 8.736C45.9341 8.984 45.4381 9.108 44.8701 9.108C44.2861 9.108 43.7581 8.964 43.2861 8.676C42.8141 8.388 42.4421 7.984 42.1701 7.464C41.8981 6.944 41.7621 6.352 41.7621 5.688ZM47.3301 5.7C47.3301 5.204 47.2301 4.772 47.0301 4.404C46.8301 4.036 46.5581 3.756 46.2141 3.564C45.8781 3.364 45.5061 3.264 45.0981 3.264C44.6901 3.264 44.3181 3.36 43.9821 3.552C43.6461 3.744 43.3781 4.024 43.1781 4.392C42.9781 4.76 42.8781 5.192 42.8781 5.688C42.8781 6.192 42.9781 6.632 43.1781 7.008C43.3781 7.376 43.6461 7.66 43.9821 7.86C44.3181 8.052 44.6901 8.148 45.0981 8.148C45.5061 8.148 45.8781 8.052 46.2141 7.86C46.5581 7.66 46.8301 7.376 47.0301 7.008C47.2301 6.632 47.3301 6.196 47.3301 5.7ZM58.1875 2.304C58.6995 2.304 59.1555 2.412 59.5555 2.628C59.9555 2.836 60.2715 3.152 60.5035 3.576C60.7355 4 60.8515 4.516 60.8515 5.124V9H59.7715V5.28C59.7715 4.624 59.6075 4.124 59.2795 3.78C58.9595 3.428 58.5235 3.252 57.9715 3.252C57.4035 3.252 56.9515 3.436 56.6155 3.804C56.2795 4.164 56.1115 4.688 56.1115 5.376V9H55.0315V5.28C55.0315 4.624 54.8675 4.124 54.5395 3.78C54.2195 3.428 53.7835 3.252 53.2315 3.252C52.6635 3.252 52.2115 3.436 51.8755 3.804C51.5395 4.164 51.3715 4.688 51.3715 5.376V9H50.2795V2.424H51.3715V3.372C51.5875 3.028 51.8755 2.764 52.2355 2.58C52.6035 2.396 53.0075 2.304 53.4475 2.304C53.9995 2.304 54.4875 2.428 54.9115 2.676C55.3355 2.924 55.6515 3.288 55.8595 3.768C56.0435 3.304 56.3475 2.944 56.7715 2.688C57.1955 2.432 57.6675 2.304 58.1875 2.304Z" fill="white"/>
</svg>
