<svg width="294" height="33" viewBox="0 0 294 33" fill="none" xmlns="http://www.w3.org/2000/svg">
<path d="M0.232422 25.709C0.323568 25.4128 0.40332 24.9115 0.47168 24.2051C0.562826 23.5215 0.631185 22.8265 0.676758 22.1201C0.745117 21.2998 0.802083 20.4111 0.847656 19.4541C0.916016 18.7477 0.972982 17.859 1.01855 16.7881C1.06413 15.7171 1.09831 14.5778 1.12109 13.3701C1.14388 12.1624 1.15527 10.9434 1.15527 9.71289C1.15527 8.45964 1.14388 7.29753 1.12109 6.22656C1.09831 5.1556 1.05273 4.23275 0.984375 3.45801C0.938802 2.68327 0.870443 2.15918 0.779297 1.88574C1.21224 1.63509 1.59961 1.4528 1.94141 1.33887C2.2832 1.22493 2.57943 1.14518 2.83008 1.09961C3.10352 1.03125 3.35417 1.00846 3.58203 1.03125C3.76432 1.05404 3.94661 1.08822 4.12891 1.13379C4.28841 1.17936 4.43652 1.24772 4.57324 1.33887C4.70996 1.40723 4.8125 1.50977 4.88086 1.64648C4.83529 3.08203 4.77832 4.52897 4.70996 5.9873C4.66439 7.42285 4.60742 8.74447 4.53906 9.95215C4.44792 11.3649 4.35677 12.7207 4.26562 14.0195C4.19727 15.3867 4.12891 16.5716 4.06055 17.5742C4.01497 18.554 3.9694 19.4199 3.92383 20.1719C3.87826 20.901 3.84408 21.5618 3.82129 22.1543C3.7985 22.724 3.78711 23.2936 3.78711 23.8633C4.33398 23.7493 4.9834 23.624 5.73535 23.4873C6.4873 23.3278 7.3418 23.1683 8.29883 23.0088C9.21029 22.8721 9.97363 22.8379 10.5889 22.9062C11.2041 22.9518 11.694 23.0885 12.0586 23.3164C12.4232 23.5215 12.6738 23.7835 12.8105 24.1025C12.9473 24.4443 13.0042 24.8203 12.9814 25.2305C12.9359 25.6862 12.9017 26.0394 12.8789 26.29C12.8561 26.5407 12.8447 26.7344 12.8447 26.8711C12.5941 26.7116 12.2523 26.5977 11.8193 26.5293C11.3864 26.4609 10.9535 26.404 10.5205 26.3584C10.0192 26.3128 9.49512 26.3014 8.94824 26.3242C8.35579 26.347 7.70638 26.3926 7 26.4609C6.40755 26.5065 5.71257 26.5749 4.91504 26.666C4.11751 26.7572 3.28581 26.8939 2.41992 27.0762C1.80469 26.6432 1.29199 26.3014 0.881836 26.0508C0.631185 25.9141 0.414714 25.8001 0.232422 25.709ZM13.4258 11.9004C13.4258 11.7637 13.6081 11.6156 13.9727 11.4561C14.3372 11.2965 14.736 11.1712 15.1689 11.0801C15.6247 10.9661 16.0348 10.9092 16.3994 10.9092C16.7868 10.8864 16.9805 10.9661 16.9805 11.1484C16.9805 11.4902 16.9577 11.9801 16.9121 12.6182C16.8665 13.2334 16.8096 13.8942 16.7412 14.6006C16.6729 15.2842 16.6045 15.9792 16.5361 16.6855C16.4678 17.3691 16.4222 17.9502 16.3994 18.4287C16.3538 18.93 16.3083 19.4769 16.2627 20.0693C16.2171 20.5706 16.1829 21.1289 16.1602 21.7441C16.1374 22.3594 16.1374 22.986 16.1602 23.624C16.1602 23.738 16.0462 23.8519 15.8184 23.9658C15.5905 24.0798 15.3398 24.1595 15.0664 24.2051C14.793 24.2734 14.5309 24.3076 14.2803 24.3076C14.0296 24.3076 13.8929 24.262 13.8701 24.1709C13.8245 24.0798 13.779 23.9202 13.7334 23.6924C13.6878 23.4645 13.6423 23.1455 13.5967 22.7354C13.5511 22.3024 13.5169 21.7555 13.4941 21.0947C13.4714 20.4111 13.4827 19.5908 13.5283 18.6338C13.6195 16.7425 13.6309 15.2842 13.5625 14.2588C13.4941 13.2106 13.4486 12.4245 13.4258 11.9004ZM15.8184 5.09863C16.2741 5.09863 16.707 5.23535 17.1172 5.50879C17.5273 5.78223 17.7324 6.14681 17.7324 6.60254C17.7324 6.94434 17.6413 7.27474 17.459 7.59375C17.2995 7.91276 17.0944 8.19759 16.8438 8.44824C16.5931 8.69889 16.3083 8.90397 15.9893 9.06348C15.6702 9.2002 15.374 9.26855 15.1006 9.26855C14.736 9.26855 14.4398 9.21159 14.2119 9.09766C13.984 8.96094 13.8018 8.81283 13.665 8.65332C13.5511 8.47103 13.4714 8.27734 13.4258 8.07227C13.3802 7.86719 13.3574 7.6735 13.3574 7.49121C13.3574 7.26335 13.3916 7.0127 13.46 6.73926C13.5283 6.44303 13.6536 6.18099 13.8359 5.95312C14.0182 5.70247 14.2689 5.4974 14.5879 5.33789C14.9069 5.17839 15.3171 5.09863 15.8184 5.09863ZM14.9639 8.27734C15.1006 8.27734 15.2487 8.23177 15.4082 8.14062C15.5905 8.02669 15.75 7.90137 15.8867 7.76465C16.0462 7.62793 16.1715 7.47982 16.2627 7.32031C16.3766 7.16081 16.4336 7.02409 16.4336 6.91016C16.4336 6.72786 16.3424 6.63672 16.1602 6.63672C16.0462 6.63672 15.8981 6.68229 15.7158 6.77344C15.5563 6.86458 15.3968 6.97852 15.2373 7.11523C15.0778 7.22917 14.9411 7.36589 14.8271 7.52539C14.736 7.66211 14.6904 7.79883 14.6904 7.93555C14.6904 8.16341 14.7816 8.27734 14.9639 8.27734ZM22.8936 23.0771C22.8708 23.2139 22.7454 23.362 22.5176 23.5215C22.3125 23.6582 22.0618 23.7835 21.7656 23.8975C21.4922 24.0114 21.2301 24.0798 20.9795 24.1025C20.7288 24.1481 20.5579 24.1253 20.4668 24.0342C20.3757 23.943 20.2275 23.7721 20.0225 23.5215C19.8174 23.2708 19.6921 22.8607 19.6465 22.291C19.6009 21.6986 19.5781 20.958 19.5781 20.0693C19.5781 19.1579 19.5667 18.1553 19.5439 17.0615V15.6943C19.5439 15.2842 19.5326 14.8057 19.5098 14.2588C19.5098 13.7119 19.4984 13.1423 19.4756 12.5498C19.6807 12.4359 19.8857 12.3333 20.0908 12.2422C20.3187 12.1283 20.5238 12.0371 20.7061 11.9688C20.9111 11.8776 21.1048 11.8092 21.2871 11.7637C21.7656 11.627 22.1302 11.5472 22.3809 11.5244C22.6315 11.5016 22.7796 11.5814 22.8252 11.7637C22.848 11.9004 22.8366 12.2308 22.791 12.7549C22.7454 13.2106 22.6885 13.9056 22.6201 14.8398C22.5518 15.7513 22.4378 17.0273 22.2783 18.668C22.5745 17.9388 22.8138 17.3122 22.9961 16.7881C23.2012 16.264 23.3721 15.8424 23.5088 15.5234C23.6455 15.1361 23.7708 14.8285 23.8848 14.6006C23.9987 14.3044 24.1468 13.974 24.3291 13.6094C24.5114 13.2448 24.6937 12.903 24.876 12.584C25.0811 12.265 25.2633 11.9801 25.4229 11.7295C25.6051 11.4788 25.7419 11.3307 25.833 11.2852C25.9014 11.2396 26.1064 11.2396 26.4482 11.2852C26.79 11.3307 27.1546 11.4447 27.542 11.627C27.9294 11.7865 28.3053 12.0257 28.6699 12.3447C29.0345 12.641 29.2738 13.0055 29.3877 13.4385C29.5244 13.9398 29.57 14.6006 29.5244 15.4209C29.5016 16.2412 29.4447 17.0843 29.3535 17.9502C29.2852 18.8161 29.2282 19.6364 29.1826 20.4111C29.137 21.1859 29.1826 21.7783 29.3193 22.1885C29.3649 22.4163 29.4333 22.6214 29.5244 22.8037C29.57 22.986 29.627 23.1569 29.6953 23.3164C29.7865 23.4531 29.8776 23.5557 29.9688 23.624C29.4219 23.8747 28.9775 24.057 28.6357 24.1709C28.2939 24.2848 28.0319 24.3646 27.8496 24.4102C27.6217 24.4785 27.4622 24.5013 27.3711 24.4785C27.166 24.4102 26.9837 24.2393 26.8242 23.9658C26.6875 23.6924 26.5622 23.2594 26.4482 22.667C26.4027 22.4847 26.3799 22.1885 26.3799 21.7783C26.4027 21.3454 26.4368 20.8669 26.4824 20.3428C26.528 19.7959 26.5736 19.2376 26.6191 18.668C26.6875 18.0755 26.7331 17.5286 26.7559 17.0273C26.8014 16.5033 26.8356 16.0589 26.8584 15.6943C26.8812 15.307 26.8812 15.0449 26.8584 14.9082C26.7445 14.498 26.585 14.2132 26.3799 14.0537C26.1748 13.8714 26.0153 13.8486 25.9014 13.9854C25.6051 14.3271 25.2861 14.8854 24.9443 15.6602C24.6253 16.4121 24.3177 17.2438 24.0215 18.1553C23.7253 19.0439 23.4746 19.9326 23.2695 20.8213C23.0645 21.71 22.9391 22.4619 22.8936 23.0771ZM35.7109 24.3076C35.2324 24.3076 34.7425 24.1823 34.2412 23.9316C33.7399 23.681 33.2728 23.305 32.8398 22.8037C32.4069 22.2796 32.0537 21.6416 31.7803 20.8896C31.5068 20.1149 31.3701 19.2148 31.3701 18.1895C31.3701 16.6855 31.5638 15.4437 31.9512 14.4639C32.3385 13.4613 32.8057 12.6637 33.3525 12.0713C33.9222 11.4561 34.5374 11.0231 35.1982 10.7725C35.859 10.5218 36.4629 10.3965 37.0098 10.3965C37.5794 10.3965 38.0465 10.499 38.4111 10.7041C38.7985 10.8864 39.1175 11.1029 39.3682 11.3535V10.7041C39.5049 10.5902 39.653 10.4876 39.8125 10.3965C39.9948 10.3053 40.1771 10.237 40.3594 10.1914C40.5417 10.123 40.7354 10.0889 40.9404 10.0889H41.4531C41.5898 10.1117 41.7266 10.1344 41.8633 10.1572C42.0228 10.18 42.1367 10.237 42.2051 10.3281C42.0684 13.3132 41.9544 15.7285 41.8633 17.5742C41.7721 19.4199 41.7038 20.8555 41.6582 21.8809C41.5898 23.0885 41.5443 23.9658 41.5215 24.5127C41.4759 25.4697 41.3506 26.4154 41.1455 27.3496C40.9404 28.3066 40.6214 29.1611 40.1885 29.9131C39.7555 30.665 39.1859 31.2689 38.4795 31.7246C37.7731 32.1803 36.9072 32.4082 35.8818 32.4082C34.9932 32.4082 34.2754 32.2373 33.7285 31.8955C33.2044 31.5537 32.7943 31.1322 32.498 30.6309C32.2246 30.1296 32.0423 29.5941 31.9512 29.0244C31.86 28.4775 31.8145 27.9762 31.8145 27.5205C31.8145 27.4066 31.8714 27.2357 31.9854 27.0078C32.1221 26.7799 32.3044 26.5407 32.5322 26.29C32.7829 26.0622 33.0905 25.8571 33.4551 25.6748C33.8197 25.4925 34.2298 25.3786 34.6855 25.333C34.4805 25.9482 34.3551 26.5065 34.3096 27.0078C34.264 27.2812 34.2526 27.5547 34.2754 27.8281C34.2754 28.5801 34.4235 29.2067 34.7197 29.708C35.016 30.2093 35.4717 30.46 36.0869 30.46C36.7477 30.46 37.2832 30.1751 37.6934 29.6055C38.1035 29.0586 38.4111 28.3864 38.6162 27.5889C38.8441 26.8141 38.9922 25.9938 39.0605 25.1279C39.1517 24.2848 39.1973 23.5671 39.1973 22.9746V21.9834C39.0605 22.234 38.8896 22.4961 38.6846 22.7695C38.5023 23.043 38.2744 23.2936 38.001 23.5215C37.7275 23.7493 37.3971 23.9316 37.0098 24.0684C36.6452 24.2279 36.2122 24.3076 35.7109 24.3076ZM37.1123 12.3447C36.7249 12.3447 36.349 12.5156 35.9844 12.8574C35.6426 13.1992 35.335 13.6549 35.0615 14.2246C34.7881 14.7715 34.5716 15.3981 34.4121 16.1045C34.2526 16.8109 34.1729 17.5173 34.1729 18.2236C34.1729 18.6794 34.1956 19.1465 34.2412 19.625C34.3096 20.1035 34.4235 20.5479 34.583 20.958C34.7653 21.3454 34.9932 21.6644 35.2666 21.915C35.54 22.1657 35.9046 22.291 36.3604 22.291C36.7021 22.2682 37.0212 22.1315 37.3174 21.8809C37.568 21.6758 37.8187 21.3454 38.0693 20.8896C38.3428 20.4339 38.5592 19.7845 38.7188 18.9414C38.901 19.1237 39.0378 19.2946 39.1289 19.4541C39.2428 19.6136 39.334 19.7617 39.4023 19.8984C39.4251 19.7161 39.4365 19.4997 39.4365 19.249C39.4593 18.9984 39.4707 18.7135 39.4707 18.3945C39.4707 17.7793 39.4365 17.1185 39.3682 16.4121C39.2998 15.6829 39.1745 15.0221 38.9922 14.4297C38.8327 13.8372 38.5934 13.3473 38.2744 12.96C37.9782 12.5498 37.5908 12.3447 37.1123 12.3447ZM52.083 11.2852C52.083 11.0345 52.2311 10.8522 52.5273 10.7383C52.8464 10.6016 53.1768 10.5332 53.5186 10.5332C53.8831 10.5332 54.2135 10.6016 54.5098 10.7383C54.806 10.8522 54.9427 11.0117 54.9199 11.2168C54.8971 11.3763 54.8743 11.6953 54.8516 12.1738C54.8288 12.6296 54.7946 13.1764 54.749 13.8145C54.7262 14.4525 54.6921 15.1361 54.6465 15.8652C54.6009 16.5944 54.5553 17.3122 54.5098 18.0186C54.487 18.7021 54.4642 19.3402 54.4414 19.9326C54.4414 20.5251 54.4414 20.9808 54.4414 21.2998C54.4414 21.71 54.4642 22.0859 54.5098 22.4277C54.5553 22.724 54.6123 23.0202 54.6807 23.3164C54.749 23.5898 54.8516 23.7835 54.9883 23.8975C54.806 23.9658 54.6123 24.0114 54.4072 24.0342C54.2249 24.057 54.054 24.0798 53.8945 24.1025C53.7122 24.1253 53.5299 24.1367 53.3477 24.1367C52.9603 24.1367 52.6299 24.057 52.3564 23.8975C52.1058 23.738 51.9805 23.4076 51.9805 22.9062C51.9805 22.6556 51.9919 22.291 52.0146 21.8125C52.0602 21.334 52.1058 20.8213 52.1514 20.2744C51.9919 20.7529 51.7982 21.2428 51.5703 21.7441C51.3424 22.2454 51.0576 22.6898 50.7158 23.0771C50.3968 23.4645 50.0322 23.7835 49.6221 24.0342C49.2119 24.2848 48.7448 24.4102 48.2207 24.4102C47.6283 24.4102 47.0814 24.2848 46.5801 24.0342C46.1016 23.7835 45.68 23.4303 45.3154 22.9746C44.9508 22.4961 44.6774 21.915 44.4951 21.2314C44.3128 20.5479 44.2445 19.7617 44.29 18.873C44.29 18.1895 44.3014 17.4603 44.3242 16.6855C44.347 16.0247 44.3812 15.2614 44.4268 14.3955C44.4723 13.5296 44.5521 12.6296 44.666 11.6953C44.6888 11.6042 44.8483 11.4902 45.1445 11.3535C45.4408 11.2168 45.7712 11.1029 46.1357 11.0117C46.5003 10.9206 46.8535 10.8864 47.1953 10.9092C47.5371 10.932 47.7878 11.0687 47.9473 11.3193C47.8333 11.7295 47.7194 12.2194 47.6055 12.7891C47.4915 13.3359 47.389 13.9056 47.2979 14.498C47.2067 15.0905 47.1383 15.6715 47.0928 16.2412C47.0472 16.8109 47.0244 17.335 47.0244 17.8135C47.0244 18.2464 47.0472 18.7249 47.0928 19.249C47.1383 19.7503 47.2181 20.2288 47.332 20.6846C47.4688 21.1175 47.651 21.4821 47.8789 21.7783C48.1296 22.0745 48.4486 22.2227 48.8359 22.2227C49.2689 22.2227 49.6449 22.0404 49.9639 21.6758C50.3057 21.2884 50.5905 20.7985 50.8184 20.2061C51.0462 19.6136 51.2399 18.9414 51.3994 18.1895C51.5589 17.4147 51.6842 16.6514 51.7754 15.8994C51.8893 15.1475 51.9577 14.4297 51.9805 13.7461C52.026 13.0397 52.0602 12.4473 52.083 11.9688V11.2852ZM67.1904 22.2568C67.236 22.4163 67.3044 22.5645 67.3955 22.7012C67.4639 22.8151 67.555 22.929 67.6689 23.043C67.8057 23.1341 67.9652 23.1911 68.1475 23.2139C67.988 23.5329 67.8285 23.7493 67.6689 23.8633C67.5778 23.9316 67.498 23.9772 67.4297 24C67.2246 24.0684 66.917 24.1025 66.5068 24.1025C66.0967 24.1025 65.6979 23.9772 65.3105 23.7266C65.1738 23.6126 65.0485 23.4417 64.9346 23.2139C64.8206 23.0316 64.7181 22.7809 64.627 22.4619C64.5586 22.1201 64.5016 21.6872 64.4561 21.1631C64.137 21.8467 63.7725 22.3936 63.3623 22.8037C62.9749 23.1911 62.5876 23.4759 62.2002 23.6582C61.7673 23.9089 61.3229 24.057 60.8672 24.1025C60.2975 24.1481 59.7507 24.057 59.2266 23.8291C58.7253 23.5785 58.2923 23.2139 57.9277 22.7354C57.5859 22.234 57.3239 21.6302 57.1416 20.9238C56.9593 20.2174 56.9023 19.4199 56.9707 18.5312C57.0391 17.597 57.2214 16.7653 57.5176 16.0361C57.8138 15.307 58.167 14.6576 58.5771 14.0879C58.9873 13.5182 59.4202 13.0397 59.876 12.6523C60.3317 12.2422 60.7646 11.9118 61.1748 11.6611C61.6077 11.3877 61.9723 11.194 62.2686 11.0801C62.5876 10.9434 62.7926 10.8636 62.8838 10.8408C63.1344 10.7725 63.3509 10.7497 63.5332 10.7725C63.7155 10.7952 63.875 10.8978 64.0117 11.0801C64.0573 11.1484 64.1143 11.2282 64.1826 11.3193C64.2282 11.4105 64.2852 11.5358 64.3535 11.6953C64.4219 11.832 64.4788 11.9915 64.5244 12.1738C63.9775 12.4245 63.4648 12.7093 62.9863 13.0283C62.5078 13.3245 62.0635 13.6891 61.6533 14.1221C61.266 14.555 60.9242 15.0791 60.6279 15.6943C60.3317 16.3096 60.1038 17.0615 59.9443 17.9502C59.7165 19.0667 59.7734 19.9668 60.1152 20.6504C60.4798 21.334 60.9697 21.6188 61.585 21.5049C61.9495 21.391 62.3027 21.1745 62.6445 20.8555C62.9408 20.582 63.2484 20.1719 63.5674 19.625C63.9092 19.0781 64.2282 18.3262 64.5244 17.3691C64.6383 16.002 64.7295 14.931 64.7979 14.1562C64.889 13.3587 64.9688 12.7549 65.0371 12.3447C65.1283 11.8662 65.1966 11.5472 65.2422 11.3877C65.3105 11.2738 65.4473 11.1712 65.6523 11.0801C65.8574 10.9661 66.0853 10.875 66.3359 10.8066C66.5866 10.7383 66.8145 10.7041 67.0195 10.7041C67.2246 10.6813 67.3613 10.6813 67.4297 10.7041C67.4753 10.7269 67.498 11.0117 67.498 11.5586C67.498 12.0827 67.4753 12.7549 67.4297 13.5752C67.4069 14.3727 67.3727 15.25 67.3271 16.207C67.2816 17.1413 67.236 18.0299 67.1904 18.873C67.1676 19.7161 67.1449 20.4567 67.1221 21.0947C67.1221 21.71 67.1449 22.0973 67.1904 22.2568ZM73.8896 24.3076C73.4111 24.3076 72.9212 24.1823 72.4199 23.9316C71.9186 23.681 71.4515 23.305 71.0186 22.8037C70.5856 22.2796 70.2324 21.6416 69.959 20.8896C69.6855 20.1149 69.5488 19.2148 69.5488 18.1895C69.5488 16.6855 69.7425 15.4437 70.1299 14.4639C70.5173 13.4613 70.9844 12.6637 71.5312 12.0713C72.1009 11.4561 72.7161 11.0231 73.377 10.7725C74.0378 10.5218 74.6416 10.3965 75.1885 10.3965C75.7581 10.3965 76.2253 10.499 76.5898 10.7041C76.9772 10.8864 77.2962 11.1029 77.5469 11.3535V10.7041C77.6836 10.5902 77.8317 10.4876 77.9912 10.3965C78.1735 10.3053 78.3558 10.237 78.5381 10.1914C78.7204 10.123 78.9141 10.0889 79.1191 10.0889H79.6318C79.7686 10.1117 79.9053 10.1344 80.042 10.1572C80.2015 10.18 80.3154 10.237 80.3838 10.3281C80.2471 13.3132 80.1331 15.7285 80.042 17.5742C79.9508 19.4199 79.8825 20.8555 79.8369 21.8809C79.7686 23.0885 79.723 23.9658 79.7002 24.5127C79.6546 25.4697 79.5293 26.4154 79.3242 27.3496C79.1191 28.3066 78.8001 29.1611 78.3672 29.9131C77.9342 30.665 77.3646 31.2689 76.6582 31.7246C75.9518 32.1803 75.0859 32.4082 74.0605 32.4082C73.1719 32.4082 72.4541 32.2373 71.9072 31.8955C71.3831 31.5537 70.973 31.1322 70.6768 30.6309C70.4033 30.1296 70.221 29.5941 70.1299 29.0244C70.0387 28.4775 69.9932 27.9762 69.9932 27.5205C69.9932 27.4066 70.0501 27.2357 70.1641 27.0078C70.3008 26.7799 70.4831 26.5407 70.7109 26.29C70.9616 26.0622 71.2692 25.8571 71.6338 25.6748C71.9984 25.4925 72.4085 25.3786 72.8643 25.333C72.6592 25.9482 72.5339 26.5065 72.4883 27.0078C72.4427 27.2812 72.4313 27.5547 72.4541 27.8281C72.4541 28.5801 72.6022 29.2067 72.8984 29.708C73.1947 30.2093 73.6504 30.46 74.2656 30.46C74.9264 30.46 75.4619 30.1751 75.8721 29.6055C76.2822 29.0586 76.5898 28.3864 76.7949 27.5889C77.0228 26.8141 77.1709 25.9938 77.2393 25.1279C77.3304 24.2848 77.376 23.5671 77.376 22.9746V21.9834C77.2393 22.234 77.0684 22.4961 76.8633 22.7695C76.681 23.043 76.4531 23.2936 76.1797 23.5215C75.9062 23.7493 75.5758 23.9316 75.1885 24.0684C74.8239 24.2279 74.391 24.3076 73.8896 24.3076ZM75.291 12.3447C74.9036 12.3447 74.5277 12.5156 74.1631 12.8574C73.8213 13.1992 73.5137 13.6549 73.2402 14.2246C72.9668 14.7715 72.7503 15.3981 72.5908 16.1045C72.4313 16.8109 72.3516 17.5173 72.3516 18.2236C72.3516 18.6794 72.3743 19.1465 72.4199 19.625C72.4883 20.1035 72.6022 20.5479 72.7617 20.958C72.944 21.3454 73.1719 21.6644 73.4453 21.915C73.7188 22.1657 74.0833 22.291 74.5391 22.291C74.8809 22.2682 75.1999 22.1315 75.4961 21.8809C75.7467 21.6758 75.9974 21.3454 76.248 20.8896C76.5215 20.4339 76.738 19.7845 76.8975 18.9414C77.0798 19.1237 77.2165 19.2946 77.3076 19.4541C77.4215 19.6136 77.5127 19.7617 77.5811 19.8984C77.6038 19.7161 77.6152 19.4997 77.6152 19.249C77.638 18.9984 77.6494 18.7135 77.6494 18.3945C77.6494 17.7793 77.6152 17.1185 77.5469 16.4121C77.4785 15.6829 77.3532 15.0221 77.1709 14.4297C77.0114 13.8372 76.7721 13.3473 76.4531 12.96C76.1569 12.5498 75.7695 12.3447 75.291 12.3447ZM87.083 24.376C85.488 24.376 84.2575 23.8405 83.3916 22.7695C82.5257 21.6986 82.0928 20.2972 82.0928 18.5654C82.0928 17.3577 82.2637 16.2298 82.6055 15.1816C82.9701 14.1107 83.4486 13.1878 84.041 12.4131C84.6335 11.6383 85.3171 11.0345 86.0918 10.6016C86.8893 10.1458 87.721 9.91797 88.5869 9.91797C89.43 9.91797 90.1478 10.2256 90.7402 10.8408C91.3327 11.4333 91.6289 12.2878 91.6289 13.4043C91.6289 14.1335 91.4694 14.8626 91.1504 15.5918C90.8314 16.2982 90.4098 16.9362 89.8857 17.5059C89.3844 18.0527 88.8262 18.4971 88.2109 18.8389C87.5957 19.1807 87.0033 19.3516 86.4336 19.3516C86.069 19.3516 85.7614 19.306 85.5107 19.2148C85.2601 19.1237 85.0322 18.987 84.8271 18.8047C84.8955 20.1035 85.1803 21.015 85.6816 21.5391C86.1829 22.0404 86.8324 22.291 87.6299 22.291C88.1768 22.291 88.6553 22.1771 89.0654 21.9492C89.4984 21.7214 89.863 21.4593 90.1592 21.1631C90.4554 20.8669 90.6947 20.5706 90.877 20.2744C91.0592 19.9554 91.1846 19.7161 91.2529 19.5566C91.3213 19.4199 91.4352 19.3516 91.5947 19.3516C91.777 19.3516 91.8682 19.4883 91.8682 19.7617C91.8682 20.0124 91.777 20.3997 91.5947 20.9238C91.4352 21.4251 91.1618 21.9378 90.7744 22.4619C90.387 22.9632 89.8857 23.4076 89.2705 23.7949C88.6781 24.1823 87.9489 24.376 87.083 24.376ZM88.6553 11.3877C88.5186 11.3877 88.2565 11.5358 87.8691 11.832C87.5046 12.1055 87.1058 12.5156 86.6729 13.0625C86.2627 13.6094 85.8753 14.2702 85.5107 15.0449C85.1689 15.7969 84.9525 16.6514 84.8613 17.6084C86.2285 17.2894 87.3109 16.7881 88.1084 16.1045C88.9059 15.4209 89.3047 14.4183 89.3047 13.0967C89.3047 12.4359 89.2249 11.9915 89.0654 11.7637C88.9059 11.513 88.7692 11.3877 88.6553 11.3877ZM97.4053 23.0771C97.3825 23.2139 97.2572 23.362 97.0293 23.5215C96.8242 23.6582 96.5736 23.7835 96.2773 23.8975C96.0039 24.0114 95.7419 24.0798 95.4912 24.1025C95.2406 24.1481 95.0697 24.1253 94.9785 24.0342C94.8874 23.943 94.7393 23.7721 94.5342 23.5215C94.3291 23.2708 94.2038 22.8607 94.1582 22.291C94.1126 21.6986 94.0898 20.958 94.0898 20.0693C94.0898 19.1579 94.0785 18.1553 94.0557 17.0615V15.6943C94.0557 15.2842 94.0443 14.8057 94.0215 14.2588C94.0215 13.7119 94.0101 13.1423 93.9873 12.5498C94.1924 12.4359 94.3975 12.3333 94.6025 12.2422C94.8304 12.1283 95.0355 12.0371 95.2178 11.9688C95.4229 11.8776 95.6165 11.8092 95.7988 11.7637C96.2773 11.627 96.6419 11.5472 96.8926 11.5244C97.1432 11.5016 97.2913 11.5814 97.3369 11.7637C97.3597 11.9004 97.3483 12.2308 97.3027 12.7549C97.2572 13.2106 97.2002 13.9056 97.1318 14.8398C97.0635 15.7513 96.9495 17.0273 96.79 18.668C97.0863 17.9388 97.3255 17.3122 97.5078 16.7881C97.7129 16.264 97.8838 15.8424 98.0205 15.5234C98.1572 15.1361 98.2826 14.8285 98.3965 14.6006C98.5104 14.3044 98.6585 13.974 98.8408 13.6094C99.0231 13.2448 99.2054 12.903 99.3877 12.584C99.5928 12.265 99.7751 11.9801 99.9346 11.7295C100.117 11.4788 100.254 11.3307 100.345 11.2852C100.413 11.2396 100.618 11.2396 100.96 11.2852C101.302 11.3307 101.666 11.4447 102.054 11.627C102.441 11.7865 102.817 12.0257 103.182 12.3447C103.546 12.641 103.785 13.0055 103.899 13.4385C104.036 13.9398 104.082 14.6006 104.036 15.4209C104.013 16.2412 103.956 17.0843 103.865 17.9502C103.797 18.8161 103.74 19.6364 103.694 20.4111C103.649 21.1859 103.694 21.7783 103.831 22.1885C103.877 22.4163 103.945 22.6214 104.036 22.8037C104.082 22.986 104.139 23.1569 104.207 23.3164C104.298 23.4531 104.389 23.5557 104.48 23.624C103.934 23.8747 103.489 24.057 103.147 24.1709C102.806 24.2848 102.544 24.3646 102.361 24.4102C102.133 24.4785 101.974 24.5013 101.883 24.4785C101.678 24.4102 101.495 24.2393 101.336 23.9658C101.199 23.6924 101.074 23.2594 100.96 22.667C100.914 22.4847 100.892 22.1885 100.892 21.7783C100.914 21.3454 100.949 20.8669 100.994 20.3428C101.04 19.7959 101.085 19.2376 101.131 18.668C101.199 18.0755 101.245 17.5286 101.268 17.0273C101.313 16.5033 101.347 16.0589 101.37 15.6943C101.393 15.307 101.393 15.0449 101.37 14.9082C101.256 14.498 101.097 14.2132 100.892 14.0537C100.687 13.8714 100.527 13.8486 100.413 13.9854C100.117 14.3271 99.7979 14.8854 99.4561 15.6602C99.137 16.4121 98.8294 17.2438 98.5332 18.1553C98.237 19.0439 97.9863 19.9326 97.7812 20.8213C97.5762 21.71 97.4508 22.4619 97.4053 23.0771ZM111.863 17.5059C112.365 17.6882 112.843 17.859 113.299 18.0186C113.755 18.1781 114.153 18.3717 114.495 18.5996C114.837 18.8275 115.11 19.1009 115.315 19.4199C115.521 19.7161 115.623 20.0921 115.623 20.5479C115.623 21.0947 115.498 21.6074 115.247 22.0859C115.019 22.5645 114.677 22.986 114.222 23.3506C113.766 23.7152 113.208 24 112.547 24.2051C111.909 24.4329 111.191 24.5469 110.394 24.5469C109.505 24.5469 108.787 24.4557 108.24 24.2734C107.693 24.1139 107.272 23.9202 106.976 23.6924C106.679 23.4645 106.486 23.2367 106.395 23.0088C106.303 22.7809 106.258 22.5986 106.258 22.4619C106.258 22.1885 106.315 21.8923 106.429 21.5732C106.543 21.2314 106.759 20.8669 107.078 20.4795C107.215 20.32 107.363 20.1719 107.522 20.0352C107.841 19.7617 108.16 19.5908 108.479 19.5225C108.434 20.0465 108.491 20.4795 108.65 20.8213C108.833 21.1403 109.061 21.391 109.334 21.5732C109.63 21.7555 109.949 21.8809 110.291 21.9492C110.656 22.0176 110.997 22.0518 111.316 22.0518C111.635 22.0518 111.954 22.0062 112.273 21.915C112.615 21.8239 112.923 21.71 113.196 21.5732C113.47 21.4137 113.686 21.2428 113.846 21.0605C114.028 20.8555 114.119 20.639 114.119 20.4111C114.119 20.1605 114.017 19.9554 113.812 19.7959C113.606 19.6364 113.344 19.5111 113.025 19.4199C112.729 19.306 112.399 19.2262 112.034 19.1807C111.692 19.1123 111.362 19.0439 111.043 18.9756C110.724 18.9072 110.291 18.8161 109.744 18.7021C109.22 18.5654 108.696 18.3604 108.172 18.0869C107.671 17.8135 107.226 17.4489 106.839 16.9932C106.474 16.5374 106.292 15.9336 106.292 15.1816C106.292 14.3158 106.508 13.5638 106.941 12.9258C107.397 12.265 107.944 11.7181 108.582 11.2852C109.243 10.8294 109.938 10.4876 110.667 10.2598C111.396 10.0319 112.046 9.91797 112.615 9.91797C112.911 9.91797 113.23 9.96354 113.572 10.0547C113.914 10.123 114.233 10.2598 114.529 10.4648C114.826 10.6471 115.065 10.8978 115.247 11.2168C115.452 11.5358 115.555 11.946 115.555 12.4473C115.555 12.9486 115.509 13.3587 115.418 13.6777C115.35 13.974 115.236 14.2132 115.076 14.3955C114.939 14.555 114.769 14.6576 114.563 14.7031C114.358 14.7487 114.119 14.7715 113.846 14.7715C113.663 14.7715 113.493 14.7487 113.333 14.7031C113.196 14.6576 113.048 14.612 112.889 14.5664C112.729 14.5208 112.581 14.4411 112.444 14.3271C112.672 14.0537 112.843 13.7917 112.957 13.541C113.094 13.2904 113.162 12.9827 113.162 12.6182C113.162 12.2992 113.071 12.0143 112.889 11.7637C112.729 11.513 112.456 11.3877 112.068 11.3877C111.658 11.3877 111.259 11.4674 110.872 11.627C110.507 11.7865 110.177 12.0029 109.881 12.2764C109.607 12.5498 109.38 12.8688 109.197 13.2334C109.038 13.5752 108.958 13.9512 108.958 14.3613C108.958 14.9766 109.186 15.5576 109.642 16.1045C110.12 16.6514 110.861 17.1185 111.863 17.5059ZM136.062 2.2959C136.062 2.54655 136.04 3.03646 135.994 3.76562C135.949 4.49479 135.892 5.37207 135.823 6.39746C135.755 7.42285 135.687 8.55078 135.618 9.78125C135.55 11.0117 135.493 12.265 135.447 13.541C135.402 14.8171 135.356 16.0133 135.311 17.1299C135.288 18.2236 135.276 19.2035 135.276 20.0693C135.299 20.9352 135.345 21.6644 135.413 22.2568C135.481 22.8265 135.584 23.2139 135.721 23.4189L134.183 24C134.069 24.0456 133.932 24.0684 133.772 24.0684C133.613 24.0684 133.442 24.0228 133.26 23.9316C133.1 23.8405 132.964 23.681 132.85 23.4531C132.736 23.2253 132.679 22.9062 132.679 22.4961C132.679 22.3366 132.679 22.1429 132.679 21.915C132.701 21.6644 132.713 21.3796 132.713 21.0605C132.439 21.5163 132.143 21.9606 131.824 22.3936C131.505 22.8265 131.152 23.2025 130.765 23.5215C130.4 23.8405 130.001 24.0911 129.568 24.2734C129.135 24.4785 128.68 24.5811 128.201 24.5811C127.745 24.5811 127.301 24.4785 126.868 24.2734C126.435 24.0911 126.048 23.8063 125.706 23.4189C125.364 23.0316 125.079 22.5303 124.852 21.915C124.646 21.2998 124.544 20.5592 124.544 19.6934C124.544 18.1211 124.726 16.7539 125.091 15.5918C125.455 14.4069 125.911 13.4271 126.458 12.6523C127.028 11.8548 127.632 11.2624 128.27 10.875C128.93 10.4648 129.534 10.2598 130.081 10.2598C130.924 10.2598 131.574 10.4876 132.029 10.9434C132.485 11.3763 132.815 11.832 133.021 12.3105C133.043 11.6497 133.055 11.0345 133.055 10.4648C133.077 9.8724 133.089 9.37109 133.089 8.96094C133.089 7.27474 133.055 5.77083 132.986 4.44922C132.918 3.1276 132.747 2.125 132.474 1.44141C132.793 1.25911 133.077 1.1224 133.328 1.03125C133.602 0.940104 133.841 0.871745 134.046 0.826172C134.297 0.757812 134.513 0.723633 134.695 0.723633C135.197 0.723633 135.55 0.871745 135.755 1.16797C135.96 1.44141 136.062 1.81738 136.062 2.2959ZM132.815 18.1553C132.861 17.5628 132.884 16.9476 132.884 16.3096C132.907 15.6488 132.929 14.988 132.952 14.3271C132.793 14.5778 132.599 14.7943 132.371 14.9766C132.166 15.1589 131.938 15.2044 131.688 15.1133C131.779 14.4297 131.767 13.9056 131.653 13.541C131.562 13.1764 131.425 12.903 131.243 12.7207C131.038 12.5156 130.799 12.4017 130.525 12.3789C130.115 12.3789 129.705 12.6068 129.295 13.0625C128.908 13.5182 128.554 14.0879 128.235 14.7715C127.939 15.4323 127.7 16.1501 127.518 16.9248C127.335 17.6768 127.244 18.3717 127.244 19.0098C127.244 20.2858 127.415 21.1745 127.757 21.6758C128.121 22.1771 128.509 22.4277 128.919 22.4277C129.261 22.4277 129.614 22.291 129.979 22.0176C130.366 21.7441 130.73 21.391 131.072 20.958C131.437 20.5251 131.767 20.0693 132.063 19.5908C132.382 19.0895 132.633 18.611 132.815 18.1553ZM142.625 24.376C141.03 24.376 139.799 23.8405 138.934 22.7695C138.068 21.6986 137.635 20.2972 137.635 18.5654C137.635 17.3577 137.806 16.2298 138.147 15.1816C138.512 14.1107 138.991 13.1878 139.583 12.4131C140.175 11.6383 140.859 11.0345 141.634 10.6016C142.431 10.1458 143.263 9.91797 144.129 9.91797C144.972 9.91797 145.69 10.2256 146.282 10.8408C146.875 11.4333 147.171 12.2878 147.171 13.4043C147.171 14.1335 147.011 14.8626 146.692 15.5918C146.373 16.2982 145.952 16.9362 145.428 17.5059C144.926 18.0527 144.368 18.4971 143.753 18.8389C143.138 19.1807 142.545 19.3516 141.976 19.3516C141.611 19.3516 141.303 19.306 141.053 19.2148C140.802 19.1237 140.574 18.987 140.369 18.8047C140.438 20.1035 140.722 21.015 141.224 21.5391C141.725 22.0404 142.374 22.291 143.172 22.291C143.719 22.291 144.197 22.1771 144.607 21.9492C145.04 21.7214 145.405 21.4593 145.701 21.1631C145.997 20.8669 146.237 20.5706 146.419 20.2744C146.601 19.9554 146.727 19.7161 146.795 19.5566C146.863 19.4199 146.977 19.3516 147.137 19.3516C147.319 19.3516 147.41 19.4883 147.41 19.7617C147.41 20.0124 147.319 20.3997 147.137 20.9238C146.977 21.4251 146.704 21.9378 146.316 22.4619C145.929 22.9632 145.428 23.4076 144.812 23.7949C144.22 24.1823 143.491 24.376 142.625 24.376ZM144.197 11.3877C144.061 11.3877 143.799 11.5358 143.411 11.832C143.047 12.1055 142.648 12.5156 142.215 13.0625C141.805 13.6094 141.417 14.2702 141.053 15.0449C140.711 15.7969 140.494 16.6514 140.403 17.6084C141.771 17.2894 142.853 16.7881 143.65 16.1045C144.448 15.4209 144.847 14.4183 144.847 13.0967C144.847 12.4359 144.767 11.9915 144.607 11.7637C144.448 11.513 144.311 11.3877 144.197 11.3877ZM163.406 10.4648C164.044 10.4648 164.637 10.6471 165.184 11.0117C165.73 11.3763 166.198 11.8548 166.585 12.4473C166.972 13.0397 167.28 13.7233 167.508 14.498C167.736 15.25 167.85 16.0361 167.85 16.8564C167.85 17.6768 167.758 18.5426 167.576 19.4541C167.394 20.3656 167.109 21.2087 166.722 21.9834C166.334 22.7581 165.833 23.4076 165.218 23.9316C164.603 24.4329 163.851 24.6836 162.962 24.6836C162.256 24.6836 161.583 24.4329 160.945 23.9316C160.33 23.4076 159.852 22.7581 159.51 21.9834C159.464 22.7809 159.362 23.5898 159.202 24.4102C159.043 25.2533 158.963 26.2559 158.963 27.418C158.963 27.7598 158.974 28.1471 158.997 28.5801C159.02 29.013 159.054 29.446 159.1 29.8789C159.145 30.3118 159.214 30.7106 159.305 31.0752C159.396 31.4398 159.498 31.7246 159.612 31.9297C159.225 32.1576 158.872 32.3285 158.553 32.4424C158.257 32.5563 157.994 32.6361 157.767 32.6816C157.516 32.75 157.277 32.7842 157.049 32.7842C156.753 32.7842 156.559 32.6589 156.468 32.4082C156.377 32.1576 156.331 31.7132 156.331 31.0752C156.331 30.665 156.342 30.0726 156.365 29.2979C156.411 28.5459 156.456 27.68 156.502 26.7002C156.57 25.7204 156.627 24.695 156.673 23.624C156.741 22.5303 156.798 21.4593 156.844 20.4111C156.912 19.363 156.958 18.3945 156.98 17.5059C157.026 16.5944 157.049 15.8311 157.049 15.2158C157.049 14.4639 157.037 13.8828 157.015 13.4727C156.992 13.0397 156.958 12.7207 156.912 12.5156C156.889 12.2878 156.855 12.1283 156.81 12.0371C156.764 11.946 156.707 11.8434 156.639 11.7295C156.844 11.57 157.083 11.4333 157.356 11.3193C157.653 11.1826 157.938 11.0915 158.211 11.0459C158.507 10.9775 158.769 10.9548 158.997 10.9775C159.248 11.0003 159.441 11.0573 159.578 11.1484C159.692 11.2624 159.772 11.4333 159.817 11.6611C159.886 11.889 159.943 12.2308 159.988 12.6865C160.421 12.0941 160.911 11.5814 161.458 11.1484C162.028 10.6927 162.677 10.4648 163.406 10.4648ZM162.073 22.667C162.483 22.667 162.871 22.4733 163.235 22.0859C163.623 21.6986 163.953 21.2087 164.227 20.6162C164.523 20.001 164.751 19.3288 164.91 18.5996C165.092 17.8477 165.184 17.1071 165.184 16.3779C165.184 15.5804 165.104 14.931 164.944 14.4297C164.808 13.9056 164.625 13.4954 164.397 13.1992C164.192 12.8802 163.965 12.6637 163.714 12.5498C163.486 12.4131 163.281 12.3447 163.099 12.3447C162.666 12.3447 162.256 12.527 161.868 12.8916C161.481 13.2334 161.139 13.6891 160.843 14.2588C160.547 14.8057 160.307 15.4209 160.125 16.1045C159.965 16.7881 159.886 17.4717 159.886 18.1553C159.886 18.7933 159.943 19.3857 160.057 19.9326C160.193 20.4795 160.364 20.958 160.569 21.3682C160.774 21.7783 161.002 22.0973 161.253 22.3252C161.526 22.5531 161.8 22.667 162.073 22.667ZM179.095 13.5068C179.095 13.8258 179.004 14.1562 178.821 14.498C178.662 14.8171 178.457 15.1247 178.206 15.4209C177.955 15.7171 177.671 15.9792 177.352 16.207C177.055 16.4121 176.771 16.5374 176.497 16.583C176.679 15.8766 176.736 15.3298 176.668 14.9424C176.6 14.555 176.486 14.2702 176.326 14.0879C176.144 13.8828 175.916 13.7689 175.643 13.7461C175.232 13.7461 174.834 13.9854 174.446 14.4639C174.082 14.9196 173.763 15.4893 173.489 16.1729C173.216 16.8337 172.999 17.5514 172.84 18.3262C172.68 19.0781 172.601 19.7617 172.601 20.377C172.578 20.8099 172.589 21.2314 172.635 21.6416C172.658 21.9834 172.692 22.3366 172.737 22.7012C172.806 23.0658 172.897 23.3506 173.011 23.5557C172.874 23.6696 172.646 23.8063 172.327 23.9658C172.031 24.1253 171.712 24.2279 171.37 24.2734C171.051 24.319 170.755 24.262 170.481 24.1025C170.231 23.943 170.094 23.6012 170.071 23.0771C170.026 22.5758 169.992 22.0176 169.969 21.4023C169.969 20.7643 169.969 20.1377 169.969 19.5225C169.992 18.8844 170.014 18.2578 170.037 17.6426C170.06 17.0273 170.094 16.4577 170.14 15.9336C170.185 14.931 170.208 14.1562 170.208 13.6094C170.208 13.0625 170.197 12.5384 170.174 12.0371C170.174 11.946 170.322 11.8206 170.618 11.6611C170.937 11.4788 171.279 11.3193 171.644 11.1826C172.031 11.0459 172.384 10.9661 172.703 10.9434C173.022 10.9206 173.182 10.9889 173.182 11.1484C173.182 11.3991 173.147 11.9004 173.079 12.6523C173.034 13.3815 172.965 14.1449 172.874 14.9424C173.034 14.5094 173.239 14.0423 173.489 13.541C173.763 13.0397 174.07 12.5726 174.412 12.1396C174.754 11.7067 175.141 11.3535 175.574 11.0801C176.007 10.7839 176.486 10.6357 177.01 10.6357C177.42 10.6357 177.75 10.7611 178.001 11.0117C178.274 11.2624 178.491 11.5472 178.65 11.8662C178.81 12.1852 178.924 12.5042 178.992 12.8232C179.061 13.1423 179.095 13.3701 179.095 13.5068ZM189.622 18.1211C189.576 19.0098 189.417 19.8301 189.144 20.582C188.893 21.334 188.54 21.9948 188.084 22.5645C187.628 23.1113 187.081 23.5443 186.443 23.8633C185.828 24.1823 185.145 24.3532 184.393 24.376C183.732 24.3988 183.105 24.2393 182.513 23.8975C181.943 23.5557 181.442 23.0771 181.009 22.4619C180.576 21.8467 180.245 21.1175 180.018 20.2744C179.812 19.4085 179.756 18.4743 179.847 17.4717C179.915 16.3096 180.132 15.3184 180.496 14.498C180.861 13.6549 181.248 12.96 181.658 12.4131C182.068 11.8662 182.444 11.4674 182.786 11.2168C183.151 10.9434 183.379 10.7839 183.47 10.7383C183.629 10.6699 183.777 10.6585 183.914 10.7041C184.051 10.7269 184.199 10.7611 184.358 10.8066C184.404 10.8294 184.45 10.8864 184.495 10.9775C184.586 11.137 184.643 11.4333 184.666 11.8662C184.78 11.6156 184.928 11.4105 185.11 11.251C185.293 11.0915 185.475 10.9775 185.657 10.9092C185.885 10.818 186.113 10.7611 186.341 10.7383C186.5 10.7155 186.774 10.8408 187.161 11.1143C187.571 11.3877 187.959 11.8206 188.323 12.4131C188.711 13.0055 189.041 13.7803 189.314 14.7373C189.588 15.6715 189.69 16.7995 189.622 18.1211ZM187.298 17.7109C187.321 17.1641 187.298 16.6172 187.229 16.0703C187.184 15.5007 187.093 14.988 186.956 14.5322C186.842 14.0537 186.694 13.6777 186.512 13.4043C186.329 13.1081 186.147 12.96 185.965 12.96C185.76 13.0055 185.532 13.1081 185.281 13.2676C185.076 13.4043 184.848 13.6208 184.598 13.917C184.347 14.2132 184.108 14.6348 183.88 15.1816C183.857 15.1133 183.834 14.988 183.812 14.8057C183.789 14.6462 183.766 14.4411 183.743 14.1904C183.743 13.917 183.766 13.5524 183.812 13.0967C183.493 13.484 183.242 13.9398 183.06 14.4639C182.9 14.988 182.775 15.4893 182.684 15.9678C182.592 16.5374 182.524 17.1071 182.479 17.6768C182.456 18.292 182.479 18.8958 182.547 19.4883C182.638 20.0807 182.775 20.6048 182.957 21.0605C183.162 21.5163 183.401 21.8809 183.675 22.1543C183.948 22.4277 184.279 22.5531 184.666 22.5303C185.053 22.5075 185.395 22.348 185.691 22.0518C185.988 21.7555 186.25 21.3796 186.478 20.9238C186.705 20.4681 186.888 19.9554 187.024 19.3857C187.161 18.8161 187.252 18.2578 187.298 17.7109ZM195.228 24.3076C194.749 24.3076 194.259 24.1823 193.758 23.9316C193.257 23.681 192.789 23.305 192.356 22.8037C191.924 22.2796 191.57 21.6416 191.297 20.8896C191.023 20.1149 190.887 19.2148 190.887 18.1895C190.887 16.6855 191.08 15.4437 191.468 14.4639C191.855 13.4613 192.322 12.6637 192.869 12.0713C193.439 11.4561 194.054 11.0231 194.715 10.7725C195.376 10.5218 195.979 10.3965 196.526 10.3965C197.096 10.3965 197.563 10.499 197.928 10.7041C198.315 10.8864 198.634 11.1029 198.885 11.3535V10.7041C199.021 10.5902 199.17 10.4876 199.329 10.3965C199.511 10.3053 199.694 10.237 199.876 10.1914C200.058 10.123 200.252 10.0889 200.457 10.0889H200.97C201.106 10.1117 201.243 10.1344 201.38 10.1572C201.539 10.18 201.653 10.237 201.722 10.3281C201.585 13.3132 201.471 15.7285 201.38 17.5742C201.289 19.4199 201.22 20.8555 201.175 21.8809C201.106 23.0885 201.061 23.9658 201.038 24.5127C200.993 25.4697 200.867 26.4154 200.662 27.3496C200.457 28.3066 200.138 29.1611 199.705 29.9131C199.272 30.665 198.702 31.2689 197.996 31.7246C197.29 32.1803 196.424 32.4082 195.398 32.4082C194.51 32.4082 193.792 32.2373 193.245 31.8955C192.721 31.5537 192.311 31.1322 192.015 30.6309C191.741 30.1296 191.559 29.5941 191.468 29.0244C191.377 28.4775 191.331 27.9762 191.331 27.5205C191.331 27.4066 191.388 27.2357 191.502 27.0078C191.639 26.7799 191.821 26.5407 192.049 26.29C192.299 26.0622 192.607 25.8571 192.972 25.6748C193.336 25.4925 193.746 25.3786 194.202 25.333C193.997 25.9482 193.872 26.5065 193.826 27.0078C193.781 27.2812 193.769 27.5547 193.792 27.8281C193.792 28.5801 193.94 29.2067 194.236 29.708C194.533 30.2093 194.988 30.46 195.604 30.46C196.264 30.46 196.8 30.1751 197.21 29.6055C197.62 29.0586 197.928 28.3864 198.133 27.5889C198.361 26.8141 198.509 25.9938 198.577 25.1279C198.668 24.2848 198.714 23.5671 198.714 22.9746V21.9834C198.577 22.234 198.406 22.4961 198.201 22.7695C198.019 23.043 197.791 23.2936 197.518 23.5215C197.244 23.7493 196.914 23.9316 196.526 24.0684C196.162 24.2279 195.729 24.3076 195.228 24.3076ZM196.629 12.3447C196.242 12.3447 195.866 12.5156 195.501 12.8574C195.159 13.1992 194.852 13.6549 194.578 14.2246C194.305 14.7715 194.088 15.3981 193.929 16.1045C193.769 16.8109 193.689 17.5173 193.689 18.2236C193.689 18.6794 193.712 19.1465 193.758 19.625C193.826 20.1035 193.94 20.5479 194.1 20.958C194.282 21.3454 194.51 21.6644 194.783 21.915C195.057 22.1657 195.421 22.291 195.877 22.291C196.219 22.2682 196.538 22.1315 196.834 21.8809C197.085 21.6758 197.335 21.3454 197.586 20.8896C197.859 20.4339 198.076 19.7845 198.235 18.9414C198.418 19.1237 198.554 19.2946 198.646 19.4541C198.759 19.6136 198.851 19.7617 198.919 19.8984C198.942 19.7161 198.953 19.4997 198.953 19.249C198.976 18.9984 198.987 18.7135 198.987 18.3945C198.987 17.7793 198.953 17.1185 198.885 16.4121C198.816 15.6829 198.691 15.0221 198.509 14.4297C198.349 13.8372 198.11 13.3473 197.791 12.96C197.495 12.5498 197.107 12.3447 196.629 12.3447ZM213.104 13.5068C213.104 13.8258 213.012 14.1562 212.83 14.498C212.671 14.8171 212.465 15.1247 212.215 15.4209C211.964 15.7171 211.679 15.9792 211.36 16.207C211.064 16.4121 210.779 16.5374 210.506 16.583C210.688 15.8766 210.745 15.3298 210.677 14.9424C210.608 14.555 210.494 14.2702 210.335 14.0879C210.153 13.8828 209.925 13.7689 209.651 13.7461C209.241 13.7461 208.842 13.9854 208.455 14.4639C208.09 14.9196 207.771 15.4893 207.498 16.1729C207.225 16.8337 207.008 17.5514 206.849 18.3262C206.689 19.0781 206.609 19.7617 206.609 20.377C206.587 20.8099 206.598 21.2314 206.644 21.6416C206.666 21.9834 206.701 22.3366 206.746 22.7012C206.814 23.0658 206.906 23.3506 207.02 23.5557C206.883 23.6696 206.655 23.8063 206.336 23.9658C206.04 24.1253 205.721 24.2279 205.379 24.2734C205.06 24.319 204.764 24.262 204.49 24.1025C204.24 23.943 204.103 23.6012 204.08 23.0771C204.035 22.5758 204 22.0176 203.978 21.4023C203.978 20.7643 203.978 20.1377 203.978 19.5225C204 18.8844 204.023 18.2578 204.046 17.6426C204.069 17.0273 204.103 16.4577 204.148 15.9336C204.194 14.931 204.217 14.1562 204.217 13.6094C204.217 13.0625 204.205 12.5384 204.183 12.0371C204.183 11.946 204.331 11.8206 204.627 11.6611C204.946 11.4788 205.288 11.3193 205.652 11.1826C206.04 11.0459 206.393 10.9661 206.712 10.9434C207.031 10.9206 207.19 10.9889 207.19 11.1484C207.19 11.3991 207.156 11.9004 207.088 12.6523C207.042 13.3815 206.974 14.1449 206.883 14.9424C207.042 14.5094 207.247 14.0423 207.498 13.541C207.771 13.0397 208.079 12.5726 208.421 12.1396C208.763 11.7067 209.15 11.3535 209.583 11.0801C210.016 10.7839 210.494 10.6357 211.019 10.6357C211.429 10.6357 211.759 10.7611 212.01 11.0117C212.283 11.2624 212.5 11.5472 212.659 11.8662C212.819 12.1852 212.933 12.5042 213.001 12.8232C213.069 13.1423 213.104 13.3701 213.104 13.5068ZM224.075 22.2568C224.121 22.4163 224.189 22.5645 224.28 22.7012C224.349 22.8151 224.44 22.929 224.554 23.043C224.69 23.1341 224.85 23.1911 225.032 23.2139C224.873 23.5329 224.713 23.7493 224.554 23.8633C224.463 23.9316 224.383 23.9772 224.314 24C224.109 24.0684 223.802 24.1025 223.392 24.1025C222.981 24.1025 222.583 23.9772 222.195 23.7266C222.059 23.6126 221.933 23.4417 221.819 23.2139C221.705 23.0316 221.603 22.7809 221.512 22.4619C221.443 22.1201 221.386 21.6872 221.341 21.1631C221.022 21.8467 220.657 22.3936 220.247 22.8037C219.86 23.1911 219.472 23.4759 219.085 23.6582C218.652 23.9089 218.208 24.057 217.752 24.1025C217.182 24.1481 216.635 24.057 216.111 23.8291C215.61 23.5785 215.177 23.2139 214.812 22.7354C214.471 22.234 214.209 21.6302 214.026 20.9238C213.844 20.2174 213.787 19.4199 213.855 18.5312C213.924 17.597 214.106 16.7653 214.402 16.0361C214.699 15.307 215.052 14.6576 215.462 14.0879C215.872 13.5182 216.305 13.0397 216.761 12.6523C217.216 12.2422 217.649 11.9118 218.06 11.6611C218.493 11.3877 218.857 11.194 219.153 11.0801C219.472 10.9434 219.677 10.8636 219.769 10.8408C220.019 10.7725 220.236 10.7497 220.418 10.7725C220.6 10.7952 220.76 10.8978 220.896 11.0801C220.942 11.1484 220.999 11.2282 221.067 11.3193C221.113 11.4105 221.17 11.5358 221.238 11.6953C221.307 11.832 221.364 11.9915 221.409 12.1738C220.862 12.4245 220.35 12.7093 219.871 13.0283C219.393 13.3245 218.948 13.6891 218.538 14.1221C218.151 14.555 217.809 15.0791 217.513 15.6943C217.216 16.3096 216.989 17.0615 216.829 17.9502C216.601 19.0667 216.658 19.9668 217 20.6504C217.365 21.334 217.854 21.6188 218.47 21.5049C218.834 21.391 219.188 21.1745 219.529 20.8555C219.826 20.582 220.133 20.1719 220.452 19.625C220.794 19.0781 221.113 18.3262 221.409 17.3691C221.523 16.002 221.614 14.931 221.683 14.1562C221.774 13.3587 221.854 12.7549 221.922 12.3447C222.013 11.8662 222.081 11.5472 222.127 11.3877C222.195 11.2738 222.332 11.1712 222.537 11.0801C222.742 10.9661 222.97 10.875 223.221 10.8066C223.471 10.7383 223.699 10.7041 223.904 10.7041C224.109 10.6813 224.246 10.6813 224.314 10.7041C224.36 10.7269 224.383 11.0117 224.383 11.5586C224.383 12.0827 224.36 12.7549 224.314 13.5752C224.292 14.3727 224.257 15.25 224.212 16.207C224.166 17.1413 224.121 18.0299 224.075 18.873C224.052 19.7161 224.03 20.4567 224.007 21.0947C224.007 21.71 224.03 22.0973 224.075 22.2568ZM234.568 13.3359C234.386 13.3359 234.181 13.4385 233.953 13.6436C233.748 13.8258 233.543 14.0879 233.338 14.4297C233.133 14.7487 232.928 15.1133 232.723 15.5234C232.518 15.9108 232.335 16.3096 232.176 16.7197C231.788 17.6768 231.412 18.6566 231.048 19.6592C230.683 20.6618 230.467 21.5277 230.398 22.2568C230.376 22.3252 230.364 22.3936 230.364 22.4619C230.364 22.5075 230.364 22.5531 230.364 22.5986C230.341 22.6442 230.33 22.7126 230.33 22.8037C230.285 23.1227 230.216 23.3848 230.125 23.5898C230.057 23.7721 229.897 23.8975 229.646 23.9658C229.373 24.0114 229.1 24.0456 228.826 24.0684C228.553 24.0911 228.291 24.0684 228.04 24C227.881 23.9544 227.755 23.8747 227.664 23.7607C227.596 23.624 227.539 23.4759 227.493 23.3164C227.47 23.1341 227.448 22.9632 227.425 22.8037C227.425 22.6442 227.425 22.5075 227.425 22.3936C227.425 22.2568 227.436 21.8353 227.459 21.1289C227.482 20.3997 227.505 19.5794 227.527 18.668C227.55 17.7565 227.562 16.8678 227.562 16.002C227.562 15.1133 227.55 14.4411 227.527 13.9854C227.482 13.6663 227.436 13.3701 227.391 13.0967C227.345 12.846 227.288 12.5954 227.22 12.3447C227.174 12.0941 227.094 11.8776 226.98 11.6953C227.231 11.5586 227.482 11.4447 227.732 11.3535C227.983 11.2624 228.211 11.194 228.416 11.1484C228.667 11.0801 228.895 11.0345 229.1 11.0117C229.646 10.9661 230.068 10.9661 230.364 11.0117C230.683 11.0573 230.843 11.2965 230.843 11.7295C230.843 12.1169 230.809 12.7207 230.74 13.541C230.695 14.3385 230.638 15.4551 230.569 16.8906C230.82 16.321 231.116 15.6829 231.458 14.9766C231.8 14.2474 232.164 13.5752 232.552 12.96C232.939 12.3219 233.338 11.7979 233.748 11.3877C234.158 10.9548 234.546 10.7383 234.91 10.7383C235.161 10.7383 235.446 10.7952 235.765 10.9092C236.106 11.0003 236.425 11.137 236.722 11.3193C237.018 11.4788 237.28 11.6611 237.508 11.8662C237.758 12.0713 237.929 12.2764 238.021 12.4814C238.112 12.7093 238.169 13.0625 238.191 13.541C238.214 14.0195 238.214 14.555 238.191 15.1475C238.374 14.7145 238.579 14.293 238.807 13.8828C239.035 13.4727 239.262 13.0967 239.49 12.7549C239.741 12.3903 239.992 12.0827 240.242 11.832C240.493 11.5814 240.721 11.4105 240.926 11.3193C241.199 11.2054 241.53 11.1826 241.917 11.251C242.304 11.3193 242.68 11.4447 243.045 11.627C243.432 11.7865 243.763 11.9801 244.036 12.208C244.332 12.4359 244.515 12.6523 244.583 12.8574C244.651 13.0853 244.708 13.4385 244.754 13.917C244.799 14.3955 244.834 14.9196 244.856 15.4893C244.879 16.0589 244.891 16.6514 244.891 17.2666C244.891 17.859 244.879 18.3831 244.856 18.8389C244.811 20.1605 244.822 21.2087 244.891 21.9834C244.959 22.7354 245.232 23.2936 245.711 23.6582C245.392 23.8633 245.096 24.0114 244.822 24.1025C244.549 24.2165 244.31 24.2962 244.104 24.3418C243.854 24.4102 243.637 24.4443 243.455 24.4443C243.204 24.4443 242.999 24.376 242.84 24.2393C242.68 24.1253 242.555 23.9658 242.464 23.7607C242.373 23.5557 242.316 23.3278 242.293 23.0771C242.27 22.8265 242.259 22.5758 242.259 22.3252C242.259 22.0973 242.27 21.7214 242.293 21.1973C242.339 20.6504 242.373 20.0352 242.396 19.3516C242.418 18.668 242.418 17.973 242.396 17.2666C242.373 16.5374 242.316 15.8766 242.225 15.2842C242.156 14.6689 242.031 14.1676 241.849 13.7803C241.666 13.3929 241.416 13.1992 241.097 13.1992C240.823 13.1992 240.561 13.3701 240.311 13.7119C240.06 14.0309 239.821 14.4639 239.593 15.0107C239.365 15.5348 239.16 16.1273 238.978 16.7881C238.818 17.4261 238.67 18.0641 238.533 18.7021C238.396 19.3402 238.294 19.9326 238.226 20.4795C238.157 21.0036 238.123 21.4251 238.123 21.7441L238.089 21.4365C238.089 21.8695 238.089 22.2682 238.089 22.6328C238.112 22.9974 238.134 23.362 238.157 23.7266C238.18 23.8633 238.055 23.9772 237.781 24.0684C237.508 24.1823 237.2 24.2279 236.858 24.2051C236.539 24.2051 236.243 24.1367 235.97 24C235.696 23.8633 235.56 23.6354 235.56 23.3164C235.56 23.0885 235.56 22.7467 235.56 22.291C235.56 21.8353 235.548 21.3226 235.525 20.7529C235.525 20.1833 235.514 19.5908 235.491 18.9756C235.491 18.3376 235.48 17.7337 235.457 17.1641C235.457 16.7311 235.446 16.2868 235.423 15.8311C235.423 15.3753 235.4 14.9652 235.354 14.6006C235.309 14.2132 235.218 13.9056 235.081 13.6777C234.967 13.4499 234.796 13.3359 234.568 13.3359ZM257.366 22.2568C257.412 22.4163 257.48 22.5645 257.571 22.7012C257.64 22.8151 257.731 22.929 257.845 23.043C257.981 23.1341 258.141 23.1911 258.323 23.2139C258.164 23.5329 258.004 23.7493 257.845 23.8633C257.754 23.9316 257.674 23.9772 257.605 24C257.4 24.0684 257.093 24.1025 256.683 24.1025C256.272 24.1025 255.874 23.9772 255.486 23.7266C255.35 23.6126 255.224 23.4417 255.11 23.2139C254.996 23.0316 254.894 22.7809 254.803 22.4619C254.734 22.1201 254.677 21.6872 254.632 21.1631C254.313 21.8467 253.948 22.3936 253.538 22.8037C253.151 23.1911 252.763 23.4759 252.376 23.6582C251.943 23.9089 251.499 24.057 251.043 24.1025C250.473 24.1481 249.926 24.057 249.402 23.8291C248.901 23.5785 248.468 23.2139 248.104 22.7354C247.762 22.234 247.5 21.6302 247.317 20.9238C247.135 20.2174 247.078 19.4199 247.146 18.5312C247.215 17.597 247.397 16.7653 247.693 16.0361C247.99 15.307 248.343 14.6576 248.753 14.0879C249.163 13.5182 249.596 13.0397 250.052 12.6523C250.507 12.2422 250.94 11.9118 251.351 11.6611C251.784 11.3877 252.148 11.194 252.444 11.0801C252.763 10.9434 252.968 10.8636 253.06 10.8408C253.31 10.7725 253.527 10.7497 253.709 10.7725C253.891 10.7952 254.051 10.8978 254.188 11.0801C254.233 11.1484 254.29 11.2282 254.358 11.3193C254.404 11.4105 254.461 11.5358 254.529 11.6953C254.598 11.832 254.655 11.9915 254.7 12.1738C254.153 12.4245 253.641 12.7093 253.162 13.0283C252.684 13.3245 252.239 13.6891 251.829 14.1221C251.442 14.555 251.1 15.0791 250.804 15.6943C250.507 16.3096 250.28 17.0615 250.12 17.9502C249.892 19.0667 249.949 19.9668 250.291 20.6504C250.656 21.334 251.146 21.6188 251.761 21.5049C252.125 21.391 252.479 21.1745 252.82 20.8555C253.117 20.582 253.424 20.1719 253.743 19.625C254.085 19.0781 254.404 18.3262 254.7 17.3691C254.814 16.002 254.905 14.931 254.974 14.1562C255.065 13.3587 255.145 12.7549 255.213 12.3447C255.304 11.8662 255.372 11.5472 255.418 11.3877C255.486 11.2738 255.623 11.1712 255.828 11.0801C256.033 10.9661 256.261 10.875 256.512 10.8066C256.762 10.7383 256.99 10.7041 257.195 10.7041C257.4 10.6813 257.537 10.6813 257.605 10.7041C257.651 10.7269 257.674 11.0117 257.674 11.5586C257.674 12.0827 257.651 12.7549 257.605 13.5752C257.583 14.3727 257.549 15.25 257.503 16.207C257.457 17.1413 257.412 18.0299 257.366 18.873C257.343 19.7161 257.321 20.4567 257.298 21.0947C257.298 21.71 257.321 22.0973 257.366 22.2568ZM265.911 25.9141C266.116 25.9141 266.355 25.9482 266.629 26.0166C266.925 26.1077 267.199 26.2445 267.449 26.4268C267.723 26.6318 267.939 26.8939 268.099 27.2129C268.281 27.5547 268.361 27.9876 268.338 28.5117C268.315 28.9219 268.201 29.2751 267.996 29.5713C267.791 29.8903 267.529 30.1523 267.21 30.3574C266.914 30.5625 266.572 30.7106 266.185 30.8018C265.797 30.8929 265.41 30.9385 265.022 30.9385C264.749 30.9385 264.487 30.9157 264.236 30.8701C264.008 30.8245 263.758 30.7562 263.484 30.665C263.234 30.5967 262.994 30.4827 262.767 30.3232L262.801 29.0244C263.097 29.1383 263.45 29.2067 263.86 29.2295C264.293 29.2523 264.692 29.2295 265.057 29.1611C265.444 29.0928 265.763 28.9788 266.014 28.8193C266.287 28.6598 266.435 28.4548 266.458 28.2041C266.458 27.9535 266.344 27.7712 266.116 27.6572C265.911 27.5433 265.66 27.4635 265.364 27.418C265.091 27.3952 264.806 27.3952 264.51 27.418C264.214 27.4408 263.986 27.4635 263.826 27.4863C263.37 27.5775 263.131 27.361 263.108 26.8369C263.108 26.6774 263.097 26.4723 263.074 26.2217C263.051 25.9938 263.029 25.6976 263.006 25.333C263.006 24.9684 262.994 24.5127 262.972 23.9658C261.536 23.4189 260.556 22.234 260.032 20.4111C259.759 19.363 259.679 18.2464 259.793 17.0615C259.93 15.8538 260.26 14.7373 260.784 13.7119C261.308 12.6865 262.037 11.8206 262.972 11.1143C263.906 10.3851 265.045 9.98633 266.39 9.91797C267.073 9.89518 267.643 10.0205 268.099 10.2939C268.554 10.5674 268.908 10.9206 269.158 11.3535C269.409 11.7865 269.557 12.265 269.603 12.7891C269.648 13.2904 269.591 13.7689 269.432 14.2246C269.295 14.6803 269.067 15.0677 268.748 15.3867C268.452 15.6829 268.064 15.8424 267.586 15.8652C267.107 15.9108 266.709 15.8538 266.39 15.6943C266.093 15.512 265.854 15.2956 265.672 15.0449C265.512 14.7943 265.398 14.5322 265.33 14.2588C265.285 13.9854 265.285 13.7461 265.33 13.541C265.398 13.2448 265.512 12.9714 265.672 12.7207C265.809 12.4928 266.002 12.265 266.253 12.0371C266.526 11.8092 266.88 11.627 267.312 11.4902C267.244 11.4447 267.176 11.4219 267.107 11.4219C267.039 11.4219 266.971 11.4105 266.902 11.3877C266.811 11.3877 266.743 11.3763 266.697 11.3535C266.333 11.3535 265.911 11.4788 265.433 11.7295C264.977 11.9801 264.533 12.3789 264.1 12.9258C263.689 13.4727 263.336 14.179 263.04 15.0449C262.767 15.888 262.63 16.9134 262.63 18.1211C262.63 18.6452 262.687 19.1693 262.801 19.6934C262.915 20.1947 263.086 20.6504 263.313 21.0605C263.564 21.4479 263.86 21.7669 264.202 22.0176C264.567 22.2454 264.988 22.3594 265.467 22.3594C266.014 22.3594 266.492 22.2454 266.902 22.0176C267.335 21.7669 267.7 21.4821 267.996 21.1631C268.292 20.8441 268.52 20.5251 268.68 20.2061C268.862 19.887 268.987 19.6478 269.056 19.4883C269.124 19.3516 269.238 19.2832 269.397 19.2832C269.58 19.2832 269.671 19.4199 269.671 19.6934C269.671 19.944 269.591 20.3086 269.432 20.7871C269.272 21.2656 269.01 21.7555 268.646 22.2568C268.304 22.7354 267.848 23.1797 267.278 23.5898C266.731 23.9772 266.071 24.2051 265.296 24.2734C265.296 24.4785 265.285 24.6836 265.262 24.8887C265.262 25.0938 265.25 25.276 265.228 25.4355C265.205 25.6178 265.171 25.7887 265.125 25.9482C265.239 25.9255 265.353 25.9141 265.467 25.9141C265.581 25.9141 265.729 25.9141 265.911 25.9141ZM281.531 22.2568C281.577 22.4163 281.645 22.5645 281.736 22.7012C281.805 22.8151 281.896 22.929 282.01 23.043C282.146 23.1341 282.306 23.1911 282.488 23.2139C282.329 23.5329 282.169 23.7493 282.01 23.8633C281.919 23.9316 281.839 23.9772 281.771 24C281.565 24.0684 281.258 24.1025 280.848 24.1025C280.438 24.1025 280.039 23.9772 279.651 23.7266C279.515 23.6126 279.389 23.4417 279.275 23.2139C279.161 23.0316 279.059 22.7809 278.968 22.4619C278.899 22.1201 278.842 21.6872 278.797 21.1631C278.478 21.8467 278.113 22.3936 277.703 22.8037C277.316 23.1911 276.928 23.4759 276.541 23.6582C276.108 23.9089 275.664 24.057 275.208 24.1025C274.638 24.1481 274.091 24.057 273.567 23.8291C273.066 23.5785 272.633 23.2139 272.269 22.7354C271.927 22.234 271.665 21.6302 271.482 20.9238C271.3 20.2174 271.243 19.4199 271.312 18.5312C271.38 17.597 271.562 16.7653 271.858 16.0361C272.155 15.307 272.508 14.6576 272.918 14.0879C273.328 13.5182 273.761 13.0397 274.217 12.6523C274.673 12.2422 275.105 11.9118 275.516 11.6611C275.949 11.3877 276.313 11.194 276.609 11.0801C276.928 10.9434 277.133 10.8636 277.225 10.8408C277.475 10.7725 277.692 10.7497 277.874 10.7725C278.056 10.7952 278.216 10.8978 278.353 11.0801C278.398 11.1484 278.455 11.2282 278.523 11.3193C278.569 11.4105 278.626 11.5358 278.694 11.6953C278.763 11.832 278.82 11.9915 278.865 12.1738C278.318 12.4245 277.806 12.7093 277.327 13.0283C276.849 13.3245 276.404 13.6891 275.994 14.1221C275.607 14.555 275.265 15.0791 274.969 15.6943C274.673 16.3096 274.445 17.0615 274.285 17.9502C274.057 19.0667 274.114 19.9668 274.456 20.6504C274.821 21.334 275.311 21.6188 275.926 21.5049C276.29 21.391 276.644 21.1745 276.985 20.8555C277.282 20.582 277.589 20.1719 277.908 19.625C278.25 19.0781 278.569 18.3262 278.865 17.3691C278.979 16.002 279.07 14.931 279.139 14.1562C279.23 13.3587 279.31 12.7549 279.378 12.3447C279.469 11.8662 279.537 11.5472 279.583 11.3877C279.651 11.2738 279.788 11.1712 279.993 11.0801C280.198 10.9661 280.426 10.875 280.677 10.8066C280.927 10.7383 281.155 10.7041 281.36 10.7041C281.565 10.6813 281.702 10.6813 281.771 10.7041C281.816 10.7269 281.839 11.0117 281.839 11.5586C281.839 12.0827 281.816 12.7549 281.771 13.5752C281.748 14.3727 281.714 15.25 281.668 16.207C281.622 17.1413 281.577 18.0299 281.531 18.873C281.508 19.7161 281.486 20.4567 281.463 21.0947C281.463 21.71 281.486 22.0973 281.531 22.2568ZM279.822 6.39746C280.05 6.37467 280.289 6.30632 280.54 6.19238C280.745 6.07845 280.962 5.93034 281.189 5.74805C281.44 5.56576 281.679 5.29232 281.907 4.92773C281.998 5.04167 282.055 5.22396 282.078 5.47461C282.101 5.72526 282.09 5.9873 282.044 6.26074C282.021 6.53418 281.964 6.80762 281.873 7.08105C281.805 7.35449 281.714 7.58236 281.6 7.76465C281.486 7.92415 281.292 8.10645 281.019 8.31152C280.745 8.5166 280.392 8.61914 279.959 8.61914C279.503 8.61914 279.093 8.55078 278.729 8.41406C278.387 8.27734 278.068 8.12923 277.771 7.96973C277.498 7.78743 277.225 7.62793 276.951 7.49121C276.701 7.35449 276.45 7.28613 276.199 7.28613C275.971 7.30892 275.732 7.36589 275.481 7.45703C275.276 7.54818 275.037 7.6849 274.764 7.86719C274.49 8.04948 274.217 8.31152 273.943 8.65332C273.761 8.58496 273.613 8.44824 273.499 8.24316C273.385 8.0153 273.305 7.77604 273.26 7.52539C273.214 7.27474 273.18 7.04688 273.157 6.8418C273.157 6.61393 273.169 6.44303 273.191 6.3291C273.488 6.01009 273.784 5.77083 274.08 5.61133C274.376 5.45182 274.65 5.3265 274.9 5.23535C275.174 5.14421 275.447 5.08724 275.721 5.06445C276.108 5.06445 276.45 5.14421 276.746 5.30371C277.065 5.44043 277.373 5.59993 277.669 5.78223C277.988 5.94173 278.307 6.08984 278.626 6.22656C278.968 6.36328 279.367 6.42025 279.822 6.39746ZM293.904 18.1211C293.859 19.0098 293.699 19.8301 293.426 20.582C293.175 21.334 292.822 21.9948 292.366 22.5645C291.91 23.1113 291.364 23.5443 290.726 23.8633C290.11 24.1823 289.427 24.3532 288.675 24.376C288.014 24.3988 287.387 24.2393 286.795 23.8975C286.225 23.5557 285.724 23.0771 285.291 22.4619C284.858 21.8467 284.528 21.1175 284.3 20.2744C284.095 19.4085 284.038 18.4743 284.129 17.4717C284.197 16.3096 284.414 15.3184 284.778 14.498C285.143 13.6549 285.53 12.96 285.94 12.4131C286.351 11.8662 286.727 11.4674 287.068 11.2168C287.433 10.9434 287.661 10.7839 287.752 10.7383C287.911 10.6699 288.06 10.6585 288.196 10.7041C288.333 10.7269 288.481 10.7611 288.641 10.8066C288.686 10.8294 288.732 10.8864 288.777 10.9775C288.868 11.137 288.925 11.4333 288.948 11.8662C289.062 11.6156 289.21 11.4105 289.393 11.251C289.575 11.0915 289.757 10.9775 289.939 10.9092C290.167 10.818 290.395 10.7611 290.623 10.7383C290.783 10.7155 291.056 10.8408 291.443 11.1143C291.854 11.3877 292.241 11.8206 292.605 12.4131C292.993 13.0055 293.323 13.7803 293.597 14.7373C293.87 15.6715 293.973 16.7995 293.904 18.1211ZM291.58 17.7109C291.603 17.1641 291.58 16.6172 291.512 16.0703C291.466 15.5007 291.375 14.988 291.238 14.5322C291.124 14.0537 290.976 13.6777 290.794 13.4043C290.612 13.1081 290.429 12.96 290.247 12.96C290.042 13.0055 289.814 13.1081 289.563 13.2676C289.358 13.4043 289.131 13.6208 288.88 13.917C288.629 14.2132 288.39 14.6348 288.162 15.1816C288.139 15.1133 288.117 14.988 288.094 14.8057C288.071 14.6462 288.048 14.4411 288.025 14.1904C288.025 13.917 288.048 13.5524 288.094 13.0967C287.775 13.484 287.524 13.9398 287.342 14.4639C287.182 14.988 287.057 15.4893 286.966 15.9678C286.875 16.5374 286.806 17.1071 286.761 17.6768C286.738 18.292 286.761 18.8958 286.829 19.4883C286.92 20.0807 287.057 20.6048 287.239 21.0605C287.444 21.5163 287.684 21.8809 287.957 22.1543C288.23 22.4277 288.561 22.5531 288.948 22.5303C289.336 22.5075 289.677 22.348 289.974 22.0518C290.27 21.7555 290.532 21.3796 290.76 20.9238C290.988 20.4681 291.17 19.9554 291.307 19.3857C291.443 18.8161 291.535 18.2578 291.58 17.7109Z" fill="#01847F"/>
</svg>
