<svg width="48" height="11" viewBox="0 0 48 11" fill="none" xmlns="http://www.w3.org/2000/svg">
<path d="M1.93397 9.112H4.86197V10H0.841969V1.636H1.93397V9.112ZM6.58566 2.356C6.37766 2.356 6.20166 2.284 6.05766 2.14C5.91366 1.996 5.84166 1.82 5.84166 1.612C5.84166 1.404 5.91366 1.228 6.05766 1.084C6.20166 0.94 6.37766 0.868 6.58566 0.868C6.78566 0.868 6.95366 0.94 7.08966 1.084C7.23366 1.228 7.30566 1.404 7.30566 1.612C7.30566 1.82 7.23366 1.996 7.08966 2.14C6.95366 2.284 6.78566 2.356 6.58566 2.356ZM7.11366 3.424V10H6.02166V3.424H7.11366ZM12.1788 3.304C12.9788 3.304 13.6268 3.548 14.1228 4.036C14.6188 4.516 14.8668 5.212 14.8668 6.124V10H13.7868V6.28C13.7868 5.624 13.6228 5.124 13.2948 4.78C12.9668 4.428 12.5188 4.252 11.9508 4.252C11.3748 4.252 10.9148 4.432 10.5708 4.792C10.2348 5.152 10.0668 5.676 10.0668 6.364V10H8.97478V3.424H10.0668V4.36C10.2828 4.024 10.5748 3.764 10.9428 3.58C11.3188 3.396 11.7308 3.304 12.1788 3.304ZM20.3226 10L17.7426 7.096V10H16.6506V1.12H17.7426V6.34L20.2746 3.424H21.7986L18.7026 6.7L21.8106 10H20.3226ZM28.8263 6.46C28.8263 6.668 28.8143 6.888 28.7903 7.12H23.5343C23.5743 7.768 23.7943 8.276 24.1943 8.644C24.6023 9.004 25.0943 9.184 25.6703 9.184C26.1423 9.184 26.5343 9.076 26.8463 8.86C27.1663 8.636 27.3903 8.34 27.5183 7.972H28.6943C28.5183 8.604 28.1663 9.12 27.6383 9.52C27.1103 9.912 26.4543 10.108 25.6703 10.108C25.0463 10.108 24.4863 9.968 23.9903 9.688C23.5023 9.408 23.1183 9.012 22.8383 8.5C22.5583 7.98 22.4183 7.38 22.4183 6.7C22.4183 6.02 22.5543 5.424 22.8263 4.912C23.0983 4.4 23.4783 4.008 23.9663 3.736C24.4623 3.456 25.0303 3.316 25.6703 3.316C26.2943 3.316 26.8463 3.452 27.3263 3.724C27.8063 3.996 28.1743 4.372 28.4303 4.852C28.6943 5.324 28.8263 5.86 28.8263 6.46ZM27.6983 6.232C27.6983 5.816 27.6063 5.46 27.4223 5.164C27.2383 4.86 26.9863 4.632 26.6663 4.48C26.3543 4.32 26.0063 4.24 25.6223 4.24C25.0703 4.24 24.5983 4.416 24.2063 4.768C23.8223 5.12 23.6023 5.608 23.5463 6.232H27.6983ZM29.8598 6.688C29.8598 6.016 29.9958 5.428 30.2678 4.924C30.5398 4.412 30.9118 4.016 31.3838 3.736C31.8638 3.456 32.3998 3.316 32.9918 3.316C33.5038 3.316 33.9798 3.436 34.4198 3.676C34.8598 3.908 35.1958 4.216 35.4278 4.6V1.12H36.5318V10H35.4278V8.764C35.2118 9.156 34.8918 9.48 34.4678 9.736C34.0438 9.984 33.5478 10.108 32.9798 10.108C32.3958 10.108 31.8638 9.964 31.3838 9.676C30.9118 9.388 30.5398 8.984 30.2678 8.464C29.9958 7.944 29.8598 7.352 29.8598 6.688ZM35.4278 6.7C35.4278 6.204 35.3278 5.772 35.1278 5.404C34.9278 5.036 34.6558 4.756 34.3118 4.564C33.9758 4.364 33.6038 4.264 33.1958 4.264C32.7878 4.264 32.4158 4.36 32.0798 4.552C31.7438 4.744 31.4758 5.024 31.2758 5.392C31.0758 5.76 30.9758 6.192 30.9758 6.688C30.9758 7.192 31.0758 7.632 31.2758 8.008C31.4758 8.376 31.7438 8.66 32.0798 8.86C32.4158 9.052 32.7878 9.148 33.1958 9.148C33.6038 9.148 33.9758 9.052 34.3118 8.86C34.6558 8.66 34.9278 8.376 35.1278 8.008C35.3278 7.632 35.4278 7.196 35.4278 6.7ZM39.4691 1.636V10H38.3771V1.636H39.4691ZM44.5343 3.304C45.3343 3.304 45.9823 3.548 46.4783 4.036C46.9743 4.516 47.2223 5.212 47.2223 6.124V10H46.1423V6.28C46.1423 5.624 45.9783 5.124 45.6503 4.78C45.3223 4.428 44.8743 4.252 44.3063 4.252C43.7303 4.252 43.2703 4.432 42.9263 4.792C42.5903 5.152 42.4223 5.676 42.4223 6.364V10H41.3303V3.424H42.4223V4.36C42.6383 4.024 42.9303 3.764 43.2983 3.58C43.6743 3.396 44.0863 3.304 44.5343 3.304Z" fill="white"/>
</svg>
