<svg width="53" height="35" viewBox="0 0 53 35" fill="none" xmlns="http://www.w3.org/2000/svg">
<g filter="url(#filter0_d)">
<path d="M27.013 25.82C26.629 26.348 26.077 26.612 25.357 26.612C25.165 26.612 24.973 26.588 24.781 26.54C24.253 25.34 23.857 23.648 23.593 21.464C23.353 19.256 23.173 17.804 23.053 17.108C20.437 17.012 17.821 16.964 15.205 16.964C12.589 16.964 10.249 17.072 8.18495 17.288C7.96895 18.272 7.72895 19.748 7.46495 21.716C7.22495 23.66 7.04495 24.968 6.92495 25.64C6.06095 26.336 5.28095 26.432 4.58495 25.928C4.65695 25.352 4.76495 24.44 4.90895 23.192C5.05295 21.944 5.17295 20.888 5.26895 20.024C5.38895 19.136 5.55695 18.02 5.77295 16.676C5.98895 15.332 6.19295 14.18 6.38495 13.22C6.60095 12.236 6.88895 11.144 7.24895 9.944C7.60895 8.72 7.98095 7.676 8.36495 6.812C8.74895 5.948 9.21695 5.072 9.76895 4.184C10.345 3.296 10.957 2.576 11.605 2.024C13.093 0.8 14.713 0.188 16.465 0.188C18.217 0.188 19.669 0.86 20.821 2.204C21.997 3.548 22.885 5.312 23.485 7.496C24.085 9.68 24.565 11.876 24.925 14.084C25.285 16.292 25.633 18.548 25.969 20.852C26.305 23.156 26.653 24.812 27.013 25.82ZM20.317 5.84C19.861 4.664 19.273 3.752 18.553 3.104C17.833 2.432 16.945 2.096 15.889 2.096C14.833 2.096 13.813 2.612 12.829 3.644C11.845 4.676 11.065 5.96 10.489 7.496C9.45695 10.352 8.80895 12.992 8.54495 15.416C10.945 15.152 13.357 15.02 15.781 15.02C18.205 15.02 20.545 15.092 22.801 15.236C22.705 14.876 22.525 14.024 22.261 12.68C21.997 11.336 21.721 10.16 21.433 9.152C21.169 8.12 20.797 7.016 20.317 5.84Z" fill="black"/>
<path d="M28.6338 19.088L28.7418 24.524C28.7418 25.268 28.5738 25.772 28.2378 26.036C27.9018 26.3 27.5898 26.432 27.3018 26.432C27.0138 26.432 26.7378 26.396 26.4738 26.324C26.1618 23.756 26.0058 21.248 26.0058 18.8C26.0058 16.352 26.0778 13.58 26.2218 10.484C26.3898 7.388 26.4858 4.94 26.5098 3.14C26.5098 1.22 29.0778 0.259999 34.2138 0.259999C36.9258 0.259999 39.4818 0.823999 41.8818 1.952C43.1298 2.528 44.1498 3.344 44.9418 4.4C45.7338 5.432 46.1298 6.596 46.1298 7.892C46.1298 9.164 45.8418 10.316 45.2658 11.348C44.6898 12.38 43.9578 13.244 43.0698 13.94C42.1818 14.612 41.1618 15.2 40.0098 15.704C38.1138 16.568 36.0018 17.144 33.6738 17.432C34.8258 18.08 36.6978 19.64 39.2898 22.112C40.0578 22.856 41.0298 23.528 42.2058 24.128C43.3818 24.704 44.5938 24.992 45.8418 24.992C45.9618 24.992 46.2138 24.968 46.5978 24.92C46.9818 24.848 47.3058 24.8 47.5698 24.776C47.8338 24.752 48.0738 24.812 48.2898 24.956C48.5298 25.076 48.6498 25.304 48.6498 25.64C48.6498 26.456 47.6298 26.864 45.5898 26.864C43.2138 26.864 40.8498 25.952 38.4978 24.128C37.4658 23.36 36.4578 22.568 35.4738 21.752C33.0498 19.712 30.7818 18.428 28.6698 17.9C28.6458 18.116 28.6338 18.512 28.6338 19.088ZM43.4298 8.324C43.4298 6.308 42.5178 4.796 40.6938 3.788C38.8938 2.756 36.6018 2.24 33.8178 2.24C32.0658 2.24 30.4338 2.432 28.9218 2.816C28.9218 4.712 28.8618 6.824 28.7418 9.152C28.6218 11.456 28.5618 13.04 28.5618 13.904C28.5618 14.768 28.5738 15.404 28.5978 15.812C32.1498 15.548 34.8978 15.128 36.8418 14.552C38.9298 13.952 40.4898 13.208 41.5218 12.32C42.7938 11.216 43.4298 9.884 43.4298 8.324Z" fill="black"/>
</g>
<defs>
<filter id="filter0_d" x="0.584961" y="0.187988" width="52.0649" height="34.676" filterUnits="userSpaceOnUse" color-interpolation-filters="sRGB">
<feFlood flood-opacity="0" result="BackgroundImageFix"/>
<feColorMatrix in="SourceAlpha" type="matrix" values="0 0 0 0 0 0 0 0 0 0 0 0 0 0 0 0 0 0 127 0" result="hardAlpha"/>
<feOffset dy="4"/>
<feGaussianBlur stdDeviation="2"/>
<feComposite in2="hardAlpha" operator="out"/>
<feColorMatrix type="matrix" values="0 0 0 0 0 0 0 0 0 0 0 0 0 0 0 0 0 0 0.25 0"/>
<feBlend mode="normal" in2="BackgroundImageFix" result="effect1_dropShadow"/>
<feBlend mode="normal" in="SourceGraphic" in2="effect1_dropShadow" result="shape"/>
</filter>
</defs>
</svg>
