<svg width="178" height="135" viewBox="0 0 178 135" fill="none" xmlns="http://www.w3.org/2000/svg">
<path d="M91.298 76.82C90.914 77.348 90.362 77.612 89.642 77.612C89.45 77.612 89.258 77.588 89.066 77.54C88.538 76.34 88.142 74.648 87.878 72.464C87.638 70.256 87.458 68.804 87.338 68.108C84.722 68.012 82.106 67.964 79.49 67.964C76.874 67.964 74.534 68.072 72.47 68.288C72.254 69.272 72.014 70.748 71.75 72.716C71.51 74.66 71.33 75.968 71.21 76.64C70.346 77.336 69.566 77.432 68.87 76.928C68.942 76.352 69.05 75.44 69.194 74.192C69.338 72.944 69.458 71.888 69.554 71.024C69.674 70.136 69.842 69.02 70.058 67.676C70.274 66.332 70.478 65.18 70.67 64.22C70.886 63.236 71.174 62.144 71.534 60.944C71.894 59.72 72.266 58.676 72.65 57.812C73.034 56.948 73.502 56.072 74.054 55.184C74.63 54.296 75.242 53.576 75.89 53.024C77.378 51.8 78.998 51.188 80.75 51.188C82.502 51.188 83.954 51.86 85.106 53.204C86.282 54.548 87.17 56.312 87.77 58.496C88.37 60.68 88.85 62.876 89.21 65.084C89.57 67.292 89.918 69.548 90.254 71.852C90.59 74.156 90.938 75.812 91.298 76.82ZM84.602 56.84C84.146 55.664 83.558 54.752 82.838 54.104C82.118 53.432 81.23 53.096 80.174 53.096C79.118 53.096 78.098 53.612 77.114 54.644C76.13 55.676 75.35 56.96 74.774 58.496C73.742 61.352 73.094 63.992 72.83 66.416C75.23 66.152 77.642 66.02 80.066 66.02C82.49 66.02 84.83 66.092 87.086 66.236C86.99 65.876 86.81 65.024 86.546 63.68C86.282 62.336 86.006 61.16 85.718 60.152C85.454 59.12 85.082 58.016 84.602 56.84Z" fill="black"/>
<path d="M90.9195 70.088L91.0275 75.524C91.0275 76.268 90.8595 76.772 90.5235 77.036C90.1875 77.3 89.8755 77.432 89.5875 77.432C89.2995 77.432 89.0235 77.396 88.7595 77.324C88.4475 74.756 88.2915 72.248 88.2915 69.8C88.2915 67.352 88.3635 64.58 88.5075 61.484C88.6755 58.388 88.7715 55.94 88.7955 54.14C88.7955 52.22 91.3635 51.26 96.4995 51.26C99.2115 51.26 101.768 51.824 104.168 52.952C105.416 53.528 106.436 54.344 107.228 55.4C108.02 56.432 108.416 57.596 108.416 58.892C108.416 60.164 108.128 61.316 107.552 62.348C106.976 63.38 106.244 64.244 105.356 64.94C104.468 65.612 103.448 66.2 102.296 66.704C100.4 67.568 98.2875 68.144 95.9595 68.432C97.1115 69.08 98.9835 70.64 101.576 73.112C102.344 73.856 103.316 74.528 104.492 75.128C105.668 75.704 106.88 75.992 108.128 75.992C108.248 75.992 108.5 75.968 108.884 75.92C109.268 75.848 109.592 75.8 109.856 75.776C110.12 75.752 110.36 75.812 110.576 75.956C110.816 76.076 110.936 76.304 110.936 76.64C110.936 77.456 109.916 77.864 107.876 77.864C105.5 77.864 103.136 76.952 100.784 75.128C99.7515 74.36 98.7435 73.568 97.7595 72.752C95.3355 70.712 93.0675 69.428 90.9555 68.9C90.9315 69.116 90.9195 69.512 90.9195 70.088ZM105.716 59.324C105.716 57.308 104.804 55.796 102.98 54.788C101.18 53.756 98.8875 53.24 96.1035 53.24C94.3515 53.24 92.7195 53.432 91.2075 53.816C91.2075 55.712 91.1475 57.824 91.0275 60.152C90.9075 62.456 90.8475 64.04 90.8475 64.904C90.8475 65.768 90.8595 66.404 90.8835 66.812C94.4355 66.548 97.1835 66.128 99.1275 65.552C101.216 64.952 102.776 64.208 103.808 63.32C105.08 62.216 105.716 60.884 105.716 59.324Z" fill="black"/>
</svg>
