<svg width="360" height="221" viewBox="0 0 360 221" fill="none" xmlns="http://www.w3.org/2000/svg">
<rect width="360" height="221" rx="53" fill="#B76BDB"/>
<path d="M0 53C0 23.7289 23.7289 0 53 0H307C336.271 0 360 23.7289 360 53V56H0V53Z" fill="#753295"/>
<path d="M34.2381 98.52H29.3741L28.4781 101H26.9421L30.9741 89.912H32.6541L36.6701 101H35.1341L34.2381 98.52ZM33.8221 97.336L31.8061 91.704L29.7901 97.336H33.8221ZM40.2033 93.432V98.6C40.2033 99.0267 40.294 99.3307 40.4753 99.512C40.6566 99.6827 40.9713 99.768 41.4193 99.768H42.4913V101H41.1793C40.3686 101 39.7606 100.813 39.3553 100.44C38.95 100.067 38.7473 99.4533 38.7473 98.6V93.432H37.6113V92.232H38.7473V90.024H40.2033V92.232H42.4913V93.432H40.2033ZM52.0314 92.232V101H50.5754V99.704C50.2981 100.152 49.9088 100.504 49.4074 100.76C48.9168 101.005 48.3728 101.128 47.7754 101.128C47.0928 101.128 46.4794 100.989 45.9354 100.712C45.3914 100.424 44.9594 99.9973 44.6394 99.432C44.3301 98.8667 44.1754 98.1787 44.1754 97.368V92.232H45.6154V97.176C45.6154 98.04 45.8341 98.7067 46.2714 99.176C46.7088 99.6347 47.3061 99.864 48.0634 99.864C48.8421 99.864 49.4554 99.624 49.9034 99.144C50.3514 98.664 50.5754 97.9653 50.5754 97.048V92.232H52.0314ZM53.9458 96.584C53.9458 95.688 54.1271 94.904 54.4898 94.232C54.8525 93.5493 55.3485 93.0213 55.9778 92.648C56.6178 92.2747 57.3271 92.088 58.1058 92.088C58.8738 92.088 59.5405 92.2533 60.1058 92.584C60.6711 92.9147 61.0925 93.3307 61.3698 93.832V92.232H62.8418V101H61.3698V99.368C61.0818 99.88 60.6498 100.307 60.0738 100.648C59.5085 100.979 58.8471 101.144 58.0898 101.144C57.3111 101.144 56.6071 100.952 55.9778 100.568C55.3485 100.184 54.8525 99.6453 54.4898 98.952C54.1271 98.2587 53.9458 97.4693 53.9458 96.584ZM61.3698 96.6C61.3698 95.9387 61.2365 95.3627 60.9698 94.872C60.7031 94.3813 60.3405 94.008 59.8818 93.752C59.4338 93.4853 58.9378 93.352 58.3938 93.352C57.8498 93.352 57.3538 93.48 56.9058 93.736C56.4578 93.992 56.1005 94.3653 55.8338 94.856C55.5671 95.3467 55.4338 95.9227 55.4338 96.584C55.4338 97.256 55.5671 97.8427 55.8338 98.344C56.1005 98.8347 56.4578 99.2133 56.9058 99.48C57.3538 99.736 57.8498 99.864 58.3938 99.864C58.9378 99.864 59.4338 99.736 59.8818 99.48C60.3405 99.2133 60.7031 98.8347 60.9698 98.344C61.2365 97.8427 61.3698 97.2613 61.3698 96.6ZM66.7583 93.656C67.0143 93.1547 67.377 92.7653 67.8463 92.488C68.3263 92.2107 68.9076 92.072 69.5903 92.072V93.576H69.2063C67.5743 93.576 66.7583 94.4613 66.7583 96.232V101H65.3023V92.232H66.7583V93.656ZM79.8087 92.072C80.8754 92.072 81.7394 92.3973 82.4007 93.048C83.062 93.688 83.3927 94.616 83.3927 95.832V101H81.9527V96.04C81.9527 95.1653 81.734 94.4987 81.2967 94.04C80.8594 93.5707 80.262 93.336 79.5047 93.336C78.7367 93.336 78.1234 93.576 77.6647 94.056C77.2167 94.536 76.9927 95.2347 76.9927 96.152V101H75.5367V92.232H76.9927V93.48C77.2807 93.032 77.67 92.6853 78.1607 92.44C78.662 92.1947 79.2114 92.072 79.8087 92.072ZM85.2271 96.584C85.2271 95.688 85.4084 94.904 85.7711 94.232C86.1337 93.5493 86.6297 93.0213 87.2591 92.648C87.8991 92.2747 88.6084 92.088 89.3871 92.088C90.1551 92.088 90.8217 92.2533 91.3871 92.584C91.9524 92.9147 92.3737 93.3307 92.6511 93.832V92.232H94.1231V101H92.6511V99.368C92.3631 99.88 91.9311 100.307 91.3551 100.648C90.7897 100.979 90.1284 101.144 89.3711 101.144C88.5924 101.144 87.8884 100.952 87.2591 100.568C86.6297 100.184 86.1337 99.6453 85.7711 98.952C85.4084 98.2587 85.2271 97.4693 85.2271 96.584ZM92.6511 96.6C92.6511 95.9387 92.5177 95.3627 92.2511 94.872C91.9844 94.3813 91.6217 94.008 91.1631 93.752C90.7151 93.4853 90.2191 93.352 89.6751 93.352C89.1311 93.352 88.6351 93.48 88.1871 93.736C87.7391 93.992 87.3817 94.3653 87.1151 94.856C86.8484 95.3467 86.7151 95.9227 86.7151 96.584C86.7151 97.256 86.8484 97.8427 87.1151 98.344C87.3817 98.8347 87.7391 99.2133 88.1871 99.48C88.6351 99.736 89.1311 99.864 89.6751 99.864C90.2191 99.864 90.7151 99.736 91.1631 99.48C91.6217 99.2133 91.9844 98.8347 92.2511 98.344C92.5177 97.8427 92.6511 97.2613 92.6511 96.6ZM100.305 96.584C100.305 95.688 100.487 94.904 100.849 94.232C101.212 93.5493 101.708 93.0213 102.337 92.648C102.977 92.2747 103.687 92.088 104.465 92.088C105.233 92.088 105.9 92.2533 106.465 92.584C107.031 92.9147 107.452 93.3307 107.729 93.832V92.232H109.201V101H107.729V99.368C107.441 99.88 107.009 100.307 106.433 100.648C105.868 100.979 105.207 101.144 104.449 101.144C103.671 101.144 102.967 100.952 102.337 100.568C101.708 100.184 101.212 99.6453 100.849 98.952C100.487 98.2587 100.305 97.4693 100.305 96.584ZM107.729 96.6C107.729 95.9387 107.596 95.3627 107.329 94.872C107.063 94.3813 106.7 94.008 106.241 93.752C105.793 93.4853 105.297 93.352 104.753 93.352C104.209 93.352 103.713 93.48 103.265 93.736C102.817 93.992 102.46 94.3653 102.193 94.856C101.927 95.3467 101.793 95.9227 101.793 96.584C101.793 97.256 101.927 97.8427 102.193 98.344C102.46 98.8347 102.817 99.2133 103.265 99.48C103.713 99.736 104.209 99.864 104.753 99.864C105.297 99.864 105.793 99.736 106.241 99.48C106.7 99.2133 107.063 98.8347 107.329 98.344C107.596 97.8427 107.729 97.2613 107.729 96.6ZM106.593 89.752L103.185 91.576V90.488L106.593 88.488V89.752ZM113.118 93.656C113.374 93.1547 113.736 92.7653 114.206 92.488C114.686 92.2107 115.267 92.072 115.95 92.072V93.576H115.566C113.934 93.576 113.118 94.4613 113.118 96.232V101H111.662V92.232H113.118V93.656ZM125.63 96.28C125.63 96.5573 125.614 96.8507 125.582 97.16H118.574C118.628 98.024 118.921 98.7013 119.454 99.192C119.998 99.672 120.654 99.912 121.422 99.912C122.052 99.912 122.574 99.768 122.99 99.48C123.417 99.1813 123.716 98.7867 123.886 98.296H125.454C125.22 99.1387 124.75 99.8267 124.046 100.36C123.342 100.883 122.468 101.144 121.422 101.144C120.59 101.144 119.844 100.957 119.182 100.584C118.532 100.211 118.02 99.6827 117.646 99C117.273 98.3067 117.086 97.5067 117.086 96.6C117.086 95.6933 117.268 94.8987 117.63 94.216C117.993 93.5333 118.5 93.0107 119.15 92.648C119.812 92.2747 120.569 92.088 121.422 92.088C122.254 92.088 122.99 92.2693 123.63 92.632C124.27 92.9947 124.761 93.496 125.102 94.136C125.454 94.7653 125.63 95.48 125.63 96.28ZM124.126 95.976C124.126 95.4213 124.004 94.9467 123.758 94.552C123.513 94.1467 123.177 93.8427 122.75 93.64C122.334 93.4267 121.87 93.32 121.358 93.32C120.622 93.32 119.993 93.5547 119.47 94.024C118.958 94.4933 118.665 95.144 118.59 95.976H124.126ZM127.008 96.584C127.008 95.688 127.19 94.904 127.552 94.232C127.915 93.5493 128.411 93.0213 129.04 92.648C129.68 92.2747 130.39 92.088 131.168 92.088C131.936 92.088 132.603 92.2533 133.168 92.584C133.734 92.9147 134.155 93.3307 134.432 93.832V92.232H135.904V101H134.432V99.368C134.144 99.88 133.712 100.307 133.136 100.648C132.571 100.979 131.91 101.144 131.152 101.144C130.374 101.144 129.67 100.952 129.04 100.568C128.411 100.184 127.915 99.6453 127.552 98.952C127.19 98.2587 127.008 97.4693 127.008 96.584ZM134.432 96.6C134.432 95.9387 134.299 95.3627 134.032 94.872C133.766 94.3813 133.403 94.008 132.944 93.752C132.496 93.4853 132 93.352 131.456 93.352C130.912 93.352 130.416 93.48 129.968 93.736C129.52 93.992 129.163 94.3653 128.896 94.856C128.63 95.3467 128.496 95.9227 128.496 96.584C128.496 97.256 128.63 97.8427 128.896 98.344C129.163 98.8347 129.52 99.2133 129.968 99.48C130.416 99.736 130.912 99.864 131.456 99.864C132 99.864 132.496 99.736 132.944 99.48C133.403 99.2133 133.766 98.8347 134.032 98.344C134.299 97.8427 134.432 97.2613 134.432 96.6ZM142.086 96.584C142.086 95.688 142.268 94.904 142.63 94.232C142.993 93.5493 143.489 93.0213 144.118 92.648C144.758 92.2747 145.473 92.088 146.262 92.088C146.945 92.088 147.58 92.248 148.166 92.568C148.753 92.8773 149.201 93.288 149.51 93.8V89.16H150.982V101H149.51V99.352C149.222 99.8747 148.796 100.307 148.23 100.648C147.665 100.979 147.004 101.144 146.246 101.144C145.468 101.144 144.758 100.952 144.118 100.568C143.489 100.184 142.993 99.6453 142.63 98.952C142.268 98.2587 142.086 97.4693 142.086 96.584ZM149.51 96.6C149.51 95.9387 149.377 95.3627 149.11 94.872C148.844 94.3813 148.481 94.008 148.022 93.752C147.574 93.4853 147.078 93.352 146.534 93.352C145.99 93.352 145.494 93.48 145.046 93.736C144.598 93.992 144.241 94.3653 143.974 94.856C143.708 95.3467 143.574 95.9227 143.574 96.584C143.574 97.256 143.708 97.8427 143.974 98.344C144.241 98.8347 144.598 99.2133 145.046 99.48C145.494 99.736 145.99 99.864 146.534 99.864C147.078 99.864 147.574 99.736 148.022 99.48C148.481 99.2133 148.844 98.8347 149.11 98.344C149.377 97.8427 149.51 97.2613 149.51 96.6ZM161.443 96.28C161.443 96.5573 161.427 96.8507 161.395 97.16H154.387C154.44 98.024 154.734 98.7013 155.267 99.192C155.811 99.672 156.467 99.912 157.235 99.912C157.864 99.912 158.387 99.768 158.803 99.48C159.23 99.1813 159.528 98.7867 159.699 98.296H161.267C161.032 99.1387 160.563 99.8267 159.859 100.36C159.155 100.883 158.28 101.144 157.235 101.144C156.403 101.144 155.656 100.957 154.995 100.584C154.344 100.211 153.832 99.6827 153.459 99C153.086 98.3067 152.899 97.5067 152.899 96.6C152.899 95.6933 153.08 94.8987 153.443 94.216C153.806 93.5333 154.312 93.0107 154.963 92.648C155.624 92.2747 156.382 92.088 157.235 92.088C158.067 92.088 158.803 92.2693 159.443 92.632C160.083 92.9947 160.574 93.496 160.915 94.136C161.267 94.7653 161.443 95.48 161.443 96.28ZM159.939 95.976C159.939 95.4213 159.816 94.9467 159.571 94.552C159.326 94.1467 158.99 93.8427 158.563 93.64C158.147 93.4267 157.683 93.32 157.171 93.32C156.435 93.32 155.806 93.5547 155.283 94.024C154.771 94.4933 154.478 95.144 154.403 95.976H159.939ZM169.406 93.432V98.6C169.406 99.0267 169.497 99.3307 169.678 99.512C169.86 99.6827 170.174 99.768 170.622 99.768H171.694V101H170.382C169.572 101 168.964 100.813 168.558 100.44C168.153 100.067 167.95 99.4533 167.95 98.6V93.432H166.814V92.232H167.95V90.024H169.406V92.232H171.694V93.432H169.406ZM181.459 96.28C181.459 96.5573 181.443 96.8507 181.411 97.16H174.403C174.456 98.024 174.749 98.7013 175.283 99.192C175.827 99.672 176.483 99.912 177.251 99.912C177.88 99.912 178.403 99.768 178.819 99.48C179.245 99.1813 179.544 98.7867 179.715 98.296H181.283C181.048 99.1387 180.579 99.8267 179.875 100.36C179.171 100.883 178.296 101.144 177.251 101.144C176.419 101.144 175.672 100.957 175.011 100.584C174.36 100.211 173.848 99.6827 173.475 99C173.101 98.3067 172.915 97.5067 172.915 96.6C172.915 95.6933 173.096 94.8987 173.459 94.216C173.821 93.5333 174.328 93.0107 174.979 92.648C175.64 92.2747 176.397 92.088 177.251 92.088C178.083 92.088 178.819 92.2693 179.459 92.632C180.099 92.9947 180.589 93.496 180.931 94.136C181.283 94.7653 181.459 95.48 181.459 96.28ZM179.955 95.976C179.955 95.4213 179.832 94.9467 179.587 94.552C179.341 94.1467 179.005 93.8427 178.579 93.64C178.163 93.4267 177.699 93.32 177.187 93.32C176.451 93.32 175.821 93.5547 175.299 94.024C174.787 94.4933 174.493 95.144 174.419 95.976H179.955ZM182.836 96.6C182.836 95.6933 183.018 94.904 183.38 94.232C183.743 93.5493 184.244 93.0213 184.884 92.648C185.535 92.2747 186.276 92.088 187.108 92.088C188.186 92.088 189.071 92.3493 189.764 92.872C190.468 93.3947 190.932 94.12 191.156 95.048H189.588C189.439 94.5147 189.146 94.0933 188.708 93.784C188.282 93.4747 187.748 93.32 187.108 93.32C186.276 93.32 185.604 93.608 185.092 94.184C184.58 94.7493 184.324 95.5547 184.324 96.6C184.324 97.656 184.58 98.472 185.092 99.048C185.604 99.624 186.276 99.912 187.108 99.912C187.748 99.912 188.282 99.7627 188.708 99.464C189.135 99.1653 189.428 98.7387 189.588 98.184H191.156C190.922 99.08 190.452 99.8 189.748 100.344C189.044 100.877 188.164 101.144 187.108 101.144C186.276 101.144 185.535 100.957 184.884 100.584C184.244 100.211 183.743 99.6827 183.38 99C183.018 98.3173 182.836 97.5173 182.836 96.6ZM197.371 92.072C198.438 92.072 199.302 92.3973 199.963 93.048C200.625 93.688 200.955 94.616 200.955 95.832V101H199.515V96.04C199.515 95.1653 199.297 94.4987 198.859 94.04C198.422 93.5707 197.825 93.336 197.067 93.336C196.299 93.336 195.686 93.576 195.227 94.056C194.779 94.536 194.555 95.2347 194.555 96.152V101H193.099V92.232H194.555V93.48C194.843 93.032 195.233 92.6853 195.723 92.44C196.225 92.1947 196.774 92.072 197.371 92.072ZM207.158 101.144C206.336 101.144 205.59 100.957 204.918 100.584C204.256 100.211 203.734 99.6827 203.35 99C202.976 98.3067 202.79 97.5067 202.79 96.6C202.79 95.704 202.982 94.9147 203.366 94.232C203.76 93.5387 204.294 93.0107 204.966 92.648C205.638 92.2747 206.39 92.088 207.222 92.088C208.054 92.088 208.806 92.2747 209.478 92.648C210.15 93.0107 210.678 93.5333 211.062 94.216C211.456 94.8987 211.654 95.6933 211.654 96.6C211.654 97.5067 211.451 98.3067 211.046 99C210.651 99.6827 210.112 100.211 209.43 100.584C208.747 100.957 207.99 101.144 207.158 101.144ZM207.158 99.864C207.68 99.864 208.171 99.7413 208.63 99.496C209.088 99.2507 209.456 98.8827 209.734 98.392C210.022 97.9013 210.166 97.304 210.166 96.6C210.166 95.896 210.027 95.2987 209.75 94.808C209.472 94.3173 209.11 93.9547 208.662 93.72C208.214 93.4747 207.728 93.352 207.206 93.352C206.672 93.352 206.182 93.4747 205.734 93.72C205.296 93.9547 204.944 94.3173 204.678 94.808C204.411 95.2987 204.278 95.896 204.278 96.6C204.278 97.3147 204.406 97.9173 204.662 98.408C204.928 98.8987 205.28 99.2667 205.718 99.512C206.155 99.7467 206.635 99.864 207.158 99.864ZM215.024 89.16V101H213.568V89.16H215.024ZM221.329 101.144C220.508 101.144 219.761 100.957 219.089 100.584C218.428 100.211 217.905 99.6827 217.521 99C217.148 98.3067 216.961 97.5067 216.961 96.6C216.961 95.704 217.153 94.9147 217.537 94.232C217.932 93.5387 218.465 93.0107 219.137 92.648C219.809 92.2747 220.561 92.088 221.393 92.088C222.225 92.088 222.977 92.2747 223.649 92.648C224.321 93.0107 224.849 93.5333 225.233 94.216C225.628 94.8987 225.825 95.6933 225.825 96.6C225.825 97.5067 225.623 98.3067 225.217 99C224.823 99.6827 224.284 100.211 223.601 100.584C222.919 100.957 222.161 101.144 221.329 101.144ZM221.329 99.864C221.852 99.864 222.343 99.7413 222.801 99.496C223.26 99.2507 223.628 98.8827 223.905 98.392C224.193 97.9013 224.337 97.304 224.337 96.6C224.337 95.896 224.199 95.2987 223.921 94.808C223.644 94.3173 223.281 93.9547 222.833 93.72C222.385 93.4747 221.9 93.352 221.377 93.352C220.844 93.352 220.353 93.4747 219.905 93.72C219.468 93.9547 219.116 94.3173 218.849 94.808C218.583 95.2987 218.449 95.896 218.449 96.6C218.449 97.3147 218.577 97.9173 218.833 98.408C219.1 98.8987 219.452 99.2667 219.889 99.512C220.327 99.7467 220.807 99.864 221.329 99.864ZM231.356 92.088C232.113 92.088 232.774 92.2533 233.34 92.584C233.916 92.9147 234.342 93.3307 234.62 93.832V92.232H236.092V101.192C236.092 101.992 235.921 102.701 235.58 103.32C235.238 103.949 234.748 104.44 234.108 104.792C233.478 105.144 232.742 105.32 231.9 105.32C230.748 105.32 229.788 105.048 229.02 104.504C228.252 103.96 227.798 103.219 227.66 102.28H229.1C229.26 102.813 229.59 103.24 230.092 103.56C230.593 103.891 231.196 104.056 231.9 104.056C232.7 104.056 233.35 103.805 233.852 103.304C234.364 102.803 234.62 102.099 234.62 101.192V99.352C234.332 99.864 233.905 100.291 233.34 100.632C232.774 100.973 232.113 101.144 231.356 101.144C230.577 101.144 229.868 100.952 229.228 100.568C228.598 100.184 228.102 99.6453 227.74 98.952C227.377 98.2587 227.196 97.4693 227.196 96.584C227.196 95.688 227.377 94.904 227.74 94.232C228.102 93.5493 228.598 93.0213 229.228 92.648C229.868 92.2747 230.577 92.088 231.356 92.088ZM234.62 96.6C234.62 95.9387 234.486 95.3627 234.22 94.872C233.953 94.3813 233.59 94.008 233.132 93.752C232.684 93.4853 232.188 93.352 231.644 93.352C231.1 93.352 230.604 93.48 230.156 93.736C229.708 93.992 229.35 94.3653 229.084 94.856C228.817 95.3467 228.684 95.9227 228.684 96.584C228.684 97.256 228.817 97.8427 229.084 98.344C229.35 98.8347 229.708 99.2133 230.156 99.48C230.604 99.736 231.1 99.864 231.644 99.864C232.188 99.864 232.684 99.736 233.132 99.48C233.59 99.2133 233.953 98.8347 234.22 98.344C234.486 97.8427 234.62 97.2613 234.62 96.6ZM239.304 90.808C239.027 90.808 238.792 90.712 238.6 90.52C238.408 90.328 238.312 90.0933 238.312 89.816C238.312 89.5387 238.408 89.304 238.6 89.112C238.792 88.92 239.027 88.824 239.304 88.824C239.571 88.824 239.795 88.92 239.976 89.112C240.168 89.304 240.264 89.5387 240.264 89.816C240.264 90.0933 240.168 90.328 239.976 90.52C239.795 90.712 239.571 90.808 239.304 90.808ZM240.008 92.232V101H238.552V92.232H240.008ZM241.946 96.584C241.946 95.688 242.127 94.904 242.49 94.232C242.852 93.5493 243.348 93.0213 243.978 92.648C244.618 92.2747 245.327 92.088 246.106 92.088C246.874 92.088 247.54 92.2533 248.106 92.584C248.671 92.9147 249.092 93.3307 249.37 93.832V92.232H250.842V101H249.37V99.368C249.082 99.88 248.65 100.307 248.074 100.648C247.508 100.979 246.847 101.144 246.09 101.144C245.311 101.144 244.607 100.952 243.978 100.568C243.348 100.184 242.852 99.6453 242.49 98.952C242.127 98.2587 241.946 97.4693 241.946 96.584ZM249.37 96.6C249.37 95.9387 249.236 95.3627 248.97 94.872C248.703 94.3813 248.34 94.008 247.882 93.752C247.434 93.4853 246.938 93.352 246.394 93.352C245.85 93.352 245.354 93.48 244.906 93.736C244.458 93.992 244.1 94.3653 243.834 94.856C243.567 95.3467 243.434 95.9227 243.434 96.584C243.434 97.256 243.567 97.8427 243.834 98.344C244.1 98.8347 244.458 99.2133 244.906 99.48C245.354 99.736 245.85 99.864 246.394 99.864C246.938 99.864 247.434 99.736 247.882 99.48C248.34 99.2133 248.703 98.8347 248.97 98.344C249.236 97.8427 249.37 97.2613 249.37 96.6ZM265.344 92.232V101H263.888V99.704C263.611 100.152 263.221 100.504 262.72 100.76C262.229 101.005 261.685 101.128 261.088 101.128C260.405 101.128 259.792 100.989 259.248 100.712C258.704 100.424 258.272 99.9973 257.952 99.432C257.643 98.8667 257.488 98.1787 257.488 97.368V92.232H258.928V97.176C258.928 98.04 259.147 98.7067 259.584 99.176C260.021 99.6347 260.619 99.864 261.376 99.864C262.155 99.864 262.768 99.624 263.216 99.144C263.664 98.664 263.888 97.9653 263.888 97.048V92.232H265.344ZM269.578 93.432V98.6C269.578 99.0267 269.669 99.3307 269.85 99.512C270.032 99.6827 270.346 99.768 270.794 99.768H271.866V101H270.554C269.744 101 269.136 100.813 268.73 100.44C268.325 100.067 268.122 99.4533 268.122 98.6V93.432H266.986V92.232H268.122V90.024H269.578V92.232H271.866V93.432H269.578ZM274.382 90.808C274.105 90.808 273.87 90.712 273.678 90.52C273.486 90.328 273.39 90.0933 273.39 89.816C273.39 89.5387 273.486 89.304 273.678 89.112C273.87 88.92 274.105 88.824 274.382 88.824C274.649 88.824 274.873 88.92 275.054 89.112C275.246 89.304 275.342 89.5387 275.342 89.816C275.342 90.0933 275.246 90.328 275.054 90.52C274.873 90.712 274.649 90.808 274.382 90.808ZM275.086 92.232V101H273.63V92.232H275.086ZM279.024 89.16V101H277.568V89.16H279.024ZM282.257 90.808C281.98 90.808 281.745 90.712 281.553 90.52C281.361 90.328 281.265 90.0933 281.265 89.816C281.265 89.5387 281.361 89.304 281.553 89.112C281.745 88.92 281.98 88.824 282.257 88.824C282.524 88.824 282.748 88.92 282.929 89.112C283.121 89.304 283.217 89.5387 283.217 89.816C283.217 90.0933 283.121 90.328 282.929 90.52C282.748 90.712 282.524 90.808 282.257 90.808ZM282.961 92.232V101H281.505V92.232H282.961ZM286.531 99.8H290.835V101H284.867V99.8L289.123 93.416H284.899V92.232H290.803V93.416L286.531 99.8ZM292.18 96.584C292.18 95.688 292.362 94.904 292.724 94.232C293.087 93.5493 293.583 93.0213 294.212 92.648C294.852 92.2747 295.562 92.088 296.34 92.088C297.108 92.088 297.775 92.2533 298.34 92.584C298.906 92.9147 299.327 93.3307 299.604 93.832V92.232H301.076V101H299.604V99.368C299.316 99.88 298.884 100.307 298.308 100.648C297.743 100.979 297.082 101.144 296.324 101.144C295.546 101.144 294.842 100.952 294.212 100.568C293.583 100.184 293.087 99.6453 292.724 98.952C292.362 98.2587 292.18 97.4693 292.18 96.584ZM299.604 96.6C299.604 95.9387 299.471 95.3627 299.204 94.872C298.938 94.3813 298.575 94.008 298.116 93.752C297.668 93.4853 297.172 93.352 296.628 93.352C296.084 93.352 295.588 93.48 295.14 93.736C294.692 93.992 294.335 94.3653 294.068 94.856C293.802 95.3467 293.668 95.9227 293.668 96.584C293.668 97.256 293.802 97.8427 294.068 98.344C294.335 98.8347 294.692 99.2133 295.14 99.48C295.588 99.736 296.084 99.864 296.628 99.864C297.172 99.864 297.668 99.736 298.116 99.48C298.575 99.2133 298.938 98.8347 299.204 98.344C299.471 97.8427 299.604 97.2613 299.604 96.6ZM307.809 92.072C308.875 92.072 309.739 92.3973 310.401 93.048C311.062 93.688 311.393 94.616 311.393 95.832V101H309.953V96.04C309.953 95.1653 309.734 94.4987 309.297 94.04C308.859 93.5707 308.262 93.336 307.505 93.336C306.737 93.336 306.123 93.576 305.665 94.056C305.217 94.536 304.993 95.2347 304.993 96.152V101H303.537V92.232H304.993V93.48C305.281 93.032 305.67 92.6853 306.161 92.44C306.662 92.1947 307.211 92.072 307.809 92.072ZM313.227 96.584C313.227 95.688 313.408 94.904 313.771 94.232C314.134 93.5493 314.63 93.0213 315.259 92.648C315.899 92.2747 316.614 92.088 317.403 92.088C318.086 92.088 318.72 92.248 319.307 92.568C319.894 92.8773 320.342 93.288 320.651 93.8V89.16H322.123V101H320.651V99.352C320.363 99.8747 319.936 100.307 319.371 100.648C318.806 100.979 318.144 101.144 317.387 101.144C316.608 101.144 315.899 100.952 315.259 100.568C314.63 100.184 314.134 99.6453 313.771 98.952C313.408 98.2587 313.227 97.4693 313.227 96.584ZM320.651 96.6C320.651 95.9387 320.518 95.3627 320.251 94.872C319.984 94.3813 319.622 94.008 319.163 93.752C318.715 93.4853 318.219 93.352 317.675 93.352C317.131 93.352 316.635 93.48 316.187 93.736C315.739 93.992 315.382 94.3653 315.115 94.856C314.848 95.3467 314.715 95.9227 314.715 96.584C314.715 97.256 314.848 97.8427 315.115 98.344C315.382 98.8347 315.739 99.2133 316.187 99.48C316.635 99.736 317.131 99.864 317.675 99.864C318.219 99.864 318.715 99.736 319.163 99.48C319.622 99.2133 319.984 98.8347 320.251 98.344C320.518 97.8427 320.651 97.2613 320.651 96.6ZM328.408 101.144C327.586 101.144 326.84 100.957 326.168 100.584C325.506 100.211 324.984 99.6827 324.6 99C324.226 98.3067 324.04 97.5067 324.04 96.6C324.04 95.704 324.232 94.9147 324.616 94.232C325.01 93.5387 325.544 93.0107 326.216 92.648C326.888 92.2747 327.64 92.088 328.472 92.088C329.304 92.088 330.056 92.2747 330.728 92.648C331.4 93.0107 331.928 93.5333 332.312 94.216C332.706 94.8987 332.904 95.6933 332.904 96.6C332.904 97.5067 332.701 98.3067 332.296 99C331.901 99.6827 331.362 100.211 330.68 100.584C329.997 100.957 329.24 101.144 328.408 101.144ZM328.408 99.864C328.93 99.864 329.421 99.7413 329.88 99.496C330.338 99.2507 330.706 98.8827 330.984 98.392C331.272 97.9013 331.416 97.304 331.416 96.6C331.416 95.896 331.277 95.2987 331 94.808C330.722 94.3173 330.36 93.9547 329.912 93.72C329.464 93.4747 328.978 93.352 328.456 93.352C327.922 93.352 327.432 93.4747 326.984 93.72C326.546 93.9547 326.194 94.3173 325.928 94.808C325.661 95.2987 325.528 95.896 325.528 96.6C325.528 97.3147 325.656 97.9173 325.912 98.408C326.178 98.8987 326.53 99.2667 326.968 99.512C327.405 99.7467 327.885 99.864 328.408 99.864ZM53.3451 125.144C52.5237 125.144 51.7771 124.957 51.1051 124.584C50.4437 124.211 49.9211 123.683 49.5371 123C49.1637 122.307 48.9771 121.507 48.9771 120.6C48.9771 119.704 49.1691 118.915 49.5531 118.232C49.9477 117.539 50.4811 117.011 51.1531 116.648C51.8251 116.275 52.5771 116.088 53.4091 116.088C54.2411 116.088 54.9931 116.275 55.6651 116.648C56.3371 117.011 56.8651 117.533 57.2491 118.216C57.6437 118.899 57.8411 119.693 57.8411 120.6C57.8411 121.507 57.6384 122.307 57.2331 123C56.8384 123.683 56.2997 124.211 55.6171 124.584C54.9344 124.957 54.1771 125.144 53.3451 125.144ZM53.3451 123.864C53.8677 123.864 54.3584 123.741 54.8171 123.496C55.2757 123.251 55.6437 122.883 55.9211 122.392C56.2091 121.901 56.3531 121.304 56.3531 120.6C56.3531 119.896 56.2144 119.299 55.9371 118.808C55.6597 118.317 55.2971 117.955 54.8491 117.72C54.4011 117.475 53.9157 117.352 53.3931 117.352C52.8597 117.352 52.3691 117.475 51.9211 117.72C51.4837 117.955 51.1317 118.317 50.8651 118.808C50.5984 119.299 50.4651 119.896 50.4651 120.6C50.4651 121.315 50.5931 121.917 50.8491 122.408C51.1157 122.899 51.4677 123.267 51.9051 123.512C52.3424 123.747 52.8224 123.864 53.3451 123.864ZM62.8594 125.144C62.1874 125.144 61.5848 125.032 61.0514 124.808C60.5181 124.573 60.0968 124.253 59.7874 123.848C59.4781 123.432 59.3074 122.957 59.2754 122.424H60.7794C60.8221 122.861 61.0248 123.219 61.3874 123.496C61.7608 123.773 62.2461 123.912 62.8434 123.912C63.3981 123.912 63.8354 123.789 64.1554 123.544C64.4754 123.299 64.6354 122.989 64.6354 122.616C64.6354 122.232 64.4648 121.949 64.1234 121.768C63.7821 121.576 63.2541 121.389 62.5394 121.208C61.8888 121.037 61.3554 120.867 60.9394 120.696C60.5341 120.515 60.1821 120.253 59.8834 119.912C59.5954 119.56 59.4514 119.101 59.4514 118.536C59.4514 118.088 59.5848 117.677 59.8514 117.304C60.1181 116.931 60.4968 116.637 60.9874 116.424C61.4781 116.2 62.0381 116.088 62.6674 116.088C63.6381 116.088 64.4221 116.333 65.0194 116.824C65.6168 117.315 65.9368 117.987 65.9794 118.84H64.5234C64.4914 118.381 64.3048 118.013 63.9634 117.736C63.6328 117.459 63.1848 117.32 62.6194 117.32C62.0968 117.32 61.6808 117.432 61.3714 117.656C61.0621 117.88 60.9074 118.173 60.9074 118.536C60.9074 118.824 60.9981 119.064 61.1794 119.256C61.3714 119.437 61.6061 119.587 61.8834 119.704C62.1714 119.811 62.5661 119.933 63.0674 120.072C63.6968 120.243 64.2088 120.413 64.6034 120.584C64.9981 120.744 65.3341 120.989 65.6114 121.32C65.8994 121.651 66.0488 122.083 66.0594 122.616C66.0594 123.096 65.9261 123.528 65.6594 123.912C65.3928 124.296 65.0141 124.6 64.5234 124.824C64.0434 125.037 63.4888 125.144 62.8594 125.144ZM71.8364 120.6C71.8364 119.693 72.0178 118.904 72.3804 118.232C72.7431 117.549 73.2444 117.021 73.8844 116.648C74.5351 116.275 75.2764 116.088 76.1084 116.088C77.1858 116.088 78.0711 116.349 78.7644 116.872C79.4684 117.395 79.9324 118.12 80.1564 119.048H78.5884C78.4391 118.515 78.1458 118.093 77.7084 117.784C77.2818 117.475 76.7484 117.32 76.1084 117.32C75.2764 117.32 74.6044 117.608 74.0924 118.184C73.5804 118.749 73.3244 119.555 73.3244 120.6C73.3244 121.656 73.5804 122.472 74.0924 123.048C74.6044 123.624 75.2764 123.912 76.1084 123.912C76.7484 123.912 77.2818 123.763 77.7084 123.464C78.1351 123.165 78.4284 122.739 78.5884 122.184H80.1564C79.9218 123.08 79.4524 123.8 78.7484 124.344C78.0444 124.877 77.1644 125.144 76.1084 125.144C75.2764 125.144 74.5351 124.957 73.8844 124.584C73.2444 124.211 72.7431 123.683 72.3804 123C72.0178 122.317 71.8364 121.517 71.8364 120.6ZM85.9232 125.144C85.1019 125.144 84.3552 124.957 83.6832 124.584C83.0219 124.211 82.4992 123.683 82.1152 123C81.7419 122.307 81.5552 121.507 81.5552 120.6C81.5552 119.704 81.7472 118.915 82.1312 118.232C82.5259 117.539 83.0592 117.011 83.7312 116.648C84.4032 116.275 85.1552 116.088 85.9872 116.088C86.8192 116.088 87.5712 116.275 88.2432 116.648C88.9152 117.011 89.4432 117.533 89.8272 118.216C90.2219 118.899 90.4192 119.693 90.4192 120.6C90.4192 121.507 90.2165 122.307 89.8112 123C89.4165 123.683 88.8779 124.211 88.1952 124.584C87.5125 124.957 86.7552 125.144 85.9232 125.144ZM85.9232 123.864C86.4459 123.864 86.9365 123.741 87.3952 123.496C87.8539 123.251 88.2219 122.883 88.4992 122.392C88.7872 121.901 88.9312 121.304 88.9312 120.6C88.9312 119.896 88.7925 119.299 88.5152 118.808C88.2379 118.317 87.8752 117.955 87.4272 117.72C86.9792 117.475 86.4939 117.352 85.9712 117.352C85.4379 117.352 84.9472 117.475 84.4992 117.72C84.0619 117.955 83.7099 118.317 83.4432 118.808C83.1765 119.299 83.0432 119.896 83.0432 120.6C83.0432 121.315 83.1712 121.917 83.4272 122.408C83.6939 122.899 84.0459 123.267 84.4832 123.512C84.9205 123.747 85.4005 123.864 85.9232 123.864ZM96.6056 116.072C97.6722 116.072 98.5362 116.397 99.1976 117.048C99.8589 117.688 100.19 118.616 100.19 119.832V125H98.7496V120.04C98.7496 119.165 98.5309 118.499 98.0936 118.04C97.6562 117.571 97.0589 117.336 96.3016 117.336C95.5336 117.336 94.9202 117.576 94.4616 118.056C94.0136 118.536 93.7896 119.235 93.7896 120.152V125H92.3336V116.232H93.7896V117.48C94.0776 117.032 94.4669 116.685 94.9576 116.44C95.4589 116.195 96.0082 116.072 96.6056 116.072ZM106.92 116.072C107.581 116.072 108.179 116.216 108.712 116.504C109.245 116.781 109.661 117.203 109.96 117.768C110.269 118.333 110.424 119.021 110.424 119.832V125H108.984V120.04C108.984 119.165 108.765 118.499 108.328 118.04C107.891 117.571 107.293 117.336 106.536 117.336C105.768 117.336 105.155 117.576 104.696 118.056C104.248 118.536 104.024 119.235 104.024 120.152V125H102.568V113.16H104.024V117.48C104.312 117.032 104.707 116.685 105.208 116.44C105.72 116.195 106.291 116.072 106.92 116.072ZM120.802 120.28C120.802 120.557 120.786 120.851 120.754 121.16H113.746C113.8 122.024 114.093 122.701 114.626 123.192C115.17 123.672 115.826 123.912 116.594 123.912C117.224 123.912 117.746 123.768 118.162 123.48C118.589 123.181 118.888 122.787 119.058 122.296H120.626C120.392 123.139 119.922 123.827 119.218 124.36C118.514 124.883 117.64 125.144 116.594 125.144C115.762 125.144 115.016 124.957 114.354 124.584C113.704 124.211 113.192 123.683 112.818 123C112.445 122.307 112.258 121.507 112.258 120.6C112.258 119.693 112.44 118.899 112.802 118.216C113.165 117.533 113.672 117.011 114.322 116.648C114.984 116.275 115.741 116.088 116.594 116.088C117.426 116.088 118.162 116.269 118.802 116.632C119.442 116.995 119.933 117.496 120.274 118.136C120.626 118.765 120.802 119.48 120.802 120.28ZM119.298 119.976C119.298 119.421 119.176 118.947 118.93 118.552C118.685 118.147 118.349 117.843 117.922 117.64C117.506 117.427 117.042 117.32 116.53 117.32C115.794 117.32 115.165 117.555 114.642 118.024C114.13 118.493 113.837 119.144 113.762 119.976H119.298ZM122.18 120.6C122.18 119.693 122.362 118.904 122.724 118.232C123.087 117.549 123.588 117.021 124.228 116.648C124.879 116.275 125.62 116.088 126.452 116.088C127.53 116.088 128.415 116.349 129.108 116.872C129.812 117.395 130.276 118.12 130.5 119.048H128.932C128.783 118.515 128.49 118.093 128.052 117.784C127.626 117.475 127.092 117.32 126.452 117.32C125.62 117.32 124.948 117.608 124.436 118.184C123.924 118.749 123.668 119.555 123.668 120.6C123.668 121.656 123.924 122.472 124.436 123.048C124.948 123.624 125.62 123.912 126.452 123.912C127.092 123.912 127.626 123.763 128.052 123.464C128.479 123.165 128.772 122.739 128.932 122.184H130.5C130.266 123.08 129.796 123.8 129.092 124.344C128.388 124.877 127.508 125.144 126.452 125.144C125.62 125.144 124.879 124.957 124.228 124.584C123.588 124.211 123.087 123.683 122.724 123C122.362 122.317 122.18 121.517 122.18 120.6ZM133.195 114.808C132.918 114.808 132.683 114.712 132.491 114.52C132.299 114.328 132.203 114.093 132.203 113.816C132.203 113.539 132.299 113.304 132.491 113.112C132.683 112.92 132.918 112.824 133.195 112.824C133.462 112.824 133.686 112.92 133.867 113.112C134.059 113.304 134.155 113.539 134.155 113.816C134.155 114.093 134.059 114.328 133.867 114.52C133.686 114.712 133.462 114.808 133.195 114.808ZM133.899 116.232V125H132.443V116.232H133.899ZM146.924 116.072C147.607 116.072 148.215 116.216 148.748 116.504C149.282 116.781 149.703 117.203 150.012 117.768C150.322 118.333 150.476 119.021 150.476 119.832V125H149.036V120.04C149.036 119.165 148.818 118.499 148.38 118.04C147.954 117.571 147.372 117.336 146.636 117.336C145.879 117.336 145.276 117.581 144.828 118.072C144.38 118.552 144.156 119.251 144.156 120.168V125H142.716V120.04C142.716 119.165 142.498 118.499 142.06 118.04C141.634 117.571 141.052 117.336 140.316 117.336C139.559 117.336 138.956 117.581 138.508 118.072C138.06 118.552 137.836 119.251 137.836 120.168V125H136.38V116.232H137.836V117.496C138.124 117.037 138.508 116.685 138.988 116.44C139.479 116.195 140.018 116.072 140.604 116.072C141.34 116.072 141.991 116.237 142.556 116.568C143.122 116.899 143.543 117.384 143.82 118.024C144.066 117.405 144.471 116.925 145.036 116.584C145.602 116.243 146.231 116.072 146.924 116.072ZM160.865 120.28C160.865 120.557 160.849 120.851 160.817 121.16H153.809C153.862 122.024 154.155 122.701 154.689 123.192C155.233 123.672 155.889 123.912 156.657 123.912C157.286 123.912 157.809 123.768 158.225 123.48C158.651 123.181 158.95 122.787 159.121 122.296H160.689C160.454 123.139 159.985 123.827 159.281 124.36C158.577 124.883 157.702 125.144 156.657 125.144C155.825 125.144 155.078 124.957 154.417 124.584C153.766 124.211 153.254 123.683 152.881 123C152.507 122.307 152.321 121.507 152.321 120.6C152.321 119.693 152.502 118.899 152.865 118.216C153.227 117.533 153.734 117.011 154.385 116.648C155.046 116.275 155.803 116.088 156.657 116.088C157.489 116.088 158.225 116.269 158.865 116.632C159.505 116.995 159.995 117.496 160.337 118.136C160.689 118.765 160.865 119.48 160.865 120.28ZM159.361 119.976C159.361 119.421 159.238 118.947 158.993 118.552C158.747 118.147 158.411 117.843 157.985 117.64C157.569 117.427 157.105 117.32 156.593 117.32C155.857 117.32 155.227 117.555 154.705 118.024C154.193 118.493 153.899 119.144 153.825 119.976H159.361ZM167.059 116.072C168.125 116.072 168.989 116.397 169.651 117.048C170.312 117.688 170.643 118.616 170.643 119.832V125H169.203V120.04C169.203 119.165 168.984 118.499 168.547 118.04C168.109 117.571 167.512 117.336 166.755 117.336C165.987 117.336 165.373 117.576 164.915 118.056C164.467 118.536 164.243 119.235 164.243 120.152V125H162.787V116.232H164.243V117.48C164.531 117.032 164.92 116.685 165.411 116.44C165.912 116.195 166.461 116.072 167.059 116.072ZM174.797 117.432V122.6C174.797 123.027 174.888 123.331 175.069 123.512C175.25 123.683 175.565 123.768 176.013 123.768H177.085V125H175.773C174.962 125 174.354 124.813 173.949 124.44C173.544 124.067 173.341 123.453 173.341 122.6V117.432H172.205V116.232H173.341V114.024H174.797V116.232H177.085V117.432H174.797ZM182.673 125.144C181.852 125.144 181.105 124.957 180.433 124.584C179.772 124.211 179.249 123.683 178.865 123C178.492 122.307 178.305 121.507 178.305 120.6C178.305 119.704 178.497 118.915 178.881 118.232C179.276 117.539 179.809 117.011 180.481 116.648C181.153 116.275 181.905 116.088 182.737 116.088C183.569 116.088 184.321 116.275 184.993 116.648C185.665 117.011 186.193 117.533 186.577 118.216C186.972 118.899 187.169 119.693 187.169 120.6C187.169 121.507 186.967 122.307 186.561 123C186.167 123.683 185.628 124.211 184.945 124.584C184.263 124.957 183.505 125.144 182.673 125.144ZM182.673 123.864C183.196 123.864 183.687 123.741 184.145 123.496C184.604 123.251 184.972 122.883 185.249 122.392C185.537 121.901 185.681 121.304 185.681 120.6C185.681 119.896 185.543 119.299 185.265 118.808C184.988 118.317 184.625 117.955 184.177 117.72C183.729 117.475 183.244 117.352 182.721 117.352C182.188 117.352 181.697 117.475 181.249 117.72C180.812 117.955 180.46 118.317 180.193 118.808C179.927 119.299 179.793 119.896 179.793 120.6C179.793 121.315 179.921 121.917 180.177 122.408C180.444 122.899 180.796 123.267 181.233 123.512C181.671 123.747 182.151 123.864 182.673 123.864ZM192.188 125.144C191.516 125.144 190.913 125.032 190.38 124.808C189.846 124.573 189.425 124.253 189.116 123.848C188.806 123.432 188.636 122.957 188.604 122.424H190.108C190.15 122.861 190.353 123.219 190.716 123.496C191.089 123.773 191.574 123.912 192.172 123.912C192.726 123.912 193.164 123.789 193.484 123.544C193.804 123.299 193.964 122.989 193.964 122.616C193.964 122.232 193.793 121.949 193.452 121.768C193.11 121.576 192.582 121.389 191.868 121.208C191.217 121.037 190.684 120.867 190.268 120.696C189.862 120.515 189.51 120.253 189.212 119.912C188.924 119.56 188.78 119.101 188.78 118.536C188.78 118.088 188.913 117.677 189.18 117.304C189.446 116.931 189.825 116.637 190.316 116.424C190.806 116.2 191.366 116.088 191.996 116.088C192.966 116.088 193.75 116.333 194.348 116.824C194.945 117.315 195.265 117.987 195.308 118.84H193.852C193.82 118.381 193.633 118.013 193.292 117.736C192.961 117.459 192.513 117.32 191.948 117.32C191.425 117.32 191.009 117.432 190.7 117.656C190.39 117.88 190.236 118.173 190.236 118.536C190.236 118.824 190.326 119.064 190.508 119.256C190.7 119.437 190.934 119.587 191.212 119.704C191.5 119.811 191.894 119.933 192.396 120.072C193.025 120.243 193.537 120.413 193.932 120.584C194.326 120.744 194.662 120.989 194.94 121.32C195.228 121.651 195.377 122.083 195.388 122.616C195.388 123.096 195.254 123.528 194.988 123.912C194.721 124.296 194.342 124.6 193.852 124.824C193.372 125.037 192.817 125.144 192.188 125.144ZM201.165 120.584C201.165 119.688 201.346 118.904 201.709 118.232C202.071 117.549 202.567 117.021 203.197 116.648C203.837 116.275 204.546 116.088 205.325 116.088C206.093 116.088 206.759 116.253 207.325 116.584C207.89 116.915 208.311 117.331 208.589 117.832V116.232H210.061V125H208.589V123.368C208.301 123.88 207.869 124.307 207.293 124.648C206.727 124.979 206.066 125.144 205.309 125.144C204.53 125.144 203.826 124.952 203.197 124.568C202.567 124.184 202.071 123.645 201.709 122.952C201.346 122.259 201.165 121.469 201.165 120.584ZM208.589 120.6C208.589 119.939 208.455 119.363 208.189 118.872C207.922 118.381 207.559 118.008 207.101 117.752C206.653 117.485 206.157 117.352 205.613 117.352C205.069 117.352 204.573 117.48 204.125 117.736C203.677 117.992 203.319 118.365 203.053 118.856C202.786 119.347 202.653 119.923 202.653 120.584C202.653 121.256 202.786 121.843 203.053 122.344C203.319 122.835 203.677 123.213 204.125 123.48C204.573 123.736 205.069 123.864 205.613 123.864C206.157 123.864 206.653 123.736 207.101 123.48C207.559 123.213 207.922 122.835 208.189 122.344C208.455 121.843 208.589 121.261 208.589 120.6ZM211.977 120.584C211.977 119.688 212.158 118.904 212.521 118.232C212.884 117.549 213.38 117.021 214.009 116.648C214.649 116.275 215.364 116.088 216.153 116.088C216.836 116.088 217.47 116.248 218.057 116.568C218.644 116.877 219.092 117.288 219.401 117.8V113.16H220.873V125H219.401V123.352C219.113 123.875 218.686 124.307 218.121 124.648C217.556 124.979 216.894 125.144 216.137 125.144C215.358 125.144 214.649 124.952 214.009 124.568C213.38 124.184 212.884 123.645 212.521 122.952C212.158 122.259 211.977 121.469 211.977 120.584ZM219.401 120.6C219.401 119.939 219.268 119.363 219.001 118.872C218.734 118.381 218.372 118.008 217.913 117.752C217.465 117.485 216.969 117.352 216.425 117.352C215.881 117.352 215.385 117.48 214.937 117.736C214.489 117.992 214.132 118.365 213.865 118.856C213.598 119.347 213.465 119.923 213.465 120.584C213.465 121.256 213.598 121.843 213.865 122.344C214.132 122.835 214.489 123.213 214.937 123.48C215.385 123.736 215.881 123.864 216.425 123.864C216.969 123.864 217.465 123.736 217.913 123.48C218.372 123.213 218.734 122.835 219.001 122.344C219.268 121.843 219.401 121.261 219.401 120.6ZM222.79 120.584C222.79 119.688 222.971 118.904 223.334 118.232C223.696 117.549 224.192 117.021 224.822 116.648C225.462 116.275 226.176 116.088 226.966 116.088C227.723 116.088 228.384 116.259 228.95 116.6C229.526 116.931 229.947 117.341 230.214 117.832V116.232H231.686V129.16H230.214V123.384C229.936 123.875 229.51 124.291 228.934 124.632C228.358 124.973 227.686 125.144 226.918 125.144C226.15 125.144 225.451 124.952 224.822 124.568C224.192 124.184 223.696 123.645 223.334 122.952C222.971 122.259 222.79 121.469 222.79 120.584ZM230.214 120.6C230.214 119.939 230.08 119.363 229.814 118.872C229.547 118.381 229.184 118.008 228.726 117.752C228.278 117.485 227.782 117.352 227.238 117.352C226.694 117.352 226.198 117.48 225.75 117.736C225.302 117.992 224.944 118.365 224.678 118.856C224.411 119.347 224.278 119.923 224.278 120.584C224.278 121.256 224.411 121.843 224.678 122.344C224.944 122.835 225.302 123.213 225.75 123.48C226.198 123.736 226.694 123.864 227.238 123.864C227.782 123.864 228.278 123.736 228.726 123.48C229.184 123.213 229.547 122.835 229.814 122.344C230.08 121.843 230.214 121.261 230.214 120.6ZM241.922 116.232V125H240.466V123.704C240.189 124.152 239.799 124.504 239.298 124.76C238.807 125.005 238.263 125.128 237.666 125.128C236.983 125.128 236.37 124.989 235.826 124.712C235.282 124.424 234.85 123.997 234.53 123.432C234.221 122.867 234.066 122.179 234.066 121.368V116.232H235.506V121.176C235.506 122.04 235.725 122.707 236.162 123.176C236.599 123.635 237.197 123.864 237.954 123.864C238.733 123.864 239.346 123.624 239.794 123.144C240.242 122.664 240.466 121.965 240.466 121.048V116.232H241.922ZM245.132 114.808C244.855 114.808 244.62 114.712 244.428 114.52C244.236 114.328 244.14 114.093 244.14 113.816C244.14 113.539 244.236 113.304 244.428 113.112C244.62 112.92 244.855 112.824 245.132 112.824C245.399 112.824 245.623 112.92 245.804 113.112C245.996 113.304 246.092 113.539 246.092 113.816C246.092 114.093 245.996 114.328 245.804 114.52C245.623 114.712 245.399 114.808 245.132 114.808ZM245.836 116.232V125H244.38V116.232H245.836ZM249.774 117.656C250.03 117.155 250.393 116.765 250.862 116.488C251.342 116.211 251.923 116.072 252.606 116.072V117.576H252.222C250.59 117.576 249.774 118.461 249.774 120.232V125H248.318V116.232H249.774V117.656ZM255.039 114.808C254.761 114.808 254.527 114.712 254.335 114.52C254.143 114.328 254.047 114.093 254.047 113.816C254.047 113.539 254.143 113.304 254.335 113.112C254.527 112.92 254.761 112.824 255.039 112.824C255.305 112.824 255.529 112.92 255.711 113.112C255.903 113.304 255.999 113.539 255.999 113.816C255.999 114.093 255.903 114.328 255.711 114.52C255.529 114.712 255.305 114.808 255.039 114.808ZM255.743 116.232V125H254.287V116.232H255.743ZM257.68 120.584C257.68 119.688 257.862 118.904 258.224 118.232C258.587 117.549 259.083 117.021 259.712 116.648C260.352 116.275 261.067 116.088 261.856 116.088C262.539 116.088 263.174 116.248 263.76 116.568C264.347 116.877 264.795 117.288 265.104 117.8V113.16H266.576V125H265.104V123.352C264.816 123.875 264.39 124.307 263.824 124.648C263.259 124.979 262.598 125.144 261.84 125.144C261.062 125.144 260.352 124.952 259.712 124.568C259.083 124.184 258.587 123.645 258.224 122.952C257.862 122.259 257.68 121.469 257.68 120.584ZM265.104 120.6C265.104 119.939 264.971 119.363 264.704 118.872C264.438 118.381 264.075 118.008 263.616 117.752C263.168 117.485 262.672 117.352 262.128 117.352C261.584 117.352 261.088 117.48 260.64 117.736C260.192 117.992 259.835 118.365 259.568 118.856C259.302 119.347 259.168 119.923 259.168 120.584C259.168 121.256 259.302 121.843 259.568 122.344C259.835 122.835 260.192 123.213 260.64 123.48C261.088 123.736 261.584 123.864 262.128 123.864C262.672 123.864 263.168 123.736 263.616 123.48C264.075 123.213 264.438 122.835 264.704 122.344C264.971 121.843 265.104 121.261 265.104 120.6ZM272.861 125.144C272.039 125.144 271.293 124.957 270.621 124.584C269.959 124.211 269.437 123.683 269.053 123C268.679 122.307 268.493 121.507 268.493 120.6C268.493 119.704 268.685 118.915 269.069 118.232C269.463 117.539 269.997 117.011 270.669 116.648C271.341 116.275 272.093 116.088 272.925 116.088C273.757 116.088 274.509 116.275 275.181 116.648C275.853 117.011 276.381 117.533 276.765 118.216C277.159 118.899 277.357 119.693 277.357 120.6C277.357 121.507 277.154 122.307 276.749 123C276.354 123.683 275.815 124.211 275.133 124.584C274.45 124.957 273.693 125.144 272.861 125.144ZM272.861 123.864C273.383 123.864 273.874 123.741 274.333 123.496C274.791 123.251 275.159 122.883 275.437 122.392C275.725 121.901 275.869 121.304 275.869 120.6C275.869 119.896 275.73 119.299 275.453 118.808C275.175 118.317 274.813 117.955 274.365 117.72C273.917 117.475 273.431 117.352 272.909 117.352C272.375 117.352 271.885 117.475 271.437 117.72C270.999 117.955 270.647 118.317 270.381 118.808C270.114 119.299 269.981 119.896 269.981 120.6C269.981 121.315 270.109 121.917 270.365 122.408C270.631 122.899 270.983 123.267 271.421 123.512C271.858 123.747 272.338 123.864 272.861 123.864ZM282.375 125.144C281.703 125.144 281.1 125.032 280.567 124.808C280.034 124.573 279.612 124.253 279.303 123.848C278.994 123.432 278.823 122.957 278.791 122.424H280.295C280.338 122.861 280.54 123.219 280.903 123.496C281.276 123.773 281.762 123.912 282.359 123.912C282.914 123.912 283.351 123.789 283.671 123.544C283.991 123.299 284.151 122.989 284.151 122.616C284.151 122.232 283.98 121.949 283.639 121.768C283.298 121.576 282.77 121.389 282.055 121.208C281.404 121.037 280.871 120.867 280.455 120.696C280.05 120.515 279.698 120.253 279.399 119.912C279.111 119.56 278.967 119.101 278.967 118.536C278.967 118.088 279.1 117.677 279.367 117.304C279.634 116.931 280.012 116.637 280.503 116.424C280.994 116.2 281.554 116.088 282.183 116.088C283.154 116.088 283.938 116.333 284.535 116.824C285.132 117.315 285.452 117.987 285.495 118.84H284.039C284.007 118.381 283.82 118.013 283.479 117.736C283.148 117.459 282.7 117.32 282.135 117.32C281.612 117.32 281.196 117.432 280.887 117.656C280.578 117.88 280.423 118.173 280.423 118.536C280.423 118.824 280.514 119.064 280.695 119.256C280.887 119.437 281.122 119.587 281.399 119.704C281.687 119.811 282.082 119.933 282.583 120.072C283.212 120.243 283.724 120.413 284.119 120.584C284.514 120.744 284.85 120.989 285.127 121.32C285.415 121.651 285.564 122.083 285.575 122.616C285.575 123.096 285.442 123.528 285.175 123.912C284.908 124.296 284.53 124.6 284.039 124.824C283.559 125.037 283.004 125.144 282.375 125.144ZM296.168 116.072C297.235 116.072 298.099 116.397 298.76 117.048C299.421 117.688 299.752 118.616 299.752 119.832V125H298.312V120.04C298.312 119.165 298.093 118.499 297.656 118.04C297.219 117.571 296.621 117.336 295.864 117.336C295.096 117.336 294.483 117.576 294.024 118.056C293.576 118.536 293.352 119.235 293.352 120.152V125H291.896V116.232H293.352V117.48C293.64 117.032 294.029 116.685 294.52 116.44C295.021 116.195 295.571 116.072 296.168 116.072ZM301.586 120.584C301.586 119.688 301.768 118.904 302.13 118.232C302.493 117.549 302.989 117.021 303.618 116.648C304.258 116.275 304.968 116.088 305.746 116.088C306.514 116.088 307.181 116.253 307.746 116.584C308.312 116.915 308.733 117.331 309.01 117.832V116.232H310.482V125H309.01V123.368C308.722 123.88 308.29 124.307 307.714 124.648C307.149 124.979 306.488 125.144 305.73 125.144C304.952 125.144 304.248 124.952 303.618 124.568C302.989 124.184 302.493 123.645 302.13 122.952C301.768 122.259 301.586 121.469 301.586 120.584ZM309.01 120.6C309.01 119.939 308.877 119.363 308.61 118.872C308.344 118.381 307.981 118.008 307.522 117.752C307.074 117.485 306.578 117.352 306.034 117.352C305.49 117.352 304.994 117.48 304.546 117.736C304.098 117.992 303.741 118.365 303.474 118.856C303.208 119.347 303.074 119.923 303.074 120.584C303.074 121.256 303.208 121.843 303.474 122.344C303.741 122.835 304.098 123.213 304.546 123.48C304.994 123.736 305.49 123.864 306.034 123.864C306.578 123.864 307.074 123.736 307.522 123.48C307.981 123.213 308.344 122.835 308.61 122.344C308.877 121.843 309.01 121.261 309.01 120.6ZM53.3156 141.432H51.4756V149H50.0196V141.432H48.8836V140.232H50.0196V139.608C50.0196 138.627 50.2703 137.912 50.7716 137.464C51.2836 137.005 52.0996 136.776 53.2196 136.776V137.992C52.5796 137.992 52.1263 138.12 51.8596 138.376C51.6036 138.621 51.4756 139.032 51.4756 139.608V140.232H53.3156V141.432ZM54.4693 144.584C54.4693 143.688 54.6506 142.904 55.0133 142.232C55.3759 141.549 55.8719 141.021 56.5013 140.648C57.1413 140.275 57.8506 140.088 58.6293 140.088C59.3973 140.088 60.0639 140.253 60.6293 140.584C61.1946 140.915 61.6159 141.331 61.8933 141.832V140.232H63.3653V149H61.8933V147.368C61.6053 147.88 61.1733 148.307 60.5973 148.648C60.0319 148.979 59.3706 149.144 58.6133 149.144C57.8346 149.144 57.1306 148.952 56.5013 148.568C55.8719 148.184 55.3759 147.645 55.0133 146.952C54.6506 146.259 54.4693 145.469 54.4693 144.584ZM61.8933 144.6C61.8933 143.939 61.7599 143.363 61.4933 142.872C61.2266 142.381 60.8639 142.008 60.4053 141.752C59.9573 141.485 59.4613 141.352 58.9173 141.352C58.3733 141.352 57.8773 141.48 57.4293 141.736C56.9813 141.992 56.6239 142.365 56.3573 142.856C56.0906 143.347 55.9573 143.923 55.9573 144.584C55.9573 145.256 56.0906 145.843 56.3573 146.344C56.6239 146.835 56.9813 147.213 57.4293 147.48C57.8773 147.736 58.3733 147.864 58.9173 147.864C59.4613 147.864 59.9573 147.736 60.4053 147.48C60.8639 147.213 61.2266 146.835 61.4933 146.344C61.7599 145.843 61.8933 145.261 61.8933 144.6ZM65.2818 144.6C65.2818 143.693 65.4631 142.904 65.8258 142.232C66.1884 141.549 66.6898 141.021 67.3298 140.648C67.9804 140.275 68.7218 140.088 69.5538 140.088C70.6311 140.088 71.5164 140.349 72.2098 140.872C72.9138 141.395 73.3778 142.12 73.6018 143.048H72.0338C71.8844 142.515 71.5911 142.093 71.1538 141.784C70.7271 141.475 70.1938 141.32 69.5538 141.32C68.7218 141.32 68.0498 141.608 67.5378 142.184C67.0258 142.749 66.7698 143.555 66.7698 144.6C66.7698 145.656 67.0258 146.472 67.5378 147.048C68.0498 147.624 68.7218 147.912 69.5538 147.912C70.1938 147.912 70.7271 147.763 71.1538 147.464C71.5804 147.165 71.8738 146.739 72.0338 146.184H73.6018C73.3671 147.08 72.8978 147.8 72.1938 148.344C71.4898 148.877 70.6098 149.144 69.5538 149.144C68.7218 149.144 67.9804 148.957 67.3298 148.584C66.6898 148.211 66.1884 147.683 65.8258 147C65.4631 146.317 65.2818 145.517 65.2818 144.6ZM83.3205 140.232V149H81.8645V147.704C81.5872 148.152 81.1978 148.504 80.6965 148.76C80.2058 149.005 79.6618 149.128 79.0645 149.128C78.3818 149.128 77.7685 148.989 77.2245 148.712C76.6805 148.424 76.2485 147.997 75.9285 147.432C75.6192 146.867 75.4645 146.179 75.4645 145.368V140.232H76.9045V145.176C76.9045 146.04 77.1232 146.707 77.5605 147.176C77.9978 147.635 78.5952 147.864 79.3525 147.864C80.1312 147.864 80.7445 147.624 81.1925 147.144C81.6405 146.664 81.8645 145.965 81.8645 145.048V140.232H83.3205ZM87.2349 137.16V149H85.7789V137.16H87.2349ZM89.1724 144.584C89.1724 143.688 89.3537 142.904 89.7164 142.232C90.079 141.549 90.575 141.021 91.2044 140.648C91.8444 140.275 92.559 140.088 93.3484 140.088C94.031 140.088 94.6657 140.248 95.2524 140.568C95.839 140.877 96.287 141.288 96.5964 141.8V137.16H98.0684V149H96.5964V147.352C96.3084 147.875 95.8817 148.307 95.3164 148.648C94.751 148.979 94.0897 149.144 93.3324 149.144C92.5537 149.144 91.8444 148.952 91.2044 148.568C90.575 148.184 90.079 147.645 89.7164 146.952C89.3537 146.259 89.1724 145.469 89.1724 144.584ZM96.5964 144.6C96.5964 143.939 96.463 143.363 96.1964 142.872C95.9297 142.381 95.567 142.008 95.1084 141.752C94.6604 141.485 94.1644 141.352 93.6204 141.352C93.0764 141.352 92.5804 141.48 92.1324 141.736C91.6844 141.992 91.327 142.365 91.0604 142.856C90.7937 143.347 90.6604 143.923 90.6604 144.584C90.6604 145.256 90.7937 145.843 91.0604 146.344C91.327 146.835 91.6844 147.213 92.1324 147.48C92.5804 147.736 93.0764 147.864 93.6204 147.864C94.1644 147.864 94.6604 147.736 95.1084 147.48C95.567 147.213 95.9297 146.835 96.1964 146.344C96.463 145.843 96.5964 145.261 96.5964 144.6ZM99.9849 144.584C99.9849 143.688 100.166 142.904 100.529 142.232C100.892 141.549 101.388 141.021 102.017 140.648C102.657 140.275 103.366 140.088 104.145 140.088C104.913 140.088 105.58 140.253 106.145 140.584C106.71 140.915 107.132 141.331 107.409 141.832V140.232H108.881V149H107.409V147.368C107.121 147.88 106.689 148.307 106.113 148.648C105.548 148.979 104.886 149.144 104.129 149.144C103.35 149.144 102.646 148.952 102.017 148.568C101.388 148.184 100.892 147.645 100.529 146.952C100.166 146.259 99.9849 145.469 99.9849 144.584ZM107.409 144.6C107.409 143.939 107.276 143.363 107.009 142.872C106.742 142.381 106.38 142.008 105.921 141.752C105.473 141.485 104.977 141.352 104.433 141.352C103.889 141.352 103.393 141.48 102.945 141.736C102.497 141.992 102.14 142.365 101.873 142.856C101.606 143.347 101.473 143.923 101.473 144.584C101.473 145.256 101.606 145.843 101.873 146.344C102.14 146.835 102.497 147.213 102.945 147.48C103.393 147.736 103.889 147.864 104.433 147.864C104.977 147.864 105.473 147.736 105.921 147.48C106.38 147.213 106.742 146.835 107.009 146.344C107.276 145.843 107.409 145.261 107.409 144.6ZM110.797 144.584C110.797 143.688 110.979 142.904 111.341 142.232C111.704 141.549 112.2 141.021 112.829 140.648C113.469 140.275 114.184 140.088 114.973 140.088C115.656 140.088 116.291 140.248 116.877 140.568C117.464 140.877 117.912 141.288 118.221 141.8V137.16H119.693V149H118.221V147.352C117.933 147.875 117.507 148.307 116.941 148.648C116.376 148.979 115.715 149.144 114.957 149.144C114.179 149.144 113.469 148.952 112.829 148.568C112.2 148.184 111.704 147.645 111.341 146.952C110.979 146.259 110.797 145.469 110.797 144.584ZM118.221 144.6C118.221 143.939 118.088 143.363 117.821 142.872C117.555 142.381 117.192 142.008 116.733 141.752C116.285 141.485 115.789 141.352 115.245 141.352C114.701 141.352 114.205 141.48 113.757 141.736C113.309 141.992 112.952 142.365 112.685 142.856C112.419 143.347 112.285 143.923 112.285 144.584C112.285 145.256 112.419 145.843 112.685 146.344C112.952 146.835 113.309 147.213 113.757 147.48C114.205 147.736 114.701 147.864 115.245 147.864C115.789 147.864 116.285 147.736 116.733 147.48C117.192 147.213 117.555 146.835 117.821 146.344C118.088 145.843 118.221 145.261 118.221 144.6ZM130.154 144.28C130.154 144.557 130.138 144.851 130.106 145.16H123.098C123.151 146.024 123.445 146.701 123.978 147.192C124.522 147.672 125.178 147.912 125.946 147.912C126.575 147.912 127.098 147.768 127.514 147.48C127.941 147.181 128.239 146.787 128.41 146.296H129.978C129.743 147.139 129.274 147.827 128.57 148.36C127.866 148.883 126.991 149.144 125.946 149.144C125.114 149.144 124.367 148.957 123.706 148.584C123.055 148.211 122.543 147.683 122.17 147C121.797 146.307 121.61 145.507 121.61 144.6C121.61 143.693 121.791 142.899 122.154 142.216C122.517 141.533 123.023 141.011 123.674 140.648C124.335 140.275 125.093 140.088 125.946 140.088C126.778 140.088 127.514 140.269 128.154 140.632C128.794 140.995 129.285 141.496 129.626 142.136C129.978 142.765 130.154 143.48 130.154 144.28ZM128.65 143.976C128.65 143.421 128.527 142.947 128.282 142.552C128.037 142.147 127.701 141.843 127.274 141.64C126.858 141.427 126.394 141.32 125.882 141.32C125.146 141.32 124.517 141.555 123.994 142.024C123.482 142.493 123.189 143.144 123.114 143.976H128.65ZM133.58 146.984L131.788 151.288H130.812L131.98 146.984H133.58ZM142.777 147.656L145.497 140.232H147.049L143.609 149H141.913L138.473 140.232H140.041L142.777 147.656ZM149.234 138.808C148.957 138.808 148.722 138.712 148.53 138.52C148.338 138.328 148.242 138.093 148.242 137.816C148.242 137.539 148.338 137.304 148.53 137.112C148.722 136.92 148.957 136.824 149.234 136.824C149.501 136.824 149.725 136.92 149.906 137.112C150.098 137.304 150.194 137.539 150.194 137.816C150.194 138.093 150.098 138.328 149.906 138.52C149.725 138.712 149.501 138.808 149.234 138.808ZM149.938 140.232V149H148.482V140.232H149.938ZM155.524 149.144C154.852 149.144 154.249 149.032 153.716 148.808C153.182 148.573 152.761 148.253 152.452 147.848C152.142 147.432 151.972 146.957 151.94 146.424H153.444C153.486 146.861 153.689 147.219 154.052 147.496C154.425 147.773 154.91 147.912 155.508 147.912C156.062 147.912 156.5 147.789 156.82 147.544C157.14 147.299 157.3 146.989 157.3 146.616C157.3 146.232 157.129 145.949 156.788 145.768C156.446 145.576 155.918 145.389 155.204 145.208C154.553 145.037 154.02 144.867 153.604 144.696C153.198 144.515 152.846 144.253 152.548 143.912C152.26 143.56 152.116 143.101 152.116 142.536C152.116 142.088 152.249 141.677 152.516 141.304C152.782 140.931 153.161 140.637 153.652 140.424C154.142 140.2 154.702 140.088 155.332 140.088C156.302 140.088 157.086 140.333 157.684 140.824C158.281 141.315 158.601 141.987 158.644 142.84H157.188C157.156 142.381 156.969 142.013 156.628 141.736C156.297 141.459 155.849 141.32 155.284 141.32C154.761 141.32 154.345 141.432 154.036 141.656C153.726 141.88 153.572 142.173 153.572 142.536C153.572 142.824 153.662 143.064 153.844 143.256C154.036 143.437 154.27 143.587 154.548 143.704C154.836 143.811 155.23 143.933 155.732 144.072C156.361 144.243 156.873 144.413 157.268 144.584C157.662 144.744 157.998 144.989 158.276 145.32C158.564 145.651 158.713 146.083 158.724 146.616C158.724 147.096 158.59 147.528 158.324 147.912C158.057 148.296 157.678 148.6 157.188 148.824C156.708 149.037 156.153 149.144 155.524 149.144ZM160.235 144.584C160.235 143.688 160.416 142.904 160.779 142.232C161.142 141.549 161.638 141.021 162.267 140.648C162.907 140.275 163.616 140.088 164.395 140.088C165.163 140.088 165.83 140.253 166.395 140.584C166.96 140.915 167.382 141.331 167.659 141.832V140.232H169.131V149H167.659V147.368C167.371 147.88 166.939 148.307 166.363 148.648C165.798 148.979 165.136 149.144 164.379 149.144C163.6 149.144 162.896 148.952 162.267 148.568C161.638 148.184 161.142 147.645 160.779 146.952C160.416 146.259 160.235 145.469 160.235 144.584ZM167.659 144.6C167.659 143.939 167.526 143.363 167.259 142.872C166.992 142.381 166.63 142.008 166.171 141.752C165.723 141.485 165.227 141.352 164.683 141.352C164.139 141.352 163.643 141.48 163.195 141.736C162.747 141.992 162.39 142.365 162.123 142.856C161.856 143.347 161.723 143.923 161.723 144.584C161.723 145.256 161.856 145.843 162.123 146.344C162.39 146.835 162.747 147.213 163.195 147.48C163.643 147.736 164.139 147.864 164.683 147.864C165.227 147.864 165.723 147.736 166.171 147.48C166.63 147.213 166.992 146.835 167.259 146.344C167.526 145.843 167.659 145.261 167.659 144.6ZM175.863 140.072C176.93 140.072 177.794 140.397 178.455 141.048C179.117 141.688 179.447 142.616 179.447 143.832V149H178.007V144.04C178.007 143.165 177.789 142.499 177.351 142.04C176.914 141.571 176.317 141.336 175.559 141.336C174.791 141.336 174.178 141.576 173.719 142.056C173.271 142.536 173.047 143.235 173.047 144.152V149H171.591V140.232H173.047V141.48C173.335 141.032 173.725 140.685 174.215 140.44C174.717 140.195 175.266 140.072 175.863 140.072ZM181.282 144.584C181.282 143.688 181.463 142.904 181.826 142.232C182.188 141.549 182.684 141.021 183.314 140.648C183.954 140.275 184.668 140.088 185.458 140.088C186.14 140.088 186.775 140.248 187.362 140.568C187.948 140.877 188.396 141.288 188.706 141.8V137.16H190.178V149H188.706V147.352C188.418 147.875 187.991 148.307 187.426 148.648C186.86 148.979 186.199 149.144 185.442 149.144C184.663 149.144 183.954 148.952 183.314 148.568C182.684 148.184 182.188 147.645 181.826 146.952C181.463 146.259 181.282 145.469 181.282 144.584ZM188.706 144.6C188.706 143.939 188.572 143.363 188.306 142.872C188.039 142.381 187.676 142.008 187.218 141.752C186.77 141.485 186.274 141.352 185.73 141.352C185.186 141.352 184.69 141.48 184.242 141.736C183.794 141.992 183.436 142.365 183.17 142.856C182.903 143.347 182.77 143.923 182.77 144.584C182.77 145.256 182.903 145.843 183.17 146.344C183.436 146.835 183.794 147.213 184.242 147.48C184.69 147.736 185.186 147.864 185.73 147.864C186.274 147.864 186.77 147.736 187.218 147.48C187.676 147.213 188.039 146.835 188.306 146.344C188.572 145.843 188.706 145.261 188.706 144.6ZM196.462 149.144C195.641 149.144 194.894 148.957 194.222 148.584C193.561 148.211 193.038 147.683 192.654 147C192.281 146.307 192.094 145.507 192.094 144.6C192.094 143.704 192.286 142.915 192.67 142.232C193.065 141.539 193.598 141.011 194.27 140.648C194.942 140.275 195.694 140.088 196.526 140.088C197.358 140.088 198.11 140.275 198.782 140.648C199.454 141.011 199.982 141.533 200.366 142.216C200.761 142.899 200.958 143.693 200.958 144.6C200.958 145.507 200.756 146.307 200.35 147C199.956 147.683 199.417 148.211 198.734 148.584C198.052 148.957 197.294 149.144 196.462 149.144ZM196.462 147.864C196.985 147.864 197.476 147.741 197.934 147.496C198.393 147.251 198.761 146.883 199.038 146.392C199.326 145.901 199.47 145.304 199.47 144.6C199.47 143.896 199.332 143.299 199.054 142.808C198.777 142.317 198.414 141.955 197.966 141.72C197.518 141.475 197.033 141.352 196.51 141.352C195.977 141.352 195.486 141.475 195.038 141.72C194.601 141.955 194.249 142.317 193.982 142.808C193.716 143.299 193.582 143.896 193.582 144.6C193.582 145.315 193.71 145.917 193.966 146.408C194.233 146.899 194.585 147.267 195.022 147.512C195.46 147.747 195.94 147.864 196.462 147.864ZM210.962 149.144C210.141 149.144 209.394 148.957 208.722 148.584C208.061 148.211 207.538 147.683 207.154 147C206.781 146.307 206.594 145.507 206.594 144.6C206.594 143.704 206.786 142.915 207.17 142.232C207.565 141.539 208.098 141.011 208.77 140.648C209.442 140.275 210.194 140.088 211.026 140.088C211.858 140.088 212.61 140.275 213.282 140.648C213.954 141.011 214.482 141.533 214.866 142.216C215.261 142.899 215.458 143.693 215.458 144.6C215.458 145.507 215.256 146.307 214.85 147C214.456 147.683 213.917 148.211 213.234 148.584C212.552 148.957 211.794 149.144 210.962 149.144ZM210.962 147.864C211.485 147.864 211.976 147.741 212.434 147.496C212.893 147.251 213.261 146.883 213.538 146.392C213.826 145.901 213.97 145.304 213.97 144.6C213.97 143.896 213.832 143.299 213.554 142.808C213.277 142.317 212.914 141.955 212.466 141.72C212.018 141.475 211.533 141.352 211.01 141.352C210.477 141.352 209.986 141.475 209.538 141.72C209.101 141.955 208.749 142.317 208.482 142.808C208.216 143.299 208.082 143.896 208.082 144.6C208.082 145.315 208.21 145.917 208.466 146.408C208.733 146.899 209.085 147.267 209.522 147.512C209.96 147.747 210.44 147.864 210.962 147.864ZM224.742 149.144C224.07 149.144 223.468 149.032 222.934 148.808C222.401 148.573 221.98 148.253 221.67 147.848C221.361 147.432 221.19 146.957 221.158 146.424H222.662C222.705 146.861 222.908 147.219 223.27 147.496C223.644 147.773 224.129 147.912 224.726 147.912C225.281 147.912 225.718 147.789 226.038 147.544C226.358 147.299 226.518 146.989 226.518 146.616C226.518 146.232 226.348 145.949 226.006 145.768C225.665 145.576 225.137 145.389 224.422 145.208C223.772 145.037 223.238 144.867 222.822 144.696C222.417 144.515 222.065 144.253 221.766 143.912C221.478 143.56 221.334 143.101 221.334 142.536C221.334 142.088 221.468 141.677 221.734 141.304C222.001 140.931 222.38 140.637 222.87 140.424C223.361 140.2 223.921 140.088 224.55 140.088C225.521 140.088 226.305 140.333 226.902 140.824C227.5 141.315 227.82 141.987 227.862 142.84H226.406C226.374 142.381 226.188 142.013 225.846 141.736C225.516 141.459 225.068 141.32 224.502 141.32C223.98 141.32 223.564 141.432 223.254 141.656C222.945 141.88 222.79 142.173 222.79 142.536C222.79 142.824 222.881 143.064 223.062 143.256C223.254 143.437 223.489 143.587 223.766 143.704C224.054 143.811 224.449 143.933 224.95 144.072C225.58 144.243 226.092 144.413 226.486 144.584C226.881 144.744 227.217 144.989 227.494 145.32C227.782 145.651 227.932 146.083 227.942 146.616C227.942 147.096 227.809 147.528 227.542 147.912C227.276 148.296 226.897 148.6 226.406 148.824C225.926 149.037 225.372 149.144 224.742 149.144ZM237.774 140.232V149H236.318V147.704C236.04 148.152 235.651 148.504 235.15 148.76C234.659 149.005 234.115 149.128 233.518 149.128C232.835 149.128 232.222 148.989 231.678 148.712C231.134 148.424 230.702 147.997 230.382 147.432C230.072 146.867 229.918 146.179 229.918 145.368V140.232H231.358V145.176C231.358 146.04 231.576 146.707 232.014 147.176C232.451 147.635 233.048 147.864 233.806 147.864C234.584 147.864 235.198 147.624 235.646 147.144C236.094 146.664 236.318 145.965 236.318 145.048V140.232H237.774ZM239.688 144.6C239.688 143.693 239.869 142.904 240.232 142.232C240.595 141.549 241.096 141.021 241.736 140.648C242.387 140.275 243.128 140.088 243.96 140.088C245.037 140.088 245.923 140.349 246.616 140.872C247.32 141.395 247.784 142.12 248.008 143.048H246.44C246.291 142.515 245.997 142.093 245.56 141.784C245.133 141.475 244.6 141.32 243.96 141.32C243.128 141.32 242.456 141.608 241.944 142.184C241.432 142.749 241.176 143.555 241.176 144.6C241.176 145.656 241.432 146.472 241.944 147.048C242.456 147.624 243.128 147.912 243.96 147.912C244.6 147.912 245.133 147.763 245.56 147.464C245.987 147.165 246.28 146.739 246.44 146.184H248.008C247.773 147.08 247.304 147.8 246.6 148.344C245.896 148.877 245.016 149.144 243.96 149.144C243.128 149.144 242.387 148.957 241.736 148.584C241.096 148.211 240.595 147.683 240.232 147C239.869 146.317 239.688 145.517 239.688 144.6ZM257.951 144.28C257.951 144.557 257.935 144.851 257.903 145.16H250.895C250.948 146.024 251.241 146.701 251.775 147.192C252.319 147.672 252.975 147.912 253.743 147.912C254.372 147.912 254.895 147.768 255.311 147.48C255.737 147.181 256.036 146.787 256.207 146.296H257.775C257.54 147.139 257.071 147.827 256.367 148.36C255.663 148.883 254.788 149.144 253.743 149.144C252.911 149.144 252.164 148.957 251.503 148.584C250.852 148.211 250.34 147.683 249.967 147C249.593 146.307 249.407 145.507 249.407 144.6C249.407 143.693 249.588 142.899 249.951 142.216C250.313 141.533 250.82 141.011 251.471 140.648C252.132 140.275 252.889 140.088 253.743 140.088C254.575 140.088 255.311 140.269 255.951 140.632C256.591 140.995 257.081 141.496 257.423 142.136C257.775 142.765 257.951 143.48 257.951 144.28ZM256.447 143.976C256.447 143.421 256.324 142.947 256.079 142.552C255.833 142.147 255.497 141.843 255.071 141.64C254.655 141.427 254.191 141.32 253.679 141.32C252.943 141.32 252.313 141.555 251.791 142.024C251.279 142.493 250.985 143.144 250.911 143.976H256.447ZM262.977 149.144C262.305 149.144 261.702 149.032 261.169 148.808C260.635 148.573 260.214 148.253 259.905 147.848C259.595 147.432 259.425 146.957 259.393 146.424H260.897C260.939 146.861 261.142 147.219 261.505 147.496C261.878 147.773 262.363 147.912 262.961 147.912C263.515 147.912 263.953 147.789 264.273 147.544C264.593 147.299 264.753 146.989 264.753 146.616C264.753 146.232 264.582 145.949 264.241 145.768C263.899 145.576 263.371 145.389 262.657 145.208C262.006 145.037 261.473 144.867 261.057 144.696C260.651 144.515 260.299 144.253 260.001 143.912C259.713 143.56 259.569 143.101 259.569 142.536C259.569 142.088 259.702 141.677 259.969 141.304C260.235 140.931 260.614 140.637 261.105 140.424C261.595 140.2 262.155 140.088 262.785 140.088C263.755 140.088 264.539 140.333 265.137 140.824C265.734 141.315 266.054 141.987 266.097 142.84H264.641C264.609 142.381 264.422 142.013 264.081 141.736C263.75 141.459 263.302 141.32 262.737 141.32C262.214 141.32 261.798 141.432 261.489 141.656C261.179 141.88 261.025 142.173 261.025 142.536C261.025 142.824 261.115 143.064 261.297 143.256C261.489 143.437 261.723 143.587 262.001 143.704C262.289 143.811 262.683 143.933 263.185 144.072C263.814 144.243 264.326 144.413 264.721 144.584C265.115 144.744 265.451 144.989 265.729 145.32C266.017 145.651 266.166 146.083 266.177 146.616C266.177 147.096 266.043 147.528 265.777 147.912C265.51 148.296 265.131 148.6 264.641 148.824C264.161 149.037 263.606 149.144 262.977 149.144ZM271.336 149.144C270.664 149.144 270.061 149.032 269.528 148.808C268.995 148.573 268.573 148.253 268.264 147.848C267.955 147.432 267.784 146.957 267.752 146.424H269.256C269.299 146.861 269.501 147.219 269.864 147.496C270.237 147.773 270.723 147.912 271.32 147.912C271.875 147.912 272.312 147.789 272.632 147.544C272.952 147.299 273.112 146.989 273.112 146.616C273.112 146.232 272.941 145.949 272.6 145.768C272.259 145.576 271.731 145.389 271.016 145.208C270.365 145.037 269.832 144.867 269.416 144.696C269.011 144.515 268.659 144.253 268.36 143.912C268.072 143.56 267.928 143.101 267.928 142.536C267.928 142.088 268.061 141.677 268.328 141.304C268.595 140.931 268.973 140.637 269.464 140.424C269.955 140.2 270.515 140.088 271.144 140.088C272.115 140.088 272.899 140.333 273.496 140.824C274.093 141.315 274.413 141.987 274.456 142.84H273C272.968 142.381 272.781 142.013 272.44 141.736C272.109 141.459 271.661 141.32 271.096 141.32C270.573 141.32 270.157 141.432 269.848 141.656C269.539 141.88 269.384 142.173 269.384 142.536C269.384 142.824 269.475 143.064 269.656 143.256C269.848 143.437 270.083 143.587 270.36 143.704C270.648 143.811 271.043 143.933 271.544 144.072C272.173 144.243 272.685 144.413 273.08 144.584C273.475 144.744 273.811 144.989 274.088 145.32C274.376 145.651 274.525 146.083 274.536 146.616C274.536 147.096 274.403 147.528 274.136 147.912C273.869 148.296 273.491 148.6 273 148.824C272.52 149.037 271.965 149.144 271.336 149.144ZM280.415 149.144C279.594 149.144 278.847 148.957 278.175 148.584C277.514 148.211 276.991 147.683 276.607 147C276.234 146.307 276.047 145.507 276.047 144.6C276.047 143.704 276.239 142.915 276.623 142.232C277.018 141.539 277.551 141.011 278.223 140.648C278.895 140.275 279.647 140.088 280.479 140.088C281.311 140.088 282.063 140.275 282.735 140.648C283.407 141.011 283.935 141.533 284.319 142.216C284.714 142.899 284.911 143.693 284.911 144.6C284.911 145.507 284.709 146.307 284.303 147C283.909 147.683 283.37 148.211 282.687 148.584C282.005 148.957 281.247 149.144 280.415 149.144ZM280.415 147.864C280.938 147.864 281.429 147.741 281.887 147.496C282.346 147.251 282.714 146.883 282.991 146.392C283.279 145.901 283.423 145.304 283.423 144.6C283.423 143.896 283.285 143.299 283.007 142.808C282.73 142.317 282.367 141.955 281.919 141.72C281.471 141.475 280.986 141.352 280.463 141.352C279.93 141.352 279.439 141.475 278.991 141.72C278.554 141.955 278.202 142.317 277.935 142.808C277.669 143.299 277.535 143.896 277.535 144.6C277.535 145.315 277.663 145.917 277.919 146.408C278.186 146.899 278.538 147.267 278.975 147.512C279.413 147.747 279.893 147.864 280.415 147.864ZM290.547 144.584C290.547 143.688 290.729 142.904 291.091 142.232C291.454 141.549 291.95 141.021 292.579 140.648C293.219 140.275 293.934 140.088 294.723 140.088C295.406 140.088 296.041 140.248 296.627 140.568C297.214 140.877 297.662 141.288 297.971 141.8V137.16H299.443V149H297.971V147.352C297.683 147.875 297.257 148.307 296.691 148.648C296.126 148.979 295.465 149.144 294.707 149.144C293.929 149.144 293.219 148.952 292.579 148.568C291.95 148.184 291.454 147.645 291.091 146.952C290.729 146.259 290.547 145.469 290.547 144.584ZM297.971 144.6C297.971 143.939 297.838 143.363 297.571 142.872C297.305 142.381 296.942 142.008 296.483 141.752C296.035 141.485 295.539 141.352 294.995 141.352C294.451 141.352 293.955 141.48 293.507 141.736C293.059 141.992 292.702 142.365 292.435 142.856C292.169 143.347 292.035 143.923 292.035 144.584C292.035 145.256 292.169 145.843 292.435 146.344C292.702 146.835 293.059 147.213 293.507 147.48C293.955 147.736 294.451 147.864 294.995 147.864C295.539 147.864 296.035 147.736 296.483 147.48C296.942 147.213 297.305 146.835 297.571 146.344C297.838 145.843 297.971 145.261 297.971 144.6ZM301.36 144.584C301.36 143.688 301.541 142.904 301.904 142.232C302.267 141.549 302.763 141.021 303.392 140.648C304.032 140.275 304.741 140.088 305.52 140.088C306.288 140.088 306.955 140.253 307.52 140.584C308.085 140.915 308.507 141.331 308.784 141.832V140.232H310.256V149H308.784V147.368C308.496 147.88 308.064 148.307 307.488 148.648C306.923 148.979 306.261 149.144 305.504 149.144C304.725 149.144 304.021 148.952 303.392 148.568C302.763 148.184 302.267 147.645 301.904 146.952C301.541 146.259 301.36 145.469 301.36 144.584ZM308.784 144.6C308.784 143.939 308.651 143.363 308.384 142.872C308.117 142.381 307.755 142.008 307.296 141.752C306.848 141.485 306.352 141.352 305.808 141.352C305.264 141.352 304.768 141.48 304.32 141.736C303.872 141.992 303.515 142.365 303.248 142.856C302.981 143.347 302.848 143.923 302.848 144.584C302.848 145.256 302.981 145.843 303.248 146.344C303.515 146.835 303.872 147.213 304.32 147.48C304.768 147.736 305.264 147.864 305.808 147.864C306.352 147.864 306.848 147.736 307.296 147.48C307.755 147.213 308.117 146.835 308.384 146.344C308.651 145.843 308.784 145.261 308.784 144.6ZM151.412 168.28C151.412 168.557 151.396 168.851 151.364 169.16H144.356C144.409 170.024 144.702 170.701 145.236 171.192C145.78 171.672 146.436 171.912 147.204 171.912C147.833 171.912 148.356 171.768 148.772 171.48C149.198 171.181 149.497 170.787 149.668 170.296H151.236C151.001 171.139 150.532 171.827 149.828 172.36C149.124 172.883 148.249 173.144 147.204 173.144C146.372 173.144 145.625 172.957 144.964 172.584C144.313 172.211 143.801 171.683 143.428 171C143.054 170.307 142.868 169.507 142.868 168.6C142.868 167.693 143.049 166.899 143.412 166.216C143.774 165.533 144.281 165.011 144.932 164.648C145.593 164.275 146.35 164.088 147.204 164.088C148.036 164.088 148.772 164.269 149.412 164.632C150.052 164.995 150.542 165.496 150.884 166.136C151.236 166.765 151.412 167.48 151.412 168.28ZM149.908 167.976C149.908 167.421 149.785 166.947 149.54 166.552C149.294 166.147 148.958 165.843 148.532 165.64C148.116 165.427 147.652 165.32 147.14 165.32C146.404 165.32 145.774 165.555 145.252 166.024C144.74 166.493 144.446 167.144 144.372 167.976H149.908ZM163.878 164.072C164.56 164.072 165.168 164.216 165.702 164.504C166.235 164.781 166.656 165.203 166.966 165.768C167.275 166.333 167.43 167.021 167.43 167.832V173H165.99V168.04C165.99 167.165 165.771 166.499 165.334 166.04C164.907 165.571 164.326 165.336 163.59 165.336C162.832 165.336 162.23 165.581 161.782 166.072C161.334 166.552 161.11 167.251 161.11 168.168V173H159.67V168.04C159.67 167.165 159.451 166.499 159.014 166.04C158.587 165.571 158.006 165.336 157.27 165.336C156.512 165.336 155.91 165.581 155.462 166.072C155.014 166.552 154.79 167.251 154.79 168.168V173H153.334V164.232H154.79V165.496C155.078 165.037 155.462 164.685 155.942 164.44C156.432 164.195 156.971 164.072 157.558 164.072C158.294 164.072 158.944 164.237 159.51 164.568C160.075 164.899 160.496 165.384 160.774 166.024C161.019 165.405 161.424 164.925 161.99 164.584C162.555 164.243 163.184 164.072 163.878 164.072ZM171.274 165.848C171.562 165.347 171.989 164.931 172.554 164.6C173.13 164.259 173.797 164.088 174.554 164.088C175.333 164.088 176.037 164.275 176.666 164.648C177.306 165.021 177.807 165.549 178.17 166.232C178.533 166.904 178.714 167.688 178.714 168.584C178.714 169.469 178.533 170.259 178.17 170.952C177.807 171.645 177.306 172.184 176.666 172.568C176.037 172.952 175.333 173.144 174.554 173.144C173.807 173.144 173.146 172.979 172.57 172.648C172.005 172.307 171.573 171.885 171.274 171.384V177.16H169.818V164.232H171.274V165.848ZM177.226 168.584C177.226 167.923 177.093 167.347 176.826 166.856C176.559 166.365 176.197 165.992 175.738 165.736C175.29 165.48 174.794 165.352 174.25 165.352C173.717 165.352 173.221 165.485 172.762 165.752C172.314 166.008 171.951 166.387 171.674 166.888C171.407 167.379 171.274 167.949 171.274 168.6C171.274 169.261 171.407 169.843 171.674 170.344C171.951 170.835 172.314 171.213 172.762 171.48C173.221 171.736 173.717 171.864 174.25 171.864C174.794 171.864 175.29 171.736 175.738 171.48C176.197 171.213 176.559 170.835 176.826 170.344C177.093 169.843 177.226 169.256 177.226 168.584ZM182.086 165.656C182.342 165.155 182.705 164.765 183.174 164.488C183.654 164.211 184.236 164.072 184.918 164.072V165.576H184.534C182.902 165.576 182.086 166.461 182.086 168.232V173H180.63V164.232H182.086V165.656ZM194.599 168.28C194.599 168.557 194.583 168.851 194.551 169.16H187.543C187.597 170.024 187.89 170.701 188.423 171.192C188.967 171.672 189.623 171.912 190.391 171.912C191.021 171.912 191.543 171.768 191.959 171.48C192.386 171.181 192.685 170.787 192.855 170.296H194.423C194.189 171.139 193.719 171.827 193.015 172.36C192.311 172.883 191.437 173.144 190.391 173.144C189.559 173.144 188.813 172.957 188.151 172.584C187.501 172.211 186.989 171.683 186.615 171C186.242 170.307 186.055 169.507 186.055 168.6C186.055 167.693 186.237 166.899 186.599 166.216C186.962 165.533 187.469 165.011 188.119 164.648C188.781 164.275 189.538 164.088 190.391 164.088C191.223 164.088 191.959 164.269 192.599 164.632C193.239 164.995 193.73 165.496 194.071 166.136C194.423 166.765 194.599 167.48 194.599 168.28ZM193.095 167.976C193.095 167.421 192.973 166.947 192.727 166.552C192.482 166.147 192.146 165.843 191.719 165.64C191.303 165.427 190.839 165.32 190.327 165.32C189.591 165.32 188.962 165.555 188.439 166.024C187.927 166.493 187.634 167.144 187.559 167.976H193.095ZM199.625 173.144C198.953 173.144 198.35 173.032 197.817 172.808C197.284 172.573 196.862 172.253 196.553 171.848C196.244 171.432 196.073 170.957 196.041 170.424H197.545C197.588 170.861 197.79 171.219 198.153 171.496C198.526 171.773 199.012 171.912 199.609 171.912C200.164 171.912 200.601 171.789 200.921 171.544C201.241 171.299 201.401 170.989 201.401 170.616C201.401 170.232 201.23 169.949 200.889 169.768C200.548 169.576 200.02 169.389 199.305 169.208C198.654 169.037 198.121 168.867 197.705 168.696C197.3 168.515 196.948 168.253 196.649 167.912C196.361 167.56 196.217 167.101 196.217 166.536C196.217 166.088 196.35 165.677 196.617 165.304C196.884 164.931 197.262 164.637 197.753 164.424C198.244 164.2 198.804 164.088 199.433 164.088C200.404 164.088 201.188 164.333 201.785 164.824C202.382 165.315 202.702 165.987 202.745 166.84H201.289C201.257 166.381 201.07 166.013 200.729 165.736C200.398 165.459 199.95 165.32 199.385 165.32C198.862 165.32 198.446 165.432 198.137 165.656C197.828 165.88 197.673 166.173 197.673 166.536C197.673 166.824 197.764 167.064 197.945 167.256C198.137 167.437 198.372 167.587 198.649 167.704C198.937 167.811 199.332 167.933 199.833 168.072C200.462 168.243 200.974 168.413 201.369 168.584C201.764 168.744 202.1 168.989 202.377 169.32C202.665 169.651 202.814 170.083 202.825 170.616C202.825 171.096 202.692 171.528 202.425 171.912C202.158 172.296 201.78 172.6 201.289 172.824C200.809 173.037 200.254 173.144 199.625 173.144ZM204.336 168.584C204.336 167.688 204.518 166.904 204.88 166.232C205.243 165.549 205.739 165.021 206.368 164.648C207.008 164.275 207.718 164.088 208.496 164.088C209.264 164.088 209.931 164.253 210.496 164.584C211.062 164.915 211.483 165.331 211.76 165.832V164.232H213.232V173H211.76V171.368C211.472 171.88 211.04 172.307 210.464 172.648C209.899 172.979 209.238 173.144 208.48 173.144C207.702 173.144 206.998 172.952 206.368 172.568C205.739 172.184 205.243 171.645 204.88 170.952C204.518 170.259 204.336 169.469 204.336 168.584ZM211.76 168.6C211.76 167.939 211.627 167.363 211.36 166.872C211.094 166.381 210.731 166.008 210.272 165.752C209.824 165.485 209.328 165.352 208.784 165.352C208.24 165.352 207.744 165.48 207.296 165.736C206.848 165.992 206.491 166.365 206.224 166.856C205.958 167.347 205.824 167.923 205.824 168.584C205.824 169.256 205.958 169.843 206.224 170.344C206.491 170.835 206.848 171.213 207.296 171.48C207.744 171.736 208.24 171.864 208.784 171.864C209.328 171.864 209.824 171.736 210.272 171.48C210.731 171.213 211.094 170.835 211.36 170.344C211.627 169.843 211.76 169.261 211.76 168.6ZM216.157 173.096C215.88 173.096 215.645 173 215.453 172.808C215.261 172.616 215.165 172.381 215.165 172.104C215.165 171.827 215.261 171.592 215.453 171.4C215.645 171.208 215.88 171.112 216.157 171.112C216.424 171.112 216.648 171.208 216.829 171.4C217.021 171.592 217.117 171.827 217.117 172.104C217.117 172.381 217.021 172.616 216.829 172.808C216.648 173 216.424 173.096 216.157 173.096Z" fill="black"/>
<path d="M129.432 39.168C127.88 39.168 126.464 38.808 125.184 38.088C123.904 37.352 122.888 36.336 122.136 35.04C121.4 33.728 121.032 32.256 121.032 30.624C121.032 28.992 121.4 27.528 122.136 26.232C122.888 24.92 123.904 23.904 125.184 23.184C126.464 22.448 127.88 22.08 129.432 22.08C131 22.08 132.424 22.448 133.704 23.184C134.984 23.904 135.992 24.912 136.728 26.208C137.464 27.504 137.832 28.976 137.832 30.624C137.832 32.272 137.464 33.744 136.728 35.04C135.992 36.336 134.984 37.352 133.704 38.088C132.424 38.808 131 39.168 129.432 39.168ZM129.432 37.272C130.6 37.272 131.648 37 132.576 36.456C133.52 35.912 134.256 35.136 134.784 34.128C135.328 33.12 135.6 31.952 135.6 30.624C135.6 29.28 135.328 28.112 134.784 27.12C134.256 26.112 133.528 25.336 132.6 24.792C131.672 24.248 130.616 23.976 129.432 23.976C128.248 23.976 127.192 24.248 126.264 24.792C125.336 25.336 124.6 26.112 124.056 27.12C123.528 28.112 123.264 29.28 123.264 30.624C123.264 31.952 123.528 33.12 124.056 34.128C124.6 35.136 125.336 35.912 126.264 36.456C127.208 37 128.264 37.272 129.432 37.272ZM149.091 30.384C149.699 30.48 150.251 30.728 150.747 31.128C151.259 31.528 151.659 32.024 151.947 32.616C152.251 33.208 152.403 33.84 152.403 34.512C152.403 35.36 152.187 36.128 151.755 36.816C151.323 37.488 150.691 38.024 149.859 38.424C149.043 38.808 148.075 39 146.955 39H140.715V22.272H146.715C147.851 22.272 148.819 22.464 149.619 22.848C150.419 23.216 151.019 23.72 151.419 24.36C151.819 25 152.019 25.72 152.019 26.52C152.019 27.512 151.747 28.336 151.203 28.992C150.675 29.632 149.971 30.096 149.091 30.384ZM142.899 29.496H146.571C147.595 29.496 148.387 29.256 148.947 28.776C149.507 28.296 149.787 27.632 149.787 26.784C149.787 25.936 149.507 25.272 148.947 24.792C148.387 24.312 147.579 24.072 146.523 24.072H142.899V29.496ZM146.763 37.2C147.851 37.2 148.699 36.944 149.307 36.432C149.915 35.92 150.219 35.208 150.219 34.296C150.219 33.368 149.899 32.64 149.259 32.112C148.619 31.568 147.763 31.296 146.691 31.296H142.899V37.2H146.763ZM163.858 22.272V34.632C163.858 36.008 163.434 37.112 162.586 37.944C161.738 38.76 160.618 39.168 159.226 39.168C157.818 39.168 156.69 38.752 155.842 37.92C154.994 37.072 154.57 35.92 154.57 34.464H156.754C156.77 35.28 156.978 35.944 157.378 36.456C157.794 36.968 158.41 37.224 159.226 37.224C160.042 37.224 160.65 36.984 161.05 36.504C161.45 36.008 161.65 35.384 161.65 34.632V22.272H163.858ZM170.345 24.048V29.64H176.441V31.44H170.345V37.2H177.161V39H168.161V22.248H177.161V24.048H170.345ZM190.761 22.272V24.048H186.201V39H184.017V24.048H179.433V22.272H190.761ZM195.634 22.272V39H193.45V22.272H195.634ZM213.18 22.272L206.868 39H204.348L198.036 22.272H200.364L205.62 36.696L210.876 22.272H213.18ZM223.159 39.168C221.607 39.168 220.191 38.808 218.911 38.088C217.631 37.352 216.615 36.336 215.863 35.04C215.127 33.728 214.759 32.256 214.759 30.624C214.759 28.992 215.127 27.528 215.863 26.232C216.615 24.92 217.631 23.904 218.911 23.184C220.191 22.448 221.607 22.08 223.159 22.08C224.727 22.08 226.151 22.448 227.431 23.184C228.711 23.904 229.719 24.912 230.455 26.208C231.191 27.504 231.559 28.976 231.559 30.624C231.559 32.272 231.191 33.744 230.455 35.04C229.719 36.336 228.711 37.352 227.431 38.088C226.151 38.808 224.727 39.168 223.159 39.168ZM223.159 37.272C224.327 37.272 225.375 37 226.303 36.456C227.247 35.912 227.983 35.136 228.511 34.128C229.055 33.12 229.327 31.952 229.327 30.624C229.327 29.28 229.055 28.112 228.511 27.12C227.983 26.112 227.255 25.336 226.327 24.792C225.399 24.248 224.343 23.976 223.159 23.976C221.975 23.976 220.919 24.248 219.991 24.792C219.063 25.336 218.327 26.112 217.783 27.12C217.255 28.112 216.991 29.28 216.991 30.624C216.991 31.952 217.255 33.12 217.783 34.128C218.327 35.136 219.063 35.912 219.991 36.456C220.935 37 221.991 37.272 223.159 37.272Z" fill="white"/>
</svg>
