<svg width="63" height="18" viewBox="0 0 63 18" fill="none" xmlns="http://www.w3.org/2000/svg">
<path d="M7.79738 5.112C7.79738 6.04 7.47738 6.81333 6.83738 7.432C6.20804 8.04 5.24271 8.344 3.94138 8.344H1.79738V13H0.341375V1.848H3.94138C5.20004 1.848 6.15471 2.152 6.80538 2.76C7.46671 3.368 7.79738 4.152 7.79738 5.112ZM3.94138 7.144C4.75204 7.144 5.34938 6.968 5.73338 6.616C6.11738 6.264 6.30938 5.76267 6.30938 5.112C6.30938 3.736 5.52004 3.048 3.94138 3.048H1.79738V7.144H3.94138ZM11.063 5.656C11.319 5.15467 11.6817 4.76533 12.151 4.488C12.631 4.21067 13.2123 4.072 13.895 4.072V5.576H13.511C11.879 5.576 11.063 6.46133 11.063 8.232V13H9.607V4.232H11.063V5.656ZM19.3998 13.144C18.5784 13.144 17.8318 12.9573 17.1598 12.584C16.4984 12.2107 15.9758 11.6827 15.5918 11C15.2184 10.3067 15.0318 9.50667 15.0318 8.6C15.0318 7.704 15.2238 6.91467 15.6078 6.232C16.0024 5.53867 16.5358 5.01067 17.2078 4.648C17.8798 4.27467 18.6318 4.088 19.4638 4.088C20.2958 4.088 21.0478 4.27467 21.7198 4.648C22.3918 5.01067 22.9198 5.53333 23.3038 6.216C23.6984 6.89867 23.8958 7.69333 23.8958 8.6C23.8958 9.50667 23.6931 10.3067 23.2878 11C22.8931 11.6827 22.3544 12.2107 21.6718 12.584C20.9891 12.9573 20.2318 13.144 19.3998 13.144ZM19.3998 11.864C19.9224 11.864 20.4131 11.7413 20.8718 11.496C21.3304 11.2507 21.6984 10.8827 21.9758 10.392C22.2638 9.90133 22.4078 9.304 22.4078 8.6C22.4078 7.896 22.2691 7.29867 21.9918 6.808C21.7144 6.31733 21.3518 5.95467 20.9038 5.72C20.4558 5.47467 19.9704 5.352 19.4478 5.352C18.9144 5.352 18.4238 5.47467 17.9758 5.72C17.5384 5.95467 17.1864 6.31733 16.9198 6.808C16.6531 7.29867 16.5198 7.896 16.5198 8.6C16.5198 9.31467 16.6478 9.91733 16.9038 10.408C17.1704 10.8987 17.5224 11.2667 17.9598 11.512C18.3971 11.7467 18.8771 11.864 19.3998 11.864ZM26.5941 2.808C26.3168 2.808 26.0821 2.712 25.8901 2.52C25.7088 2.328 25.6181 2.09333 25.6181 1.816C25.6181 1.53867 25.7088 1.304 25.8901 1.112C26.0821 0.919999 26.3168 0.823999 26.5941 0.823999C26.8715 0.823999 27.1008 0.919999 27.2821 1.112C27.4741 1.304 27.5701 1.53867 27.5701 1.816C27.5701 2.09333 27.4741 2.328 27.2821 2.52C27.1008 2.712 26.8715 2.808 26.5941 2.808ZM27.3141 14.904C27.3141 15.6827 27.1168 16.2533 26.7221 16.616C26.3275 16.9787 25.7515 17.16 24.9941 17.16H24.1461V15.928H24.7541C25.1595 15.928 25.4421 15.848 25.6021 15.688C25.7728 15.528 25.8581 15.256 25.8581 14.872V4.232H27.3141V14.904ZM37.7789 8.28C37.7789 8.55733 37.7629 8.85067 37.7309 9.16H30.7229C30.7762 10.024 31.0695 10.7013 31.6029 11.192C32.1469 11.672 32.8029 11.912 33.5709 11.912C34.2002 11.912 34.7229 11.768 35.1389 11.48C35.5655 11.1813 35.8642 10.7867 36.0349 10.296H37.6029C37.3682 11.1387 36.8989 11.8267 36.1949 12.36C35.4909 12.8827 34.6162 13.144 33.5709 13.144C32.7389 13.144 31.9922 12.9573 31.3309 12.584C30.6802 12.2107 30.1682 11.6827 29.7949 11C29.4215 10.3067 29.2349 9.50667 29.2349 8.6C29.2349 7.69333 29.4162 6.89867 29.7789 6.216C30.1415 5.53333 30.6482 5.01067 31.2989 4.648C31.9602 4.27467 32.7175 4.088 33.5709 4.088C34.4029 4.088 35.1389 4.26933 35.7789 4.632C36.4189 4.99467 36.9095 5.496 37.2509 6.136C37.6029 6.76533 37.7789 7.48 37.7789 8.28ZM36.2749 7.976C36.2749 7.42133 36.1522 6.94667 35.9069 6.552C35.6615 6.14667 35.3255 5.84267 34.8989 5.64C34.4829 5.42667 34.0189 5.32 33.5069 5.32C32.7709 5.32 32.1415 5.55467 31.6189 6.024C31.1069 6.49333 30.8135 7.144 30.7389 7.976H36.2749ZM41.4768 5.432V10.6C41.4768 11.0267 41.5674 11.3307 41.7488 11.512C41.9301 11.6827 42.2448 11.768 42.6927 11.768H43.7648V13H42.4528C41.6421 13 41.0341 12.8133 40.6288 12.44C40.2234 12.0667 40.0208 11.4533 40.0208 10.6V5.432H38.8848V4.232H40.0208V2.024H41.4768V4.232H43.7648V5.432H41.4768ZM49.3529 13.144C48.5315 13.144 47.7849 12.9573 47.1129 12.584C46.4515 12.2107 45.9289 11.6827 45.5449 11C45.1715 10.3067 44.9849 9.50667 44.9849 8.6C44.9849 7.704 45.1769 6.91467 45.5609 6.232C45.9555 5.53867 46.4889 5.01067 47.1609 4.648C47.8329 4.27467 48.5849 4.088 49.4169 4.088C50.2489 4.088 51.0009 4.27467 51.6729 4.648C52.3449 5.01067 52.8729 5.53333 53.2569 6.216C53.6515 6.89867 53.8489 7.69333 53.8489 8.6C53.8489 9.50667 53.6462 10.3067 53.2409 11C52.8462 11.6827 52.3075 12.2107 51.6249 12.584C50.9422 12.9573 50.1849 13.144 49.3529 13.144ZM49.3529 11.864C49.8755 11.864 50.3662 11.7413 50.8249 11.496C51.2835 11.2507 51.6515 10.8827 51.9289 10.392C52.2169 9.90133 52.3609 9.304 52.3609 8.6C52.3609 7.896 52.2222 7.29867 51.9449 6.808C51.6675 6.31733 51.3049 5.95467 50.8569 5.72C50.4089 5.47467 49.9235 5.352 49.4009 5.352C48.8675 5.352 48.3769 5.47467 47.9289 5.72C47.4915 5.95467 47.1395 6.31733 46.8729 6.808C46.6062 7.29867 46.4729 7.896 46.4729 8.6C46.4729 9.31467 46.6009 9.91733 46.8569 10.408C47.1235 10.8987 47.4755 11.2667 47.9129 11.512C48.3502 11.7467 48.8302 11.864 49.3529 11.864ZM58.8673 13.144C58.1953 13.144 57.5926 13.032 57.0593 12.808C56.5259 12.5733 56.1046 12.2533 55.7953 11.848C55.4859 11.432 55.3153 10.9573 55.2833 10.424H56.7873C56.8299 10.8613 57.0326 11.2187 57.3953 11.496C57.7686 11.7733 58.2539 11.912 58.8513 11.912C59.4059 11.912 59.8433 11.7893 60.1633 11.544C60.4833 11.2987 60.6433 10.9893 60.6433 10.616C60.6433 10.232 60.4726 9.94933 60.1313 9.768C59.7899 9.576 59.2619 9.38933 58.5473 9.208C57.8966 9.03733 57.3633 8.86667 56.9473 8.696C56.5419 8.51467 56.1899 8.25333 55.8913 7.912C55.6033 7.56 55.4593 7.10133 55.4593 6.536C55.4593 6.088 55.5926 5.67733 55.8593 5.304C56.1259 4.93067 56.5046 4.63733 56.9953 4.424C57.4859 4.2 58.0459 4.088 58.6753 4.088C59.6459 4.088 60.4299 4.33333 61.0273 4.824C61.6246 5.31467 61.9446 5.98667 61.9873 6.84H60.5313C60.4993 6.38133 60.3126 6.01333 59.9713 5.736C59.6406 5.45867 59.1926 5.32 58.6273 5.32C58.1046 5.32 57.6886 5.432 57.3793 5.656C57.0699 5.88 56.9153 6.17333 56.9153 6.536C56.9153 6.824 57.0059 7.064 57.1873 7.256C57.3793 7.43733 57.6139 7.58667 57.8913 7.704C58.1793 7.81067 58.5739 7.93333 59.0753 8.072C59.7046 8.24267 60.2166 8.41333 60.6113 8.584C61.0059 8.744 61.3419 8.98933 61.6193 9.32C61.9073 9.65067 62.0566 10.0827 62.0673 10.616C62.0673 11.096 61.9339 11.528 61.6673 11.912C61.4006 12.296 61.0219 12.6 60.5313 12.824C60.0513 13.0373 59.4966 13.144 58.8673 13.144Z" fill="white"/>
</svg>
