<svg width="30" height="30" viewBox="0 0 30 30" fill="none" xmlns="http://www.w3.org/2000/svg">
<path d="M12.5999 1.80005C6.97256 1.80005 2.3999 6.37271 2.3999 12C2.3999 17.6274 6.97256 22.2 12.5999 22.2C14.8265 22.2 16.8843 21.4829 18.5624 20.2688L26.4562 28.1438L28.1437 26.4563L20.3437 18.6375C21.8765 16.8516 22.7999 14.5336 22.7999 12C22.7999 6.37271 18.2272 1.80005 12.5999 1.80005ZM12.5999 3.00005C17.578 3.00005 21.5999 7.02192 21.5999 12C21.5999 16.9782 17.578 21 12.5999 21C7.62178 21 3.5999 16.9782 3.5999 12C3.5999 7.02192 7.62178 3.00005 12.5999 3.00005Z" fill="black"/>
</svg>
