<svg width="37" height="14" viewBox="0 0 37 14" fill="none" xmlns="http://www.w3.org/2000/svg">
<path d="M3.86956 13.112C3.13356 13.112 2.47223 12.984 1.88556 12.728C1.30956 12.4613 0.856229 12.0987 0.525563 11.64C0.194896 11.1707 0.0242292 10.632 0.0135626 10.024H1.56556C1.6189 10.5467 1.83223 10.9893 2.20556 11.352C2.58956 11.704 3.14423 11.88 3.86956 11.88C4.5629 11.88 5.1069 11.7093 5.50156 11.368C5.9069 11.016 6.10956 10.568 6.10956 10.024C6.10956 9.59733 5.99223 9.25067 5.75756 8.984C5.5229 8.71733 5.22956 8.51467 4.87756 8.376C4.52556 8.23733 4.0509 8.088 3.45356 7.928C2.71756 7.736 2.12556 7.544 1.67756 7.352C1.24023 7.16 0.861563 6.86133 0.541563 6.456C0.232229 6.04 0.0775626 5.48533 0.0775626 4.792C0.0775626 4.184 0.232229 3.64533 0.541563 3.176C0.850896 2.70667 1.2829 2.344 1.83756 2.088C2.4029 1.832 3.04823 1.704 3.77356 1.704C4.8189 1.704 5.67223 1.96533 6.33356 2.488C7.00556 3.01067 7.38423 3.704 7.46956 4.568H5.86956C5.81623 4.14133 5.59223 3.768 5.19756 3.448C4.8029 3.11733 4.28023 2.952 3.62956 2.952C3.02156 2.952 2.52556 3.112 2.14156 3.432C1.75756 3.74133 1.56556 4.17867 1.56556 4.744C1.56556 5.14933 1.67756 5.48 1.90156 5.736C2.13623 5.992 2.4189 6.18933 2.74956 6.328C3.0909 6.456 3.56556 6.60533 4.17356 6.776C4.90956 6.97867 5.50156 7.18133 5.94956 7.384C6.39756 7.576 6.78156 7.88 7.10156 8.296C7.42156 8.70133 7.58156 9.256 7.58156 9.96C7.58156 10.504 7.43756 11.016 7.14956 11.496C6.86156 11.976 6.4349 12.3653 5.86956 12.664C5.30423 12.9627 4.63756 13.112 3.86956 13.112ZM14.6202 13L11.1802 9.128V13H9.72419V1.16H11.1802V8.12L14.5562 4.232H16.5882L12.4602 8.6L16.6042 13H14.6202ZM18.7106 2.808C18.4332 2.808 18.1986 2.712 18.0066 2.52C17.8146 2.328 17.7186 2.09333 17.7186 1.816C17.7186 1.53867 17.8146 1.304 18.0066 1.112C18.1986 0.919999 18.4332 0.823999 18.7106 0.823999C18.9772 0.823999 19.2012 0.919999 19.3826 1.112C19.5746 1.304 19.6706 1.53867 19.6706 1.816C19.6706 2.09333 19.5746 2.328 19.3826 2.52C19.2012 2.712 18.9772 2.808 18.7106 2.808ZM19.4146 4.232V13H17.9586V4.232H19.4146ZM23.3521 1.16V13H21.8961V1.16H23.3521ZM27.2896 1.16V13H25.8336V1.16H27.2896ZM32.8751 13.144C32.2031 13.144 31.6004 13.032 31.0671 12.808C30.5337 12.5733 30.1124 12.2533 29.8031 11.848C29.4937 11.432 29.3231 10.9573 29.2911 10.424H30.7951C30.8377 10.8613 31.0404 11.2187 31.4031 11.496C31.7764 11.7733 32.2617 11.912 32.8591 11.912C33.4137 11.912 33.8511 11.7893 34.1711 11.544C34.4911 11.2987 34.6511 10.9893 34.6511 10.616C34.6511 10.232 34.4804 9.94933 34.1391 9.768C33.7977 9.576 33.2697 9.38933 32.5551 9.208C31.9044 9.03733 31.3711 8.86667 30.9551 8.696C30.5497 8.51467 30.1977 8.25333 29.8991 7.912C29.6111 7.56 29.4671 7.10133 29.4671 6.536C29.4671 6.088 29.6004 5.67733 29.8671 5.304C30.1337 4.93067 30.5124 4.63733 31.0031 4.424C31.4937 4.2 32.0537 4.088 32.6831 4.088C33.6537 4.088 34.4377 4.33333 35.0351 4.824C35.6324 5.31467 35.9524 5.98667 35.9951 6.84H34.5391C34.5071 6.38133 34.3204 6.01333 33.9791 5.736C33.6484 5.45867 33.2004 5.32 32.6351 5.32C32.1124 5.32 31.6964 5.432 31.3871 5.656C31.0777 5.88 30.9231 6.17333 30.9231 6.536C30.9231 6.824 31.0137 7.064 31.1951 7.256C31.3871 7.43733 31.6217 7.58667 31.8991 7.704C32.1871 7.81067 32.5817 7.93333 33.0831 8.072C33.7124 8.24267 34.2244 8.41333 34.6191 8.584C35.0137 8.744 35.3497 8.98933 35.6271 9.32C35.9151 9.65067 36.0644 10.0827 36.0751 10.616C36.0751 11.096 35.9417 11.528 35.6751 11.912C35.4084 12.296 35.0297 12.6 34.5391 12.824C34.0591 13.0373 33.5044 13.144 32.8751 13.144Z" fill="white"/>
</svg>
