<svg width="268" height="82" viewBox="0 0 268 82" fill="none" xmlns="http://www.w3.org/2000/svg">
<path d="M32.4446 14.088C32.6846 14.472 32.8526 14.928 32.9486 15.456C33.0926 15.936 33.1166 16.368 33.0206 16.752L31.7246 18.336C31.1966 18.576 30.6446 18.696 30.0686 18.696C29.3486 18.6 28.7486 18.552 28.2686 18.552C26.6846 18.552 24.4766 19.008 21.6446 19.92C18.8126 20.784 16.8686 21.696 15.8126 22.656L15.3086 23.952C15.5006 26.16 17.3726 28.224 20.9246 30.144C27.1646 33.504 30.3806 35.256 30.5726 35.4C33.9806 37.944 35.6846 41.112 35.6846 44.904C35.6846 50.04 33.2606 54.888 28.4126 59.448C23.6126 63.96 18.5966 66.216 13.3646 66.216C12.5006 66.216 11.5166 66.024 10.4126 65.64C9.35659 65.256 8.46859 64.776 7.74859 64.2L7.17259 62.472L8.03659 61.392L10.1966 61.32C10.4366 61.32 10.8206 61.44 11.3486 61.68C11.8766 61.872 12.2366 61.968 12.4286 61.968C16.6046 61.968 20.6846 60.12 24.6686 56.424C28.6526 52.728 30.6446 48.792 30.6446 44.616C30.6446 41.976 28.8926 39.576 25.3886 37.416C22.0766 35.64 18.7886 33.864 15.5246 32.088C11.9726 29.88 10.1966 27.504 10.1966 24.96C10.1966 21.312 12.8366 18.384 18.1166 16.176C22.3406 14.4 26.6126 13.512 30.9326 13.512C31.1246 13.512 31.3406 13.584 31.5806 13.728C31.8206 13.824 32.1086 13.944 32.4446 14.088ZM27.5486 64.488L26.9726 65.496L25.8926 64.2L26.8286 62.76L27.5486 64.488ZM9.26059 12.792L10.1966 12.864L11.5646 12.792C11.1326 13.032 10.3646 13.392 9.26059 13.872C8.63659 14.16 7.84459 14.496 6.88459 14.88L7.82059 13.44L9.26059 12.792ZM38.7806 27.192L38.9966 27.984L38.2046 30.36L37.6286 27.192H38.7806ZM29.5646 26.04L26.7566 28.056L25.6766 27.48L29.5646 26.04ZM0.548593 73.128L1.19659 72.12L3.21259 72.336L0.548593 73.128ZM17.4686 50.952L16.8926 47.496L18.0446 48.288L18.6926 50.088L20.6366 51.096L17.4686 50.952ZM10.7726 39.216L8.68459 38.784L8.03659 39.864L7.17259 39.216L5.73259 39.648L8.03659 37.776H10.9166L10.7726 39.216ZM41.9486 49.008L42.3806 50.376L41.3726 50.232L40.5806 49.368L41.9486 49.008ZM34.0286 73.848L35.3246 75.144L32.6606 75.576L31.7246 73.992L34.0286 73.848ZM56.1017 12.144C58.0697 13.392 60.3017 17.064 62.7977 23.16C65.3417 29.256 66.6137 34.056 66.6137 37.56C66.6137 38.04 66.5897 38.4 66.5417 38.64C65.7257 46.272 64.6217 52.152 63.2297 56.28C60.6377 63.96 56.8217 67.8 51.7817 67.8C48.8537 67.8 46.2857 63.6 44.0777 55.2C42.3017 48.48 41.4137 42.96 41.4137 38.64C41.4137 32.352 42.0857 27.672 43.4297 24.6C45.0137 21.048 48.1577 17.784 52.8617 14.808V13.008L54.0137 12.144H56.1017ZM52.6457 62.976L54.3737 62.688C56.7257 60.288 58.6217 55.92 60.0617 49.584C61.2617 44.304 61.8617 39.48 61.8617 35.112C61.8617 32.712 61.2857 30 60.1337 26.976C59.0297 23.904 57.6857 21.528 56.1017 19.848C52.5977 19.848 49.7897 22.416 47.6777 27.552C46.0457 31.536 45.2297 35.52 45.2297 39.504C45.2297 42.672 45.9017 46.92 47.2457 52.248C48.8777 58.68 50.6777 62.256 52.6457 62.976ZM53.0777 27.84L51.5657 27.264L53.0777 25.248V27.84ZM55.3097 42.672L55.1657 45.192L54.2297 44.904C54.2297 44.04 54.2057 43.368 54.1577 42.888C54.1097 42.36 53.9417 41.088 53.6537 39.072C53.9897 39.552 54.3977 40.32 54.8777 41.376C55.1657 42.048 55.3097 42.48 55.3097 42.672ZM36.2297 52.68L35.7257 54.48L35.6537 56.496L34.5737 55.632L34.7897 53.472L35.5097 52.68L35.2217 50.736L36.0137 50.376L36.2297 52.68ZM37.1657 20.784L38.8937 21.936L38.1737 23.16L37.1657 20.784ZM66.3257 12.864L64.5257 13.08L64.4537 12.144L65.1737 10.272L66.3257 12.864ZM70.3577 61.824H68.5577L67.9097 62.76L66.2537 63.048C66.6377 62.568 67.0217 62.16 67.4057 61.824C68.5577 60.816 69.3017 60.072 69.6377 59.592L70.3577 61.824ZM71.6537 32.016L70.5017 33.456L70.1417 31.224L71.6537 32.016ZM48.1097 3.072V0.191998L49.2617 1.92L49.4777 5.376L48.1097 3.072ZM45.5177 75.288L46.6697 72.84L49.7657 72.984L45.5177 75.288ZM90.6926 16.608C91.8446 17.568 92.8766 19.032 93.7886 21C94.7006 22.968 95.1566 24.672 95.1566 26.112C95.1566 29.904 94.7246 32.424 93.8606 33.672C92.9966 34.872 90.7646 36.24 87.1646 37.776C91.1966 39.36 93.6206 40.848 94.4366 42.24C95.3006 43.632 95.7326 46.704 95.7326 51.456C95.7326 56.4 93.6926 59.976 89.6126 62.184C86.6846 63.432 83.7566 64.68 80.8286 65.928L80.5406 67.656L79.6046 68.592L77.3006 68.304C76.7246 67.728 76.1726 66.984 75.6446 66.072C75.1646 65.16 74.9246 64.32 74.9246 63.552C75.0206 63.456 75.2846 61.296 75.7166 57.072C76.1486 52.8 76.6046 48.336 77.0846 43.68C77.1326 43.344 77.1086 42.84 77.0126 42.168C76.9646 41.448 76.9646 40.968 77.0126 40.728L73.1966 40.08L72.0446 38.28C72.0926 37.896 72.3086 37.416 72.6926 36.84C72.9326 36.504 73.2926 36.096 73.7726 35.616H77.0846L77.6606 35.04C77.6606 33.936 77.9726 31.224 78.5966 26.904C78.8846 24.888 79.0286 23.256 79.0286 22.008L76.2926 21.648C76.1006 21.168 76.0046 20.4 76.0046 19.344V18.624C76.8206 18.24 78.8366 17.736 82.0526 17.112C85.2686 16.488 87.2606 16.224 88.0286 16.32L90.6926 16.608ZM83.2046 21.36C83.0126 21.696 82.8926 22.056 82.8446 22.44C82.7966 22.824 82.7726 23.256 82.7726 23.736V25.248C82.7726 26.832 82.6526 28.512 82.4126 30.288L81.7646 32.664V34.464H82.4126C83.7566 34.224 85.1246 33.984 86.5166 33.744C87.8126 33.312 88.8926 32.592 89.7566 31.584C90.6686 30.528 91.1246 29.376 91.1246 28.128C91.1246 27.168 90.8846 25.944 90.4046 24.456C89.9726 22.968 89.4926 21.84 88.9646 21.072H87.7406C87.2606 21.072 86.3966 21.12 85.1486 21.216C83.9486 21.312 83.3006 21.36 83.2046 21.36ZM79.3166 60.312L79.9646 60.888C80.6366 60.552 81.5246 60.288 82.6286 60.096C83.7326 59.904 84.7406 59.808 85.6526 59.808C85.9886 59.376 86.5646 58.92 87.3806 58.44C87.8606 58.152 88.2686 58.008 88.6046 58.008C89.5646 57.144 90.2846 55.896 90.7646 54.264C91.2926 52.584 91.5566 50.952 91.5566 49.368V46.416C91.3166 46.032 91.1246 45.72 90.9806 45.48C90.2126 44.136 89.3246 43.152 88.3166 42.528C87.3086 41.904 85.1726 41.376 81.9086 40.944H80.9726C80.4926 43.2 80.0846 46.224 79.7486 50.016C79.4606 53.808 79.3166 57.24 79.3166 60.312ZM88.6046 27.336L87.0926 27.48L88.1006 25.824L88.6046 27.336ZM97.6766 37.776H96.3086L96.0206 37.344C96.5486 37.008 97.0526 36.744 97.5326 36.552C98.0606 36.312 98.7326 36.072 99.5486 35.832C99.1166 36.168 98.7566 36.48 98.4686 36.768C98.1806 37.056 97.9166 37.392 97.6766 37.776ZM70.3166 21.936L69.8846 24.384L68.8766 24.528C68.8766 23.904 69.0206 23.28 69.3086 22.656C69.5966 22.032 70.0046 21.528 70.5326 21.144L71.9006 21.216L70.3166 21.936ZM83.3486 11.208L81.1166 9.912L85.0766 10.56L83.3486 11.208ZM70.2446 48C70.1966 48.192 69.9806 48.768 69.5966 49.728L69.0206 49.224C69.1166 48.552 69.2126 48 69.3086 47.568C69.3566 47.136 69.4526 46.704 69.5966 46.272L70.5326 44.76C70.5326 45.144 70.5086 45.6 70.4606 46.128C70.4606 46.608 70.3886 47.232 70.2446 48ZM72.9086 70.536H71.3966L69.4526 69.528L72.0446 68.952L72.9086 70.536ZM91.0526 76.008L89.9006 76.728L88.6046 76.584L88.5326 78.456L87.3806 75.72L88.8926 75.936L89.9726 75.144L91.0526 76.008ZM86.5886 54.336L85.0046 55.992L85.8686 52.752L86.5886 54.336ZM122.824 26.472C122.824 29.064 121.624 31.152 119.224 32.736C118.024 33.504 115.768 34.488 112.456 35.688C112.84 36.408 113.368 37.008 114.04 37.488C115 38.064 115.96 38.64 116.92 39.216C120.232 42.24 123.232 46.416 125.92 51.744C128.8 57.408 130.24 62.304 130.24 66.432L129.952 67.584L128.728 68.448L126.712 67.296C126.376 66.528 126.04 65.712 125.704 64.848C125.368 63.984 125.104 63.168 124.912 62.4C123.856 58.032 122.248 53.808 120.088 49.728C117.256 44.448 114.208 41.064 110.944 39.576H110.368V39.864V41.016C110.176 41.736 109.984 42.432 109.792 43.104C109.36 47.088 109.144 51.336 109.144 55.848V64.128C109.336 64.272 109.48 64.68 109.576 65.352C109.72 65.976 109.792 66.48 109.792 66.864C109.792 67.296 109.6 67.968 109.216 68.88C108.88 69.84 108.568 70.392 108.28 70.536H107.128L105.616 70.392L104.104 69.24L103.816 68.088C103.816 67.128 103.912 65.712 104.104 63.84C104.344 61.92 104.464 60.648 104.464 60.024C104.464 57.816 104.608 55.176 104.896 52.104C105.568 44.952 105.904 40.464 105.904 38.64C105.472 38.208 105.064 37.584 104.68 36.768C104.296 35.952 104.104 35.208 104.104 34.536C104.776 33.624 105.688 32.928 106.84 32.448C107.368 28.704 107.824 25.8 108.208 23.736C108.928 19.8 109.456 16.872 109.792 14.952L111.232 13.44C112.432 13.056 113.44 12.768 114.256 12.576C115.12 12.384 115.984 12.288 116.848 12.288H117.496C119.032 13.056 120.352 15.168 121.456 18.624C122.368 21.552 122.824 24.168 122.824 26.472ZM113.32 22.08C113.032 23.136 112.744 24.192 112.456 25.248V26.184C112.12 27.768 111.808 29.352 111.52 30.936L111.808 31.224C112.624 31.224 113.512 31.032 114.472 30.648C115.48 30.264 116.296 29.808 116.92 29.28L118.072 26.76C118.264 26.472 118.36 26.28 118.36 26.184V23.808C118.36 23.328 118.024 22.32 117.352 20.784C116.68 19.248 116.128 18.192 115.696 17.616L114.328 17.4L113.32 22.08ZM130.024 16.608L127.864 16.896L131.032 14.304L130.024 16.608ZM101.224 28.272L102.808 27.984L103.384 28.848L102.016 29.568L101.224 28.272ZM104.248 7.464L105.256 8.112L106.696 8.4L104.392 8.976L104.248 7.464ZM124.984 35.256C125.464 35.88 125.944 36.456 126.424 36.984C126.952 37.464 127.456 37.872 127.936 38.208L129.088 37.848L128.152 39.144L125.128 36.984L124.984 35.256ZM117.856 56.064L116.416 59.808L116.488 56.64L117.856 56.064ZM134.848 51.96L133.552 53.4L132.976 51.024L134.848 51.96ZM100.216 53.184L100.144 53.544C100 54.12 99.7843 54.6 99.4963 54.984L99.2083 55.272L99.0643 53.184L99.7123 52.176L100.936 51.96L100.216 53.184ZM105.112 80.472L105.328 81.912L104.176 80.472L105.4 78.528L105.112 80.472ZM127.072 71.976L127.36 73.416H126.352L124.984 72.264L127.072 71.976ZM156.638 16.176L156.35 18.264C155.198 19.416 153.71 20.256 151.886 20.784C150.11 21.312 148.19 21.576 146.126 21.576C144.926 21.576 143.774 21.504 142.67 21.36C141.614 26.688 140.558 31.992 139.502 37.272L139.79 37.56C142.19 37.56 144.398 37.488 146.414 37.344C148.43 37.2 149.87 36.84 150.734 36.264L152.174 36.552L153.398 38.64C153.398 39.216 153.182 39.792 152.75 40.368C152.366 40.944 151.886 41.352 151.31 41.592C149.774 41.592 148.238 41.616 146.702 41.664C145.166 41.712 143.63 41.76 142.094 41.808C141.47 41.808 140.87 41.808 140.294 41.808C139.478 41.712 138.878 41.664 138.494 41.664C138.014 42.672 137.534 45.072 137.054 48.864C136.622 52.656 136.406 55.464 136.406 57.288C136.406 57.528 136.574 57.936 136.91 58.512C137.102 58.8 137.342 59.184 137.63 59.664C137.918 59.712 138.758 59.904 140.15 60.24C140.966 60.432 141.806 60.528 142.67 60.528C143.438 60.528 145.142 60.192 147.782 59.52C149.126 59.184 150.182 59.016 150.95 59.016L152.102 59.304C152.198 59.832 152.318 60.336 152.462 60.816C152.462 61.248 152.414 61.656 152.318 62.04C152.222 62.424 152.15 62.712 152.102 62.904C151.718 63.72 149.654 64.32 145.91 64.704C142.214 65.088 139.142 65.28 136.694 65.28C136.262 65.28 135.854 65.256 135.47 65.208C135.086 65.16 134.702 65.088 134.318 64.992L132.59 63.48C132.59 63.096 132.542 62.64 132.446 62.112C132.398 61.536 132.35 60.912 132.302 60.24V51.6L132.59 50.448C132.734 49.248 133.19 46.44 133.958 42.024C134.102 41.112 134.894 36.624 136.334 28.56C137.15 23.856 137.606 21.456 137.702 21.36L136.478 20.136V17.76L137.126 17.184C142.358 16.656 147.59 16.128 152.822 15.6C153.59 15.408 154.478 15.312 155.486 15.312L156.638 16.176ZM129.566 32.664L128.774 32.952L128.558 29.64L129.566 32.664ZM148.718 31.584L146.99 30.936L147.206 29.712L148.718 31.584ZM159.518 21.504L157.79 21.936L158.15 20.856L159.518 21.504ZM127.334 58.8L124.31 58.368L128.27 57.504L127.334 58.8ZM145.334 51.672L144.974 53.256L144.182 51.096L144.326 49.296L145.334 51.672ZM145.838 72.12L144.614 72.696L143.822 71.616L144.974 70.824L145.838 72.12ZM159.662 54.84L157.646 55.2L159.302 53.328L159.662 54.84ZM135.83 6.384L136.622 7.536L133.814 8.4L135.83 6.384ZM153.686 10.704L154.118 11.856L152.39 11.424L151.526 9.84L153.686 10.704ZM203.415 12.504L204.783 13.8C204.783 16.344 204.975 19.296 205.359 22.656C206.271 30.672 206.727 35.64 206.727 37.56C206.727 41.784 206.535 47.16 206.151 53.688C205.767 60.216 205.167 64.368 204.351 66.144L202.983 67.152L202.191 66.936L200.823 65.28L200.607 61.32C200.607 58.776 200.823 55.536 201.255 51.6C202.215 42.864 202.695 37.392 202.695 35.184V33.456C202.695 30.384 202.623 27.96 202.479 26.184C202.335 24.36 201.975 22.56 201.399 20.784H201.111L200.319 24.24C199.551 24.384 198.471 27.456 197.079 33.456C195.687 39.456 194.991 43.584 194.991 45.84L193.911 47.424C193.575 47.52 193.263 47.592 192.975 47.64C192.735 47.688 192.423 47.712 192.039 47.712C191.799 47.712 191.343 47.472 190.671 46.992C190.047 46.464 189.711 46.08 189.663 45.84C188.943 41.808 187.839 37.92 186.351 34.176C184.623 29.856 182.679 26.376 180.519 23.736C181.143 27.144 181.575 32.28 181.815 39.144C182.055 46.008 182.367 50.808 182.751 53.544C183.183 56.232 183.471 58.128 183.615 59.232C183.951 61.344 184.119 63 184.119 64.2C184.119 64.44 184.047 64.752 183.903 65.136C183.759 65.52 183.663 65.76 183.615 65.856H182.247C182.055 65.856 181.575 65.568 180.807 64.992C180.039 64.416 179.559 64.008 179.367 63.768C179.367 57.432 179.031 49.248 178.359 39.216C177.543 27.216 176.655 19.44 175.695 15.888L176.631 13.512C177.303 13.272 177.807 13.128 178.143 13.08C178.479 12.984 178.695 12.96 178.791 13.008L180.663 13.8C180.999 14.424 181.311 15.312 181.599 16.464C182.223 18.912 182.703 20.448 183.039 21.072C184.575 24 186.135 26.976 187.719 30C189.303 32.976 190.575 35.952 191.535 38.928C192.879 33.072 194.631 27.048 196.791 20.856C198.567 15.768 199.983 12.984 201.039 12.504H203.415ZM171.159 24.384L171.015 27.192C170.727 26.376 170.511 25.8 170.367 25.464C170.223 25.08 170.007 24.576 169.719 23.952L171.159 24.384ZM190.887 57.576L190.095 56.856L190.023 53.112L191.103 55.632L190.887 57.576ZM173.319 45.912L173.247 48.504L172.455 47.784L172.671 45.48L171.807 44.616L172.887 42.384C172.935 42.96 173.007 43.656 173.103 44.472C173.247 45.288 173.319 45.768 173.319 45.912ZM191.247 22.152L191.175 24.744L189.879 21.288L190.311 20.64L191.247 22.152ZM201.327 8.4L199.599 9.048L199.455 7.68L201.327 8.4ZM201.759 70.68L200.391 71.328L199.023 70.896L200.679 69.816L201.759 70.68ZM212.127 48.792L210.543 50.736L211.695 46.776L212.127 48.792ZM209.823 25.608L208.815 26.976L208.455 25.464L208.671 24.096L209.823 25.608ZM179.079 81.264L179.367 77.88L181.167 75.432C180.879 76.632 180.615 77.616 180.375 78.384C179.943 79.632 179.511 80.592 179.079 81.264ZM227.925 17.4L228.213 18.552L228.141 19.992L226.125 20.928L224.037 20.64C223.413 21.456 222.597 25.704 221.589 33.384C220.629 41.016 220.149 45.984 220.149 48.288C220.149 49.248 220.101 51.144 220.005 53.976C219.909 56.808 219.813 58.272 219.717 58.368L220.293 60.096L219.861 62.112L220.725 61.896C220.965 61.896 221.253 61.92 221.589 61.968C221.973 61.968 222.405 61.968 222.885 61.968C223.365 61.968 223.725 61.944 223.965 61.896C224.685 62.136 225.237 62.688 225.621 63.552C225.141 64.56 224.757 65.232 224.469 65.568C224.037 66.096 223.389 66.456 222.525 66.648L221.301 66.36C221.061 66.6 220.653 66.792 220.077 66.936C219.501 67.128 218.709 67.224 217.701 67.224H216.549V66.936C215.349 66.936 214.389 66.864 213.669 66.72C212.997 66.576 212.517 66.36 212.229 66.072L211.869 64.704L212.661 63.768L215.685 62.688C215.685 58.464 215.973 53.928 216.549 49.08C217.173 44.184 217.797 39.216 218.421 34.176C219.093 29.088 219.429 24.648 219.429 20.856L216.837 21.864L214.821 21.648L214.245 19.992L214.677 18.192C215.109 17.856 215.877 17.4 216.981 16.824C218.085 16.248 218.805 15.96 219.141 15.96C220.101 15.96 221.469 16.056 223.245 16.248C225.021 16.392 226.173 16.464 226.701 16.464C226.989 16.992 227.397 17.304 227.925 17.4ZM211.653 40.944L211.221 43.104L211.293 43.824L210.717 43.536L210.429 41.808L210.717 39.216L211.653 40.944ZM226.701 35.904L226.629 37.056L225.477 36.48L226.701 35.904ZM214.101 11.784L214.605 10.488L214.965 12.288L214.533 13.224L213.813 12.648L212.517 12.36L214.101 11.784ZM222.669 5.88L223.533 6.312L224.325 7.176L223.245 7.104L221.445 6.168L222.669 5.88ZM208.917 64.776C209.013 64.872 209.133 65.088 209.277 65.424C209.373 65.712 209.445 66 209.493 66.288L208.053 65.424L208.917 64.776ZM231.813 20.928H232.677L233.037 21.72L234.189 21.864L232.965 22.944L232.461 22.08L231.381 22.296L231.813 20.928ZM225.189 53.904L228.573 54.552L228.789 55.92L226.485 54.912L225.909 56.784C225.765 56.4 225.525 55.968 225.189 55.488C224.901 54.96 224.613 54.576 224.325 54.336L225.189 53.904ZM222.597 74.064L223.749 75.648L223.605 79.248L222.237 78.312L222.597 76.584L221.661 74.064H222.597ZM258.822 12.504L260.19 13.8C260.19 16.344 260.382 19.296 260.766 22.656C261.678 30.672 262.134 35.64 262.134 37.56C262.134 41.784 261.942 47.16 261.558 53.688C261.174 60.216 260.574 64.368 259.758 66.144L258.39 67.152L257.598 66.936L256.23 65.28L256.014 61.32C256.014 58.776 256.23 55.536 256.662 51.6C257.622 42.864 258.102 37.392 258.102 35.184V33.456C258.102 30.384 258.03 27.96 257.886 26.184C257.742 24.36 257.382 22.56 256.806 20.784H256.518L255.726 24.24C254.958 24.384 253.878 27.456 252.486 33.456C251.094 39.456 250.398 43.584 250.398 45.84L249.318 47.424C248.982 47.52 248.67 47.592 248.382 47.64C248.142 47.688 247.83 47.712 247.446 47.712C247.206 47.712 246.75 47.472 246.078 46.992C245.454 46.464 245.118 46.08 245.07 45.84C244.35 41.808 243.246 37.92 241.758 34.176C240.03 29.856 238.086 26.376 235.926 23.736C236.55 27.144 236.982 32.28 237.222 39.144C237.462 46.008 237.774 50.808 238.158 53.544C238.59 56.232 238.878 58.128 239.022 59.232C239.358 61.344 239.526 63 239.526 64.2C239.526 64.44 239.454 64.752 239.31 65.136C239.166 65.52 239.07 65.76 239.022 65.856H237.654C237.462 65.856 236.982 65.568 236.214 64.992C235.446 64.416 234.966 64.008 234.774 63.768C234.774 57.432 234.438 49.248 233.766 39.216C232.95 27.216 232.062 19.44 231.102 15.888L232.038 13.512C232.71 13.272 233.214 13.128 233.55 13.08C233.886 12.984 234.102 12.96 234.198 13.008L236.07 13.8C236.406 14.424 236.718 15.312 237.006 16.464C237.63 18.912 238.11 20.448 238.446 21.072C239.982 24 241.542 26.976 243.126 30C244.71 32.976 245.982 35.952 246.942 38.928C248.286 33.072 250.038 27.048 252.198 20.856C253.974 15.768 255.39 12.984 256.446 12.504H258.822ZM226.566 24.384L226.422 27.192C226.134 26.376 225.918 25.8 225.774 25.464C225.63 25.08 225.414 24.576 225.126 23.952L226.566 24.384ZM246.294 57.576L245.502 56.856L245.43 53.112L246.51 55.632L246.294 57.576ZM228.726 45.912L228.654 48.504L227.862 47.784L228.078 45.48L227.214 44.616L228.294 42.384C228.342 42.96 228.414 43.656 228.51 44.472C228.654 45.288 228.726 45.768 228.726 45.912ZM246.654 22.152L246.582 24.744L245.286 21.288L245.718 20.64L246.654 22.152ZM256.734 8.4L255.006 9.048L254.862 7.68L256.734 8.4ZM257.166 70.68L255.798 71.328L254.43 70.896L256.086 69.816L257.166 70.68ZM267.534 48.792L265.95 50.736L267.102 46.776L267.534 48.792ZM265.23 25.608L264.222 26.976L263.862 25.464L264.078 24.096L265.23 25.608ZM234.486 81.264L234.774 77.88L236.574 75.432C236.286 76.632 236.022 77.616 235.782 78.384C235.35 79.632 234.918 80.592 234.486 81.264Z" fill="white"/>
</svg>
